<?xml version="1.0" standalone="yes"?>
<svg xmlns="http://www.w3.org/2000/svg" width="200" height="200">
<path style="fill:#ffffff; stroke:none;" d="M0 0L0 13L1 13C2.26403 6.73515 6.73516 2.26402 13 1L0 0z"/>
<path style="fill:#411f51; stroke:none;" d="M13 0L14 1L13 0z"/>
<path style="fill:#1c1c1c; stroke:none;" d="M14 0.46759C-4.68246 3.99939 0 27.9168 0 42L0 151C0 162.886 -4.00397 183.922 3.65201 193.895C12.0144 204.789 36.8839 200 49 200L141 200C155.503 200 172.85 202.59 187 199.319C204.646 195.24 200 171.602 200 158L200 49C200 37.1161 204.005 16.0756 196.348 6.10493C188.024 -4.73503 163.035 0 151 0L60 0C45.289 0 28.4616 -2.26628 14 0.46759z"/>
<path style="fill:#411f51; stroke:none;" d="M186 0L187 1L186 0z"/>
<path style="fill:#ffffff; stroke:none;" d="M187 0L187 1C193.265 2.26404 197.736 6.73515 199 13L200 13L200 0L187 0z"/>
<path style="fill:#411f51; stroke:none;" d="M9 1L10 2L9 1M190 1L191 2L190 1M7 2L8 3L7 2M192 2L193 3L192 2M2 7L3 8L2 7M197 7L198 8L197 7M1 9L2 10L1 9M198 9L199 10L198 9z"/>
<path style="fill:#602979; stroke:none;" d="M10 10L10 11L192 11L174 10L138 10L10 10z"/>
<path style="fill:#7d359f; stroke:none;" d="M10 11L10 143L192 143L192 11L10 11z"/>
<path style="fill:#411f51; stroke:none;" d="M0 13L1 14L0 13M199 13L200 14L199 13z"/>
<path style="fill:#602979; stroke:none;" d="M100 48L99 50L100 48z"/>
<path style="fill:#411f51; stroke:none;" d="M101 48L102 49L101 48z"/>
<path style="fill:#1c1c1c; stroke:none;" d="M100 49C96.1241 54.9502 90.9198 73.4308 83.8958 75.5787C80.3156 76.6735 75.0015 72.604 72 70.9784C63.8488 66.5637 54.2033 60.4547 45 59L45 60L54 84L61.3032 96.2577L79 97L122 97L140.442 95.9722L145.401 86.5764L155 59L116 77L102 49L100 49z"/>
<path style="fill:#411f51; stroke:none;" d="M98 50L99 51L98 50z"/>
<path style="fill:#602979; stroke:none;" d="M98 51L99 52L98 51M103 51L105 54L103 51z"/>
<path style="fill:#411f51; stroke:none;" d="M97 52L98 53L97 52M103 53L104 54L103 53z"/>
<path style="fill:#602979; stroke:none;" d="M96 54L97 55L96 54z"/>
<path style="fill:#411f51; stroke:none;" d="M95.3333 55.6667L95.6667 56.3333L95.3333 55.6667z"/>
<path style="fill:#602979; stroke:none;" d="M106 56L107 57L106 56M95 57L94 59L95 57z"/>
<path style="fill:#411f51; stroke:none;" d="M106 57L106 60L107 60L106 57z"/>
<path style="fill:#602979; stroke:none;" d="M45 58L45 59L48 59L45 58z"/>
<path style="fill:#411f51; stroke:none;" d="M95 58L96 59L95 58z"/>
<path style="fill:#602979; stroke:none;" d="M152 58L152 59L155 59L152 58z"/>
<path style="fill:#411f51; stroke:none;" d="M48 59L49 60L48 59M155 59L154 63L155 63L155 59M46 60L47 61L46 60z"/>
<path style="fill:#602979; stroke:none;" d="M51 60L52 61L51 60M150 60L151 61L150 60M46 61L47 62L46 61z"/>
<path style="fill:#411f51; stroke:none;" d="M52 61L53 62L52 61z"/>
<path style="fill:#602979; stroke:none;" d="M92 61L93 62L92 61M147 61L148 62L147 61z"/>
<path style="fill:#411f51; stroke:none;" d="M149 61L150 62L149 61M46 62L47 63L46 62M53.6667 62.3333L54.3333 62.6667L53.6667 62.3333z"/>
<path style="fill:#602979; stroke:none;" d="M55 62L56 63L55 62z"/>
<path style="fill:#411f51; stroke:none;" d="M92.3333 62.6667L92.6667 63.3333L92.3333 62.6667M108 62L109 65L110 65L108 62z"/>
<path style="fill:#602979; stroke:none;" d="M109 62L110 63L109 62M144 62L145 63L144 62z"/>
<path style="fill:#411f51; stroke:none;" d="M145 62L146 63L145 62z"/>
<path style="fill:#602979; stroke:none;" d="M146 62L147 63L146 62M155 62L156 63L155 62M46 63L47 64L46 63M56 63L57 64L56 63M58 63L59 64L58 63z"/>
<path style="fill:#411f51; stroke:none;" d="M144 63L145 64L144 63M110 65L111 66L110 65z"/>
<path style="fill:#602979; stroke:none;" d="M63 66L64 67L63 66M89 66L90 67L89 66z"/>
<path style="fill:#411f51; stroke:none;" d="M90 66L91 67L90 66M97 66L97 67L104 68L97 66M137.667 66.3333L138.333 66.6667L137.667 66.3333M152 66L153 67L152 66z"/>
<path style="fill:#602979; stroke:none;" d="M153 66L154 67L153 66M64 67L64 68L67 68L64 67z"/>
<path style="fill:#411f51; stroke:none;" d="M89 67L89 70L90 70L89 67z"/>
<path style="fill:#602979; stroke:none;" d="M97.3333 67.6667L97.6667 68.3333L97.3333 67.6667z"/>
<path style="fill:#7d359f; stroke:none;" d="M106 69C91.0955 62.7181 100.605 81.9887 106 69z"/>
<path style="fill:#411f51; stroke:none;" d="M111 67L112 68L111 67z"/>
<path style="fill:#602979; stroke:none;" d="M134.667 67.3333L135.333 67.6667L134.667 67.3333z"/>
<path style="fill:#411f51; stroke:none;" d="M136 67L137 68L136 67z"/>
<path style="fill:#602979; stroke:none;" d="M152 67L152 70L153 70L152 67z"/>
<path style="fill:#411f51; stroke:none;" d="M48 68L49 69L48 68z"/>
<path style="fill:#602979; stroke:none;" d="M104 68L105 69L104 68z"/>
<path style="fill:#411f51; stroke:none;" d="M112 68L112 71L113 71L112 68z"/>
<path style="fill:#602979; stroke:none;" d="M133 68L134 69L133 68z"/>
<path style="fill:#411f51; stroke:none;" d="M49 69L50 70L49 69M69 69L70 70L69 69M132 69L133 70L132 69z"/>
<path style="fill:#602979; stroke:none;" d="M49 70L49 73L50 73L49 70z"/>
<path style="fill:#411f51; stroke:none;" d="M88 70L89 71L88 70M95.3333 70.6667L95.6667 71.3333L95.3333 70.6667M106 70L107 71L106 70M129 70L130 71L129 70z"/>
<path style="fill:#602979; stroke:none;" d="M151 70L152 71L151 70z"/>
<path style="fill:#411f51; stroke:none;" d="M72.6667 71.3333L73.3333 71.6667L72.6667 71.3333M105 71L106 72L105 71M113 71L114 72L113 71z"/>
<path style="fill:#602979; stroke:none;" d="M126 71L127 72L126 71z"/>
<path style="fill:#411f51; stroke:none;" d="M127.667 71.3333L128.333 71.6667L127.667 71.3333M150 71L151 72L150 71M74 72L75 73L74 72z"/>
<path style="fill:#602979; stroke:none;" d="M75.6667 72.3333L76.3333 72.6667L75.6667 72.3333M87 72L88 73L87 72M96 72L97 73L96 72M104.333 72.6667L104.667 73.3333L104.333 72.6667M114.333 72.6667L114.667 73.3333L114.333 72.6667M125 72L126 73L125 72z"/>
<path style="fill:#411f51; stroke:none;" d="M77 73L78 74L77 73M86.3333 73.6667L86.6667 74.3333L86.3333 73.6667z"/>
<path style="fill:#602979; stroke:none;" d="M97 73L98 74L97 73z"/>
<path style="fill:#411f51; stroke:none;" d="M124 73L125 74L124 73z"/>
<path style="fill:#602979; stroke:none;" d="M62 74L61 76L62 74z"/>
<path style="fill:#7d359f; stroke:none;" d="M63.3179 75.2014C59.3823 77.3207 63.0839 82.0106 66.6821 80.3773C70.6079 78.5953 66.8548 73.2968 63.3179 75.2014z"/>
<path style="fill:#602979; stroke:none;" d="M64.6667 74.3333L65.3333 74.6667L64.6667 74.3333M67 74L68 75L67 74z"/>
<path style="fill:#411f51; stroke:none;" d="M78 74L79 75L78 74M98 74L99 75L98 74z"/>
<path style="fill:#602979; stroke:none;" d="M101 74L102 75L101 74z"/>
<path style="fill:#411f51; stroke:none;" d="M115.333 74.6667L115.667 75.3333L115.333 74.6667z"/>
<path style="fill:#602979; stroke:none;" d="M121 74L122 75L121 74M134 74L132 77L134 74z"/>
<path style="fill:#7d359f; stroke:none;" d="M131 77C137.024 88.4899 145.834 69.222 131 77z"/>
<path style="fill:#602979; stroke:none;" d="M136.667 74.3333L137.333 74.6667L136.667 74.3333M139 74L140 75L139 74M68 75L70 77L68 75z"/>
<path style="fill:#411f51; stroke:none;" d="M69 75L70 76L69 75M80.6667 75.3333L81.3333 75.6667L80.6667 75.3333M85 75L86 76L85 75M99.6667 75.3333L100.333 75.6667L99.6667 75.3333z"/>
<path style="fill:#602979; stroke:none;" d="M118 75L119 76L118 75z"/>
<path style="fill:#411f51; stroke:none;" d="M119.667 75.3333L120.333 75.6667L119.667 75.3333z"/>
<path style="fill:#602979; stroke:none;" d="M140 75L141 76L140 75z"/>
<path style="fill:#411f51; stroke:none;" d="M149 75L150 76L149 75z"/>
<path style="fill:#602979; stroke:none;" d="M150 75L151 76L150 75z"/>
<path style="fill:#411f51; stroke:none;" d="M51 76L52 77L51 76M60 76L60 80L61 80L60 76M82 76L83 77L82 76z"/>
<path style="fill:#602979; stroke:none;" d="M83 76L84 77L83 76z"/>
<path style="fill:#411f51; stroke:none;" d="M84 76L85 77L84 76z"/>
<path style="fill:#602979; stroke:none;" d="M116.667 76.3333L117.333 76.6667L116.667 76.3333z"/>
<path style="fill:#411f51; stroke:none;" d="M141 76L141 80L142 80L141 76z"/>
<path style="fill:#602979; stroke:none;" d="M149 76L149 79L150 79L149 76M52 77L52 80L53 80L52 77z"/>
<path style="fill:#411f51; stroke:none;" d="M69.3333 77.6667L69.6667 78.3333L69.3333 77.6667z"/>
<path style="fill:#602979; stroke:none;" d="M69 79L70 80L69 79M132 79L133 80L132 79M148 79L149 80L148 79z"/>
<path style="fill:#411f51; stroke:none;" d="M53 80L54 81L53 80M61 80L62 81L61 80z"/>
<path style="fill:#602979; stroke:none;" d="M68 80L69 81L68 80z"/>
<path style="fill:#411f51; stroke:none;" d="M132.333 80.6667L132.667 81.3333L132.333 80.6667M140 80L141 81L140 80M147 80L148 81L147 80M54.3333 81.6667L54.6667 82.3333L54.3333 81.6667M62 81L63 82L62 81z"/>
<path style="fill:#602979; stroke:none;" d="M63 81L63 82L68 82L63 81M133 81L133 82L139 82L133 81z"/>
<path style="fill:#411f51; stroke:none;" d="M139 81L140 82L139 81M147 82L148 83L147 82z"/>
<path style="fill:#602979; stroke:none;" d="M146 83L146 87L147 87L146 83z"/>
<path style="fill:#411f51; stroke:none;" d="M55 84L56 85L55 84z"/>
<path style="fill:#602979; stroke:none;" d="M55 85L55 88L56 88L55 85z"/>
<path style="fill:#411f51; stroke:none;" d="M144 87L144 90L145 90L144 87M57 89L57 92L58 92L57 89z"/>
<path style="fill:#602979; stroke:none;" d="M144 90L145 91L144 90M58 92L58 96L59 96L58 92M143.333 92.6667L143.667 93.3333L143.333 92.6667z"/>
<path style="fill:#411f51; stroke:none;" d="M142 94L143 95L142 94M141.333 95.6667L141.667 96.3333L141.333 95.6667M60 96L61 97L60 96z"/>
<path style="fill:#602979; stroke:none;" d="M61 97L61 98L141 98L116 97L61 97z"/>
<path style="fill:#1c1c1c; stroke:none;" d="M62 102L62 112L140 112C139.955 99.3148 129.991 102 120 102L62 102z"/>
<path style="fill:#602979; stroke:none;" d="M138 102L139 103L138 102M61 103L61 112L62 112L61 103z"/>
<path style="fill:#411f51; stroke:none;" d="M139 103L140 104L139 103z"/>
<path style="fill:#602979; stroke:none;" d="M140 104L140 112L141 112L140 104M62 112L63 113L62 112z"/>
<path style="fill:#411f51; stroke:none;" d="M63 112L63 113L139 113L115 112L63 112z"/>
<path style="fill:#602979; stroke:none;" d="M139 112L140 113L139 112z"/>
<path style="fill:#ffffff; stroke:none;" d="M28 158L25 182L30 182L30 178L35 178L35 182L40 182L37 158L28 158M42 158L42 182C45.3232 182 50.8118 182.981 53.3966 180.397C59.2076 174.586 53.7019 166.218 47 166L47 162L53 162L53 158L42 158M72 172L67 172L67 178L64 178L64 162L67 162L67 168L72 168C71.8565 155.861 59.1739 155.762 59.0039 168C58.9543 171.564 58.2447 176.637 60.7423 179.566C66.7572 186.621 71.8667 177.511 72 172M79.2284 159.032C72.8584 162.789 74.822 186.835 84.7716 180.968C91.1416 177.211 89.178 153.166 79.2284 159.032M92 158L90 182C99.6654 181.263 97 170.275 97 163L101 163L101 182L106 182L106 158L92 158M110 158L110 182L115 182L115 172L117 172C117.135 183.432 129.768 185.118 129.995 173C130.066 169.258 130.994 163.399 128.397 160.318C122.847 153.735 117.182 161.383 117 167L115 167L115 158L110 158M132 158L132 163L137 163L137 182L142 182L142 163L146 163L146 158L132 158M148 158L148 182L153 182L153 172L156 172L156 182L161 182L161 158L156 158L156 167L153 167L153 158L148 158M168.228 159.032C161.858 162.789 163.822 186.835 173.772 180.968C180.142 177.211 178.178 153.165 168.228 159.032z"/>
<path style="fill:#1c1c1c; stroke:none;" d="M32 162L31 174L34 174L32 162M81 162L81 178L83 178L83 162L81 162M122 162L122 178L125 178L125 162L122 162M170 162L170 178L172 178L172 162L170 162M47 170L47 178L50 178L50 170L47 170z"/>
<path style="fill:#411f51; stroke:none;" d="M0 186L1 187L0 186M199 186L200 187L199 186z"/>
<path style="fill:#ffffff; stroke:none;" d="M0 187L0 200L13 200L13 199C6.07608 197.603 3.28711 192.69 0 187M199 187C197.736 193.265 193.265 197.736 187 199L187 200L200 200L199 187z"/>
<path style="fill:#411f51; stroke:none;" d="M1 190L2 191L1 190M198 190L199 191L198 190M2 192L3 193L2 192M197 192L198 193L197 192M7 197L8 198L7 197M192 197L193 198L192 197M9 198L10 199L9 198M190 198L191 199L190 198M186 199L187 200L186 199z"/>
</svg>
