<?xml version="1.0" standalone="yes"?>
<svg xmlns="http://www.w3.org/2000/svg" width="200" height="200">
<path style="fill:#ffffff; stroke:none;" d="M0 0L0 13L1 13C2.26403 6.73515 6.73516 2.26402 13 1L0 0z"/>
<path style="fill:#2e3241; stroke:none;" d="M13.6667 0.333328L14.3333 0.666672L13.6667 0.333328z"/>
<path style="fill:#1a1a1a; stroke:none;" d="M15 0.439819C-4.33862 3.55472 0 26.3564 0 41L0 151C0 162.838 -3.96393 183.931 3.65278 193.895C11.8951 204.678 37.0674 200 49 200L141 200C155.687 200 172.621 202.313 187 199.181C204.567 195.353 200 171.477 200 158L200 49C200 37.1625 203.964 16.0691 196.347 6.10493C188.105 -4.67767 162.933 0 151 0L61 0C46.11 0 29.7061 -1.92892 15 0.439819z"/>
<path style="fill:#2e3241; stroke:none;" d="M185.667 0.333328L186.333 0.666672L185.667 0.333328z"/>
<path style="fill:#ffffff; stroke:none;" d="M187 0L187 1C193.265 2.26404 197.736 6.73515 199 13L200 13L200 0L187 0z"/>
<path style="fill:#2e3241; stroke:none;" d="M9 1L10 2L9 1M190 1L191 2L190 1M7 2L8 3L7 2M192 2L193 3L192 2M2 7L3 8L2 7M197 7L198 8L197 7M1 9L2 10L1 9M198 9L199 10L198 9z"/>
<path style="fill:#818fc7; stroke:none;" d="M9 10L9 143L191 143L191 10L9 10z"/>
<path style="fill:#2e3241; stroke:none;" d="M0.333333 13.6667L0.666667 14.3333L0.333333 13.6667M199.333 13.6667L199.667 14.3333L199.333 13.6667z"/>
<path style="fill:#4b5473; stroke:none;" d="M54 21L55 22L54 21z"/>
<path style="fill:#2e3241; stroke:none;" d="M55 21L54 24L55 24L55 21z"/>
<path style="fill:#1a1a1a; stroke:none;" d="M55 22L55 131L56 131L83.7392 98.8302L103 77L103 76L55 22z"/>
<path style="fill:#4b5473; stroke:none;" d="M95 22L95 23L99 25L95 22M56 23L57 24L56 23z"/>
<path style="fill:#2e3241; stroke:none;" d="M95.3333 23.6667L95.6667 24.3333L95.3333 23.6667z"/>
<path style="fill:#1a1a1a; stroke:none;" d="M96 23C96 40.1171 90.6584 63.9237 105 76L105 77C90.6584 89.0763 96 112.883 96 130L144 77L144 76L96 23z"/>
<path style="fill:#4b5473; stroke:none;" d="M54 24L54 129L55 129L55 56L54 24M57 24L58 25L57 24z"/>
<path style="fill:#2e3241; stroke:none;" d="M58 25L59 26L58 25z"/>
<path style="fill:#4b5473; stroke:none;" d="M95 25L95 64L96 64C96 52.8277 99.3111 35.274 95 25z"/>
<path style="fill:#2e3241; stroke:none;" d="M99 25L100 26L99 25z"/>
<path style="fill:#4b5473; stroke:none;" d="M59 27L60 28L59 27M100 27L101 28L100 27z"/>
<path style="fill:#2e3241; stroke:none;" d="M60 28L61 29L60 28M101 28L102 29L101 28z"/>
<path style="fill:#4b5473; stroke:none;" d="M63 30L64 31L63 30M104 30L105 31L104 30M64 31L65 32L64 31z"/>
<path style="fill:#2e3241; stroke:none;" d="M104.333 31.6667L104.667 32.3333L104.333 31.6667z"/>
<path style="fill:#4b5473; stroke:none;" d="M65.3333 32.6667L65.6667 33.3333L65.3333 32.6667M106 33L107 34L106 33M66 34L67 35L66 34M107 34L108 35L107 34z"/>
<path style="fill:#2e3241; stroke:none;" d="M67 35L68 36L67 35M107 35L108 36L107 35z"/>
<path style="fill:#4b5473; stroke:none;" d="M68.3333 36.6667L68.6667 37.3333L68.3333 36.6667M108 36L109 37L108 36M109 37L110 38L109 37z"/>
<path style="fill:#2e3241; stroke:none;" d="M69 38L70 39L69 38M110 38L111 39L110 38M111 39L112 40L111 39M71 40L72 43L73 43L71 40z"/>
<path style="fill:#4b5473; stroke:none;" d="M72 40L73 41L72 40z"/>
<path style="fill:#2e3241; stroke:none;" d="M112 40L113 43L114 43L112 40z"/>
<path style="fill:#4b5473; stroke:none;" d="M113 40L114 41L113 40M74 43L75 44L74 43M115 43L116 44L115 43M75 44L76 45L75 44M116 44L117 45L116 44z"/>
<path style="fill:#2e3241; stroke:none;" d="M75 45L76 46L75 45M116.333 45.6667L116.667 46.3333L116.333 45.6667z"/>
<path style="fill:#4b5473; stroke:none;" d="M76 46L77 47L76 46M117 46L118 47L117 46M77 47L78 48L77 47M118 47L119 48L118 47z"/>
<path style="fill:#2e3241; stroke:none;" d="M78 48L79 49L78 48M119.333 48.6667L119.667 49.3333L119.333 48.6667M79 49L80 50L79 49z"/>
<path style="fill:#4b5473; stroke:none;" d="M80 49L80 52L81 52L80 49M120 50L121 51L120 50M121 51L122 52L121 51z"/>
<path style="fill:#2e3241; stroke:none;" d="M122 52L123 53L122 52z"/>
<path style="fill:#4b5473; stroke:none;" d="M83 53L84 54L83 53M124 53L125 54L124 53M84 54L85 55L84 54M125 54L126 55L125 54M85 56L86 57L85 56M86 57L87 58L86 57M127 57L128 58L127 57z"/>
<path style="fill:#2e3241; stroke:none;" d="M87 58L88 59L87 58M128 58L129 59L128 58M88 59L89 60L88 59z"/>
<path style="fill:#4b5473; stroke:none;" d="M89.3333 60.6667L89.6667 61.3333L89.3333 60.6667M129 60L130 61L129 60M130 61L131 62L130 61z"/>
<path style="fill:#2e3241; stroke:none;" d="M131 62L132 63L131 62z"/>
<path style="fill:#4b5473; stroke:none;" d="M92.3333 63.6667L92.6667 64.3333L92.3333 63.6667z"/>
<path style="fill:#2e3241; stroke:none;" d="M95 64L96 65L95 64M132 64L133 65L132 64M92 65L93 66L92 65z"/>
<path style="fill:#4b5473; stroke:none;" d="M95 65L99 72L95 65z"/>
<path style="fill:#2e3241; stroke:none;" d="M133 65L134 66L133 65z"/>
<path style="fill:#818fc7; stroke:none;" d="M96 67L101 73L96 67z"/>
<path style="fill:#4b5473; stroke:none;" d="M136 67L138 70L136 67z"/>
<path style="fill:#2e3241; stroke:none;" d="M98 68L99 69L98 68M95 69L96 70L95 69M99 69L100 70L99 69M136 69L137 70L136 69z"/>
<path style="fill:#4b5473; stroke:none;" d="M138 70L139 71L138 70M139 71L140 72L139 71z"/>
<path style="fill:#2e3241; stroke:none;" d="M99 72L100 73L99 72z"/>
<path style="fill:#4b5473; stroke:none;" d="M101 72L102 76L103 76L101 72z"/>
<path style="fill:#2e3241; stroke:none;" d="M140 72L141 73L140 72M100 73L101 74L100 73z"/>
<path style="fill:#818fc7; stroke:none;" d="M102 74L103 75L102 74z"/>
<path style="fill:#4b5473; stroke:none;" d="M141 74L142 75L141 74z"/>
<path style="fill:#2e3241; stroke:none;" d="M101 75L102 76L101 75M103 75L104 76L103 75M142 75L143 76L142 75z"/>
<path style="fill:#818fc7; stroke:none;" d="M103 76L104 77L103 76z"/>
<path style="fill:#4b5473; stroke:none;" d="M104 76L105 77L104 76z"/>
<path style="fill:#2e3241; stroke:none;" d="M101 77L102 78L101 77z"/>
<path style="fill:#4b5473; stroke:none;" d="M102 77L101 81L102 81L102 77z"/>
<path style="fill:#2e3241; stroke:none;" d="M103 77L104 78L103 77M142 77L143 78L142 77z"/>
<path style="fill:#818fc7; stroke:none;" d="M102 78L103 79L102 78z"/>
<path style="fill:#4b5473; stroke:none;" d="M141 78L142 79L141 78z"/>
<path style="fill:#2e3241; stroke:none;" d="M100 79L99 81L100 79z"/>
<path style="fill:#818fc7; stroke:none;" d="M100 80L101 81L100 80z"/>
<path style="fill:#2e3241; stroke:none;" d="M140 80L141 81L140 80z"/>
<path style="fill:#4b5473; stroke:none;" d="M98 81L95 88L96 88L98 81z"/>
<path style="fill:#818fc7; stroke:none;" d="M99 81L96 86L99 81z"/>
<path style="fill:#4b5473; stroke:none;" d="M139 81L140 82L139 81M138 82L139 83L138 82z"/>
<path style="fill:#2e3241; stroke:none;" d="M95 83L96 84L95 83M99 83L100 84L99 83M136 83L137 84L136 83z"/>
<path style="fill:#4b5473; stroke:none;" d="M137 83L138 84L137 83z"/>
<path style="fill:#2e3241; stroke:none;" d="M98 84L99 85L98 84z"/>
<path style="fill:#4b5473; stroke:none;" d="M136.333 84.6667L136.667 85.3333L136.333 84.6667z"/>
<path style="fill:#2e3241; stroke:none;" d="M92 87L93 88L92 87M133 87L134 88L133 87z"/>
<path style="fill:#4b5473; stroke:none;" d="M92.3333 88.6667L92.6667 89.3333L92.3333 88.6667z"/>
<path style="fill:#2e3241; stroke:none;" d="M95 88L96 89L95 88M132 88L133 89L132 88z"/>
<path style="fill:#4b5473; stroke:none;" d="M95 89L95 128L96 128C96 116.828 99.3111 99.274 95 89z"/>
<path style="fill:#2e3241; stroke:none;" d="M131 90L132 91L131 90z"/>
<path style="fill:#4b5473; stroke:none;" d="M89 91L90 92L89 91M130 91L131 92L130 91M88 92L89 93L88 92M129 92L130 93L129 92z"/>
<path style="fill:#2e3241; stroke:none;" d="M87 94L88 95L87 94M128 94L129 95L128 94z"/>
<path style="fill:#4b5473; stroke:none;" d="M86 95L87 96L86 95M127 95L128 96L127 95M85 96L86 97L85 96M84 98L85 99L84 98M125 98L126 99L125 98M83 99L84 100L83 99M124 99L125 100L124 99z"/>
<path style="fill:#2e3241; stroke:none;" d="M122 100L123 101L122 100z"/>
<path style="fill:#4b5473; stroke:none;" d="M80 101L80 104L81 104L80 101M121 101L122 102L121 101M120 102L121 103L120 102z"/>
<path style="fill:#2e3241; stroke:none;" d="M79 103L80 104L79 103M119.333 103.667L119.667 104.333L119.333 103.667M78 104L79 105L78 104z"/>
<path style="fill:#4b5473; stroke:none;" d="M77 105L78 106L77 105M118 105L119 106L118 105M76 106L77 107L76 106z"/>
<path style="fill:#2e3241; stroke:none;" d="M116.333 106.667L116.667 107.333L116.333 106.667z"/>
<path style="fill:#4b5473; stroke:none;" d="M117 106L118 107L117 106z"/>
<path style="fill:#2e3241; stroke:none;" d="M75 107L76 108L75 107z"/>
<path style="fill:#4b5473; stroke:none;" d="M75 108L76 109L75 108M116 108L117 109L116 108M74 109L75 110L74 109M115 109L116 110L115 109z"/>
<path style="fill:#2e3241; stroke:none;" d="M113 110L114 111L113 110z"/>
<path style="fill:#4b5473; stroke:none;" d="M71 111L71 114L72 114L71 111M112 111L113 112L112 111z"/>
<path style="fill:#2e3241; stroke:none;" d="M69 114L70 115L69 114M110 114L111 115L110 114z"/>
<path style="fill:#4b5473; stroke:none;" d="M68.3333 115.667L68.6667 116.333L68.3333 115.667M109 115L110 116L109 115M108 116L109 117L108 116z"/>
<path style="fill:#2e3241; stroke:none;" d="M67 117L68 118L67 117M107 117L108 118L107 117z"/>
<path style="fill:#4b5473; stroke:none;" d="M66 118L67 119L66 118M107 118L108 119L107 118M65.3333 119.667L65.6667 120.333L65.3333 119.667M106 119L107 120L106 119z"/>
<path style="fill:#2e3241; stroke:none;" d="M104.333 120.667L104.667 121.333L104.333 120.667z"/>
<path style="fill:#4b5473; stroke:none;" d="M64 121L65 122L64 121M63 122L64 123L63 122M104 122L105 123L104 122z"/>
<path style="fill:#2e3241; stroke:none;" d="M60 124L61 125L60 124M101 124L102 125L101 124z"/>
<path style="fill:#4b5473; stroke:none;" d="M59 125L60 126L59 125M100 125L101 126L100 125z"/>
<path style="fill:#2e3241; stroke:none;" d="M58 127L59 128L58 127M99 127L100 128L99 127z"/>
<path style="fill:#4b5473; stroke:none;" d="M57 128L58 129L57 128z"/>
<path style="fill:#2e3241; stroke:none;" d="M95.3333 128.667L95.6667 129.333L95.3333 128.667z"/>
<path style="fill:#4b5473; stroke:none;" d="M98 128L99 129L98 128z"/>
<path style="fill:#2e3241; stroke:none;" d="M54 129L56 132L54 129z"/>
<path style="fill:#4b5473; stroke:none;" d="M56 129L57 130L56 129M97 129L98 130L97 129M95.6667 130.333L96.3333 130.667L95.6667 130.333M54 131L55 132L54 131z"/>
<path style="fill:#ffffff; stroke:none;" d="M33 157L31 177L35 177L35 173L38 173L38 177L42 177L40 157L33 157M44 157L44 177L48 177L48 168L56 177L52 167L52 166L56 157L48 165L48 157L44 157M68 168L64 168L64 174L61 174L61 160L64 160L64 165L68 165C67.7421 160.333 62.6351 152.973 58.179 159.434C56.4393 161.956 56.9251 166.1 57.0154 168.999C57.3468 179.636 67.6863 177.659 68 168M71 157L71 177L79 177L79 173L75 173L75 169L78 169L78 165L75 165L75 161L78 161L78 157L71 157M82 157L80 177C87.9342 175.735 86 167.298 86 161L89 161L89 177L93 177L93 157L82 157M96 157L96 177L104 177L104 173L100 173L100 169L103 169L103 165L100 165L100 161L103 161L103 157L96 157M106 157L106 177L110 177L110 169C114.939 168.623 120.231 163.442 115.397 158.603C113.144 156.349 108.892 157.002 106 157M120 157L118 177L122 177L122 173L125 173L125 177L129 177L127 157L120 157M131 157L131 177L140 177L140 180L144 180L143 157L139 157L139 173L135 173L135 157L131 157M145 157L145 177C149.922 176.148 150.599 172.551 151 168L152 168L152 177L156 177L156 157C151.078 157.852 150.401 161.449 150 166L149 166L149 157L145 157M161 166L161 167L159 177L163 177L163 168L165 168L165 177L169 177L169 157C163.289 157.02 155.872 159.188 161 166z"/>
<path style="fill:#1a1a1a; stroke:none;" d="M36 160L35 170L38 170L36 160M110 160L110 166L113 166L113 160L110 160M123 160L122 170L125 170L123 160M163 160L163 164L165 164L165 160L163 160z"/>
<path style="fill:#2e3241; stroke:none;" d="M0.333333 185.667L0.666667 186.333L0.333333 185.667M199.333 185.667L199.667 186.333L199.333 185.667z"/>
<path style="fill:#ffffff; stroke:none;" d="M0 187L0 200L13 200L13 199C6.07608 197.603 3.28711 192.69 0 187z"/>
<path style="fill:#2e3241; stroke:none;" d="M13 187L15 189L13 187M186 187L185 189L186 187z"/>
<path style="fill:#ffffff; stroke:none;" d="M199 187C197.736 193.265 193.265 197.736 187 199L187 200L200 200L199 187z"/>
<path style="fill:#2e3241; stroke:none;" d="M1 190L2 191L1 190M198 190L199 191L198 190M2 192L3 193L2 192M197 192L198 193L197 192M7 197L8 198L7 197M192 197L193 198L192 197M9 198L10 199L9 198M190 198L191 199L190 198M13.6667 199.333L14.3333 199.667L13.6667 199.333M185.667 199.333L186.333 199.667L185.667 199.333z"/>
</svg>
