<?xml version="1.0" standalone="yes"?>
<svg xmlns="http://www.w3.org/2000/svg" width="200" height="200">
<path style="fill:#ffffff; stroke:none;" d="M0 0L0 13L1 13C2.26403 6.73515 6.73516 2.26402 13 1L0 0z"/>
<path style="fill:#181817; stroke:none;" d="M13 0.468369C-4.89076 3.9368 0 28.6711 0 42L0 150C0 161.762 -4.01266 182.822 2.72762 192.985C10.6227 204.888 35.6602 200 48 200L142 200C156.407 200 173.98 202.723 188 199.316C204.82 195.227 200 170.895 200 158L200 48C200 36.5879 204.018 15.5034 196.57 6.04398C188.043 -4.78674 163.272 0 151 0L59 0C44.3244 0 27.4142 -2.32607 13 0.468369z"/>
<path style="fill:#ffffff; stroke:none;" d="M187 0L187 1C193.265 2.26404 197.736 6.73515 199 13L200 13L200 0L187 0z"/>
<path style="fill:#2aae15; stroke:none;" d="M9 10L9 11L192 11L174 10L138 10L9 10z"/>
<path style="fill:#3cfe1e; stroke:none;" d="M9 11L10 55L10 141L189 141L189 11L9 11z"/>
<path style="fill:#a0ff92; stroke:none;" d="M189 11L189 141L192 141L192 11L189 11z"/>
<path style="fill:#2aae15; stroke:none;" d="M9 12L9 141L10 141L10 51C10 39.8419 13.3077 22.2657 9 12z"/>
<path style="fill:#181817; stroke:none;" d="M102 52C84.8694 24.6225 26.5419 42.2209 42.5594 75.8264C49.8523 91.1273 72.6133 105.015 86 114.91C89.95 117.83 96.9275 125.372 102 125.372C107.621 125.372 116.718 116.031 121 112.572C135.113 101.171 166.343 84.4716 163.87 63C160.603 34.6302 115.759 30.0105 102 52z"/>
<path style="fill:#2aae15; stroke:none;" d="M80 38L81 39L80 38M123 38L124 39L123 38M84 39L85 40L84 39M119 39L120 40L119 39M142 39L143 40L142 39M58.6667 40.3333L59.3333 40.6667L58.6667 40.3333M85 40L85 41L88 41L85 40M115 40L115 41L119 41L115 40M143 40L143 41L146 41L143 40M55 41L55 42L58 42L55 41M88 41L88 42L91 42L88 41M113 41L114 42L113 41M146 41L146 42L149 42L146 41M54 42L55 43L54 42M112 42L113 43L112 42M149 42L150 43L149 42M53 43L54 44L53 43M150 43L151 44L150 43M52 44L53 45L52 44M95 44L96 45L95 44M108 44L109 45L108 44M151 44L152 45L151 44M51 45L52 46L51 45M96 45L97 46L96 45M107 45L108 46L107 45M152 45L153 46L152 45M49 46L50 47L49 46M97 46L98 47L97 46M106 46L107 47L106 46M153.667 46.3333L154.333 46.6667L153.667 46.3333M98 47L99 48L98 47M105 47L106 48L105 47M47 48L48 49L47 48M156 48L157 49L156 48M46 49L47 50L46 49M157 49L158 50L157 49M44 50L44 53L45 53L46 50L44 50M158 50L159 53L160 53L160 50L158 50M101.667 51.3333L102.333 51.6667L101.667 51.3333M42 55L43 56L42 55M161 55L162 56L161 55M41 56L41 59L42 59L41 56M162 56L162 59L163 59L162 56M40 59L41 60L40 59M163 59L164 60L163 59M40 71L41 72L40 71M163 71L164 72L163 71M41 72L41 76L42 76L41 72M162 72L162 76L163 76L162 72M44 78L44 81L45 81L44 78M159 78L159 81L160 81L159 78M46 81L47 82L46 81M157 81L158 82L157 81M47.3333 82.6667L47.6667 83.3333L47.3333 82.6667M156.333 82.6667L156.667 83.3333L156.333 82.6667M48 84L49 85L48 84M155 84L156 85L155 84M49 85L50 86L49 85M154 85L155 86L154 85M50 86L51 87L50 86M153 86L154 87L153 86M52.6667 88.3333L53.3333 88.6667L52.6667 88.3333M150.667 88.3333L151.333 88.6667L150.667 88.3333M54 89L55 90L54 89M149 89L150 90L149 89M55 90L56 91L55 90M148 90L149 91L148 90M56 91L57 92L56 91M147 91L148 92L147 91M58 93L58 94L61 94L58 93M143 93L143 94L146 94L143 93M61 94L62 95L61 94M142 94L143 95L142 94M62 95L63 96L62 95M141 95L142 96L141 95M65 97L66 98L65 97M138 97L139 98L138 97M66 98L67 99L66 98M137 98L138 99L137 98M67 99L68 100L67 99M136 99L137 100L136 99M68 100L69 101L68 100M135 100L136 101L135 100M71 102L72 103L71 102M132 102L133 103L132 102M72 103L73 104L72 103M131 103L132 104L131 103M73 104L74 105L73 104M130 104L131 105L130 104M74 105L75 106L74 105M129 105L130 106L129 105M78 108L79 109L78 108M125 108L126 109L125 108M79 109L80 110L79 109M124 109L125 110L124 109M80 110L81 111L80 110M123 110L124 111L123 110M81 111L82 112L81 111M122 111L123 112L122 111M83.6667 113.333L84.3333 113.667L83.6667 113.333M119.667 113.333L120.333 113.667L119.667 113.333M85 114L86 115L85 114M118 114L119 115L118 114M86 115L87 116L86 115M117 115L118 116L117 115M87 116L88 117L87 116M116 116L117 117L116 116M89.6667 117.333L90.3333 117.667L89.6667 117.333M113.667 117.333L114.333 117.667L113.667 117.333M91 118L92 119L91 118M112 118L113 119L112 118M92 119L93 120L92 119M111 119L112 120L111 119M96 122L97 123L96 122M107 122L108 123L107 122M97 123L98 124L97 123M106 123L107 124L106 123M98 124L99 125L98 124M105 124L106 125L105 124M99 125L100 126L99 125M104 125L105 126L104 125z"/>
<path style="fill:#ffffff; stroke:none;" d="M61 154L57 182L62 182L62 178L71 178L71 182L76 182L75 154L61 154M82.2284 155.032C75.8584 158.789 77.822 182.835 87.7716 176.968C94.1416 173.211 92.178 149.166 82.2284 155.032M95 154L95 178C98.3232 178 103.812 178.981 106.397 176.397C112.208 170.586 106.702 162.218 100 162L100 158L106 158L106 154L95 154M111 154L111 158L114 158L114 178C117.323 178 122.812 178.981 125.397 176.397C131.208 170.586 125.702 162.218 119 162L119 154L111 154M131 154L131 178L136 178L136 168C141.63 167.57 146.475 160.713 141.397 155.742C138.9 153.298 134.18 154.002 131 154z"/>
<path style="fill:#181817; stroke:none;" d="M84 158L84 174L86 174L86 158L84 158M136 158L136 164L138 164L138 158L136 158M66 159L63 173L70 173L70 159L66 159M100 166L100 174L103 174L103 166L100 166M119 166L119 174L122 174L122 166L119 166z"/>
<path style="fill:#ffffff; stroke:none;" d="M0 187L0 200L13 200L13 199C6.07608 197.603 3.28711 192.69 0 187M199 187C197.736 193.265 193.265 197.736 187 199L187 200L200 200L199 187z"/>
</svg>
