<?xml version="1.0" standalone="yes"?>
<svg xmlns="http://www.w3.org/2000/svg" width="200" height="200">
<path style="fill:#ffffff; stroke:none;" d="M0 0L0 13L1 13C2.26403 6.73515 6.73516 2.26402 13 1L0 0z"/>
<path style="fill:#442e30; stroke:none;" d="M13 0L14 1L13 0z"/>
<path style="fill:#181818; stroke:none;" d="M14 0.46759C-4.68246 3.99939 0 27.9168 0 42L0 151C0 162.884 -4.00477 183.924 3.65201 193.895C11.9763 204.735 36.9648 200 49 200L141 200C155.503 200 172.85 202.59 187 199.319C204.544 195.264 200 171.549 200 158L200 49C200 37.1621 203.964 16.0696 196.347 6.10493C188.058 -4.74042 163.01 0 151 0L60 0C45.289 0 28.4616 -2.26628 14 0.46759z"/>
<path style="fill:#442e30; stroke:none;" d="M186 0L187 1L186 0z"/>
<path style="fill:#ffffff; stroke:none;" d="M187 0L187 1C193.265 2.26404 197.736 6.73515 199 13L200 13L200 0L187 0z"/>
<path style="fill:#442e30; stroke:none;" d="M9 1L10 2L9 1M190 1L191 2L190 1M7 2L8 3L7 2M192 2L193 3L192 2M2 7L3 8L2 7M197 7L198 8L197 7M1 9L2 10L1 9M198 9L199 10L198 9z"/>
<path style="fill:#9b6469; stroke:none;" d="M10 10L10 11L192 11L174 10L138 10L10 10z"/>
<path style="fill:#e49299; stroke:none;" d="M10 11L10 141L192 141L192 11L10 11z"/>
<path style="fill:#442e30; stroke:none;" d="M0 13L1 14L0 13M199.333 13.6667L199.667 14.3333L199.333 13.6667z"/>
<path style="fill:#9b6469; stroke:none;" d="M99 14L99 15L105 23L106 23L99 14z"/>
<path style="fill:#442e30; stroke:none;" d="M99 15L98 18L99 15z"/>
<path style="fill:#181818; stroke:none;" d="M100 15C92.0594 29.8113 76.1933 45.0353 79.2245 63C81.5433 76.7421 94.6814 85.6485 95 101L93 101L92 91L89 85C83.9024 80.3088 80.0584 74.5105 73.7145 71.1875C54.0373 60.8805 29.3265 65.9966 25 89L29 93L28 95L46 104C45.9065 101.394 45.6042 98.6594 46.1836 96.0895C51.1005 74.2842 75.9003 93.1713 85 98L85 100L75 105L86 108C80.6154 118.97 65.7586 115.843 70 103L69 102C59.3579 104.402 46.6895 115.145 60.9545 122.731C69.1039 127.064 75.53 124.853 84 124L92 116L91 113L93 108L95 108L88 128L94 127L101 138L107 127L114 129C109.869 122.075 105.029 116.254 105 108L108 109C106.64 125.744 132.294 130.301 142.467 120.502C152.755 110.591 138.949 103.026 130 103L130 104C134.339 109.385 129.829 115.808 123.004 115.262C118.75 114.922 116.323 111.066 114 108C119.004 107.996 123.341 108.465 125 103L116 101C124.214 83.8815 156.344 78.7758 154 104C160.74 102.196 184.074 90.6785 173 81C172.719 73.1762 163.153 67.6802 156 67.0934C141.512 65.9047 126.876 67.9905 116.975 79.5648C111.857 85.5473 110.427 96.4128 105 101C106.873 85.6427 116.723 71.2467 124 58L100 15z"/>
<path style="fill:#9b6469; stroke:none;" d="M96 19L97 20L96 19z"/>
<path style="fill:#442e30; stroke:none;" d="M97 19L98 20L97 19M102 19L103 20L102 19M96.3333 20.6667L96.6667 21.3333L96.3333 20.6667z"/>
<path style="fill:#9b6469; stroke:none;" d="M94 22L95 23L94 22z"/>
<path style="fill:#442e30; stroke:none;" d="M105.333 23.6667L105.667 24.3333L105.333 23.6667z"/>
<path style="fill:#9b6469; stroke:none;" d="M93 24L94 25L93 24z"/>
<path style="fill:#442e30; stroke:none;" d="M94 24L95 25L94 24z"/>
<path style="fill:#9b6469; stroke:none;" d="M106 24L107 25L106 24z"/>
<path style="fill:#442e30; stroke:none;" d="M93.3333 25.6667L93.6667 26.3333L93.3333 25.6667z"/>
<path style="fill:#9b6469; stroke:none;" d="M107.333 25.6667L107.667 26.3333L107.333 25.6667M91 27L92 28L91 27z"/>
<path style="fill:#442e30; stroke:none;" d="M108.333 27.6667L108.667 28.3333L108.333 27.6667z"/>
<path style="fill:#9b6469; stroke:none;" d="M90 29L91 30L90 29z"/>
<path style="fill:#442e30; stroke:none;" d="M91 29L92 30L91 29M109 29L110 30L109 29M90.3333 30.6667L90.6667 31.3333L90.3333 30.6667z"/>
<path style="fill:#9b6469; stroke:none;" d="M110.333 30.6667L110.667 31.3333L110.333 30.6667M88 32L87 35L88 32z"/>
<path style="fill:#442e30; stroke:none;" d="M111.333 32.6667L111.667 33.3333L111.333 32.6667M88 34L89 35L88 34M112 34L113 35L112 34M87.3333 35.6667L87.6667 36.3333L87.3333 35.6667z"/>
<path style="fill:#9b6469; stroke:none;" d="M113.333 35.6667L113.667 36.3333L113.333 35.6667M86 36L87 37L86 36M85.3333 37.6667L85.6667 38.3333L85.3333 37.6667z"/>
<path style="fill:#442e30; stroke:none;" d="M114.333 37.6667L114.667 38.3333L114.333 37.6667z"/>
<path style="fill:#9b6469; stroke:none;" d="M84 39L85 40L84 39z"/>
<path style="fill:#442e30; stroke:none;" d="M115 39L116 40L115 39z"/>
<path style="fill:#9b6469; stroke:none;" d="M116.333 39.6667L116.667 40.3333L116.333 39.6667z"/>
<path style="fill:#442e30; stroke:none;" d="M84.3333 40.6667L84.6667 41.3333L84.3333 40.6667z"/>
<path style="fill:#9b6469; stroke:none;" d="M83 41L84 42L83 41z"/>
<path style="fill:#442e30; stroke:none;" d="M116 41L117 42L116 41z"/>
<path style="fill:#9b6469; stroke:none;" d="M82.3333 42.6667L82.6667 43.3333L82.3333 42.6667z"/>
<path style="fill:#442e30; stroke:none;" d="M117.333 42.6667L117.667 43.3333L117.333 42.6667M81.3333 44.6667L81.6667 45.3333L81.3333 44.6667z"/>
<path style="fill:#9b6469; stroke:none;" d="M119 44L121 47L119 44M80 46L81 47L80 46z"/>
<path style="fill:#442e30; stroke:none;" d="M119 46L120 47L119 46z"/>
<path style="fill:#9b6469; stroke:none;" d="M79 47L79 50L80 50L79 47z"/>
<path style="fill:#442e30; stroke:none;" d="M120 47L120 50L121 50L120 47z"/>
<path style="fill:#9b6469; stroke:none;" d="M78 50L79 51L78 50z"/>
<path style="fill:#442e30; stroke:none;" d="M121 50L122 51L121 50z"/>
<path style="fill:#9b6469; stroke:none;" d="M122 50L123 57L124 57L122 50z"/>
<path style="fill:#442e30; stroke:none;" d="M78 51L78 65L79 65L78 51M122 56L123 57L122 56M123 58L124 59L123 58z"/>
<path style="fill:#9b6469; stroke:none;" d="M122 59L122 65L123 65L122 59M79.3333 65.6667L79.6667 66.3333L79.3333 65.6667z"/>
<path style="fill:#442e30; stroke:none;" d="M120 65L119 68L120 65M42 66L42 67L61 67L42 66z"/>
<path style="fill:#9b6469; stroke:none;" d="M61 66L62 67L61 66z"/>
<path style="fill:#442e30; stroke:none;" d="M139 66L139 67L158 67L139 66z"/>
<path style="fill:#9b6469; stroke:none;" d="M158 66L159 67L158 66z"/>
<path style="fill:#442e30; stroke:none;" d="M39 67L39 68L42 68L39 67M62 67L62 68L66 68L62 67z"/>
<path style="fill:#9b6469; stroke:none;" d="M80 67L81 68L80 67M120 67L121 68L120 67M134 67L135 68L134 67z"/>
<path style="fill:#442e30; stroke:none;" d="M135 67L135 68L139 68L135 67M159.667 67.3333L160.333 67.6667L159.667 67.3333z"/>
<path style="fill:#9b6469; stroke:none;" d="M161 67L162 68L161 67M36.6667 68.3333L37.3333 68.6667L36.6667 68.3333z"/>
<path style="fill:#442e30; stroke:none;" d="M38 68L39 69L38 68M66 68L67 69L66 68z"/>
<path style="fill:#9b6469; stroke:none;" d="M67.6667 68.3333L68.3333 68.6667L67.6667 68.3333z"/>
<path style="fill:#442e30; stroke:none;" d="M81.3333 68.6667L81.6667 69.3333L81.3333 68.6667z"/>
<path style="fill:#9b6469; stroke:none;" d="M119.333 68.6667L119.667 69.3333L119.333 68.6667M131 68L131 69L134 69L131 68M162 68L162 69L166 70L166 69L162 68M35 69L36 70L35 69M69 69L70 70L69 69M71 69L72 70L71 69z"/>
<path style="fill:#442e30; stroke:none;" d="M131 69L132 70L131 69M164 69L165 70L164 69M34 70L35 71L34 70z"/>
<path style="fill:#9b6469; stroke:none;" d="M72 70L73 71L72 70M82.3333 70.6667L82.6667 71.3333L82.3333 70.6667z"/>
<path style="fill:#442e30; stroke:none;" d="M117.333 70.6667L117.667 71.3333L117.333 70.6667M128 70L129 71L128 70z"/>
<path style="fill:#9b6469; stroke:none;" d="M166 70L167 71L166 70M32 71L33 72L32 71M75 71L77 73L75 71z"/>
<path style="fill:#442e30; stroke:none;" d="M125 71L126 72L125 71M167 71L168 72L167 71z"/>
<path style="fill:#9b6469; stroke:none;" d="M31 72L32 73L31 72z"/>
<path style="fill:#442e30; stroke:none;" d="M75 72L76 73L75 72z"/>
<path style="fill:#9b6469; stroke:none;" d="M83 72L84 73L83 72z"/>
<path style="fill:#442e30; stroke:none;" d="M116 72L117 73L116 72M124 72L125 73L124 72M168 72L169 73L168 72z"/>
<path style="fill:#9b6469; stroke:none;" d="M30 73L31 74L30 73M77 73L78 74L77 73M84 73L85 77L86 77L84 73z"/>
<path style="fill:#442e30; stroke:none;" d="M85 73L86 74L85 73z"/>
<path style="fill:#9b6469; stroke:none;" d="M116.333 73.6667L116.667 74.3333L116.333 73.6667M122 73L123 74L122 73z"/>
<path style="fill:#442e30; stroke:none;" d="M123 73L124 74L123 73M169 73L170 76L171 76L169 73z"/>
<path style="fill:#9b6469; stroke:none;" d="M170 73L171 74L170 73M29.3333 74.6667L29.6667 75.3333L29.3333 74.6667z"/>
<path style="fill:#442e30; stroke:none;" d="M78 74L79 75L78 74M115 74L116 75L115 74z"/>
<path style="fill:#9b6469; stroke:none;" d="M121 74L122 75L121 74z"/>
<path style="fill:#442e30; stroke:none;" d="M79 75L80 76L79 75M114.333 75.6667L114.667 76.3333L114.333 75.6667z"/>
<path style="fill:#9b6469; stroke:none;" d="M120 75L121 76L120 75z"/>
<path style="fill:#442e30; stroke:none;" d="M28 76L29 77L28 76z"/>
<path style="fill:#9b6469; stroke:none;" d="M81 76L82 77L81 76z"/>
<path style="fill:#442e30; stroke:none;" d="M119 76L120 77L119 76z"/>
<path style="fill:#9b6469; stroke:none;" d="M172 76L173 77L172 76M26 77L26 82L27 82L26 77z"/>
<path style="fill:#442e30; stroke:none;" d="M27 77L28 78L27 77z"/>
<path style="fill:#9b6469; stroke:none;" d="M82 77L83 78L82 77M86 77L87 78L86 77z"/>
<path style="fill:#442e30; stroke:none;" d="M87 77L89 80L87 77z"/>
<path style="fill:#9b6469; stroke:none;" d="M113.333 77.6667L113.667 78.3333L113.333 77.6667M117 77L116 80L117 77z"/>
<path style="fill:#442e30; stroke:none;" d="M118 77L119 78L118 77z"/>
<path style="fill:#9b6469; stroke:none;" d="M173 77L174 78L173 77z"/>
<path style="fill:#442e30; stroke:none;" d="M83 78L84 79L83 78z"/>
<path style="fill:#9b6469; stroke:none;" d="M84 78L84 81L85 81L84 78M87 79L88 80L87 79z"/>
<path style="fill:#442e30; stroke:none;" d="M112 79L113 80L112 79M117 79L118 80L117 79M173.333 79.6667L173.667 80.3333L173.333 79.6667z"/>
<path style="fill:#9b6469; stroke:none;" d="M88 80L88 85L89 85L88 80z"/>
<path style="fill:#442e30; stroke:none;" d="M111.333 80.6667L111.667 81.3333L111.333 80.6667z"/>
<path style="fill:#9b6469; stroke:none;" d="M115 80L116 81L115 80M174 80L175 81L174 80z"/>
<path style="fill:#442e30; stroke:none;" d="M85 81L86 82L85 81z"/>
<path style="fill:#9b6469; stroke:none;" d="M114 81L113 84L114 81M175 81L175 89L176 89L175 81z"/>
<path style="fill:#442e30; stroke:none;" d="M25 82L26 83L25 82z"/>
<path style="fill:#e49299; stroke:none;" d="M88 82L91 88L88 82z"/>
<path style="fill:#442e30; stroke:none;" d="M90 82L90 85L91 85L90 82z"/>
<path style="fill:#9b6469; stroke:none;" d="M110 82L110 89L111 89L110 82z"/>
<path style="fill:#442e30; stroke:none;" d="M114 83L115 84L114 83M25 84L25 88L26 88L25 84M87 84L88 85L87 84z"/>
<path style="fill:#9b6469; stroke:none;" d="M112 84L113 85L112 84z"/>
<path style="fill:#442e30; stroke:none;" d="M58 85L58 86L62 86L58 85z"/>
<path style="fill:#9b6469; stroke:none;" d="M90 85L91 86L90 85z"/>
<path style="fill:#442e30; stroke:none;" d="M109 85L108 88L109 88L109 85z"/>
<path style="fill:#e49299; stroke:none;" d="M110 85L109 90L110 90L110 85z"/>
<path style="fill:#442e30; stroke:none;" d="M138 85L138 86L143 86L138 85M63 86L64 87L63 86M88.3333 86.6667L88.6667 87.3333L88.3333 86.6667z"/>
<path style="fill:#9b6469; stroke:none;" d="M91 86L90 90L93 93L94 93L91 86M137 86L138 87L137 86M143 86L144 87L143 86z"/>
<path style="fill:#442e30; stroke:none;" d="M52 87L53 88L52 87z"/>
<path style="fill:#9b6469; stroke:none;" d="M67 87L68 88L67 87M133 87L134 88L133 87M147 87L148 88L147 87M51 88L52 89L51 88M68.6667 88.3333L69.3333 88.6667L68.6667 88.3333z"/>
<path style="fill:#442e30; stroke:none;" d="M70 88L71 89L70 88M89 88L90 89L89 88z"/>
<path style="fill:#9b6469; stroke:none;" d="M108 88L107 96L108 96L108 88M130 88L130 89L133 89L130 88M148 88L149 89L148 88z"/>
<path style="fill:#442e30; stroke:none;" d="M149 88L150 89L149 88z"/>
<path style="fill:#9b6469; stroke:none;" d="M25 89L26 93L27 93L25 89z"/>
<path style="fill:#442e30; stroke:none;" d="M26 89L27 90L26 89M49 89L48 91L49 89z"/>
<path style="fill:#9b6469; stroke:none;" d="M50 89L51 90L50 89M71 89L71 90L74 91L71 89z"/>
<path style="fill:#442e30; stroke:none;" d="M73 89L74 90L73 89z"/>
<path style="fill:#e49299; stroke:none;" d="M91 89L94 100L95 100L91 89z"/>
<path style="fill:#442e30; stroke:none;" d="M127 89L128 90L127 89z"/>
<path style="fill:#9b6469; stroke:none;" d="M128.667 89.3333L129.333 89.6667L128.667 89.3333z"/>
<path style="fill:#442e30; stroke:none;" d="M150 89L151 90L150 89M174 89L175 90L174 89z"/>
<path style="fill:#9b6469; stroke:none;" d="M49 90L50 91L49 90z"/>
<path style="fill:#442e30; stroke:none;" d="M74.6667 90.3333L75.3333 90.6667L74.6667 90.3333M90 90L91 91L90 90M107 90L108 91L107 90z"/>
<path style="fill:#9b6469; stroke:none;" d="M126 90L127 91L126 90z"/>
<path style="fill:#442e30; stroke:none;" d="M151 90L152 91L151 90M173 90L173 93L174 93L173 90z"/>
<path style="fill:#9b6469; stroke:none;" d="M76 91L77 92L76 91z"/>
<path style="fill:#e49299; stroke:none;" d="M107 91L107 95L108 95L107 91z"/>
<path style="fill:#9b6469; stroke:none;" d="M125 91L126 92L125 91M152 91L153 92L152 91z"/>
<path style="fill:#442e30; stroke:none;" d="M78 92L79 93L78 92M91 92L91 95L92 95L91 92z"/>
<path style="fill:#9b6469; stroke:none;" d="M122 92L123 93L122 92M27 93L28 94L27 93z"/>
<path style="fill:#442e30; stroke:none;" d="M28 93L29 94L28 93M46 93L47 94L46 93z"/>
<path style="fill:#9b6469; stroke:none;" d="M79 93L80 94L79 93z"/>
<path style="fill:#442e30; stroke:none;" d="M93 93L94 94L93 93z"/>
<path style="fill:#9b6469; stroke:none;" d="M121 93L122 94L121 93M172 93L172 96L173 96L172 93M46 94L46 98L47 98L46 94M80 94L81 95L80 94z"/>
<path style="fill:#442e30; stroke:none;" d="M94 94L95 95L94 94M119 94L120 95L119 94z"/>
<path style="fill:#9b6469; stroke:none;" d="M120 94L121 95L120 94M28 95L30 97L28 95z"/>
<path style="fill:#442e30; stroke:none;" d="M29 95L30 96L29 95M81 95L82 96L81 95z"/>
<path style="fill:#9b6469; stroke:none;" d="M92 95L93 96L92 95z"/>
<path style="fill:#442e30; stroke:none;" d="M106 95L107 96L106 95M108 95L109 96L108 95z"/>
<path style="fill:#9b6469; stroke:none;" d="M119.333 95.6667L119.667 96.3333L119.333 95.6667z"/>
<path style="fill:#442e30; stroke:none;" d="M171 95L172 96L171 95z"/>
<path style="fill:#9b6469; stroke:none;" d="M81 96L82 97L81 96M93 96L93 100L94 100L93 96M105 96L106 101L107 101L105 96z"/>
<path style="fill:#e49299; stroke:none;" d="M106 96L106 100L107 100L106 96z"/>
<path style="fill:#442e30; stroke:none;" d="M118 96L119 97L118 96M154 96L155 97L154 96M170 96L171 97L170 96M31 97L32 98L31 97z"/>
<path style="fill:#9b6469; stroke:none;" d="M82 97L83 98L82 97z"/>
<path style="fill:#442e30; stroke:none;" d="M117.333 97.6667L117.667 98.3333L117.333 97.6667z"/>
<path style="fill:#9b6469; stroke:none;" d="M155.333 97.6667L155.667 98.3333L155.333 97.6667M169 97L170 98L169 97M32 98L33 99L32 98z"/>
<path style="fill:#442e30; stroke:none;" d="M84.3333 98.6667L84.6667 99.3333L84.3333 98.6667z"/>
<path style="fill:#9b6469; stroke:none;" d="M33.6667 99.3333L34.3333 99.6667L33.6667 99.3333z"/>
<path style="fill:#442e30; stroke:none;" d="M35 99L36 100L35 99M45 99L46 100L45 99z"/>
<path style="fill:#9b6469; stroke:none;" d="M46 99L46 103L47 103L46 99z"/>
<path style="fill:#442e30; stroke:none;" d="M107 99L108 100L107 99z"/>
<path style="fill:#9b6469; stroke:none;" d="M116 99L116 100L121 101L121 100L116 99z"/>
<path style="fill:#442e30; stroke:none;" d="M154 99L155 100L154 99M166 99L167 100L166 99z"/>
<path style="fill:#9b6469; stroke:none;" d="M36 100L37 101L36 100M80 100L80 101L84 101L80 100z"/>
<path style="fill:#442e30; stroke:none;" d="M93.6667 100.333L94.3333 100.667L93.6667 100.333M105 100L106 101L105 100M116 100L117 101L116 100M163 100L164 101L163 100z"/>
<path style="fill:#9b6469; stroke:none;" d="M164 100L165 101L164 100z"/>
<path style="fill:#442e30; stroke:none;" d="M165 100L166 101L165 100z"/>
<path style="fill:#9b6469; stroke:none;" d="M37 101L38 102L37 101z"/>
<path style="fill:#442e30; stroke:none;" d="M38.6667 101.333L39.3333 101.667L38.6667 101.333z"/>
<path style="fill:#9b6469; stroke:none;" d="M68 101L69 102L68 101M77.6667 101.333L78.3333 101.667L77.6667 101.333z"/>
<path style="fill:#442e30; stroke:none;" d="M79 101L80 102L79 101z"/>
<path style="fill:#9b6469; stroke:none;" d="M121 101L121 102L124 102L121 101z"/>
<path style="fill:#442e30; stroke:none;" d="M161.667 101.333L162.333 101.667L161.667 101.333M40 102L41 103L40 102M67 102L68 103L67 102z"/>
<path style="fill:#9b6469; stroke:none;" d="M69 102L70 103L69 102M76 102L77 103L76 102z"/>
<path style="fill:#442e30; stroke:none;" d="M123 102L124 103L123 102z"/>
<path style="fill:#9b6469; stroke:none;" d="M160 102L161 103L160 102M44 103L45 104L44 103z"/>
<path style="fill:#442e30; stroke:none;" d="M46 103L47 104L46 103z"/>
<path style="fill:#9b6469; stroke:none;" d="M61 103L62 104L61 103z"/>
<path style="fill:#442e30; stroke:none;" d="M70 103L71 104L70 103M75 103L76 104L75 103z"/>
<path style="fill:#9b6469; stroke:none;" d="M125 103L125 107L126 107L125 103M129 103L130 104L129 103z"/>
<path style="fill:#442e30; stroke:none;" d="M138 103L139 104L138 103M155 103L156 104L155 103z"/>
<path style="fill:#9b6469; stroke:none;" d="M45 104L46 105L45 104M58 104L59 105L58 104z"/>
<path style="fill:#442e30; stroke:none;" d="M59.6667 104.333L60.3333 104.667L59.6667 104.333z"/>
<path style="fill:#9b6469; stroke:none;" d="M69 104L69 108L70 108L69 104M130 104L131 105L130 104z"/>
<path style="fill:#442e30; stroke:none;" d="M131 104L131 107L132 107L131 104M140.667 104.333L141.333 104.667L140.667 104.333z"/>
<path style="fill:#9b6469; stroke:none;" d="M154 104L155 105L154 104M57 105L58 106L57 105M75 105L76 106L75 105z"/>
<path style="fill:#442e30; stroke:none;" d="M76 105L77 106L76 105M142 105L143 106L142 105z"/>
<path style="fill:#9b6469; stroke:none;" d="M143.333 105.667L143.667 106.333L143.333 105.667z"/>
<path style="fill:#442e30; stroke:none;" d="M77 106L78 107L77 106M124 106L125 107L124 106z"/>
<path style="fill:#9b6469; stroke:none;" d="M56 107L57 108L56 107z"/>
<path style="fill:#442e30; stroke:none;" d="M68 107L69 108L68 107M78 107L79 108L78 107M123 107L124 108L123 107z"/>
<path style="fill:#9b6469; stroke:none;" d="M131 107L132 108L131 107z"/>
<path style="fill:#442e30; stroke:none;" d="M143 107L144 108L143 107z"/>
<path style="fill:#9b6469; stroke:none;" d="M55 108L56 109L55 108z"/>
<path style="fill:#442e30; stroke:none;" d="M67.3333 108.667L67.6667 109.333L67.3333 108.667z"/>
<path style="fill:#9b6469; stroke:none;" d="M85 108L84 111L85 108M93 108L94 116L95 116L93 108z"/>
<path style="fill:#e49299; stroke:none;" d="M94 108L94 113L95 113L94 108z"/>
<path style="fill:#9b6469; stroke:none;" d="M105 108L105 113L106 113L105 108z"/>
<path style="fill:#442e30; stroke:none;" d="M114 108L115 109L114 108z"/>
<path style="fill:#9b6469; stroke:none;" d="M132 108L131 111L132 108z"/>
<path style="fill:#442e30; stroke:none;" d="M55 109L56 110L55 109M107 109L108 110L107 109M115 109L116 110L115 109z"/>
<path style="fill:#9b6469; stroke:none;" d="M116 109L118 112L116 109M55 110L54 112L55 110z"/>
<path style="fill:#442e30; stroke:none;" d="M68 110L69 111L68 110M85 110L86 111L85 110M132 110L133 111L132 110M145 110L147 112L145 110z"/>
<path style="fill:#9b6469; stroke:none;" d="M146 110L147 111L146 110z"/>
<path style="fill:#442e30; stroke:none;" d="M55 111L56 112L55 111z"/>
<path style="fill:#9b6469; stroke:none;" d="M69.3333 111.667L69.6667 112.333L69.3333 111.667M83 111L84 112L83 111z"/>
<path style="fill:#442e30; stroke:none;" d="M116 111L117 112L116 111M131.333 111.667L131.667 112.333L131.333 111.667z"/>
<path style="fill:#9b6469; stroke:none;" d="M53 112L53 116L54 116L53 112M82.3333 112.667L82.6667 113.333L82.3333 112.667z"/>
<path style="fill:#442e30; stroke:none;" d="M107 112L108 113L107 112M117.333 112.667L117.667 113.333L117.333 112.667z"/>
<path style="fill:#9b6469; stroke:none;" d="M130 112L131 113L130 112M146 112L146 115L147 115L146 112z"/>
<path style="fill:#442e30; stroke:none;" d="M70 113L71 114L70 113M91 113L92 114L91 113z"/>
<path style="fill:#e49299; stroke:none;" d="M92 113L91 119C93.9114 117.315 94.8744 115.292 92 113z"/>
<path style="fill:#442e30; stroke:none;" d="M105.333 113.667L105.667 114.333L105.333 113.667z"/>
<path style="fill:#9b6469; stroke:none;" d="M108.333 113.667L108.667 114.333L108.333 113.667M129 113L130 114L129 113z"/>
<path style="fill:#442e30; stroke:none;" d="M73 114L74 115L73 114z"/>
<path style="fill:#9b6469; stroke:none;" d="M79 114L80 115L79 114z"/>
<path style="fill:#442e30; stroke:none;" d="M120 114L121 115L120 114z"/>
<path style="fill:#9b6469; stroke:none;" d="M126 114L127 115L126 114z"/>
<path style="fill:#442e30; stroke:none;" d="M74 115L74 116L79 116L74 115z"/>
<path style="fill:#9b6469; stroke:none;" d="M105 115L107 117L105 115z"/>
<path style="fill:#442e30; stroke:none;" d="M108 115L109 116L108 115M121 115L121 116L126 116L121 115M146 115L145 117L146 115z"/>
<path style="fill:#9b6469; stroke:none;" d="M54 116L55 119L56 119L54 116z"/>
<path style="fill:#442e30; stroke:none;" d="M55 116L56 117L55 116M90 116L91 117L90 116z"/>
<path style="fill:#9b6469; stroke:none;" d="M91 116L92 117L91 116z"/>
<path style="fill:#442e30; stroke:none;" d="M105 116L106 117L105 116M109 116L110 117L109 116z"/>
<path style="fill:#9b6469; stroke:none;" d="M146 116L147 117L146 116M90.3333 117.667L90.6667 118.333L90.3333 117.667M94 117L95 118L94 117M107 117L108 118L107 117z"/>
<path style="fill:#442e30; stroke:none;" d="M93 118L94 119L93 118M108.333 118.667L108.667 119.333L108.333 118.667M110 118L111 119L110 118M144 118L145 119L144 118z"/>
<path style="fill:#9b6469; stroke:none;" d="M56 119L57 120L56 119M91 119L92 120L91 119M111 119L112 120L111 119M143 119L144 120L143 119z"/>
<path style="fill:#442e30; stroke:none;" d="M87 120L88 121L87 120M109 120L110 121L109 120z"/>
<path style="fill:#9b6469; stroke:none;" d="M112 120L113 121L112 120z"/>
<path style="fill:#442e30; stroke:none;" d="M143 120L144 121L143 120z"/>
<path style="fill:#9b6469; stroke:none;" d="M57 121L59 123L57 121z"/>
<path style="fill:#442e30; stroke:none;" d="M58 121L59 122L58 121z"/>
<path style="fill:#9b6469; stroke:none;" d="M86 121L87 122L86 121M90 121L91 122L90 121z"/>
<path style="fill:#442e30; stroke:none;" d="M91 121L92 122L91 121z"/>
<path style="fill:#9b6469; stroke:none;" d="M110 121L110 124L111 124L110 121M113 121L114 122L113 121z"/>
<path style="fill:#442e30; stroke:none;" d="M114 121L115 122L114 121z"/>
<path style="fill:#9b6469; stroke:none;" d="M142 121L143 122L142 121z"/>
<path style="fill:#442e30; stroke:none;" d="M59.6667 122.333L60.3333 122.667L59.6667 122.333M84 122L85 123L84 122z"/>
<path style="fill:#9b6469; stroke:none;" d="M85 122L86 123L85 122z"/>
<path style="fill:#442e30; stroke:none;" d="M90.3333 122.667L90.6667 123.333L90.3333 122.667M115 122L116 123L115 122M139.667 122.333L140.333 122.667L139.667 122.333z"/>
<path style="fill:#9b6469; stroke:none;" d="M141 122L142 123L141 122M61 123L62 124L61 123z"/>
<path style="fill:#442e30; stroke:none;" d="M63 123L64 124L63 123M82 123L83 124L82 123z"/>
<path style="fill:#9b6469; stroke:none;" d="M84 123L85 124L84 123M89 123L90 124L89 123z"/>
<path style="fill:#442e30; stroke:none;" d="M116.667 123.333L117.333 123.667L116.667 123.333M137.667 123.333L138.333 123.667L137.667 123.333z"/>
<path style="fill:#9b6469; stroke:none;" d="M64 124L65 125L64 124M81 124L82 125L81 124M88 124L87 127L88 124z"/>
<path style="fill:#442e30; stroke:none;" d="M111.333 124.667L111.667 125.333L111.333 124.667M119 124L120 125L119 124M135 124L136 125L135 124z"/>
<path style="fill:#9b6469; stroke:none;" d="M68 125L69 126L68 125z"/>
<path style="fill:#442e30; stroke:none;" d="M76 125L77 126L76 125z"/>
<path style="fill:#9b6469; stroke:none;" d="M123 125L124 126L123 125M131 125L132 126L131 125M69 126L69 127L77 127L69 126z"/>
<path style="fill:#442e30; stroke:none;" d="M88 126L89 127L88 126M112 126L113 127L112 126z"/>
<path style="fill:#9b6469; stroke:none;" d="M124 126L124 127L131 127L124 126z"/>
<path style="fill:#442e30; stroke:none;" d="M87 127L87 128L91 129L91 128L87 127M92.6667 127.333L93.3333 127.667L92.6667 127.333M107.667 127.333L108.333 127.667L107.667 127.333M113 127L115 129L113 127z"/>
<path style="fill:#9b6469; stroke:none;" d="M114 127L115 128L114 127M87 128L88 129L87 128M91 128L92 129L91 128M93.3333 128.667L93.6667 129.333L93.3333 128.667z"/>
<path style="fill:#442e30; stroke:none;" d="M109 128L109 129L113 129L109 128z"/>
<path style="fill:#9b6469; stroke:none;" d="M107 129L108 130L107 129M94.3333 130.667L94.6667 131.333L94.3333 130.667z"/>
<path style="fill:#442e30; stroke:none;" d="M105 130L104 133L105 130z"/>
<path style="fill:#9b6469; stroke:none;" d="M95 132L96 133L95 132M105 132L106 133L105 132M96 133L97 134L96 133z"/>
<path style="fill:#442e30; stroke:none;" d="M97 133L98 134L97 133M103 133L104 134L103 133z"/>
<path style="fill:#9b6469; stroke:none;" d="M102.333 134.667L102.667 135.333L102.333 134.667M97 135L98 136L97 135z"/>
<path style="fill:#442e30; stroke:none;" d="M99 136L101 139L99 136z"/>
<path style="fill:#9b6469; stroke:none;" d="M101 136L102 137L101 136M99 138L100 139L99 138z"/>
<path style="fill:#ffffff; stroke:none;" d="M28 155L25 179L30 179L30 175L35 175L35 179L40 179L37 155L28 155M42 155L42 179L47 179L47 169C52.6304 168.57 57.4748 161.713 52.3966 156.742C49.8996 154.298 45.1799 155.002 42 155M57 155L57 179C61.9222 178.148 62.5994 174.551 63 170L64 170L64 179L69 179L69 155C64.6953 156.394 63.9633 159.853 63 164L62 164L62 155L57 155M86 169L81 169L81 175L78 175L78 159L81 159L81 165L86 165C85.8565 152.861 73.1739 152.762 73.0039 165C72.9543 168.564 72.2447 173.637 74.7423 176.566C80.7572 183.621 85.8667 174.511 86 169M88 155L88 160L93 160L93 179L98 179L98 160L102 160L102 155L88 155M107.228 156.032C100.858 159.789 102.822 183.835 112.772 177.968C119.142 174.211 117.178 150.165 107.228 156.032M120 155L120 179L125 179L125 169C129.137 173.051 127.049 178.458 134 179C132.951 174.594 133.886 169.622 129 168L129 167C133.988 165.246 132.93 159.492 134 155C126.563 155.579 129.365 161.725 125 166L125 155L120 155M136 155L136 179L141 179L141 169C146.63 168.57 151.475 161.713 146.397 156.742C143.9 154.298 139.18 155.002 136 155M152 155L149 179L154 179L154 175L159 175L159 179L164 179L161 155L152 155M164 155L164 160L169 160L169 179L174 179L174 160L178 160L178 155L164 155z"/>
<path style="fill:#181818; stroke:none;" d="M32 159L31 171L34 171L32 159M47 159L47 165L49 165L49 159L47 159M109 159L109 175L111 175L111 159L109 159M141 159L141 165L143 165L143 159L141 159M156 159L155 171L158 171L156 159z"/>
<path style="fill:#442e30; stroke:none;" d="M199.333 185.667L199.667 186.333L199.333 185.667M0 186L1 187L0 186z"/>
<path style="fill:#ffffff; stroke:none;" d="M0 187L0 200L13 200L13 199C6.07608 197.603 3.28711 192.69 0 187M199 187C197.736 193.265 193.265 197.736 187 199L187 200L200 200L199 187z"/>
<path style="fill:#442e30; stroke:none;" d="M1 190L2 191L1 190M198 190L199 191L198 190M2 192L3 193L2 192M197 192L198 193L197 192M7 197L8 198L7 197M192 197L193 198L192 197M9 198L10 199L9 198M190 198L191 199L190 198M13 199L14 200L13 199M186 199L187 200L186 199z"/>
</svg>
