<?xml version="1.0" standalone="yes"?>
<svg xmlns="http://www.w3.org/2000/svg" width="200" height="200">
<path style="fill:#ffffff; stroke:none;" d="M0 0L0 13L1 13C2.26403 6.73515 6.73516 2.26402 13 1L0 0z"/>
<path style="fill:#1e1e1f; stroke:none;" d="M13 0.468369C-4.89076 3.9368 0 28.6711 0 42L0 150C0 161.762 -4.01266 182.822 2.72762 192.985C10.6227 204.888 35.6602 200 48 200L142 200C156.407 200 173.98 202.723 188 199.316C204.82 195.227 200 170.895 200 158L200 48C200 36.5879 204.018 15.5034 196.57 6.04398C188.043 -4.78674 163.272 0 151 0L59 0C44.3244 0 27.4142 -2.32607 13 0.468369z"/>
<path style="fill:#ffffff; stroke:none;" d="M187 0L187 1C193.265 2.26404 197.736 6.73515 199 13L200 13L200 0L187 0z"/>
<path style="fill:#406180; stroke:none;" d="M16.0046 5.46837C5.1164 7.6161 9 25.6048 9 34L9 112C9 118.411 5.98335 135.29 10.0278 140.397C12.1473 143.073 18.0196 142 21 142L53 142L148 142C160.277 142 178.184 145.346 189.852 141.566C196.11 139.539 193 117.615 193 112L193 34C193 27.9035 195.91 11.1171 191.397 6.60339C188.812 4.01869 183.306 5 180 5C169.343 5 158.653 4.75366 148 5.01466C117.95 5.75085 88.0772 5 58 5C44.604 5 29.1576 2.8739 16.0046 5.46837z"/>
<path style="fill:#6198c4; stroke:none;" d="M73 6L73 7L82 7L73 6M10 141L11 141L11 44C11 34.7445 7.29776 16.1056 15.5949 9.89352C19.8702 6.69261 26.9654 8 32 8L71 8C59.3062 3.09309 38.7295 7 26 7C20.8305 7 14.962 6.20164 11.6034 11.0586C6.36723 18.6308 10 37.969 10 47L10 141z"/>
<path style="fill:#6fa9dd; stroke:none;" d="M11 141L191 141C186.247 115.398 190 86.039 190 60C190 43.5229 187.18 24.0469 191 8L190 7C175.553 10.4396 158.69 7.72136 144 7.25848C116.019 6.37685 87.9449 7.99823 60 8L27 8C22.121 8 16.7565 7.22462 13.2284 11.3441C7.42965 18.115 11 37.4167 11 46L11 141z"/>
<path style="fill:#6198c4; stroke:none;" d="M136 7L136 8L141 8L136 7M146 7L146 8L189 8C177.774 3.28955 158.219 7 146 7M190 7L191 8L190 7M190 9L190 139L191 139L191 48C191 36.8419 194.308 19.2657 190 9z"/>
<path style="fill:#406180; stroke:none;" d="M70 29L71 29L76 25C72.4846 23.8812 70.9907 25.7295 70 29z"/>
<path style="fill:#6198c4; stroke:none;" d="M76 24L78 26L76 24z"/>
<path style="fill:#1e1e1f; stroke:none;" d="M63 65L64 65L77 36C76.9085 33.2191 79.1734 27.0475 75.6998 25.662C71.1213 23.8358 69.2455 31.0237 68.4244 33.9853C65.7197 43.7411 58.8579 54.8466 63 65z"/>
<path style="fill:#406180; stroke:none;" d="M78.3333 26.6667L78.6667 27.3333L78.3333 26.6667z"/>
<path style="fill:#6198c4; stroke:none;" d="M78 28L79 29L78 28M69 29L70 30L69 29z"/>
<path style="fill:#406180; stroke:none;" d="M78 29L79 30L78 29M87 32L91 30L87 32z"/>
<path style="fill:#6198c4; stroke:none;" d="M91 29L93 31L91 29M68.3333 30.6667L68.6667 31.3333L68.3333 30.6667M78 30L79 31L78 30M82.6667 30.3333L83.3333 30.6667L82.6667 30.3333z"/>
<path style="fill:#1e1e1f; stroke:none;" d="M88 36C82.2174 40.7924 78.2199 58.5526 78 66C87.8705 68.1179 106.896 77.4756 116.701 74.2307C120.035 73.127 120.902 67.8975 121.611 64.9853C123.754 56.1883 127.81 48.2174 128 39C118.031 37.0392 108.29 33.8566 98.2855 32.0193C93.584 31.1559 86.9259 28.6494 88 36z"/>
<path style="fill:#6198c4; stroke:none;" d="M94.6667 30.3333L95.3333 30.6667L94.6667 30.3333M77 31L78 32L77 31z"/>
<path style="fill:#406180; stroke:none;" d="M81 31L82 32L81 31z"/>
<path style="fill:#1e1e1f; stroke:none;" d="M82 31L72 63L75 63L77 58L84 31L82 31z"/>
<path style="fill:#406180; stroke:none;" d="M84.3333 31.6667L84.6667 32.3333L84.3333 31.6667M96 31L97 32L96 31M76 32L76 35L77 35L76 32M97 32L98 33L97 32M102 32L103 33L102 32z"/>
<path style="fill:#6198c4; stroke:none;" d="M67 33L68 34L67 33z"/>
<path style="fill:#406180; stroke:none;" d="M68 33L69 34L68 33z"/>
<path style="fill:#6198c4; stroke:none;" d="M79 33L80 34L79 33z"/>
<path style="fill:#406180; stroke:none;" d="M80 33L81 34L80 33z"/>
<path style="fill:#6198c4; stroke:none;" d="M84 33L85 34L84 33z"/>
<path style="fill:#406180; stroke:none;" d="M103 33L103 34L108 34L103 33z"/>
<path style="fill:#6198c4; stroke:none;" d="M108 33L109 34L108 33z"/>
<path style="fill:#406180; stroke:none;" d="M67 34L67 39L68 39L67 34M79 34L79 37L80 37L79 34z"/>
<path style="fill:#6198c4; stroke:none;" d="M109 34L109 35L113 35L109 34z"/>
<path style="fill:#406180; stroke:none;" d="M87 35L88 36L87 35z"/>
<path style="fill:#6198c4; stroke:none;" d="M113 35L114 36L113 35z"/>
<path style="fill:#406180; stroke:none;" d="M75 36L76 37L75 36z"/>
<path style="fill:#6198c4; stroke:none;" d="M76 36L77 37L76 36M85 36L86 37L85 36M119 36L120 37L119 36M75 37L75 42L76 42L75 37z"/>
<path style="fill:#406180; stroke:none;" d="M78 37L79 38L78 37M85 37L85 40L86 40L85 37M120 37L120 38L126 39L120 37z"/>
<path style="fill:#6198c4; stroke:none;" d="M125 37L126 38L125 37M66 38L67 39L66 38M77 38L78 39L77 38z"/>
<path style="fill:#406180; stroke:none;" d="M82 38L83 39L82 38z"/>
<path style="fill:#6198c4; stroke:none;" d="M126 38L126 39L129 39L126 38M65 39L64 43L65 43L65 39z"/>
<path style="fill:#406180; stroke:none;" d="M81 39L81 44L82 44L81 39M128 39L127 46L128 46L128 39z"/>
<path style="fill:#6198c4; stroke:none;" d="M85 40L86 41L85 40z"/>
<path style="fill:#406180; stroke:none;" d="M142 40L140 43L142 40z"/>
<path style="fill:#1e1e1f; stroke:none;" d="M137 74C142.522 69.6737 144.826 55.7297 146.629 49C147.328 46.39 147.995 41.3732 143.957 41.1674C140.267 40.9794 138.987 45.2294 138.176 47.9753C135.751 56.1819 129.373 67.2757 130.202 75.9414C130.796 82.1491 136.802 78.506 137 74z"/>
<path style="fill:#6198c4; stroke:none;" d="M145 40L146 41L145 40z"/>
<path style="fill:#406180; stroke:none;" d="M74 41L75 42L74 41M84 41L85 42L84 41z"/>
<path style="fill:#6198c4; stroke:none;" d="M132 41L132 44L133 44L132 41z"/>
<path style="fill:#406180; stroke:none;" d="M133.667 41.3333L134.333 41.6667L133.667 41.3333z"/>
<path style="fill:#6198c4; stroke:none;" d="M140 41L141 42L140 41z"/>
<path style="fill:#406180; stroke:none;" d="M146 41L147 42L146 41M65 42L66 43L65 42M73 42L72 46L73 46L73 42z"/>
<path style="fill:#6198c4; stroke:none;" d="M76 42L77 43L76 42z"/>
<path style="fill:#406180; stroke:none;" d="M77 42L78 43L77 42z"/>
<path style="fill:#1e1e1f; stroke:none;" d="M133 42L125 64L124 75L127 75L135 42L133 42z"/>
<path style="fill:#6198c4; stroke:none;" d="M135 42L136 43L135 42M139 42L140 43L139 42z"/>
<path style="fill:#406180; stroke:none;" d="M147 42L148 43L147 42M64 43L64 48L65 48L64 43M76 43L76 48L77 48L76 43z"/>
<path style="fill:#6198c4; stroke:none;" d="M136 43L137 47L138 47L136 43M138.333 43.6667L138.667 44.3333L138.333 43.6667z"/>
<path style="fill:#406180; stroke:none;" d="M148 43L147 46L148 43z"/>
<path style="fill:#6198c4; stroke:none;" d="M80 44L81 45L80 44z"/>
<path style="fill:#406180; stroke:none;" d="M131 44L131 49L132 49L131 44z"/>
<path style="fill:#6198c4; stroke:none;" d="M73 45L74 46L73 45z"/>
<path style="fill:#406180; stroke:none;" d="M79 45L80 46L79 45z"/>
<path style="fill:#6198c4; stroke:none;" d="M82 45L83 46L82 45M128 45L129 46L128 45z"/>
<path style="fill:#406180; stroke:none;" d="M135 45L134 52L135 52L135 45z"/>
<path style="fill:#6198c4; stroke:none;" d="M148 45L149 46L148 45M72 46L72 51L73 51L72 46z"/>
<path style="fill:#406180; stroke:none;" d="M82 46L82 49L83 49L82 46z"/>
<path style="fill:#6fa9dd; stroke:none;" d="M135 46L129 72L130 72L135 52L137 46L135 46z"/>
<path style="fill:#406180; stroke:none;" d="M138 46L139 47L138 46z"/>
<path style="fill:#6198c4; stroke:none;" d="M63 47L64 48L63 47M127 47L127 51L128 51L127 47z"/>
<path style="fill:#406180; stroke:none;" d="M137 47L137 52L138 52L137 47z"/>
<path style="fill:#6198c4; stroke:none;" d="M62 48L62 53L63 53L62 48M74 48L74 53L75 53L74 48z"/>
<path style="fill:#406180; stroke:none;" d="M78 49L79 50L78 49z"/>
<path style="fill:#6198c4; stroke:none;" d="M79 49L80 50L79 49M82 49L83 50L82 49M129 49L128 55L129 55L129 49z"/>
<path style="fill:#406180; stroke:none;" d="M130 49L131 50L130 49M71 50L72 51L71 50z"/>
<path style="fill:#6198c4; stroke:none;" d="M78 50L78 53L79 53L78 50M81 50L82 51L81 50z"/>
<path style="fill:#406180; stroke:none;" d="M126 50L127 51L126 50M146 50L147 51L146 50M70 51L70 56L71 56L70 51M125 51L125 56L126 56L125 51z"/>
<path style="fill:#6198c4; stroke:none;" d="M145 51L146 52L145 51M133 52L133 56L134 56L133 52M135.333 52.6667L135.667 53.3333L135.333 52.6667z"/>
<path style="fill:#406180; stroke:none;" d="M145 52L145 55L146 55L145 52M61 53L62 54L61 53M73 53L73 58L74 58L73 53M78 53L77 55L78 53z"/>
<path style="fill:#6198c4; stroke:none;" d="M78 54L79 55L78 54z"/>
<path style="fill:#406180; stroke:none;" d="M129 54L130 55L129 54M61 55L61 62L62 62L61 55M76.3333 55.6667L76.6667 56.3333L76.3333 55.6667z"/>
<path style="fill:#6198c4; stroke:none;" d="M79 55L80 56L79 55z"/>
<path style="fill:#406180; stroke:none;" d="M80 55L81 56L80 55M128 55L128 58L129 58L128 55M132 55L133 56L132 55M135 55L136 56L135 55z"/>
<path style="fill:#6198c4; stroke:none;" d="M145 55L146 56L145 55M69 56L69 60L70 60L69 56z"/>
<path style="fill:#406180; stroke:none;" d="M79 56L79 60L80 60L79 56M131 56L131 61L132 61L131 56M134 56L134 61L135 61L134 56z"/>
<path style="fill:#6198c4; stroke:none;" d="M124 57L124 60L125 60L124 57M71 58L71 64L72 64L71 58z"/>
<path style="fill:#406180; stroke:none;" d="M72 58L73 59L72 58M75 58L76 59L75 58z"/>
<path style="fill:#6198c4; stroke:none;" d="M76 58L77 59L76 58M126 58L125 64L126 64L126 58z"/>
<path style="fill:#406180; stroke:none;" d="M127 58L128 59L127 58M68 59L69 60L68 59z"/>
<path style="fill:#6198c4; stroke:none;" d="M75 59L75 64L76 64L75 59M78 59L79 60L78 59z"/>
<path style="fill:#406180; stroke:none;" d="M123 59L124 60L123 59M143 59L144 60L143 59M67 60L66 63L67 60z"/>
<path style="fill:#6198c4; stroke:none;" d="M77 60L78 61L77 60z"/>
<path style="fill:#406180; stroke:none;" d="M122 60L122 65L123 65L122 60z"/>
<path style="fill:#6198c4; stroke:none;" d="M142.333 60.6667L142.667 61.3333L142.333 60.6667M130 61L130 66L131 66L130 61M132 61L132 66L133 66L132 61M67 62L68 63L67 62z"/>
<path style="fill:#406180; stroke:none;" d="M142.333 62.6667L142.667 63.3333L142.333 62.6667M61 63L62 64L61 63M65 63L66 64L65 63M72 63L72 64L75 64L72 63M126 63L127 64L126 63z"/>
<path style="fill:#6198c4; stroke:none;" d="M62 64L63 65L62 64z"/>
<path style="fill:#406180; stroke:none;" d="M64 64L65 65L64 64z"/>
<path style="fill:#6198c4; stroke:none;" d="M142 64L143 65L142 64M121 65L122 66L121 65z"/>
<path style="fill:#406180; stroke:none;" d="M125 65L125 68L126 68L125 65z"/>
<path style="fill:#6198c4; stroke:none;" d="M78 66L78 67L81 67L78 66z"/>
<path style="fill:#406180; stroke:none;" d="M128 66L127 72L128 72L128 66z"/>
<path style="fill:#6198c4; stroke:none;" d="M129 66L130 67L129 66z"/>
<path style="fill:#406180; stroke:none;" d="M131 66L131 71L132 71L131 66M140.333 66.6667L140.667 67.3333L140.333 66.6667M81 67L81 68L85 68L81 67z"/>
<path style="fill:#6198c4; stroke:none;" d="M85 68L86 69L85 68M124 68L125 69L124 68M91 69L92 70L91 69M123 69L123 76L124 76L123 69z"/>
<path style="fill:#406180; stroke:none;" d="M140 69L141 70L140 69z"/>
<path style="fill:#6198c4; stroke:none;" d="M92 70L92 71L97 71L92 70z"/>
<path style="fill:#406180; stroke:none;" d="M97 70L98 71L97 70M119 70L119 74L120 74L119 70M139 70L140 71L139 70M98 71L98 72L102 72L98 71z"/>
<path style="fill:#6198c4; stroke:none;" d="M128 71L129 72L128 71z"/>
<path style="fill:#406180; stroke:none;" d="M130 71L131 72L130 71z"/>
<path style="fill:#6198c4; stroke:none;" d="M139 71L139 74L140 74L139 71z"/>
<path style="fill:#406180; stroke:none;" d="M92 72L90 75L94 74L92 72z"/>
<path style="fill:#6198c4; stroke:none;" d="M93 72L94 73L93 72M102 72L103 73L102 72M129 72L129 79L130 79L129 72z"/>
<path style="fill:#1e1e1f; stroke:none;" d="M88 88L84 97C86.8238 97.3595 90.9496 99.6704 93.5818 97.9537C97.2959 95.5315 102.737 79.0019 99.3958 75.5988C91.9362 68.0018 87.0907 82.7462 88 88z"/>
<path style="fill:#6198c4; stroke:none;" d="M95 73L95 74L99 74L95 73z"/>
<path style="fill:#406180; stroke:none;" d="M108 73L109 74L108 73z"/>
<path style="fill:#6198c4; stroke:none;" d="M127.333 73.6667L127.667 74.3333L127.333 73.6667z"/>
<path style="fill:#406180; stroke:none;" d="M99 74L100 75L99 74z"/>
<path style="fill:#6198c4; stroke:none;" d="M109 74L109 75L113 75L109 74z"/>
<path style="fill:#406180; stroke:none;" d="M114 74L117 76L117 75L114 74z"/>
<path style="fill:#6198c4; stroke:none;" d="M118 74L119 75L118 74z"/>
<path style="fill:#406180; stroke:none;" d="M137.333 74.6667L137.667 75.3333L137.333 74.6667M100 75L101 76L100 75z"/>
<path style="fill:#6198c4; stroke:none;" d="M101 75L101 82L102 82L101 75M114 75L115 76L114 75M117 75L118 76L117 75z"/>
<path style="fill:#406180; stroke:none;" d="M124 75L124 76L127 76L124 75M90 76L90 79L91 79L90 76M137 77L138 78L137 77z"/>
<path style="fill:#6198c4; stroke:none;" d="M136 78L137 79L136 78M88 79L89 80L88 79M130 79L131 80L130 79M135 79L136 80L135 79z"/>
<path style="fill:#406180; stroke:none;" d="M88 80L89 81L88 80z"/>
<path style="fill:#6198c4; stroke:none;" d="M131 80L132 81L131 80z"/>
<path style="fill:#406180; stroke:none;" d="M132.667 80.3333L133.333 80.6667L132.667 80.3333z"/>
<path style="fill:#6198c4; stroke:none;" d="M134 80L135 81L134 80M88 81L89 82L88 81z"/>
<path style="fill:#406180; stroke:none;" d="M88 82L89 83L88 82M99 82L99 86L100 86L99 82M87 83L88 84L87 83z"/>
<path style="fill:#6198c4; stroke:none;" d="M98 86L98 91L99 91L98 86z"/>
<path style="fill:#406180; stroke:none;" d="M87 87L88 88L87 87z"/>
<path style="fill:#6198c4; stroke:none;" d="M85 88L86 89L85 88z"/>
<path style="fill:#406180; stroke:none;" d="M85 89L85 92L86 92L85 89M96 91L96 96L97 96L96 91z"/>
<path style="fill:#6198c4; stroke:none;" d="M85 92L86 93L85 92M84 93L85 94L84 93z"/>
<path style="fill:#406180; stroke:none;" d="M95 96L96 97L95 96M84 97L84 98L89 98L84 97z"/>
<path style="fill:#6198c4; stroke:none;" d="M79 98L80 99L79 98z"/>
<path style="fill:#406180; stroke:none;" d="M79 99L79 100L82 100L79 99z"/>
<path style="fill:#6198c4; stroke:none;" d="M81 98L82 99L81 98M88 98L89 99L88 98z"/>
<path style="fill:#406180; stroke:none;" d="M94 98L95 99L94 98z"/>
<path style="fill:#6198c4; stroke:none;" d="M95 98L96 99L95 98z"/>
<path style="fill:#1e1e1f; stroke:none;" d="M78 104L98 108L98 103C92.5586 101.886 79.4125 95.9412 78 104z"/>
<path style="fill:#6198c4; stroke:none;" d="M83 99L83 100L87 100L83 99z"/>
<path style="fill:#406180; stroke:none;" d="M87 100L88 101L87 100z"/>
<path style="fill:#6198c4; stroke:none;" d="M77.3333 101.667L77.6667 102.333L77.3333 101.667z"/>
<path style="fill:#406180; stroke:none;" d="M88 101L89 102L88 101z"/>
<path style="fill:#6198c4; stroke:none;" d="M93 101L94 102L93 101z"/>
<path style="fill:#406180; stroke:none;" d="M94 102L94 103L98 103L94 102z"/>
<path style="fill:#6198c4; stroke:none;" d="M98 103L98 108L99 108L98 103M80 104L81 105L80 104M81 105L82 106L81 105z"/>
<path style="fill:#406180; stroke:none;" d="M82 105L82 106L85 106L82 105z"/>
<path style="fill:#6198c4; stroke:none;" d="M85.6667 105.333L86.3333 105.667L85.6667 105.333z"/>
<path style="fill:#406180; stroke:none;" d="M87 106L87 107L93 107L87 106z"/>
<path style="fill:#6198c4; stroke:none;" d="M79 107L79 108L86 108L79 107z"/>
<path style="fill:#406180; stroke:none;" d="M93 107L94 108L93 107M79 108L78 111L79 108z"/>
<path style="fill:#1e1e1f; stroke:none;" d="M77 118C79.3312 118 81.6669 118.04 83.9977 117.995C100.579 117.678 83.7522 100.246 78.2284 112.054C77.337 113.96 77.185 115.946 77 118z"/>
<path style="fill:#406180; stroke:none;" d="M91 109L92 110L91 109z"/>
<path style="fill:#6198c4; stroke:none;" d="M92 109L92 115L93 115L92 109M77 111L78 112L77 111M76 114L77 115L76 114z"/>
<path style="fill:#406180; stroke:none;" d="M76 115C77.8678 120.628 87.9809 120.657 91 116L90 116C85.7693 119.205 79.8008 118.628 76 115M91 115L92 116L91 115z"/>
<path style="fill:#6198c4; stroke:none;" d="M76 118L77 119L76 118M90 118L91 119L90 118z"/>
<path style="fill:#ffffff; stroke:none;" d="M19 160L17 179L21 176L24 176L24 179L28 179L26 160L19 160M30 160L30 179C36.9392 178.995 43.8239 175.689 38 168C42.5234 161.402 35.3209 160.019 30 160M42 160L42 164L45 164L45 179L49 179L49 164L52 164L52 160L42 160M57.2245 160.786C51.4333 163.088 52.4801 181.51 60.7755 178.214C66.5667 175.912 65.5199 157.49 57.2245 160.786M67 160L67 179L71 179L71 171C82.0177 169.732 75.5029 160.03 67 160M79 160L79 179L83 179L85 170L86 170L86 179L89 179L89 160L85 160L83 169L82 169L82 160L79 160M91 160L91 164L94 164L94 179L98 179L98 164L101 164L101 160L91 160M104 160L102 179L106 176L109 176L109 179L113 179L111 160L104 160M115 160L115 179L119 179L119 171C130.018 169.732 123.503 160.03 115 160M127 160L127 179L131 179L133 170L134 170L134 179L137 179L137 160L133 160L131 169L130 169L130 160L127 160M140 166L146 163L143 167L143 170L146 170L146 176L144 176L144 171L140 171C140.414 183.718 154.467 177.235 148 168C153.145 161.062 141.478 156.732 140 166M152 160L154 179C157.016 179 161.867 179.825 164.397 177.821C170.563 172.936 162.818 167.157 158 167L158 160L152 160M168 160L168 179L172 179L172 166L173 166L174 179L176 179L177 166L178 166L178 179L182 179L182 160L177 160L176 169L175 169L174 160L168 160z"/>
<path style="fill:#1e1e1f; stroke:none;" d="M22 163L21 173L24 173L22 163M34 163L34 166L36 166L36 163L34 163M58 163L58 176L60 176L60 163L58 163M71 163L71 168L73 168L73 163L71 163M107 163L106 173L109 173L107 163M119 163L119 168L121 168L121 163L119 163M34 170L34 176L36 176L36 170L34 170M158 170L158 176L162 176L162 170L158 170z"/>
<path style="fill:#ffffff; stroke:none;" d="M0 187L0 200L13 200L13 199C6.07608 197.603 3.28711 192.69 0 187M199 187C197.736 193.265 193.265 197.736 187 199L187 200L200 200L199 187z"/>
</svg>
