<?xml version="1.0" standalone="yes"?>
<svg xmlns="http://www.w3.org/2000/svg" width="200" height="200">
<path style="fill:#ffffff; stroke:none;" d="M0 0L0 13L1 13C2.26403 6.73515 6.73516 2.26402 13 1L0 0z"/>
<path style="fill:#62261c; stroke:none;" d="M13 0L14 1L13 0z"/>
<path style="fill:#191818; stroke:none;" d="M14 0.46759C-4.68246 3.99939 0 27.9168 0 42L0 151C0 162.884 -4.00477 183.924 3.65201 193.895C11.9763 204.735 36.9648 200 49 200L141 200C155.503 200 172.85 202.59 187 199.319C204.646 195.24 200 171.602 200 158L200 49C200 37.1161 204.005 16.0756 196.348 6.10493C188.024 -4.73503 163.035 0 151 0L60 0C45.289 0 28.4616 -2.26628 14 0.46759z"/>
<path style="fill:#62261c; stroke:none;" d="M186 0L187 1L186 0z"/>
<path style="fill:#ffffff; stroke:none;" d="M187 0L187 1C193.265 2.26404 197.736 6.73515 199 13L200 13L200 0L187 0z"/>
<path style="fill:#62261c; stroke:none;" d="M9 1L10 2L9 1M190 1L191 2L190 1M7 2L8 3L7 2M192 2L193 3L192 2M2 7L3 8L2 7M197 7L198 8L197 7M1 9L2 10L1 9M198 9L199 10L198 9M11 10L11 11L190 11L173 10L137 10L11 10z"/>
<path style="fill:#f15b44; stroke:none;" d="M11 11L11 140L190 140L190 11L11 11z"/>
<path style="fill:#62261c; stroke:none;" d="M0 13L1 14L0 13M199 13L200 14L199 13z"/>
<path style="fill:#01897b; stroke:none;" d="M10 17L10 140L11 140L11 54C11 43.366 14.1077 26.7892 10 17z"/>
<path style="fill:#62261c; stroke:none;" d="M98 22L98 23C106.69 21.0325 111.17 29.5002 119 32C113.278 26.9097 105.999 19.6637 98 22z"/>
<path style="fill:#191818; stroke:none;" d="M68 47C61.27 47.9893 62.0004 53.3353 62 59L62 89L56 94C50.791 94.4154 42.7139 106.722 42 112C35.1288 113.126 26.2444 124.906 33.7423 130.972C38.5979 134.901 54.8668 132 61 132L138 132C144.587 132 163.563 135.23 168.397 130.397C176.342 122.451 162.917 113.995 162 107L153 102C152.812 96.2457 149.467 92.7273 144 91C144 76.2369 144.7 56.8275 138 44C125.158 42.0229 115.794 23.5759 102.961 22.1883C96.0933 21.4456 84.7747 31.4618 79.5802 35.5887C75.588 38.7605 69.638 42.0571 68 47z"/>
<path style="fill:#62261c; stroke:none;" d="M95.3333 23.6667L95.6667 24.3333L95.3333 23.6667M94 25L95 26L94 25M93 26L94 27L93 26M89.3333 28.6667L89.6667 29.3333L89.3333 28.6667z"/>
<path style="fill:#f15b44; stroke:none;" d="M100 28L77 46L126 46C121.095 38.6639 108.471 30.2775 100 28z"/>
<path style="fill:#62261c; stroke:none;" d="M88 30L89 31L88 30M98 30L99 31L98 30M105 30L106 31L105 30M84 31L84 32L88 32L84 31M96.6667 31.3333L97.3333 31.6667L96.6667 31.3333M106 31L107 32L106 31M108 32L108 33L111 33L108 32M81 33L82 34L81 33M93 33L94 34L93 33M112 33L113 34L112 33M121 33L122 34L121 33M80 34L81 35L80 34M89.3333 34.6667L89.6667 35.3333L89.3333 34.6667M113.333 34.6667L113.667 35.3333L113.333 34.6667M124 34L126 37L124 34M77 36L77 37L80 37L77 36M88 36L89 37L88 36M106 42L106 41C102.093 41.2025 100.212 40.9061 99 37L106 37C98.0243 33.6896 96.282 43.4941 106 42M114 36L115 37L114 36M76 37L77 38L76 37M87 37L88 38L87 37z"/>
<path style="fill:#191818; stroke:none;" d="M99 37C99.7473 41.4647 101.836 41.6456 106 41L106 37L99 37z"/>
<path style="fill:#62261c; stroke:none;" d="M115 37L115 38L118 38L115 37M126 37L127 38L126 37M75 38L76 39L75 38M118 38L119 39L118 38M127 38L128 39L127 38M83 39L84 40L83 39M130.333 39.6667L130.667 40.3333L130.333 39.6667M71 41L71 42L74 42L71 41M82 41L83 42L82 41M120 41L121 42L120 41M131 41L132 42L131 41M70 42L71 43L70 42M81 42L82 43L81 42M121 42L121 43L124 43L121 42M132 42L133 43L132 42M69 43L70 44L69 43M124 43L125 44L124 43M133 43L134 44L133 43M63 49L64 49L68 47C65.3872 45.502 63.6455 45.9876 63 49M77 46L77 47L126 47C113.348 41.691 90.7879 46 77 46M138 46L139 47L138 46M140.667 47.3333L141.333 47.6667L140.667 47.3333M142 48L142 72L143 72L142 48M70 52L68 68L69 68L70 52M80 52L80 53L83 53L82 63L83 63C84.2959 58.6143 85.0377 53.672 80 52M89 52L89 53L94 53L89 52M100 52L100 53L103 53L100 52M112.667 52.3333L113.333 52.6667L112.667 52.3333M120 52L120 53L124 53L124 81C126.56 74.8989 127.801 53.302 120 52M132.667 52.3333L133.333 52.6667L132.667 52.3333z"/>
<path style="fill:#f15b44; stroke:none;" d="M70 53L68 91L74 91L74 65L71 65L70 53M80 53L80 79L82 79L83 53L80 53M89 53L89.946 79L88.6574 88.5664L95 91L94 53L89 53M100 53L102 80L103 80L103 53L100 53M112 53L112 58L109 58C109 66.007 104.729 90.1997 115 91L114 53L112 53M120 53L120 54C124.595 60.0653 122 73.5497 122 81L124 81L124 53L120 53M132 53L131 91L138 90L136 61L134 53L132 53z"/>
<path style="fill:#62261c; stroke:none;" d="M89 54L89 84L90 84L89 54M121 54L121 81L122 81L121 54M133 54L134 55L133 54M136 55L136 88L137 88L136 55M109 57L109 58L112 58L109 57M113 58L113 69L114 69L113 58M100 68L101 69L100 68M101 69L101 80L102 80L101 69M115 70L115 91L116 91L115 70M143 72L144 73L143 72M144 73L145 74L144 73M130 76L130 91L131 91L130 76M80.6667 79.3333L81.3333 79.6667L80.6667 79.3333M94 83L95 84L94 83M95 84L95 91L96 91L95 84M87 85L87 89L88 89L87 85M59 88L59 89L62 89L59 88M137 88L138 89L137 88M58 90L59 91L58 90M89 90L90 91L89 90M109 90L110 91L109 90M136 90L137 91L136 90M144 90L145 91L144 90M147 91L148 92L147 91M51 93L51 94L56 94L51 93M147 93L147 94L150 94L147 93M150 94L151 95L150 94M49 96L49 102L50 102L49 96M153 96L153 102L154 102L153 96M55 102L56 102L56 99L118 99L148 101C143.266 96.1655 134.347 98 128 98L76 98C70.1599 98 57.216 95.3232 55 102z"/>
<path style="fill:#f15b44; stroke:none;" d="M56 99L56 102L99 102L99 107L50 107L50 112L153 112C150.902 106.293 146.362 107 141 107L109 107L109 102L147 101C141.253 96.6457 129.029 99 122 99L56 99z"/>
<path style="fill:#62261c; stroke:none;" d="M48 102L49 103L48 102M98 102L98 107L99 107L98 102M109 102L110 103L109 102M156 102L156 105L157 105L156 102M44 104L44 105L48 105L44 104M43.3333 105.667L43.6667 106.333L43.3333 105.667M109 106L110 107L109 106M159 106L160 107L159 106M42 107L43 108L42 107M49 107L49 112L50 112L49 107M151 107L152 108L151 107M162 107L162 112L163 112L162 107M152 109L153 110L152 109M153.333 110.667L153.667 111.333L153.333 110.667M37.3333 112.667L37.6667 113.333L37.3333 112.667M36 114L37 115L36 114M164 114L165 115L164 114M35 115L36 116L35 115M168 116L169 117L168 116M31 117L33 131L31 117M37 126L163 126L163 119L67 119C58.61 119 37.8594 114.734 37 126z"/>
<path style="fill:#f15b44; stroke:none;" d="M38 125L162 125L162 120L67 120C59.9857 120 39.4463 116.334 38 125z"/>
<path style="fill:#62261c; stroke:none;" d="M169 130L170 131L169 130M168 131L169 132L168 131M11 140L11 141L190 141L173 140L137 140L11 140z"/>
<path style="fill:#ffffff; stroke:none;" d="M17 155L17 175L26 175L26 178L30 178L29 155L25 155L25 171L21 171L21 155L17 155M31 155L31 175L39 175L39 171L35 171L35 167L38 167L38 163L35 163L35 159L38 159L38 155L31 155M41 155L41 175L45 175L45 166L48 166L48 175L52 175L52 155L48 155L48 162L45 162L45 155L41 155M54 155L54 159L58 159L58 175L62 175L62 159L65 159L65 155L54 155M67 155L67 175L71 175L71 167C75.9393 166.623 81.2311 161.442 76.3966 156.603C74.1441 154.349 69.8921 155.002 67 155M81 155L79 175L83 175L83 171L86 171L86 175L90 175L88 155L81 155M93 155L91 175C98.9342 173.735 97 165.298 97 159L100 159L100 175L104 175L104 155L93 155M107 155L107 175C111.922 174.148 112.599 170.551 113 166L114 166L114 175L118 175L118 155C113.078 155.852 112.401 159.449 112 164L111 164L111 155L107 155M121 162L125 162L125 158L127 158L124 163L124 166L127 166L127 172L125 172L125 167L121 167C121.414 179.718 135.467 173.235 129 164C134.615 156.461 121.837 151.033 121 162M135 155L133 175L137 175L137 171L140 171L140 175L144 175L142 155L135 155M146 155L146 175L155 175L155 178L159 178L158 155L154 155L154 171L150 171L150 155L146 155M160 155L160 175C164.922 174.148 165.599 170.551 166 166L167 166L167 175L171 175L171 155C166.078 155.852 165.401 159.449 165 164L164 164L164 155L160 155M176 164L176 165L174 175L178 175L178 166L180 166L180 175L184 175L184 155C178.289 155.02 170.872 157.188 176 164z"/>
<path style="fill:#191818; stroke:none;" d="M71 158L71 164L74 164L74 158L71 158M84 158L83 168L86 168L84 158M138 158L137 168L140 168L138 158M178 158L178 162L180 162L180 158L178 158z"/>
<path style="fill:#62261c; stroke:none;" d="M0 186L1 187L0 186M199 186L200 187L199 186z"/>
<path style="fill:#ffffff; stroke:none;" d="M0 187L0 200L13 200L13 199C6.07608 197.603 3.28711 192.69 0 187M199 187C197.736 193.265 193.265 197.736 187 199L187 200L200 200L199 187z"/>
<path style="fill:#62261c; stroke:none;" d="M1 190L2 191L1 190M198 190L199 191L198 190M2 192L3 193L2 192M197 192L198 193L197 192M7 197L8 198L7 197M192 197L193 198L192 197M9 198L10 199L9 198M190 198L191 199L190 198M13 199L14 200L13 199M186 199L187 200L186 199z"/>
</svg>
