<?xml version="1.0" standalone="yes"?>
<svg xmlns="http://www.w3.org/2000/svg" width="200" height="200">
<path style="fill:#ffffff; stroke:none;" d="M0 0L0 13L1 13C2.26403 6.73515 6.73516 2.26402 13 1L0 0z"/>
<path style="fill:#1a1919; stroke:none;" d="M13 0.468369C-4.89076 3.9368 0 28.6711 0 42L0 150C0 161.762 -4.01266 182.822 2.72762 192.985C10.6227 204.888 35.6602 200 48 200L142 200C156.407 200 173.98 202.723 188 199.316C204.82 195.227 200 170.895 200 158L200 48C200 36.5879 204.018 15.5034 196.57 6.04398C188.043 -4.78674 163.272 0 151 0L59 0C44.3244 0 27.4142 -2.32607 13 0.468369z"/>
<path style="fill:#ffffff; stroke:none;" d="M187 0L187 1C193.265 2.26404 197.736 6.73515 199 13L200 13L200 0L187 0z"/>
<path style="fill:#fc1d49; stroke:none;" d="M11 9L11 147L191 147L191 9L11 9z"/>
<path style="fill:#01897b; stroke:none;" d="M10 17L10 140L11 140L11 54C11 43.366 14.1077 26.7892 10 17z"/>
<path style="fill:#5c0b1b; stroke:none;" d="M85 20L86 21L85 20z"/>
<path style="fill:#1a1919; stroke:none;" d="M54 36C67.2053 31.5705 79.9651 24.6207 94 29L78 58L79 60C76.0318 62.0716 74.6495 65.7309 71.5355 67.6821C59.7444 75.0704 58 62.052 58 54L42 54L42 89L58 89C58 79.6104 58.8661 76.0291 69 76C65.3494 90.3074 54.5964 105.286 47.1242 117.999C45.1498 121.358 38.7113 130.981 40.2523 134.771C44.5034 145.227 55.2768 120.094 59.0147 119.988C64.2353 119.84 70.8903 124.502 76 125.816C91.256 129.737 108.948 131.08 124 125.674C132.096 122.767 139.843 117.514 145.727 111.271C149.412 107.36 151.022 102.528 156 100L161.941 71.0394L153 47C145.61 41.5578 141.157 33.4632 133 28.7639C111.359 16.2961 71.2315 14.6024 54 36z"/>
<path style="fill:#5c0b1b; stroke:none;" d="M114 21L115 22L114 21M75 22L75 23L80 23L75 22M115 22L115 23L119 23L115 22M74 23L75 24L74 23M119 23L120 24L119 23M123 24L124 25L123 24M67 25L67 26L71 26L67 25M125 25L125 26L128 26L125 25M66 26L67 27L66 26M128.667 26.3333L129.333 26.6667L128.667 26.3333M65 27L66 28L65 27M79 27L79 28L91 28L79 27M130 27L131 28L130 27M64 28L65 29L64 28M61 29L61 30L64 30L61 29M72 29L73 30L72 29M93 29L93 32L94 32L93 29M134 29L135 30L134 29M60 30L61 31L60 30M67 30L67 31L72 31L67 30M104 30L104 31L109 31L104 30M135 30L136 31L135 30M59 31L60 32L59 31z"/>
<path style="fill:#fc1d49; stroke:none;" d="M104 31C105.892 39.3736 113.736 63.8223 122.188 67.3966C129.431 70.4596 142.162 68 150 68C148.522 45.7501 124.133 31.8645 104 31z"/>
<path style="fill:#5c0b1b; stroke:none;" d="M136 31L137 32L136 31M62 32L63 33L62 32M116 32L117 33L116 32M55 33L56 34L55 33M120 33L121 34L120 33M140 33L141 34L140 33M54 34L55 35L54 34M57 34L57 35L60 35L57 34M91 34L92 35L91 34M104 34L105 35L104 34M121 34L122 35L121 34M141 34L142 35L141 34M56 35L57 36L56 35M90.3333 35.6667L90.6667 36.3333L90.3333 35.6667M105.333 35.6667L105.667 36.3333L105.333 35.6667M122 35L123 36L122 35M125 36L126 37L125 36M89 37L90 38L89 37M106 37L107 38L106 37M128 37L129 38L128 37M142 37L142 38L145 38L142 37M129.667 38.3333L130.333 38.6667L129.667 38.3333M88 39L89 40L88 39M131 39L132 40L131 39M145 39L146 40L145 39M87 40L86 43L87 40M146 40L147 41L146 40M134 41L135 42L134 41M147 41L148 42L147 41M107 42L108 43L107 42M135 42L136 43L135 42M148.333 42.6667L148.667 43.3333L148.333 42.6667M85 43L86 44L85 43M108.333 43.6667L108.667 44.3333L108.333 43.6667M136 43L137 44L136 43M96 44L95 46L96 44z"/>
<path style="fill:#fc1d49; stroke:none;" d="M88 64L86 68L108 68L99 44C93.6516 46.8036 87.9809 58.0348 88 64z"/>
<path style="fill:#5c0b1b; stroke:none;" d="M99 44L99 48L100 48L99 44M137 44L138 45L137 44M149 44L150 45L149 44M84 45L84 49L85 49L86 45L84 45M109 45L110 46L109 45M138 45L139 46L138 45M150 45L151 46L150 45M139 46L140 49L141 49L141 46L139 46M151 46L152 47L151 46M94 47L95 48L94 47M93 48L93 52L94 52L93 48M111 48L111 51L112 51L111 48M152 48L153 49L152 48M83 49L84 50L83 49M141 49L142 50L141 49M153 49L154 50L153 49M82 50L83 51L82 50M101 50L102 51L101 50M142 50L143 51L142 50M154.333 50.6667L154.667 51.3333L154.333 50.6667M81 51L81 54L82 54L81 51M102.333 51.6667L102.667 52.3333L102.333 51.6667M91 52L92 53L91 52M145 52L145 55L146 55L145 52M155 52L156 53L155 52M42 53L42 54L58 54L42 53M103 53L104 54L103 53M41 54L41 90L58 90L58 89L42 89L41 54M58 54L58 66L59 66L58 54M91 54L92 55L91 54M113 54L114 55L113 54M156 54L157 55L156 54M79 55L78 58L79 55M90.3333 55.6667L90.6667 56.3333L90.3333 55.6667M114 55L114 59L115 59L114 55M157 55L157 59L158 59L157 55M89 57L90 58L89 57M104 57L105 60L106 60L106 57L104 57M147 57L148 58L147 57M88.3333 58.6667L88.6667 59.3333L88.3333 58.6667M148 58L148 63L149 63L148 58M78 59L79 60L78 59M76 60L76 63L77 63L76 60M87 60L88 61L87 60M107 61L108 62L107 61M116 61L117 64L118 64L118 61L116 61M87.3333 62.6667L87.6667 63.3333L87.3333 62.6667M75 63L76 64L75 63M107 63L108 64L107 63M160 63L160 67L161 67L160 63M85 64L85 68L86 68L85 64M108 64L108 68L109 68L108 64M118 64L119 65L118 64M74 65L75 66L74 65M119.333 65.6667L119.667 66.3333L119.333 65.6667M73 66L74 67L73 66M120 67L121 68L120 67M59 68L59 69L72 69L59 68M86 68L86 69L108 69L86 68M121 68L121 69L149 69L121 68M60 76L60 77L69 77L60 76M79 79C86.7814 75.7028 107.564 73.9241 114 80C113.707 75.8488 109.42 76.0243 106 76.0008C98.4368 75.9486 84.5807 73.3012 79 79M125 76L127 81L126 77L153 78C146.307 73.4278 132.921 76 125 76M58.6667 77.3333L59.3333 77.6667L58.6667 77.3333z"/>
<path style="fill:#fc1d49; stroke:none;" d="M63 110C78.6555 120.022 95.9288 125.892 114.715 120.534C120.016 119.022 124.782 115.78 130 114C124.941 104.031 121.601 85.9271 113.215 78.6034C109.886 75.6972 103.1 77 99 77C93.7298 77 86.0123 75.6016 81.1327 77.858C72.9382 81.6474 67.1212 102.247 63 110M126 77C127.072 84.7992 132.943 102.297 140 106C146.28 96.8136 150.728 89.0632 153 78L126 77z"/>
<path style="fill:#5c0b1b; stroke:none;" d="M161 77L162 78L161 77M160 78L160 87L161 87L160 78M58 79L58 89L59 89L58 79M67 79L67 82L68 82L67 79M77 81L78 82L77 81M115 81L116 82L115 81M152 81L153 82L152 81M76.3333 82.6667L76.6667 83.3333L76.3333 82.6667M116.333 82.6667L116.667 83.3333L116.333 82.6667M151 82L151 88L152 88L151 82M126 83L127 84L126 83M64 84L64 87L65 87L66 84L64 84M75 84L76 85L75 84M117 84L118 85L117 84M127 84L128 85L127 84M128 85L130 89L128 85M63 87L64 88L63 87M73 87L73 91L74 91L73 87M118 88L119 89L118 88M150 88L151 89L150 88M119.333 89.6667L119.667 90.3333L119.333 89.6667M61 91L62 92L61 91M120 91L121 92L120 91M131 91L131 94L132 94L131 91M148 91L148 96L149 96L148 91M157 91L157 95L158 95L157 91M60 92L61 93L60 92M71 93L72 94L71 93M70.3333 94.6667L70.6667 95.3333L70.3333 94.6667M58 95L58 99L59 99L58 95M69 96L70 97L69 96M121 96L122 97L121 96M133 96L134 97L133 96M147 96L148 97L147 96M155 96L156 97L155 96M122.333 97.6667L122.667 98.3333L122.333 97.6667M134 97L134 102L135 102L134 97M146 97L147 98L146 97M145.333 98.6667L145.667 99.3333L145.333 98.6667M57 99L58 100L57 99M67 99L67 103L68 103L67 99M123 99L124 100L123 99M144 100L145 101L144 100M153 100L153 101L156 101L153 100M56 101L57 102L56 101M143 101L144 102L143 101M152.333 101.667L152.667 102.333L152.333 101.667M55.3333 102.667L55.6667 103.333L55.3333 102.667M142 102L143 103L142 102M66 103L67 104L66 103M125 103L125 106L126 106L125 103M141 103L142 104L141 103M151 103L152 104L151 103M54 104L55 105L54 104M136 104L137 105L136 104M140.333 104.667L140.667 105.333L140.333 104.667M150 104L151 105L150 104M53 105L54 106L53 105M65 105L66 106L65 105M137 105L138 106L137 105M149.333 105.667L149.667 106.333L149.333 105.667M64.3333 106.667L64.6667 107.333L64.3333 106.667M52 107L52 110L53 110L52 107M148 107L149 108L148 107M63 108L64 109L63 108M62 109L63 110L62 109M127 109L128 110L127 109M50 110L50 114L51 114L50 110M64 110L65 111L64 110M128.333 110.667L128.667 111.333L128.333 110.667M146 110L147 111L146 110M65 111L66 112L65 111M145 111L146 112L145 111M66 112L67 113L66 112M129 112L130 113L129 112M144 112L145 113L144 112M67 113L68 114L67 113M143 113L144 114L143 113M49 114L50 115L49 114M70 114L71 115L70 114M142 114L143 115L142 114M48 115L49 116L48 115M71 115L72 116L71 115M126 115L127 116L126 115M141 115L142 116L141 115M47.3333 116.667L47.6667 117.333L47.3333 116.667M72.6667 116.333L73.3333 116.667L72.6667 116.333M123 116L123 117L126 117L123 116M139.667 116.333L140.333 116.667L139.667 116.333M122 117L123 118L122 117M46 118L47 119L46 118M77 118L78 119L77 118M119 118L120 119L119 118M137 118L138 119L137 118M57 119L57 120L60 120L57 119M78 119L78 120L81 120L78 119M116 119L116 120L119 120L116 119M136 119L137 120L136 119M45 120L46 121L45 120M55.6667 120.333L56.3333 120.667L55.6667 120.333M60 120L60 121L63 121L60 120M81 120L82 121L81 120M133 120L133 121L136 121L133 120M44 121L44 125L45 125L44 121M87 121L88 122L87 121M108 121L109 122L108 121M65 122L66 123L65 122M131 122L132 123L131 122M54 123L55 124L54 123M66 123L66 124L71 124L66 123M128 123L128 124L131 124L128 123M53.3333 124.667L53.6667 125.333L53.3333 124.667M71.6667 124.333L72.3333 124.667L71.6667 124.333M126.667 124.333L127.333 124.667L126.667 124.333M73 125L74 126L73 125M125 125L126 126L125 125M52 126L53 127L52 126M79 126L80 127L79 126M42 127L43 128L42 127M80 127L80 128L86 128L80 127M115 127L115 128L120 128L115 127M41.3333 128.667L41.6667 129.333L41.3333 128.667M86 128L86 129L97 129L86 128M106 128L106 129L115 129L106 128M105 129L106 130L105 129M40 130L41 131L40 130M50 130L50 133L51 133L50 130M39 132L40 133L39 132M38.3333 133.667L38.6667 134.333L38.3333 133.667M47 134L47 137L48 137L47 134M39 135L40 136L39 135M40 136L41 137L40 136M11 147L11 148L191 148L173 147L137 147L11 147z"/>
<path style="fill:#ffffff; stroke:none;" d="M18 163L18 181L22 181L22 173L24 173C24.0526 177.434 24.1945 180.198 29 181L25 172L25 171L29 163C24.6381 163.728 24.1371 165.824 24 170L22 170L22 163L18 163M32.3179 164.043C27.1947 167.256 29.528 185.071 37.6821 179.957C42.8053 176.744 40.472 158.929 32.3179 164.043M43 163L42 181C48.7898 179.867 47 172.461 47 167L49 167L49 181L53 181L53 163L43 163M56 163L56 181L64 181L64 177L60 177L63 174L60 170L60 167L63 167L63 163L56 163M66 163L66 181L70 181L70 173L72 173C72.0526 177.434 72.1945 180.198 77 181L73 172L73 171L76 164L77 164L80 167L80 181L84 181L84 167L87 167L87 163C79.9755 163 72.2944 161.035 72 170L70 170L70 163L66 163M89 163L89 181C92.8219 179.67 93.4259 176.8 94 173L95 173L95 181L98 181L98 163C94.1781 164.33 93.5741 167.2 93 171L92 171L92 163L89 163M101 163L101 181C106.965 180.995 114.491 179.257 109 172C113.825 165.066 106.915 163.021 101 163M114 163L114 181C117.822 179.67 118.426 176.8 119 173L120 173L120 181L123 181L123 163C119.178 164.33 118.574 167.2 118 171L117 171L117 163L114 163M126 168L130 166L131 166L131 178L130 178L130 173L126 173C126.446 186.7 139.749 176.899 133 171C137.645 164.226 127.357 159.868 126 168M139 163L137 181L141 178L144 178L144 181L148 181L146 163L139 163M150 163L150 181L158 181L158 184L162 184L161 163L157 163L157 177L154 177L154 163L150 163M163 163L163 181C166.822 179.67 167.426 176.8 168 173L169 173L169 181L172 181L172 163C168.178 164.33 167.574 167.2 167 171L166 171L166 163L163 163M177 172L175 181L179 181L179 173L180 173L180 181L184 181L184 163C178.114 163.07 172.616 165.7 177 172z"/>
<path style="fill:#1a1919; stroke:none;" d="M34 166L34 178L36 178L36 166L34 166M105 166L105 170L107 170L107 166L105 166M142 166L141 175L144 175L142 166M179 166L179 170L180 170L179 166M105 173L105 178L107 178L107 173L105 173z"/>
<path style="fill:#ffffff; stroke:none;" d="M0 187L0 200L13 200L13 199C6.07608 197.603 3.28711 192.69 0 187M199 187C197.736 193.265 193.265 197.736 187 199L187 200L200 200L199 187z"/>
</svg>
