<?xml version="1.0" standalone="yes"?>
<svg xmlns="http://www.w3.org/2000/svg" width="200" height="200">
<path style="fill:#ffffff; stroke:none;" d="M0 0L0 13L1 13C2.26403 6.73515 6.73516 2.26402 13 1L0 0z"/>
<path style="fill:#1d1c1c; stroke:none;" d="M13 0.479172C-4.82877 4.16052 0 28.6517 0 42L0 150C0 161.788 -4.01832 182.842 2.87886 192.957C10.9287 204.762 35.6773 200 48 200L142 200C156.285 200 174.188 202.881 188 199.072C204.784 194.442 200 170.239 200 157L200 47C200 35.3657 203.971 14.5443 195.606 5.18904C186.746 -4.71915 162.078 0 150 0L58 0C43.7269 0 26.9861 -2.40872 13 0.479172z"/>
<path style="fill:#ffffff; stroke:none;" d="M187 0L187 1C193.265 2.26404 197.736 6.73515 199 13L200 13L200 0L187 0z"/>
<path style="fill:#5b2326; stroke:none;" d="M7 2L8 3L7 2M192 2L193 3L192 2M8 6L8 108L9 108L9 37L8 6z"/>
<path style="fill:#fe5f67; stroke:none;" d="M9 6L9 140L190 140L190 6L9 6z"/>
<path style="fill:#5b2326; stroke:none;" d="M2 7L3 8L2 7M197 7L198 8L197 7M198 9L199 10L198 9M199 13L200 14L199 13z"/>
<path style="fill:#a23d42; stroke:none;" d="M93 30L94 31L93 30z"/>
<path style="fill:#5b2326; stroke:none;" d="M93 33L94 33C97.7498 30.1597 101.769 30.7002 105 34C105.139 28.1393 95.3743 29.3378 93 33z"/>
<path style="fill:#1d1c1c; stroke:none;" d="M89 42C84.4419 42 77.3194 40.7186 73.3179 43.3179C64.8819 48.7978 77.7879 56.185 82 58L82 62C77.5914 65.4423 78.322 69.7205 81 74C65.33 74 51.0819 79.2492 35 79.9606C29.6232 80.1985 20.5716 80.0093 16.5772 84.3179C13.5263 87.6088 15.4638 92.0357 15 96C17.3799 99.1363 16.7441 103.425 20.1481 105.968C29.4276 112.9 45.5347 99.9465 56 101C54.2639 111.691 68.8167 114.207 75.7222 108.811C78.0456 106.995 79.3919 101.428 82.9614 101.921C90.4351 102.954 95.6736 117.647 104 120.415C111.333 122.853 126.608 117.145 123.342 107.105C121.963 102.868 114.453 99.5495 111 97C131.714 91.8969 154.967 99.027 175 93.5008C185.701 90.5489 184.909 76.37 175.556 71.8588C168.77 68.5855 165.657 76.4474 159.961 76.8565C156.81 77.0828 153.201 74.7267 150 74.2901C142.645 73.2871 127.391 76.0138 121.318 71.9722C118.358 70.0027 118.078 64.2361 118 61L116 58C121.323 55.9988 133.83 48.4421 123.941 43.0278C119.708 40.7098 112.693 42 108 42C106.758 26.9606 92.2029 28.9072 89 42z"/>
<path style="fill:#a23d42; stroke:none;" d="M105 31L106 32L105 31M92 32L93 33L92 32M91 33L90 36L91 33M107 34L107 38L108 38L107 34z"/>
<path style="fill:#5b2326; stroke:none;" d="M91 35L92 36L91 35z"/>
<path style="fill:#a23d42; stroke:none;" d="M98 35L99 38L100 38L98 35z"/>
<path style="fill:#5b2326; stroke:none;" d="M99 35L100 36L99 35M90 36L90 39L91 39L90 36z"/>
<path style="fill:#fe5f67; stroke:none;" d="M98 36C95.4529 47.8646 89.8539 48 79 48L79 49C88.9534 54.6667 90.1613 57.4239 86 68C98.1296 61.9874 99.955 62.7326 112 68L107 55L119 48L103.879 46.1065L98 36z"/>
<path style="fill:#5b2326; stroke:none;" d="M108 38L108 42L109 42L108 38z"/>
<path style="fill:#a23d42; stroke:none;" d="M88 39L75 41L75 42C78.119 42 88.7559 43.5857 88 39z"/>
<path style="fill:#5b2326; stroke:none;" d="M96 39L97 40L96 39z"/>
<path style="fill:#a23d42; stroke:none;" d="M96 40L96 43L97 43L96 40z"/>
<path style="fill:#5b2326; stroke:none;" d="M88 41L89 42L88 41M101 41L102 42L101 41z"/>
<path style="fill:#a23d42; stroke:none;" d="M109 41L109 42L124 42L109 41M74 42L75 43L74 42M102 42L102 46L103 46L102 42M124 42L125 43L124 42M95 43L96 44L95 43M125 43L126 44L125 43M70 44L71 45L70 44z"/>
<path style="fill:#5b2326; stroke:none;" d="M126 44L127 45L126 44M70 45L70 51L71 51L70 45M103 45L104 46L103 45M127 45L128 50L129 50L127 45z"/>
<path style="fill:#a23d42; stroke:none;" d="M128 45L129 46L128 45z"/>
<path style="fill:#5b2326; stroke:none;" d="M94 46L95 47L94 46z"/>
<path style="fill:#a23d42; stroke:none;" d="M93 47L94 48L93 47M78 48L80 50L78 48z"/>
<path style="fill:#5b2326; stroke:none;" d="M119 48L120 49L119 48M78 49L79 50L78 49z"/>
<path style="fill:#a23d42; stroke:none;" d="M118 49L119 50L118 49M80 50L80 51L83 51L80 50z"/>
<path style="fill:#5b2326; stroke:none;" d="M117 50L118 51L117 50z"/>
<path style="fill:#a23d42; stroke:none;" d="M128 50L129 51L128 50M70 51L71 52L70 51z"/>
<path style="fill:#5b2326; stroke:none;" d="M82 51L83 52L82 51M116 51L117 52L116 51M126 51L127 52L126 51z"/>
<path style="fill:#a23d42; stroke:none;" d="M71 52L72 53L71 52M84 52L85 53L84 52z"/>
<path style="fill:#5b2326; stroke:none;" d="M113 52L114 53L113 52M125 52L126 53L125 52z"/>
<path style="fill:#a23d42; stroke:none;" d="M72 53L74 55L72 53z"/>
<path style="fill:#5b2326; stroke:none;" d="M73 53L74 54L73 53M85.6667 53.3333L86.3333 53.6667L85.6667 53.3333M112 53L113 54L112 53z"/>
<path style="fill:#a23d42; stroke:none;" d="M124 53L125 54L124 53z"/>
<path style="fill:#5b2326; stroke:none;" d="M74.6667 54.3333L75.3333 54.6667L74.6667 54.3333M87 54L88 55L87 54z"/>
<path style="fill:#a23d42; stroke:none;" d="M88 54L89 55L88 54M109.667 54.3333L110.333 54.6667L109.667 54.3333z"/>
<path style="fill:#5b2326; stroke:none;" d="M111 54L112 55L111 54z"/>
<path style="fill:#a23d42; stroke:none;" d="M123 54L124 55L123 54M76 55L77 56L76 55M89 55L90 56L89 55M107 55L108 56L107 55z"/>
<path style="fill:#5b2326; stroke:none;" d="M108 55L109 56L108 55M120 55L121 56L120 55z"/>
<path style="fill:#a23d42; stroke:none;" d="M122 55L123 56L122 55z"/>
<path style="fill:#5b2326; stroke:none;" d="M78 56L79 57L78 56z"/>
<path style="fill:#a23d42; stroke:none;" d="M90.3333 56.6667L90.6667 57.3333L90.3333 56.6667z"/>
<path style="fill:#5b2326; stroke:none;" d="M107 56L108 57L107 56z"/>
<path style="fill:#a23d42; stroke:none;" d="M119 56L120 57L119 56M80 57L81 58L80 57M108 57L108 61L109 61L108 57M118 57L119 58L118 57z"/>
<path style="fill:#5b2326; stroke:none;" d="M81 58L82 59L81 58z"/>
<path style="fill:#a23d42; stroke:none;" d="M89 58L90 59L89 58z"/>
<path style="fill:#5b2326; stroke:none;" d="M116 58L117 59L116 58z"/>
<path style="fill:#a23d42; stroke:none;" d="M117 58L118 59L117 58z"/>
<path style="fill:#5b2326; stroke:none;" d="M88 59L88 62L89 62L88 59z"/>
<path style="fill:#a23d42; stroke:none;" d="M116 59L117 60L116 59z"/>
<path style="fill:#5b2326; stroke:none;" d="M81.3333 60.6667L81.6667 61.3333L81.3333 60.6667M116 60L117 61L116 60M99 61L100 62L99 61M110.333 61.6667L110.667 62.3333L110.333 61.6667z"/>
<path style="fill:#a23d42; stroke:none;" d="M79 62L79 65L80 65L79 62M87 62L87 66L88 66L87 62M96 62L97 63L96 62M102 62L103 63L102 62M93 63L94 64L93 63z"/>
<path style="fill:#5b2326; stroke:none;" d="M94.6667 63.3333L95.3333 63.6667L94.6667 63.3333M103 63L104 64L103 63M117 63L118 64L117 63z"/>
<path style="fill:#a23d42; stroke:none;" d="M92 64L93 65L92 64M104 64L104 65L107 65L104 64M110 64L111 65L110 64M118 64L119 65L118 64z"/>
<path style="fill:#5b2326; stroke:none;" d="M79 65L80 66L79 65z"/>
<path style="fill:#a23d42; stroke:none;" d="M91 65L92 66L91 65M107 65L108 66L107 65M111.333 65.6667L111.667 66.3333L111.333 65.6667M119 65L119 72L120 72L119 65z"/>
<path style="fill:#5b2326; stroke:none;" d="M78 66L79 67L78 66M85.3333 66.6667L85.6667 67.3333L85.3333 66.6667z"/>
<path style="fill:#a23d42; stroke:none;" d="M88 66L89 67L88 66z"/>
<path style="fill:#5b2326; stroke:none;" d="M108 66L109 67L108 66z"/>
<path style="fill:#a23d42; stroke:none;" d="M87 67L88 68L87 67z"/>
<path style="fill:#5b2326; stroke:none;" d="M109 67L110 68L109 67z"/>
<path style="fill:#a23d42; stroke:none;" d="M86 68L87 69L86 68z"/>
<path style="fill:#5b2326; stroke:none;" d="M110.667 68.3333L111.333 68.6667L110.667 68.3333M79 71L80 72L79 71z"/>
<path style="fill:#a23d42; stroke:none;" d="M168 71L169 72L168 71M80 72L66 73L66 74L80 72z"/>
<path style="fill:#5b2326; stroke:none;" d="M120 72L120 73L140 74L120 72z"/>
<path style="fill:#a23d42; stroke:none;" d="M139 72L140 73L139 72M165 72L166 73L165 72z"/>
<path style="fill:#5b2326; stroke:none;" d="M166.667 72.3333L167.333 72.6667L166.667 72.3333M176 72L177 73L176 72z"/>
<path style="fill:#a23d42; stroke:none;" d="M177 72L178 73L177 72M140 73L140 74L152 74L140 73M164 73L165 74L164 73M178 73L179 74L178 73M65 74L66 75L65 74z"/>
<path style="fill:#5b2326; stroke:none;" d="M151 74L152 75L151 74z"/>
<path style="fill:#a23d42; stroke:none;" d="M163 74L164 75L163 74M179 74L180 75L179 74z"/>
<path style="fill:#5b2326; stroke:none;" d="M64 75L65 76L64 75z"/>
<path style="fill:#a23d42; stroke:none;" d="M156 75L157 76L156 75z"/>
<path style="fill:#5b2326; stroke:none;" d="M180 75L180 80L181 80L180 75z"/>
<path style="fill:#a23d42; stroke:none;" d="M62 76L63 77L62 76z"/>
<path style="fill:#5b2326; stroke:none;" d="M63 76L64 77L63 76z"/>
<path style="fill:#a23d42; stroke:none;" d="M157 76L158 77L157 76M162 76L163 77L162 76M60 77L61 78L60 77z"/>
<path style="fill:#5b2326; stroke:none;" d="M61.6667 77.3333L62.3333 77.6667L61.6667 77.3333z"/>
<path style="fill:#a23d42; stroke:none;" d="M106 77L106 78L117 78L106 77z"/>
<path style="fill:#5b2326; stroke:none;" d="M117 77L117 78L137 79L137 78L117 77M158 77L159 78L158 77z"/>
<path style="fill:#a23d42; stroke:none;" d="M159 77L160 78L159 77z"/>
<path style="fill:#5b2326; stroke:none;" d="M160.667 77.3333L161.333 77.6667L160.667 77.3333M170 77L171 78L170 77z"/>
<path style="fill:#a23d42; stroke:none;" d="M171 77L171 78L174 78L174 84L175 84C174.88 80.3084 174.687 78.2226 171 77z"/>
<path style="fill:#5b2326; stroke:none;" d="M174 77L175 78L174 77z"/>
<path style="fill:#a23d42; stroke:none;" d="M40 78L40 79L59 79L40 78z"/>
<path style="fill:#5b2326; stroke:none;" d="M59 78L60 79L59 78M105.333 78.6667L105.667 79.3333L105.333 78.6667z"/>
<path style="fill:#fe5f67; stroke:none;" d="M63 105L67 107L68 107L72 104L78 95L78 91L82 94L81 90L86 90L86 94L97.108 107L109 117L110 117L116 108C108.335 104.626 102.566 97.5121 102 89L142.004 87.0185L176 86L174 78L170 78C168.231 89.4632 142.408 79.6653 134 79.0895C114.072 77.7249 90.8386 77.1981 71 80.1474C65.6846 80.9376 61.628 84.5135 56 84.9105C47.7497 85.4924 40.1559 85.4023 32 86.7407C29.5315 87.1458 25.6885 86.2868 23.6427 88.0278C20.0191 91.1117 23.3193 100.537 28.0941 100.58C37.1182 100.662 47.5977 96.3409 56 93.3688C58.5367 92.4716 64.1371 89.7673 65.8974 93.3326C67.3216 96.2171 63.4161 101.821 63 105z"/>
<path style="fill:#a23d42; stroke:none;" d="M39 79L40 80L39 79M137 79L138 80L137 79M170.333 79.6667L170.667 80.3333L170.333 79.6667M67 80L68 81L67 80M152 80L153 81L152 80z"/>
<path style="fill:#5b2326; stroke:none;" d="M153 80L156 83L156 82L153 80z"/>
<path style="fill:#a23d42; stroke:none;" d="M182 80L183 81L182 80M18 81L19 82L18 81z"/>
<path style="fill:#5b2326; stroke:none;" d="M19 81L19 82L25 82L19 81z"/>
<path style="fill:#a23d42; stroke:none;" d="M66 81L67 82L66 81z"/>
<path style="fill:#5b2326; stroke:none;" d="M168 81L167 84L168 81z"/>
<path style="fill:#a23d42; stroke:none;" d="M169 81L170 82L169 81M183 81L184 82L183 81M17 82L18 83L17 82M65 82L66 83L65 82M153 82L154 83L153 82z"/>
<path style="fill:#5b2326; stroke:none;" d="M16 83L17 84L16 83M63 83L64 84L63 83z"/>
<path style="fill:#a23d42; stroke:none;" d="M64 83L65 84L64 83M156 83L157 84L156 83M168 83L169 84L168 83z"/>
<path style="fill:#5b2326; stroke:none;" d="M183 83L183 87L184 87L183 83M15.3333 84.6667L15.6667 85.3333L15.3333 84.6667M59 84L60 85L59 84M176.333 84.6667L176.667 85.3333L176.333 84.6667z"/>
<path style="fill:#a23d42; stroke:none;" d="M35 85L36 86L35 85M13 86L13 90L14 90L13 86z"/>
<path style="fill:#5b2326; stroke:none;" d="M14 86L15 87L14 86z"/>
<path style="fill:#a23d42; stroke:none;" d="M23 86L23 87L35 87L23 86M173 86L174 87L173 86z"/>
<path style="fill:#5b2326; stroke:none;" d="M174.667 86.3333L175.333 86.6667L174.667 86.3333z"/>
<path style="fill:#a23d42; stroke:none;" d="M22 87L23 88L22 87M136 87L136 88L173 88C163.202 83.8887 146.649 87 136 87M21 88L22 92L23 92L21 88z"/>
<path style="fill:#5b2326; stroke:none;" d="M136 88L137 89L136 88M183 88L184 89L183 88z"/>
<path style="fill:#a23d42; stroke:none;" d="M102 89L102 95L103 95L102 89M110 89L111 90L110 89M182 89L183 90L182 89M14 90L15 91L14 90z"/>
<path style="fill:#5b2326; stroke:none;" d="M81 90L81 91L85 94C85.6883 90.9545 83.7583 90.4513 81 90z"/>
<path style="fill:#a23d42; stroke:none;" d="M85 90L86 91L85 90z"/>
<path style="fill:#5b2326; stroke:none;" d="M111 90L111 91L120 91L111 90z"/>
<path style="fill:#a23d42; stroke:none;" d="M181 90L182 91L181 90z"/>
<path style="fill:#5b2326; stroke:none;" d="M15 91L15 95L16 95L15 91M21 91L22 92L21 91z"/>
<path style="fill:#a23d42; stroke:none;" d="M61 91L62 92L61 91z"/>
<path style="fill:#5b2326; stroke:none;" d="M62 91L62 92L65 92L62 91z"/>
<path style="fill:#a23d42; stroke:none;" d="M65 91L66 92L65 91M78.6667 91.3333L79.3333 91.6667L78.6667 91.3333z"/>
<path style="fill:#5b2326; stroke:none;" d="M179 91L180 92L179 91z"/>
<path style="fill:#a23d42; stroke:none;" d="M180 91L181 92L180 91M57 92L57 93L61 93L57 92M66 92L67 93L66 92z"/>
<path style="fill:#5b2326; stroke:none;" d="M79.3333 92.6667L79.6667 93.3333L79.3333 92.6667z"/>
<path style="fill:#a23d42; stroke:none;" d="M81 92L82 93L81 92z"/>
<path style="fill:#5b2326; stroke:none;" d="M177.667 92.3333L178.333 92.6667L177.667 92.3333M22 93L22 99L23 99L22 93z"/>
<path style="fill:#a23d42; stroke:none;" d="M56 93L57 94L56 93M67.3333 93.6667L67.6667 94.3333L67.3333 93.6667M82 93L83 94L82 93M176 93L177 94L176 93z"/>
<path style="fill:#5b2326; stroke:none;" d="M52 94L53 95L52 94M88 94L89 95L88 94M131 94L132 95L131 94z"/>
<path style="fill:#a23d42; stroke:none;" d="M132 94L133 95L132 94z"/>
<path style="fill:#5b2326; stroke:none;" d="M49 95L49 96L52 96L49 95z"/>
<path style="fill:#a23d42; stroke:none;" d="M66 95L67 96L66 95z"/>
<path style="fill:#5b2326; stroke:none;" d="M75 95L75 96L78 96L75 95M89 95L90 96L89 95z"/>
<path style="fill:#a23d42; stroke:none;" d="M103 95L104 96L103 95M118 95L118 96L132 96L118 95M15 96L16 104L17 104L15 96z"/>
<path style="fill:#5b2326; stroke:none;" d="M16 96L17 97L16 96z"/>
<path style="fill:#a23d42; stroke:none;" d="M43 97L43 98L48 97L43 97z"/>
<path style="fill:#5b2326; stroke:none;" d="M48 96L49 97L48 96M65.3333 96.6667L65.6667 97.3333L65.3333 96.6667M90 96L91 97L90 96z"/>
<path style="fill:#a23d42; stroke:none;" d="M91 96L92 97L91 96z"/>
<path style="fill:#5b2326; stroke:none;" d="M112 96L112 97L117 97L112 96z"/>
<path style="fill:#a23d42; stroke:none;" d="M117 96L118 97L117 96z"/>
<path style="fill:#5b2326; stroke:none;" d="M44 97L45 98L44 97z"/>
<path style="fill:#a23d42; stroke:none;" d="M74 97L75 98L74 97z"/>
<path style="fill:#5b2326; stroke:none;" d="M104 97L105 98L104 97M111 97L112 98L111 97z"/>
<path style="fill:#a23d42; stroke:none;" d="M39 98L40 99L39 98M64.3333 98.6667L64.6667 99.3333L64.3333 98.6667z"/>
<path style="fill:#5b2326; stroke:none;" d="M73 98L74 99L73 98M91.3333 98.6667L91.6667 99.3333L91.3333 98.6667z"/>
<path style="fill:#a23d42; stroke:none;" d="M105.333 98.6667L105.667 99.3333L105.333 98.6667M113 98L114 99L113 98M24 99L29 102L29 101L24 99z"/>
<path style="fill:#5b2326; stroke:none;" d="M35 99L36 100L35 99z"/>
<path style="fill:#a23d42; stroke:none;" d="M73 99L74 100L73 99z"/>
<path style="fill:#5b2326; stroke:none;" d="M114 99L115 100L114 99z"/>
<path style="fill:#a23d42; stroke:none;" d="M29 100L30 101L29 100z"/>
<path style="fill:#5b2326; stroke:none;" d="M30 100L30 101L35 101L30 100M52 100L53 101L52 100z"/>
<path style="fill:#a23d42; stroke:none;" d="M53 100L54 101L53 100z"/>
<path style="fill:#5b2326; stroke:none;" d="M54 100L55 101L54 100z"/>
<path style="fill:#a23d42; stroke:none;" d="M63 100L64 101L63 100M72 100L73 101L72 100z"/>
<path style="fill:#5b2326; stroke:none;" d="M92 100L93 101L92 100z"/>
<path style="fill:#a23d42; stroke:none;" d="M93 100L93 103L94 103L93 100M106 100L107 101L106 100z"/>
<path style="fill:#5b2326; stroke:none;" d="M115 100L116 101L115 100M24 101L25 102L24 101M48 101L48 102L52 102L48 101M55 101L56 102L55 101M62 101L62 105L63 105L62 101z"/>
<path style="fill:#a23d42; stroke:none;" d="M71.3333 101.667L71.6667 102.333L71.3333 101.667z"/>
<path style="fill:#5b2326; stroke:none;" d="M80 101L80 102L85 102L80 101M107.333 101.667L107.667 102.333L107.333 101.667M116 101L117 102L116 101z"/>
<path style="fill:#a23d42; stroke:none;" d="M117 101L118 102L117 101M47 102L48 103L47 102z"/>
<path style="fill:#5b2326; stroke:none;" d="M79 102L78 106L79 106L79 102z"/>
<path style="fill:#a23d42; stroke:none;" d="M85.3333 102.667L85.6667 103.333L85.3333 102.667M118 102L119 103L118 102z"/>
<path style="fill:#5b2326; stroke:none;" d="M42 103L43 104L42 103z"/>
<path style="fill:#a23d42; stroke:none;" d="M43 103L44 104L43 103z"/>
<path style="fill:#5b2326; stroke:none;" d="M94 103L95 104L94 103z"/>
<path style="fill:#a23d42; stroke:none;" d="M108 103L109 104L108 103z"/>
<path style="fill:#5b2326; stroke:none;" d="M120 103L121 104L120 103z"/>
<path style="fill:#a23d42; stroke:none;" d="M17 104L18 105L17 104z"/>
<path style="fill:#5b2326; stroke:none;" d="M38 104L39 105L38 104z"/>
<path style="fill:#a23d42; stroke:none;" d="M39 104L39 105L42 105L39 104M54 104L55 105L54 104M70 104L71 105L70 104M86 104L87 105L86 104M109 104L110 105L109 104M122 104L123 105L122 104M18 105L19 106L18 105z"/>
<path style="fill:#5b2326; stroke:none;" d="M19 105L20 106L19 105M34 105L34 106L37 106L34 105z"/>
<path style="fill:#a23d42; stroke:none;" d="M37 105L38 106L37 105M55 105L56 106L55 105M63 105L63 106L66 106L63 105M69 105L70 106L69 105M79 105L80 106L79 105z"/>
<path style="fill:#5b2326; stroke:none;" d="M87.3333 105.667L87.6667 106.333L87.3333 105.667M95 105L96 106L95 105z"/>
<path style="fill:#a23d42; stroke:none;" d="M96 105L96 108L97 108L96 105M110 105L111 106L110 105z"/>
<path style="fill:#5b2326; stroke:none;" d="M111 105L112 106L111 105z"/>
<path style="fill:#a23d42; stroke:none;" d="M123 105L124 106L123 105z"/>
<path style="fill:#5b2326; stroke:none;" d="M20 106L21 107L20 106z"/>
<path style="fill:#a23d42; stroke:none;" d="M33 106L34 107L33 106M56.3333 106.667L56.6667 107.333L56.3333 106.667M66 106L67 107L66 106M68 106L69 107L68 106z"/>
<path style="fill:#5b2326; stroke:none;" d="M112 106L113 107L112 106z"/>
<path style="fill:#a23d42; stroke:none;" d="M124 106L125 107L124 106z"/>
<path style="fill:#5b2326; stroke:none;" d="M21 107L22 108L21 107z"/>
<path style="fill:#a23d42; stroke:none;" d="M78 107L79 108L78 107M88 107L89 108L88 107M114 107L115 108L114 107M8.33333 108.667L8.66667 109.333L8.33333 108.667M57 108L58 109L57 108z"/>
<path style="fill:#5b2326; stroke:none;" d="M76 108L77 109L76 108M90 108L92 111L90 108M97 108L98 109L97 108M116 108L116 111L117 111L116 108z"/>
<path style="fill:#a23d42; stroke:none;" d="M58 109L60 111L58 109z"/>
<path style="fill:#5b2326; stroke:none;" d="M59 109L60 110L59 109z"/>
<path style="fill:#a23d42; stroke:none;" d="M75 109L76 110L75 109z"/>
<path style="fill:#5b2326; stroke:none;" d="M98 109L100 111L98 109z"/>
<path style="fill:#a23d42; stroke:none;" d="M99 109L100 110L99 109z"/>
<path style="fill:#5b2326; stroke:none;" d="M8 110L8 140L9 140L8 110M60.6667 110.333L61.3333 110.667L60.6667 110.333M72 110L72 111L75 111L72 110z"/>
<path style="fill:#a23d42; stroke:none;" d="M90 110L91 111L90 110M100 110L101 111L100 110M115 110L116 111L115 110M124 110L125 111L124 110M62 111L63 112L62 111z"/>
<path style="fill:#5b2326; stroke:none;" d="M71 111L72 112L71 111z"/>
<path style="fill:#a23d42; stroke:none;" d="M101 111L102 112L101 111M114 111L115 112L114 111z"/>
<path style="fill:#5b2326; stroke:none;" d="M123 111L124 112L123 111M93 112L94 113L93 112M102 112L103 113L102 112M113.333 112.667L113.667 113.333L113.333 112.667M122 112L121 115L122 112z"/>
<path style="fill:#a23d42; stroke:none;" d="M94 113L95 114L94 113z"/>
<path style="fill:#5b2326; stroke:none;" d="M103 113L104 114L103 113M104 114L105 115L104 114z"/>
<path style="fill:#a23d42; stroke:none;" d="M105 114L106 115L105 114M112 114L113 115L112 114M122 114L123 115L122 114z"/>
<path style="fill:#5b2326; stroke:none;" d="M95 115L96 116L95 115z"/>
<path style="fill:#a23d42; stroke:none;" d="M106.667 115.333L107.333 115.667L106.667 115.333z"/>
<path style="fill:#5b2326; stroke:none;" d="M111 115L112 116L111 115M120 115L121 116L120 115z"/>
<path style="fill:#a23d42; stroke:none;" d="M96 116L97 117L96 116z"/>
<path style="fill:#5b2326; stroke:none;" d="M108 116L109 117L108 116M110 116L111 117L110 116z"/>
<path style="fill:#a23d42; stroke:none;" d="M119 116L120 117L119 116z"/>
<path style="fill:#5b2326; stroke:none;" d="M99 117L100 118L99 117z"/>
<path style="fill:#a23d42; stroke:none;" d="M118 117L119 118L118 117M100 118L101 119L100 118M101 119L102 120L101 119M117 119L118 120L117 119M102 120L103 121L102 120M116 120L117 121L116 120M106 121L107 122L106 121z"/>
<path style="fill:#5b2326; stroke:none;" d="M107 121L107 122L113 122L107 121z"/>
<path style="fill:#a23d42; stroke:none;" d="M113 121L114 122L113 121z"/>
<path style="fill:#ffffff; stroke:none;" d="M19 152L19 176C25.6314 176 40.1557 170.232 29 163C37.1862 154.321 25.9527 152.001 19 152M35 152L35 156L38 156L38 176C41.3232 176 46.8118 176.981 49.3966 174.397C55.2076 168.586 49.7019 160.218 43 160L43 152L35 152M58.2284 153.032C51.8584 156.789 53.822 180.835 63.7716 174.968C70.1416 171.211 68.178 147.166 58.2284 153.032M71 152L71 176L76 176L76 166C81.6304 165.57 86.4748 158.713 81.3966 153.742C78.8996 151.298 74.1799 152.002 71 152M85 152L85 156L88 156L88 176C91.3232 176 96.8118 176.981 99.3966 174.397C105.208 168.586 99.7019 160.218 93 160L93 152L85 152M103 152C104.049 156.406 103.114 161.378 108 163L108 164C102.851 165.709 104.094 171.407 103 176C109.778 175.472 108.999 170.656 109 165L111 165L111 176L116 176L116 165L118 165C118.001 170.656 117.222 175.472 124 176C122.906 171.407 124.149 165.709 119 164L119 163C123.886 161.378 122.951 156.406 124 152C117.636 152.496 118.004 156.528 118 162L116 162L116 152L111 152L111 162L109 162C108.996 156.528 109.364 152.496 103 152M127 152L127 176L136 176L136 171L132 171L132 166L135 166L135 161L132 161L132 157L135 157L135 152L127 152M139 152L139 176L144 176L144 166L147 166L147 176L152 176L152 152L147 152L147 161L144 161L144 152L139 152M156 152L156 176C160.922 175.148 161.599 171.551 162 167L163 167L163 176L168 176L168 152C163.695 153.394 162.963 156.853 162 161L161 161L161 152L156 152M172 152L172 176L181 176L181 171L177 171L177 166L180 166L180 161L177 161L177 157L180 157L180 152L172 152z"/>
<path style="fill:#1d1c1c; stroke:none;" d="M24 156L24 161L27 161L27 156L24 156M60 156L60 172L62 172L62 156L60 156M76 156L76 162L78 162L78 156L76 156M43 164L43 172L46 172L46 164L43 164M93 164L93 172L96 172L96 164L93 164M24 165L24 172L27 172L27 165L24 165z"/>
<path style="fill:#5b2326; stroke:none;" d="M199 186L200 187L199 186z"/>
<path style="fill:#ffffff; stroke:none;" d="M0 187L0 200L13 200L13 199C6.07608 197.603 3.28711 192.69 0 187M199 187C197.736 193.265 193.265 197.736 187 199L187 200L200 200L199 187z"/>
<path style="fill:#5b2326; stroke:none;" d="M198 190L199 191L198 190M2 192L3 193L2 192M197 192L198 193L197 192M7 197L8 198L7 197M192 197L193 198L192 197M9 198L10 199L9 198M190 198L191 199L190 198M13 199L14 200L13 199M186 199L187 200L186 199z"/>
</svg>
