<?xml version="1.0" standalone="yes"?>
<svg xmlns="http://www.w3.org/2000/svg" width="200" height="200">
<path style="fill:#fbfffa; stroke:none;" d="M0 0L0 13L1 13C2.26403 6.73515 6.73516 2.26402 13 1L0 0z"/>
<path style="fill:#141414; stroke:none;" d="M13 0.479172C-4.82877 4.16052 0 28.6517 0 42L0 150C0 161.788 -4.01832 182.842 2.87886 192.957C10.9287 204.762 35.6773 200 48 200L142 200C156.285 200 174.188 202.881 188 199.072C204.784 194.442 200 170.239 200 157L200 47C200 35.3657 203.971 14.5443 195.606 5.18904C186.746 -4.71915 162.078 0 150 0L58 0C43.7269 0 26.9861 -2.40872 13 0.479172z"/>
<path style="fill:#fbfffa; stroke:none;" d="M187 0L187 1C193.265 2.26404 197.736 6.73515 199 13L200 13L200 0L187 0z"/>
<path style="fill:#4d5c48; stroke:none;" d="M7 2L8 3L7 2M192 2L193 3L192 2M2 7L3 8L2 7M197 7L198 8L197 7z"/>
<path style="fill:#5f9074; stroke:none;" d="M10 8L10 9L189 9L172 8L136 8L10 8z"/>
<path style="fill:#b7d7a9; stroke:none;" d="M10 9L10 143L189 143L189 9L10 9z"/>
<path style="fill:#4d5c48; stroke:none;" d="M198 9L199 10L198 9M199 13L200 14L199 13M189 16L189 19L190 19L189 16z"/>
<path style="fill:#5f9074; stroke:none;" d="M69 20L69 21L109 20C100.109 16.2693 78.2195 17.2749 69 20M189 19L189 140L190 140L190 56C190 45.366 193.108 28.7892 189 19z"/>
<path style="fill:#141414; stroke:none;" d="M143 32C138.701 31.2834 135.818 26.9089 132 25C127.903 22.9516 122.28 22.7833 118 21C112.523 18.718 103.2 20 97 20C78.4385 20 61.321 19.3395 46 27C37.8325 31.0837 30.1863 35.2377 27 44C26.3834 45.6958 27.8012 48.3976 27 50C25.814 52.3719 22.9182 59.8364 25 64C27.8428 69.6856 43.4249 67 49 67L124 67C128.746 67 148.317 69.5772 151 66C154.822 60.9038 149.658 42.3163 148 39C146.057 35.1138 142.339 34.6446 143 32z"/>
<path style="fill:#fbfffa; stroke:none;" d="M57 21L58 22L57 21z"/>
<path style="fill:#4d5c48; stroke:none;" d="M59 21L60 22L59 21M118 21L119 22L118 21z"/>
<path style="fill:#fbfffa; stroke:none;" d="M120 21L121 22L120 21M53 22L54 23L53 22z"/>
<path style="fill:#4d5c48; stroke:none;" d="M55 22L55 23L59 23L55 22M119 22L119 23L124 23L119 22z"/>
<path style="fill:#5f9074; stroke:none;" d="M124 22L125 23L124 22z"/>
<path style="fill:#fbfffa; stroke:none;" d="M126 22L127 23L126 22z"/>
<path style="fill:#5f9074; stroke:none;" d="M50 23L50 24L54 24L50 23z"/>
<path style="fill:#4d5c48; stroke:none;" d="M54 23L55 24L54 23z"/>
<path style="fill:#5f9074; stroke:none;" d="M125 23L125 24L129 24L125 23z"/>
<path style="fill:#4d5c48; stroke:none;" d="M129 24L130 25L129 24M47 25L48 26L47 25z"/>
<path style="fill:#5f9074; stroke:none;" d="M132 25L133 26L132 25z"/>
<path style="fill:#fbfffa; stroke:none;" d="M133 25L134 26L133 25M42 26L43 27L42 26z"/>
<path style="fill:#5f9074; stroke:none;" d="M44 26L45 27L44 26z"/>
<path style="fill:#4d5c48; stroke:none;" d="M45.6667 26.3333L46.3333 26.6667L45.6667 26.3333M133.667 26.3333L134.333 26.6667L133.667 26.3333z"/>
<path style="fill:#fbfffa; stroke:none;" d="M136 26L137 27L136 26z"/>
<path style="fill:#5f9074; stroke:none;" d="M41 27L41 28L44 28L41 27z"/>
<path style="fill:#4d5c48; stroke:none;" d="M135 27L136 28L135 27z"/>
<path style="fill:#5f9074; stroke:none;" d="M136 27L137 28L136 27M137 28L138 29L137 28M39 29L40 30L39 29M138 29L139 30L138 29z"/>
<path style="fill:#4d5c48; stroke:none;" d="M38 30L39 31L38 30M139 30L140 31L139 30z"/>
<path style="fill:#fbfffa; stroke:none;" d="M141 30L142 31L141 30z"/>
<path style="fill:#5f9074; stroke:none;" d="M35 31L36 32L35 31z"/>
<path style="fill:#4d5c48; stroke:none;" d="M36.6667 31.3333L37.3333 31.6667L36.6667 31.3333M140.667 31.3333L141.333 31.6667L140.667 31.3333z"/>
<path style="fill:#5f9074; stroke:none;" d="M142 31L143 32L142 31M34 32L35 33L34 32z"/>
<path style="fill:#4d5c48; stroke:none;" d="M60 33L60 34L63 34L60 33M98 32L99 33L98 32M116 32L117 33L116 32z"/>
<path style="fill:#5f9074; stroke:none;" d="M33.3333 33.6667L33.6667 34.3333L33.3333 33.6667z"/>
<path style="fill:#b7d7a9; stroke:none;" d="M61 33L62 34L61 33M98 33L99 34L98 33z"/>
<path style="fill:#5f9074; stroke:none;" d="M99 33L100 34L99 33z"/>
<path style="fill:#b7d7a9; stroke:none;" d="M116 33L117 34L116 33z"/>
<path style="fill:#5f9074; stroke:none;" d="M117 33L117 37L118 37L117 33z"/>
<path style="fill:#4d5c48; stroke:none;" d="M142 33L143 34L142 33M42 34L44 37L42 34z"/>
<path style="fill:#b7d7a9; stroke:none;" d="M43 34C45.5786 41.8342 44.1615 45.4285 36 48L36 49L49 49L52 54L52 58L53 58C54.0086 48.9501 60.4005 49 68 49L68 48L62 47L60 35L47 38L47 36L45 37L43 34z"/>
<path style="fill:#4d5c48; stroke:none;" d="M44 34L45 35L44 34z"/>
<path style="fill:#5f9074; stroke:none;" d="M59 34L60 37L61 37L61 34L59 34M80 34L81 35L80 34z"/>
<path style="fill:#b7d7a9; stroke:none;" d="M81 34L80 35C82.5653 42.4755 80.5516 45.6207 73 48L73 49L87 50L86 53L90 57L92 49L105 49L105 48C96.9329 43.6392 96.0324 42.8427 98 34C90.1562 36.5739 88.7722 37.3714 81 34z"/>
<path style="fill:#5f9074; stroke:none;" d="M95 34L96 35L95 34z"/>
<path style="fill:#b7d7a9; stroke:none;" d="M118 34L121 42L119 45L117 44L110 48L110 49C117.599 49 123.991 48.9501 125 58L126 58L126 54L129 49L142 49L142 48C133.977 45.5298 132.02 41.8089 135 34L134 34L133 37L118 34z"/>
<path style="fill:#4d5c48; stroke:none;" d="M133 34L134 35L133 34M135.333 34.6667L135.667 35.3333L135.333 34.6667z"/>
<path style="fill:#5f9074; stroke:none;" d="M144 34L145 35L144 34z"/>
<path style="fill:#fbfffa; stroke:none;" d="M31 35L32 36L31 35z"/>
<path style="fill:#5f9074; stroke:none;" d="M32 35L33 36L32 35M45.6667 35.3333L46.3333 35.6667L45.6667 35.3333z"/>
<path style="fill:#4d5c48; stroke:none;" d="M56 35L57 36L56 35z"/>
<path style="fill:#5f9074; stroke:none;" d="M58 35L59 36L58 35z"/>
<path style="fill:#fbfffa; stroke:none;" d="M81.3333 35.6667L81.6667 36.3333L81.3333 35.6667z"/>
<path style="fill:#4d5c48; stroke:none;" d="M84 35L85 36L84 35M93 35L94 36L93 35z"/>
<path style="fill:#fbfffa; stroke:none;" d="M96 35L97 36L96 35z"/>
<path style="fill:#5f9074; stroke:none;" d="M119 35L120 36L119 35z"/>
<path style="fill:#4d5c48; stroke:none;" d="M121 35L122 36L121 35z"/>
<path style="fill:#5f9074; stroke:none;" d="M131.667 35.3333L132.333 35.6667L131.667 35.3333z"/>
<path style="fill:#fbfffa; stroke:none;" d="M134 35L135 36L134 35z"/>
<path style="fill:#4d5c48; stroke:none;" d="M145.333 35.6667L145.667 36.3333L145.333 35.6667z"/>
<path style="fill:#5f9074; stroke:none;" d="M31 36L32 37L31 36z"/>
<path style="fill:#fbfffa; stroke:none;" d="M45 36L46 37L45 36z"/>
<path style="fill:#5f9074; stroke:none;" d="M47 36L48 37L47 36z"/>
<path style="fill:#4d5c48; stroke:none;" d="M48 36L49 37L48 36M55 36L56 37L55 36z"/>
<path style="fill:#fbfffa; stroke:none;" d="M57 36L58 37L57 36M59 36L60 37L59 36z"/>
<path style="fill:#4d5c48; stroke:none;" d="M85 36L86 37L85 36M92 36L93 37L92 36z"/>
<path style="fill:#fbfffa; stroke:none;" d="M118 36L119 37L118 36M120 36L121 37L120 36z"/>
<path style="fill:#5f9074; stroke:none;" d="M122 36L124 38L122 36z"/>
<path style="fill:#4d5c48; stroke:none;" d="M129 36L130 37L129 36z"/>
<path style="fill:#5f9074; stroke:none;" d="M130 36L129 38L130 36z"/>
<path style="fill:#fbfffa; stroke:none;" d="M132 36L133 37L132 36z"/>
<path style="fill:#5f9074; stroke:none;" d="M134 36L135 37L134 36z"/>
<path style="fill:#fbfffa; stroke:none;" d="M29 37L30 38L29 37z"/>
<path style="fill:#5f9074; stroke:none;" d="M30.3333 37.6667L30.6667 38.3333L30.3333 37.6667M44 37L45 42L46 42L44 37z"/>
<path style="fill:#fbfffa; stroke:none;" d="M47 37L48 38L47 37z"/>
<path style="fill:#4d5c48; stroke:none;" d="M49.6667 37.3333L50.3333 37.6667L49.6667 37.3333z"/>
<path style="fill:#5f9074; stroke:none;" d="M54 37L55 38L54 37z"/>
<path style="fill:#4d5c48; stroke:none;" d="M60 37L61 38L60 37z"/>
<path style="fill:#5f9074; stroke:none;" d="M80 37L81 38L80 37z"/>
<path style="fill:#4d5c48; stroke:none;" d="M86 37L87 38L86 37M91 37L92 38L91 37z"/>
<path style="fill:#5f9074; stroke:none;" d="M97 37L98 38L97 37z"/>
<path style="fill:#4d5c48; stroke:none;" d="M117 37L118 38L117 37z"/>
<path style="fill:#fbfffa; stroke:none;" d="M122 37L123 38L122 37M130 37L131 38L130 37z"/>
<path style="fill:#5f9074; stroke:none;" d="M133 37L132 42L133 42L133 37M146 37L147 38L146 37z"/>
<path style="fill:#fbfffa; stroke:none;" d="M50 38L51 39L50 38z"/>
<path style="fill:#5f9074; stroke:none;" d="M51 38L52 39L51 38M53 38L54 39L53 38z"/>
<path style="fill:#4d5c48; stroke:none;" d="M59 38L59 44L60 44L59 38M81 38L81 41L82 41L81 38M96.3333 38.6667L96.6667 39.3333L96.3333 38.6667z"/>
<path style="fill:#5f9074; stroke:none;" d="M147 38L148 39L147 38z"/>
<path style="fill:#4d5c48; stroke:none;" d="M29 39L29 42L30 42L29 39M148 39L148 43L149 43L148 39z"/>
<path style="fill:#fbfffa; stroke:none;" d="M28 40L29 41L28 40M45 40L46 41L45 40M82 40L83 41L82 40M95 40L96 41L95 40z"/>
<path style="fill:#5f9074; stroke:none;" d="M96 40L95 42L96 40z"/>
<path style="fill:#fbfffa; stroke:none;" d="M132 40L133 41L132 40z"/>
<path style="fill:#5f9074; stroke:none;" d="M28 41L29 42L28 41z"/>
<path style="fill:#4d5c48; stroke:none;" d="M44 41L45 42L44 41z"/>
<path style="fill:#5f9074; stroke:none;" d="M82 41L83 42L82 41z"/>
<path style="fill:#4d5c48; stroke:none;" d="M96 41L97 42L96 41M119 41L120 42L119 41M133 41L134 42L133 41z"/>
<path style="fill:#5f9074; stroke:none;" d="M27 42L28 43L27 42z"/>
<path style="fill:#4d5c48; stroke:none;" d="M45 42L46 43L45 42z"/>
<path style="fill:#5f9074; stroke:none;" d="M120 42L121 43L120 42z"/>
<path style="fill:#4d5c48; stroke:none;" d="M132 42L133 43L132 42z"/>
<path style="fill:#5f9074; stroke:none;" d="M44 43L45 44L44 43z"/>
<path style="fill:#4d5c48; stroke:none;" d="M81 43L82 44L81 43M96 43L97 44L96 43z"/>
<path style="fill:#5f9074; stroke:none;" d="M133 43L134 44L133 43M150 43L150 46L151 46L150 43M26 44L27 45L26 44M43 44L44 45L43 44M60.6667 44.3333L61.3333 44.6667L60.6667 44.3333M80 44L81 45L80 44M97 44L98 45L97 44z"/>
<path style="fill:#4d5c48; stroke:none;" d="M99 44L100 45L99 44z"/>
<path style="fill:#5f9074; stroke:none;" d="M116 44L117 45L116 44M118 44L119 45L118 44M134 44L135 45L134 44z"/>
<path style="fill:#4d5c48; stroke:none;" d="M26 45L26 51L27 51L26 45M40 45L41 46L40 45z"/>
<path style="fill:#5f9074; stroke:none;" d="M41.6667 45.3333L42.3333 45.6667L41.6667 45.3333M62 45L63 46L62 45z"/>
<path style="fill:#4d5c48; stroke:none;" d="M63 45L64 46L63 45M77 45L78 46L77 45z"/>
<path style="fill:#5f9074; stroke:none;" d="M78.6667 45.3333L79.3333 45.6667L78.6667 45.3333z"/>
<path style="fill:#fbfffa; stroke:none;" d="M98 45L99 46L98 45z"/>
<path style="fill:#4d5c48; stroke:none;" d="M100 45L101 46L100 45z"/>
<path style="fill:#5f9074; stroke:none;" d="M115 45L114 47L115 45M135 45L136 46L135 45z"/>
<path style="fill:#4d5c48; stroke:none;" d="M136.667 45.3333L137.333 45.6667L136.667 45.3333z"/>
<path style="fill:#fbfffa; stroke:none;" d="M151 45L152 46L151 45z"/>
<path style="fill:#4d5c48; stroke:none;" d="M39 46L40 47L39 46z"/>
<path style="fill:#fbfffa; stroke:none;" d="M41 46L42 47L41 46M62 46L63 47L62 46z"/>
<path style="fill:#4d5c48; stroke:none;" d="M76 46L77 47L76 46z"/>
<path style="fill:#fbfffa; stroke:none;" d="M78 46L79 47L78 46z"/>
<path style="fill:#4d5c48; stroke:none;" d="M101.667 46.3333L102.333 46.6667L101.667 46.3333z"/>
<path style="fill:#fbfffa; stroke:none;" d="M115 46L116 47L115 46M136 46L137 47L136 46z"/>
<path style="fill:#5f9074; stroke:none;" d="M138 46L139 47L138 46z"/>
<path style="fill:#4d5c48; stroke:none;" d="M150 46L151 47L150 46z"/>
<path style="fill:#5f9074; stroke:none;" d="M38 47L39 48L38 47z"/>
<path style="fill:#4d5c48; stroke:none;" d="M65 47L66 48L65 47M75 47L76 48L75 47z"/>
<path style="fill:#5f9074; stroke:none;" d="M139 47L140 48L139 47z"/>
<path style="fill:#4d5c48; stroke:none;" d="M151 47L151 66L152 66L151 47z"/>
<path style="fill:#5f9074; stroke:none;" d="M35 48L36 49L35 48z"/>
<path style="fill:#4d5c48; stroke:none;" d="M72 48L73 49L72 48M105 48L106 49L105 48z"/>
<path style="fill:#5f9074; stroke:none;" d="M142 48L143 49L142 48z"/>
<path style="fill:#fbfffa; stroke:none;" d="M25 49L26 50L25 49z"/>
<path style="fill:#4d5c48; stroke:none;" d="M36 49L36 50L48 50L36 49z"/>
<path style="fill:#5f9074; stroke:none;" d="M48 49L49 50L48 49M56 49L57 50L56 49z"/>
<path style="fill:#4d5c48; stroke:none;" d="M57 49L57 50L68 50L57 49M73 49L73 50L86 50L73 49M92 49L92 50L105 50L92 49M110 49L110 50L122 50L110 49z"/>
<path style="fill:#5f9074; stroke:none;" d="M129 49L130 50L129 49z"/>
<path style="fill:#4d5c48; stroke:none;" d="M130 49L130 50L143 50L130 49z"/>
<path style="fill:#5f9074; stroke:none;" d="M25 50L26 51L25 50M55 50L56 51L55 50M86 50L87 51L86 50M122 50L123 51L122 50z"/>
<path style="fill:#4d5c48; stroke:none;" d="M129 50L129 53L130 53L129 50z"/>
<path style="fill:#5f9074; stroke:none;" d="M24 51L24 64L25 64L24 51z"/>
<path style="fill:#4d5c48; stroke:none;" d="M48.3333 51.6667L48.6667 52.3333L48.3333 51.6667z"/>
<path style="fill:#5f9074; stroke:none;" d="M54.3333 51.6667L54.6667 52.3333L54.3333 51.6667M123.333 51.6667L123.667 52.3333L123.333 51.6667M50 53L50 57L51 57L50 53z"/>
<path style="fill:#4d5c48; stroke:none;" d="M53 53L54 54L53 53z"/>
<path style="fill:#5f9074; stroke:none;" d="M87 53L88 54L87 53M90 53L91 54L90 53z"/>
<path style="fill:#4d5c48; stroke:none;" d="M124 53L125 54L124 53M128 53L129 54L128 53z"/>
<path style="fill:#fbfffa; stroke:none;" d="M51.3333 54.6667L51.6667 55.3333L51.3333 54.6667z"/>
<path style="fill:#4d5c48; stroke:none;" d="M87 54L87 57L88 57L87 54M90 54L91 55L90 54z"/>
<path style="fill:#fbfffa; stroke:none;" d="M126.333 54.6667L126.667 55.3333L126.333 54.6667z"/>
<path style="fill:#5f9074; stroke:none;" d="M127 54L127 57L128 57L127 54z"/>
<path style="fill:#4d5c48; stroke:none;" d="M53 55L53 58L54 58L53 55z"/>
<path style="fill:#fbfffa; stroke:none;" d="M89 55L90 56L89 55z"/>
<path style="fill:#5f9074; stroke:none;" d="M90 55L91 56L90 55z"/>
<path style="fill:#4d5c48; stroke:none;" d="M90 56L91 57L90 56M51 57L52 58L51 57M124 57L125 58L124 57z"/>
<path style="fill:#5f9074; stroke:none;" d="M126 57L127 58L126 57z"/>
<path style="fill:#4d5c48; stroke:none;" d="M52 58L53 59L52 58M125 58L126 59L125 58M25 64L26 65L25 64M26 65L27 66L26 65z"/>
<path style="fill:#5f9074; stroke:none;" d="M27 66L28 67L27 66M28 67L28 68L149 68C139.211 63.8923 122.634 67 112 67L28 67z"/>
<path style="fill:#fbfffa; stroke:none;" d="M29 68L29 69L149 69L113 68L29 68z"/>
<path style="fill:#4d5c48; stroke:none;" d="M29 70L30 71L29 70z"/>
<path style="fill:#141414; stroke:none;" d="M126 129C127.034 120.516 125.827 112.146 126.577 104.024C126.769 101.95 128.488 99.7773 130.741 100.921C136.737 103.967 136.122 121.217 141.38 126.786C156.434 142.733 173.998 122.46 174 107L161 107C160.978 113.346 160.261 118.441 153 119C153 107.839 151.187 96.8748 151.005 85.9992C150.941 82.2262 152.455 74.7377 149.972 71.6034C146.372 67.0582 127.521 70 122 70L53 70C46.3079 70 32.8441 67.4686 27.3179 71.858C23.9701 74.5172 25 80.2394 25 84L25 117C25 120.77 23.5145 128.065 28.1481 129.566C33.703 131.366 52.8643 132.212 55.3966 125.941C57.5848 120.523 53.4994 112.216 57.5139 107.523C59.5118 105.187 63.3005 105.979 66.0039 105.997C73.9622 106.05 86.0199 103.659 93.517 106.282C100.609 108.764 94.9724 121.692 98.0278 126.852C101.791 133.208 119.877 130.137 126 129z"/>
<path style="fill:#5f9074; stroke:none;" d="M150 70L151 71L150 70z"/>
<path style="fill:#fbfffa; stroke:none;" d="M25 71L26 72L25 71z"/>
<path style="fill:#5f9074; stroke:none;" d="M26 71L27 72L26 71z"/>
<path style="fill:#4d5c48; stroke:none;" d="M151 71L151 93L152 93L151 71M25 72L26 73L25 72z"/>
<path style="fill:#5f9074; stroke:none;" d="M24 73L24 128L25 128L25 91L24 73M153 93C153 100.375 149.238 118.239 159 119L159 118L154 118L153 93M128.667 99.3333L129.333 99.6667L128.667 99.3333z"/>
<path style="fill:#4d5c48; stroke:none;" d="M130 99L131 100L130 99z"/>
<path style="fill:#5f9074; stroke:none;" d="M127 100L126 107L127 107L127 100z"/>
<path style="fill:#fbfffa; stroke:none;" d="M129 100L130 101L129 100z"/>
<path style="fill:#4d5c48; stroke:none;" d="M131 100L132 101L131 100z"/>
<path style="fill:#fbfffa; stroke:none;" d="M127 101L128 102L127 101z"/>
<path style="fill:#4d5c48; stroke:none;" d="M132 101L133 105L134 105L132 101z"/>
<path style="fill:#5f9074; stroke:none;" d="M132 104L133 112L134 112L132 104z"/>
<path style="fill:#4d5c48; stroke:none;" d="M59 105L60 106L59 105M93 105L94 106L93 105z"/>
<path style="fill:#fbfffa; stroke:none;" d="M127 105L128 106L127 105M132 105L133 106L132 105z"/>
<path style="fill:#4d5c48; stroke:none;" d="M57 106L58 107L57 106z"/>
<path style="fill:#5f9074; stroke:none;" d="M56 107L56 127L57 127L56 107z"/>
<path style="fill:#4d5c48; stroke:none;" d="M96 107L97 108L96 107M127 107L128 108L127 107z"/>
<path style="fill:#5f9074; stroke:none;" d="M160 107L160 116L161 116L160 107z"/>
<path style="fill:#fbfffa; stroke:none;" d="M57 108L58 109L57 108M95 108L96 109L95 108z"/>
<path style="fill:#5f9074; stroke:none;" d="M96 108L97 109L96 108M174 108L174 117L175 117L174 108z"/>
<path style="fill:#4d5c48; stroke:none;" d="M96 109L97 128L98 128L96 109z"/>
<path style="fill:#5f9074; stroke:none;" d="M134 112L135 113L134 112z"/>
<path style="fill:#4d5c48; stroke:none;" d="M135 112L135 117L136 117L135 112z"/>
<path style="fill:#fbfffa; stroke:none;" d="M159 114L160 115L159 114z"/>
<path style="fill:#4d5c48; stroke:none;" d="M159 116L160 117L159 116M136 117L137 118L136 117z"/>
<path style="fill:#fbfffa; stroke:none;" d="M154 117L155 118L154 117M157 117L158 118L157 117z"/>
<path style="fill:#4d5c48; stroke:none;" d="M172 117L172 121L173 121L172 117z"/>
<path style="fill:#5f9074; stroke:none;" d="M173 117L174 118L173 117z"/>
<path style="fill:#fbfffa; stroke:none;" d="M135 118L136 119L135 118z"/>
<path style="fill:#5f9074; stroke:none;" d="M136 118L136 121L137 121L136 118z"/>
<path style="fill:#4d5c48; stroke:none;" d="M153 118L154 119L153 118z"/>
<path style="fill:#fbfffa; stroke:none;" d="M173 118L174 119L173 118z"/>
<path style="fill:#5f9074; stroke:none;" d="M137 121L138 122L137 121M171 121L172 122L171 121z"/>
<path style="fill:#4d5c48; stroke:none;" d="M138 122L139 123L138 122z"/>
<path style="fill:#fbfffa; stroke:none;" d="M172 122L173 123L172 122z"/>
<path style="fill:#4d5c48; stroke:none;" d="M127 123L128 124L127 123z"/>
<path style="fill:#5f9074; stroke:none;" d="M138 123L139 126L140 126L138 123z"/>
<path style="fill:#4d5c48; stroke:none;" d="M170 123L171 124L170 123z"/>
<path style="fill:#5f9074; stroke:none;" d="M126 124L126 129L127 129L126 124z"/>
<path style="fill:#fbfffa; stroke:none;" d="M127 124L128 125L127 124M138 124L139 125L138 124z"/>
<path style="fill:#4d5c48; stroke:none;" d="M169.333 124.667L169.667 125.333L169.333 124.667z"/>
<path style="fill:#5f9074; stroke:none;" d="M140 126L141 127L140 126z"/>
<path style="fill:#4d5c48; stroke:none;" d="M168 126L169 127L168 126M55 127L56 128L55 127z"/>
<path style="fill:#5f9074; stroke:none;" d="M96 127L97 128L96 127M141 127L142 128L141 127z"/>
<path style="fill:#4d5c48; stroke:none;" d="M167 127L168 128L167 127M54 128L55 129L54 128M98 128L99 129L98 128z"/>
<path style="fill:#fbfffa; stroke:none;" d="M141 128L142 129L141 128z"/>
<path style="fill:#5f9074; stroke:none;" d="M166 128L167 129L166 128z"/>
<path style="fill:#4d5c48; stroke:none;" d="M26 129L27 130L26 129z"/>
<path style="fill:#5f9074; stroke:none;" d="M53 129L54 130L53 129z"/>
<path style="fill:#4d5c48; stroke:none;" d="M99 129L100 130L99 129z"/>
<path style="fill:#5f9074; stroke:none;" d="M123 129L124 130L123 129z"/>
<path style="fill:#4d5c48; stroke:none;" d="M144 129L145 130L144 129M163 129L164 130L163 129z"/>
<path style="fill:#5f9074; stroke:none;" d="M27 130L27 131L53 131L27 130M100 130L100 131L123 131L100 130M146 130L147 131L146 130M147 131L147 132L161 132L147 131z"/>
<path style="fill:#fbfffa; stroke:none;" d="M15 159L15 179L19 179L19 170L27 179L23 169L23 168L27 159L19 167L19 159L15 159M31.2276 159.758C25.0854 162.408 26.3876 182.292 35.7724 178.242C41.9146 175.592 40.6124 155.708 31.2276 159.758M42 159L42 179L46 179L46 170L49 170L49 179L53 179L53 159L49 159L49 166L46 166L46 159L42 159M67 170L63 170L63 176L60 176L60 162L63 162L63 167L67 167C66.7421 162.333 61.6351 154.973 57.179 161.434C55.4393 163.956 55.9251 168.1 56.0154 170.999C56.3468 181.636 66.6863 179.659 67 170M70 159L70 179L78 179L78 175L74 175L74 171L77 171L77 167L74 167L74 163L77 163L77 159L70 159M80 159L80 179L84 179L84 171C88.9393 170.623 94.2311 165.442 89.3966 160.603C87.1441 158.349 82.8921 159.002 80 159M93 159L93 179C99.8269 178.995 108.073 176.018 102 168C107.243 160.466 98.91 159.005 93 159M108 159L106 179L110 179L110 175L113 175L113 179L117 179L115 159L108 159M118 159L118 163L122 163L122 179L126 179L126 163L129 163L129 159L118 159M131 159L131 179C135.922 178.148 136.599 174.551 137 170L138 170L138 179L142 179L142 159C137.078 159.852 136.401 163.449 136 168L135 168L135 159L131 159M145 166L149 166L149 162L151 162L148 167L148 170L151 170L151 176L149 176L149 171L145 171C145.414 183.718 159.467 177.235 153 168C158.615 160.461 145.837 155.033 145 166M157 159L159 179C162.113 179 166.972 179.821 169.397 177.397C174.971 171.822 168.53 166.18 163 166L163 159L157 159M174 159L174 179L178 179L178 166L179 166L180 179L183 179L184 166L185 166L185 179L189 179L189 159L183 159L182 168L181 168L180 159L174 159z"/>
<path style="fill:#141414; stroke:none;" d="M32 162L32 176L35 176L35 162L32 162M84 162L84 168L87 168L87 162L84 162M97 162L97 166L100 166L100 162L97 162M111 162L110 172L113 172L111 162M163 169L163 176L167 176L167 169L163 169M97 170L97 176L100 176L100 170L97 170z"/>
<path style="fill:#4d5c48; stroke:none;" d="M199 186L200 187L199 186z"/>
<path style="fill:#fbfffa; stroke:none;" d="M0 187L0 200L13 200L13 199C6.07608 197.603 3.28711 192.69 0 187M199 187C197.736 193.265 193.265 197.736 187 199L187 200L200 200L199 187z"/>
<path style="fill:#4d5c48; stroke:none;" d="M198 190L199 191L198 190M2 192L3 193L2 192M197 192L198 193L197 192M7 197L8 198L7 197M192 197L193 198L192 197M9 198L10 199L9 198M190 198L191 199L190 198M13 199L14 200L13 199M186 199L187 200L186 199z"/>
</svg>
