<?xml version="1.0" standalone="yes"?>
<svg xmlns="http://www.w3.org/2000/svg" width="200" height="200">
<path style="fill:#ffffff; stroke:none;" d="M0 0L0 13L1 13C2.26403 6.73515 6.73516 2.26402 13 1L0 0z"/>
<path style="fill:#171717; stroke:none;" d="M13 0.468369C-4.83218 3.92566 0 28.7524 0 42L0 150C0 161.827 -4.00153 182.793 2.87886 192.96C10.9295 204.856 35.5597 200 48 200L143 200C156.955 200 174.478 202.84 188 199.291C204.758 194.893 200 170.997 200 158L200 48C200 36.7276 204.063 15.3603 196.57 6.09413C187.802 -4.75002 163.429 0 151 0L59 0C44.3245 0 27.4141 -2.32623 13 0.468369z"/>
<path style="fill:#ffffff; stroke:none;" d="M187 0L187 1C193.265 2.26404 197.736 6.73515 199 13L200 13L200 0L187 0z"/>
<path style="fill:#5d5f32; stroke:none;" d="M192 2L193 3L192 2M2 7L3 8L2 7z"/>
<path style="fill:#e5e77a; stroke:none;" d="M11 10L11 141L191 141L191 10L11 10z"/>
<path style="fill:#171717; stroke:none;" d="M44 112L43 114C73.0427 133.869 109.599 143.639 144 126.558C183.177 107.106 195.884 55.5031 155 29.1698C123.011 8.56543 75.8064 7.82545 46.0895 33.6119C27.6923 49.5758 20.6637 73.7257 30.8843 96.1698C33.7759 102.52 37.5079 108.885 44 112z"/>
<path style="fill:#5d5f32; stroke:none;" d="M121 15L122 16L121 15M79 16L79 17L84 17L79 16M122 16L122 17L128 17L122 16z"/>
<path style="fill:#058979; stroke:none;" d="M10 17L10 140L11 140L11 54C11 43.366 14.1077 26.7892 10 17z"/>
<path style="fill:#5d5f32; stroke:none;" d="M76.6667 17.3333L77.3333 17.6667L76.6667 17.3333M128 17L128 18L131 18L128 17M131 18L132 19L131 18M70 19L71 20L70 19M136 19L137 20L136 19M67 20L68 21L67 20M139 20L140 21L139 20M64 21L64 22L67 22L64 21M140 21L140 22L143 22L140 21M63 22L64 23L63 22M143 22L144 23L143 22M62 23L63 24L62 23M144 23L145 24L144 23M59 24L60 25L59 24M147 24L148 25L147 24z"/>
<path style="fill:#e5e77a; stroke:none;" d="M93 25.7106C80.4518 28.8993 68.8118 31.3275 58.4244 39.7099C32.9082 60.3008 35.7508 93.9467 62.0394 112.388C78.8046 124.149 103.393 127.112 123 121.91C131.613 119.625 139.648 115.967 146.83 110.681C151.612 107.161 156.515 103.017 159.731 97.9606C185.833 56.9299 132.645 15.6362 93 25.7106z"/>
<path style="fill:#5d5f32; stroke:none;" d="M113 25L114 26L113 25M56 26L57 27L56 26M87 26L87 27L92 27L87 26M114 26L114 27L120 27L114 26M150 26L151 27L150 26M53 27L53 28L56 28L53 27M82 27L82 28L86 28L82 27M120 27L120 28L125 28L120 27M151 27L151 28L154 28L151 27M52 28L53 29L52 28M81 28L82 29L81 28M125 28L126 29L125 28M154 28L155 29L154 28M51 29L52 30L51 29M94 29L95 30L94 29z"/>
<path style="fill:#171717; stroke:none;" d="M76 34C78.33 48.4272 91.9717 40.4306 102 40L102 29L76 34z"/>
<path style="fill:#5d5f32; stroke:none;" d="M102 29L102 40L103 40L102 29M155 29L156 30L155 29M49 30L50 31L49 30M73 30L74 31L73 30M88 30L89 31L88 30M48 31L49 32L48 31M70 31L70 32L73 32L70 31M83 31L83 32L88 32L83 31M134.667 31.3333L135.333 31.6667L134.667 31.3333M158 31L159 32L158 31M47 32L48 33L47 32M69 32L70 33L69 32M79 32L79 33L83 33L79 32M137 32L138 33L137 32M159 32L160 33L159 32M46 33L47 34L46 33M68 33L69 34L68 33M78 33L79 34L78 33M138 33L139 34L138 33M160 33L161 34L160 33M44 34L45 35L44 34M65 34L66 35L65 34M75 34L77 38L75 34M141 34L142 35L141 34M43 35L44 36L43 35M64 35L65 36L64 35M142 35L143 36L142 35M163.333 35.6667L163.667 36.3333L163.333 35.6667M62 36L63 37L62 36M131 37L131 38L137 38L131 37M143 36L144 37L143 36M42 37L43 38L42 37M61 37L62 38L61 37z"/>
<path style="fill:#171717; stroke:none;" d="M125 44L125 45L141 57C143.913 56.0287 149.39 54.8104 150.828 51.7616C153.49 46.1163 139.401 37.9116 135.015 37.4884C130.487 37.0515 128.465 41.9449 125 44z"/>
<path style="fill:#5d5f32; stroke:none;" d="M145 37L146 38L145 37M164 37L165 38L164 37M41 38L42 39L41 38M60 38L61 39L60 38M146 38L147 39L146 38M165 38L166 39L165 38M57.3333 39.6667L57.6667 40.3333L57.3333 39.6667M149 39L150 40L149 39M166 39L167 40L166 39M38 40L37 43L38 40M78 40L79 41L78 40M96 40L97 41L96 40M128 40L127 43L128 40M142 40L143 41L142 40M168 40L168 43L169 43L168 40M56 41L57 42L56 41M79 41L80 42L79 41M90 41L90 42L96 42L90 41M143 41L144 42L143 41M150 41L151 42L150 41M55 42L56 43L55 42M85 42L85 43L90 43L85 42M144 42L145 43L144 42M151 42L152 43L151 42M36 43L37 44L36 43M54 43L55 44L54 43M80 43L81 44L80 43M84 43L85 44L84 43M126 43L127 44L126 43M152 43L153 44L152 43M170 43L171 44L170 43M35 44L36 45L35 44M52 44L53 45L52 44M104 44L104 55L105 55L104 44z"/>
<path style="fill:#171717; stroke:none;" d="M105 44L105 55C113.493 56.752 117.968 56.6594 122 48L105 44z"/>
<path style="fill:#5d5f32; stroke:none;" d="M147 44L148 45L147 44M171.333 44.6667L171.667 45.3333L171.333 44.6667M51 45L52 46L51 45M110 45L111 46L110 45M115 45L116 46L115 45M126 45L127 46L126 45M148 45L149 46L148 45M155.333 45.6667L155.667 46.3333L155.333 45.6667M34 46L35 47L34 46M116.667 46.3333L117.333 46.6667L116.667 46.3333M127 46L127 47L130 47L127 46M172 46L173 47L172 46M33.3333 47.6667L33.6667 48.3333L33.3333 47.6667M50 47L51 48L50 47M119 47L120 48L119 47M130 47L131 48L130 47M149 47L150 48L149 47M156 47L157 48L156 47M173.333 47.6667L173.667 48.3333L173.333 47.6667M49 48L50 49L49 48M131 48L132 49L131 48M157 48L158 49L157 48z"/>
<path style="fill:#171717; stroke:none;" d="M71 60L83 65L91 59L84 49C78.3423 51.2752 73.6245 54.3618 71 60z"/>
<path style="fill:#5d5f32; stroke:none;" d="M84 49L85 50L84 49M152 49L152 52L153 52L152 49M158 49L159 50L158 49M174 49L175 50L174 49M80 50L81 51L80 50M120.333 50.6667L120.667 51.3333L120.333 50.6667M134 50L135 51L134 50M46 51L46 54L47 54L48 51L46 51M77 51L77 52L80 52L77 51M85 51L86 52L85 51M135 51L136 52L135 51M159 51L160 52L159 51M31 52L32 53L31 52M76 52L77 53L76 52M86 52L87 53L86 52M119 52L120 53L119 52M136 52L137 53L136 52M151 52L152 53L151 52M160.333 52.6667L160.667 53.3333L160.333 52.6667M175 52L176 53L175 52M30.3333 53.6667L30.6667 54.3333L30.3333 53.6667z"/>
<path style="fill:#171717; stroke:none;" d="M51 53L45 74L59 74L64 57L51 53z"/>
<path style="fill:#5d5f32; stroke:none;" d="M75 53L76 54L75 53M118.333 53.6667L118.667 54.3333L118.333 53.6667M150 53L151 54L150 53M176.333 53.6667L176.667 54.3333L176.333 53.6667M44 54L44 58L45 58L44 54M51 54L52 55L51 54M73 54L72 57L73 54M139.333 54.6667L139.667 55.3333L139.333 54.6667M147 54L148 55L147 54M29 55L30 56L29 55M50 55L51 56L50 55M60 55L61 56L60 55M89.3333 55.6667L89.6667 56.3333L89.3333 55.6667M107 55L108 56L107 55M117 55L118 56L117 55M144 55L145 56L144 55M177 55L178 56L177 55M28 56L28 60L29 60L28 56M49 56L49 59L50 59L49 56M61 56L61 57L64 57L61 56M108 56L108 57L112 57L108 56M116 56L117 57L116 56M140 56L141 57L140 56M143 56L144 57L143 56M71 57L72 58L71 57M90 57L91 58L90 57M112 57L112 58L115 58L112 57M141.667 57.3333L142.333 57.6667L141.667 57.3333M162 57L163 58L162 57M70.3333 58.6667L70.6667 59.3333L70.3333 58.6667M91 58L92 59L91 58M163 58L163 61L164 61L163 58M88 59L89 60L88 59M101 59L102 60L101 59z"/>
<path style="fill:#171717; stroke:none;" d="M88 85C102.462 90.325 110.276 90.9288 122 80C121.056 74.3357 123.971 69.9711 118 64C112.133 58.1333 93.2364 57.8 88 65C85.3339 68.6659 82.4307 75.3753 85 80C86.4957 82.6922 88.6522 82.391 88 85z"/>
<path style="fill:#5d5f32; stroke:none;" d="M105 59L106 60L105 59M27 60L28 61L27 60M62 60L62 64L63 64L62 60M73 60L74 61L73 60M86 60L87 61L86 60M96 60L96 61L100 61L96 60M106 60L106 61L111 61L106 60M131 62L131 63L138 61L131 62M179 60L180 61L179 60M42 61L43 62L42 61M74 61L75 62L74 61M85 61L86 62L85 61M93 61L93 62L96 62L93 61M111 61L111 62L114 62L111 61z"/>
<path style="fill:#171717; stroke:none;" d="M125 65C128.066 73.9664 134.147 75.6167 143 73L138 61L125 65z"/>
<path style="fill:#5d5f32; stroke:none;" d="M164 61L165 62L164 61M41 62L41 66L42 66L41 62M47 62L48 63L47 62M75 62L76 63L75 62M77 62L78 63L77 62M84 62L85 63L84 62M92 62L93 63L92 62M114 62L115 63L114 62M138 62L139 63L138 62M165 62L167 67L165 62M179 62L179 66L180 66L179 62M46 63L46 68L47 68L46 63M78 63L79 64L78 63M83.3333 63.6667L83.6667 64.3333L83.3333 63.6667M89 63L90 64L89 63M102 63L101 66L102 63z"/>
<path style="fill:#e5e77a; stroke:none;" d="M103 63C99.7953 69.3973 96.5602 70.2115 90 72L90 73L97 77L95 84L103 80L104 80L112 84C111.01 78.2754 111.861 76.0166 117 73L117 72C109.912 70.0676 107.85 68.3321 103 63z"/>
<path style="fill:#5d5f32; stroke:none;" d="M104.333 63.6667L104.667 64.3333L104.333 63.6667M128 63L129 64L128 63M139.333 63.6667L139.667 64.3333L139.333 63.6667M81 64L82 65L81 64M88 64L89 65L88 64M118.333 64.6667L118.667 65.3333L118.333 64.6667M125 64L126 65L125 64M60.3333 65.6667L60.6667 66.3333L60.3333 65.6667M82 65L83 66L82 65M105 65L106 66L105 65M140 65L141 66L140 65M26 66L27 67L26 66M40 66L41 67L40 66M87 66L88 67L87 66M119 66L120 67L119 66M141 66L142 67L141 66M180 66L181 67L180 66M25 67L25 83L26 83L25 67M86.3333 67.6667L86.6667 68.3333L86.3333 67.6667M120.333 67.6667L120.667 68.3333L120.333 67.6667M125 67L126 68L125 67M181 67L181 83L182 83L181 67M44 68L44 74L45 74L44 68M60 68L61 69L60 68M126 68L126 71L127 71L126 68M59 69L60 70L59 69M85 69L86 70L85 69M99 69L100 70L99 69M107 69L108 70L107 69M121 69L122 70L121 69M93 70L94 71L93 70M95 70L95 71L99 71L95 70M108 70L108 71L112 71L108 70M113 70L114 71L113 70M59 71L59 74L60 74L59 71M90 71L90 72L93 72L90 71M114 71L114 72L117 72L114 71M121 71L122 72L121 71M127 71L128 72L127 71M141 71L142 72L141 71M84 72L85 73L84 72M89 72L90 73L89 72M128.333 72.6667L128.667 73.3333L128.333 72.6667M83 73L85 77L83 73M91 73L92 74L91 73M115 73L116 74L115 73M123 73L123 76L124 76L123 73M142 73L143 74L142 73M92 74L93 75L92 74M114 74L115 75L114 74M64 75L64 76L78 78C79.7694 73.3064 67.0074 75 64 75M93 75L94 76L93 75M112.667 75.3333L113.333 75.6667L112.667 75.3333M146 81L147 81L148 76L162 76C155.708 73.3596 148.226 74.1296 146 81z"/>
<path style="fill:#171717; stroke:none;" d="M64 76L69 89L81 85C79.5671 74.6683 72.7281 76 64 76z"/>
<path style="fill:#5d5f32; stroke:none;" d="M95 76L96 77L95 76M111 76L112 77L111 76M122 76L123 77L122 76z"/>
<path style="fill:#171717; stroke:none;" d="M148 76L143 93C151.306 95.2662 153.123 96.4358 159 90L162 76L148 76z"/>
<path style="fill:#5d5f32; stroke:none;" d="M64 77L65 78L64 77M96 77L97 78L96 77M110 77L110 80L111 80L110 77M121 77L122 78L121 77M65 78L65 84L66 84L65 78M96 79L97 80L96 79M85 80L86 83L87 83L87 80L85 80M94 80L94 84L95 84L96 80L94 80M103 80L104 81L103 80M111 80L112 81L111 80M120.333 80.6667L120.667 81.3333L120.333 80.6667M80 81L81 82L80 81M102 81L103 82L102 81M104 81L105 82L104 81M112 81L112 84L113 84L112 81M161 81L162 82L161 81M81 82L81 85L82 85L81 82M100 82L101 83L100 82M160 82L160 86L161 86L160 82M166 82L167 83L166 82M41 83L41 88L42 88L41 83M88 83L89 84L88 83M118.333 83.6667L118.667 84.3333L118.333 83.6667M165 83L165 88L166 88L165 83M179 83L179 89L180 89L179 83M67 84L67 87L68 87L67 84M123 84L123 87L124 87L123 84z"/>
<path style="fill:#171717; stroke:none;" d="M124 84L116 91L122 100C128.605 98.5842 133.328 95.2929 136 89L124 84z"/>
<path style="fill:#5d5f32; stroke:none;" d="M79.6667 85.3333L80.3333 85.6667L79.6667 85.3333M89 85L90 86L89 85M117 85L118 86L117 85M125 85L125 86L128 86L125 85M145 85L146 86L145 85M76.6667 86.3333L77.3333 86.6667L76.6667 86.3333M90 86L90 87L93 87L90 86M114 86L114 87L117 87L114 86M128 86L129 87L128 86M130 86L131 87L130 86M144 86L144 89L145 89L144 86M159 86L160 87L159 86M93 87L94 88L93 87M113 87L114 88L113 87M121 87L122 88L121 87M131 87L132 88L131 87M158.333 87.6667L158.667 88.3333L158.333 87.6667M110 88L111 89L110 88M120 88L121 89L120 88M163 88L163 92L164 92L163 88M28 89L28 94L29 94L28 89M100 89L101 90L100 89M134 89L135 90L134 89M136.333 89.6667L136.667 90.3333L136.333 89.6667M143 89L144 90L143 89M178 89L179 90L178 89M101 90L101 91L106 91L101 90M115 92L118 91L115 92M142.333 90.6667L142.667 91.3333L142.333 90.6667M157 90L158 91L157 90M43 91L44 92L43 91M91 92L91 93L95 93L91 92M135 91L136 92L135 91M44 92L44 95L45 95L44 92z"/>
<path style="fill:#171717; stroke:none;" d="M81 104L66 92C63.3885 93.0429 56.4787 95.0852 55.9066 98.277C54.8814 103.998 68.8221 113.541 73.8958 112.253C77.2789 111.394 79.3527 106.721 81 104M85 101L102 105C101.999 91.5918 91.5628 88.7706 85 101z"/>
<path style="fill:#5d5f32; stroke:none;" d="M134 92L135 93L134 92M157.333 92.6667L157.667 93.3333L157.333 92.6667M62 93L63 94L62 93M67 93L68 94L67 93M99 93L100 94L99 93M133 93L134 94L133 93M30 94L30 97L31 97L30 94M59 94L59 95L62 95L59 94M88 94L89 95L88 94M100 94L100 95C102.465 98.2539 102.465 101.746 100 105L100 106C104.726 104.987 103 97.9949 103 94L100 94M118.333 94.6667L118.667 95.3333L118.333 94.6667M147 94L148 95L147 94M155 94L151 96L151 97C153.45 96.8795 156.095 96.9051 155 94M176 94L175 97L176 94M45 95L46 96L45 95M56 95L56 96L59 96L56 95M67.6667 95.3333L68.3333 95.6667L67.6667 95.3333M132 95L133 96L132 95M148 95L148 96L151 96L148 95M161 95L162 96L161 95M46.3333 96.6667L46.6667 97.3333L46.3333 96.6667M55 96L56 97L55 96M69 96L70 97L69 96M87 96L88 97L87 96M119 96L120 97L119 96M160.333 96.6667L160.667 97.3333L160.333 96.6667M54 97L54 100L55 100L54 97M70 97L71 98L70 97M86.3333 97.6667L86.6667 98.3333L86.3333 97.6667M120 97L121 98L120 97M129 97L130 98L129 97M47 98L48 99L47 98M121 98L122 99L121 98M126 98L127 99L126 98M73 99L74 100L73 99M85 99L86 100L85 99M125 99L126 100L125 99M32 100L33 101L32 100M48 100L49 101L48 100M55 100L56 101L55 100M74 100L75 101L74 100M122 100L122 101L125 101L122 100M158 100L159 101L158 100M173 100L173 103L174 103L175 100L173 100M33.3333 101.667L33.6667 102.333L33.3333 101.667M49 101L50 102L49 101M56 101L57 102L56 101M75 101L76 102L75 101M85.6667 101.333L86.3333 101.667L85.6667 101.333M57.3333 102.667L57.6667 103.333L57.3333 102.667M88 102L89 103L88 102M155.333 102.667L155.667 103.333L155.333 102.667M91 103L92 104L91 103M171.333 103.667L171.667 104.333L171.333 103.667M52 104L53 105L52 104M58 104L59 105L58 104M81 104L80 106L82 106L81 104M92 104L92 105L97 105L92 104M154 104L155 105L154 104M35.6667 105.333L36.3333 105.667L35.6667 105.333M53 105L54 106L53 105M60 105L61 106L60 105M121 106L121 107L126 108C127.345 104.432 123.286 105.281 121 106M153 105L154 106L153 105M170 105L171 106L170 105M54 106L55 107L54 106M61 106L62 107L61 106M79 106L80 107L79 106z"/>
<path style="fill:#171717; stroke:none;" d="M104 110L104 120L131 115C128.077 100.589 113.591 109.39 104 110z"/>
<path style="fill:#5d5f32; stroke:none;" d="M152 106L153 107L152 106M169 106L170 107L169 106M38.3333 107.667L38.6667 108.333L38.3333 107.667M62 107L63 108L62 107M78.3333 107.667L78.6667 108.333L78.3333 107.667M150 107L151 108L150 107M168.333 107.667L168.667 108.333L168.333 107.667M57.3333 108.667L57.6667 109.333L57.3333 108.667M110 108L111 109L110 108M149.333 108.667L149.667 109.333L149.333 108.667M39 109L40 110L39 109M65 109L66 110L65 109M77 109L78 110L77 109M104 109L104 110L110 110L104 109M129 109L130 110L129 109M167 109L168 110L167 109M40 110L41 111L40 110M58.6667 110.333L59.3333 110.667L58.6667 110.333M66 110L66 111L69 111L66 110M146 110L146 111L149 111L146 110M166 110L167 111L166 110M69 111L70 112L69 111M76 111L77 112L76 111M104 111L104 119L105 119L104 111M130 111L131 112L130 111M145 111L146 112L145 111M43 112L44 113L43 112M62 112L63 113L62 112M70 112L71 113L70 112M75 112L76 113L75 112M131 112L129 115L129 116C131.649 115.432 132.355 114.412 131 112M144 112L145 113L144 112M163.333 112.667L163.667 113.333L163.333 112.667M63 113L64 114L63 113M44 114L45 115L44 114M64 114L65 115L64 114M141 114L142 115L141 114M162 114L163 115L162 114M45 115L46 116L45 115M66.6667 115.333L67.3333 115.667L66.6667 115.333M138 115L138 116L141 116L138 115M161 115L162 116L161 115M46 116L47 117L46 116M137 116L138 117L137 116M160 116L161 117L160 116M70 117L71 118L70 117M123 117L124 118L123 117M136 117L137 118L136 117M158 117L159 118L158 117M49 118L50 119L49 118M73 118L74 119L73 118M118 118L119 119L118 118M133 118L134 119L133 118M157 118L158 119L157 118M50 119L51 120L50 119M74 119L74 120L77 120L74 119M112 119L112 120L118 120L112 119M130 119L130 120L133 120L130 119M156 119L157 120L156 119M51 120L52 121L51 120M77 120L77 121L81 121L77 120M104 120L104 121L112 121L104 120M126 120L126 121L130 121L126 120M154 120L155 121L154 120M153 121L154 122L153 121M86 122L87 123L86 122M120 122L121 123L120 122M150 122L151 123L150 122M57 123L58 124L57 123M92 123L93 124L92 123M114 123L115 124L114 123M149 123L150 124L149 123M58 124L59 125L58 124M93 124L93 125L114 125L93 124M148 124L149 125L148 124M59 125L59 126L62 126L59 125M145 125L145 126L148 126L145 125M62 126L63 127L62 126M142 127L143 128L142 127M139 128L140 129L139 128M68.6667 129.333L69.3333 129.667L68.6667 129.333M136 129L136 130L139 130L136 129M71 130L71 131L75 131L71 130M132 130L132 131L136 131L132 130M75 131L76 132L75 131M131 131L132 132L131 131M78 132L79 133L78 132M128 132L129 133L128 132M84 133L85 134L84 133M122 133L123 134L122 133M85 134L85 135L93 135L85 134M114 134L114 135L122 135L114 134M93 135L93 136L114 136L93 135z"/>
<path style="fill:#ffffff; stroke:none;" d="M14 155L11 176L15 176L15 173L21 173L21 176L25 176L24 155L14 155M27 155L27 173L35 173L35 169L31 169L34 166L31 162L31 159L34 159L34 155L27 155M37 155L37 173L45 173L45 176L49 176L48 155L44 155L44 169L41 169L41 155L37 155M50 155L50 173L58 173L58 169L54 169L57 166L54 162L54 159L57 159L57 155L50 155M60 155L60 173L64 173L64 165L66 165L66 173L70 173L70 155L66 155L66 161L64 161L64 155L60 155M72 155L72 159L75 159L75 173L79 173L79 159L82 159L82 155L72 155M84 155L84 173L88 173L88 166C99.0177 164.732 92.5029 155.03 84 155M97 155L95 173L99 170L102 170L102 173L106 173L104 155L97 155M108 155L107 173C113.79 171.867 112 164.461 112 159L114 159L114 173L118 173L118 155L108 155M121 155L121 173C124.822 171.67 125.426 168.8 126 165L127 165L127 173L130 173L130 155C126.178 156.33 125.574 159.2 125 163L124 163L124 155L121 155M133 160L137 158L138 158L138 170L137 170L137 165L133 165C133.446 178.7 146.749 168.899 140 163C144.645 156.226 134.357 151.868 133 160M146 155L144 173L148 170L151 170L151 173L155 173L153 155L146 155M157 155L157 173L165 173L165 176L169 176L168 155L164 155L164 169L161 169L161 155L157 155M170 155L170 173C173.822 171.67 174.426 168.8 175 165L176 165L176 173L179 173L179 155C175.178 156.33 174.574 159.2 174 163L173 163L173 155L170 155M184 164L182 173L186 173L186 165L187 165L187 173L191 173L191 155C185.114 155.07 179.616 157.7 184 164z"/>
<path style="fill:#171717; stroke:none;" d="M88 158L88 163L90 163L90 158L88 158M100 158L99 167L102 167L100 158M149 158L148 167L151 167L149 158M186 158L186 162L187 162L186 158M18 159L16 169L20 169L20 159L18 159z"/>
<path style="fill:#ffffff; stroke:none;" d="M0 187L0 200L13 200L13 199C6.07608 197.603 3.28711 192.69 0 187M199 187C197.736 193.265 193.265 197.736 187 199L187 200L200 200L199 187z"/>
<path style="fill:#5d5f32; stroke:none;" d="M2 192L3 193L2 192M197 192L198 193L197 192M7 197L8 198L7 197M192 197L193 198L192 197z"/>
</svg>
