<?xml version="1.0" standalone="yes"?>
<svg xmlns="http://www.w3.org/2000/svg" width="200" height="200">
<path style="fill:#ffffff; stroke:none;" d="M0 0L0 13L1 13C2.26403 6.73515 6.73516 2.26402 13 1L0 0z"/>
<path style="fill:#1a1a1a; stroke:none;" d="M13 0.468369C-4.89076 3.9368 0 28.6711 0 42L0 150C0 161.762 -4.01266 182.822 2.72762 192.985C10.6227 204.888 35.6602 200 48 200L142 200C156.407 200 173.98 202.723 188 199.316C204.82 195.227 200 170.895 200 158L200 48C200 36.5879 204.018 15.5034 196.57 6.04398C188.043 -4.78674 163.272 0 151 0L59 0C44.3244 0 27.4142 -2.32607 13 0.468369z"/>
<path style="fill:#ffffff; stroke:none;" d="M187 0L187 1C193.265 2.26404 197.736 6.73515 199 13L200 13L200 0L187 0z"/>
<path style="fill:#9f9376; stroke:none;" d="M9 10L9 11L191 11L173 10L137 10L9 10z"/>
<path style="fill:#c6b892; stroke:none;" d="M9 11L9 142L191 142L191 47L191 22L189.972 12.6034L178 11L145 11L9 11z"/>
<path style="fill:#ffffff; stroke:none;" d="M190 11L191 12L190 11z"/>
<path style="fill:#736b55; stroke:none;" d="M141.667 21.3333L142.333 21.6667L141.667 21.3333z"/>
<path style="fill:#9f9376; stroke:none;" d="M101 22L102 23L101 22z"/>
<path style="fill:#1a1a1a; stroke:none;" d="M141 22L132 32L133 34L102 67L102 23L81.0262 47.4352L56 77L91.5262 116.869L102 129C102 112.451 105.742 92.8094 96 79C114.311 92.172 123.747 118.378 143 130L143 22L141 22z"/>
<path style="fill:#736b55; stroke:none;" d="M100 23L101 24L100 23M102 23L102 65L103 65C103 53.0427 106.611 33.9877 102 23M99 24L100 25L99 24z"/>
<path style="fill:#9f9376; stroke:none;" d="M139 24L140 25L139 24z"/>
<path style="fill:#736b55; stroke:none;" d="M138 25L139 26L138 25z"/>
<path style="fill:#9f9376; stroke:none;" d="M98 27L99 28L98 27M137 27L138 28L137 27z"/>
<path style="fill:#736b55; stroke:none;" d="M97 28L98 29L97 28z"/>
<path style="fill:#9f9376; stroke:none;" d="M136 28L137 29L136 28z"/>
<path style="fill:#736b55; stroke:none;" d="M96 29L97 30L96 29M135 29L136 30L135 29z"/>
<path style="fill:#9f9376; stroke:none;" d="M94 30L95 31L94 30z"/>
<path style="fill:#736b55; stroke:none;" d="M134 30L135 31L134 30M94.3333 31.6667L94.6667 32.3333L94.3333 31.6667z"/>
<path style="fill:#9f9376; stroke:none;" d="M132 31L133 32L132 31z"/>
<path style="fill:#736b55; stroke:none;" d="M133 31L134 32L133 31M132 33L133 34L132 33z"/>
<path style="fill:#9f9376; stroke:none;" d="M91 34L90 37L91 34M130 34L131 35L130 34z"/>
<path style="fill:#ffffff; stroke:none;" d="M90 35L91 36L90 35z"/>
<path style="fill:#736b55; stroke:none;" d="M129 35L130 36L129 35M91 36L92 37L91 36z"/>
<path style="fill:#9f9376; stroke:none;" d="M89 37L90 38L89 37M128 37L129 38L128 37z"/>
<path style="fill:#736b55; stroke:none;" d="M88 38L89 39L88 38z"/>
<path style="fill:#9f9376; stroke:none;" d="M127 38L128 39L127 38z"/>
<path style="fill:#736b55; stroke:none;" d="M87 39L88 40L87 39M126 39L127 40L126 39M86 41L87 42L86 41M125 41L126 42L125 41M85 42L86 43L85 42M124 42L125 43L124 42M123 43L124 44L123 43z"/>
<path style="fill:#9f9376; stroke:none;" d="M82 44L83 45L82 44M121 44L120 47L121 44z"/>
<path style="fill:#ffffff; stroke:none;" d="M81 45L82 46L81 45z"/>
<path style="fill:#736b55; stroke:none;" d="M82.3333 45.6667L82.6667 46.3333L82.3333 45.6667z"/>
<path style="fill:#9f9376; stroke:none;" d="M81 46L82 47L81 46z"/>
<path style="fill:#736b55; stroke:none;" d="M121 46L122 47L121 46z"/>
<path style="fill:#9f9376; stroke:none;" d="M80 47L81 48L80 47M119 47L120 48L119 47z"/>
<path style="fill:#736b55; stroke:none;" d="M79 48L80 49L79 48z"/>
<path style="fill:#9f9376; stroke:none;" d="M118 48L119 49L118 48M79 49L80 50L79 49z"/>
<path style="fill:#736b55; stroke:none;" d="M117 49L118 50L117 49M78 50L79 51L78 50M77 51L78 52L77 51M116 51L117 52L116 51M76 52L77 53L76 52M115 52L116 53L115 52M114 53L115 54L114 53z"/>
<path style="fill:#9f9376; stroke:none;" d="M73 54L74 55L73 54M112 54L111 57L112 54z"/>
<path style="fill:#ffffff; stroke:none;" d="M72 55L73 56L72 55z"/>
<path style="fill:#736b55; stroke:none;" d="M73.3333 55.6667L73.6667 56.3333L73.3333 55.6667z"/>
<path style="fill:#9f9376; stroke:none;" d="M72 56L73 57L72 56z"/>
<path style="fill:#736b55; stroke:none;" d="M112 56L113 57L112 56z"/>
<path style="fill:#9f9376; stroke:none;" d="M71 57L72 58L71 57M110 57L111 58L110 57z"/>
<path style="fill:#736b55; stroke:none;" d="M70 58L69 61L70 58z"/>
<path style="fill:#9f9376; stroke:none;" d="M109.333 58.6667L109.667 59.3333L109.333 58.6667z"/>
<path style="fill:#ffffff; stroke:none;" d="M69 59L70 60L69 59z"/>
<path style="fill:#9f9376; stroke:none;" d="M108 60L109 61L108 60z"/>
<path style="fill:#736b55; stroke:none;" d="M68 61L69 62L68 61M107 61L108 62L107 61M67.3333 62.6667L67.6667 63.3333L67.3333 62.6667M106 62L107 63L106 62M105 63L106 64L105 63M66 64L67 65L66 64z"/>
<path style="fill:#ffffff; stroke:none;" d="M103 64L104 65L103 64z"/>
<path style="fill:#9f9376; stroke:none;" d="M64 65L63 67L64 65z"/>
<path style="fill:#736b55; stroke:none;" d="M65 65L66 66L65 65z"/>
<path style="fill:#9f9376; stroke:none;" d="M102 65L103 66L102 65z"/>
<path style="fill:#c6b892; stroke:none;" d="M103 65L104 66L103 65z"/>
<path style="fill:#736b55; stroke:none;" d="M104 65L105 66L104 65M64 66L65 67L64 66M102.667 66.3333L103.333 66.6667L102.667 66.3333M100 67L99 69L100 67z"/>
<path style="fill:#c6b892; stroke:none;" d="M101 67L98 71L101 67z"/>
<path style="fill:#9f9376; stroke:none;" d="M61 69L62 70L61 69M98 69L99 70L98 69z"/>
<path style="fill:#736b55; stroke:none;" d="M60 70L61 71L60 70z"/>
<path style="fill:#9f9376; stroke:none;" d="M99 70L100 71L99 70z"/>
<path style="fill:#736b55; stroke:none;" d="M59 71L60 72L59 71M97 71L98 72L97 71z"/>
<path style="fill:#9f9376; stroke:none;" d="M98 71L99 72L98 71z"/>
<path style="fill:#736b55; stroke:none;" d="M58.3333 72.6667L58.6667 73.3333L58.3333 72.6667z"/>
<path style="fill:#9f9376; stroke:none;" d="M96.6667 72.3333L97.3333 72.6667L96.6667 72.3333z"/>
<path style="fill:#c6b892; stroke:none;" d="M95.3333 73.6667L95.6667 74.3333L95.3333 73.6667z"/>
<path style="fill:#736b55; stroke:none;" d="M96.3333 73.6667L96.6667 74.3333L96.3333 73.6667M57 74L58 75L57 74z"/>
<path style="fill:#9f9376; stroke:none;" d="M55 75L56 76L55 75z"/>
<path style="fill:#736b55; stroke:none;" d="M56 75L57 76L56 75M93 75L94 79L95 79L96 76L93 75M55 76L56 77L55 76z"/>
<path style="fill:#9f9376; stroke:none;" d="M94 76L95 77L94 76z"/>
<path style="fill:#c6b892; stroke:none;" d="M95.3333 77.6667L95.6667 78.3333L95.3333 77.6667z"/>
<path style="fill:#736b55; stroke:none;" d="M96 77L97 78L96 77M58 78L60 81L58 78z"/>
<path style="fill:#9f9376; stroke:none;" d="M96 79L97 80L96 79z"/>
<path style="fill:#736b55; stroke:none;" d="M96 80L100 82L98 79L96 80z"/>
<path style="fill:#9f9376; stroke:none;" d="M58 80L59 81L58 80z"/>
<path style="fill:#736b55; stroke:none;" d="M60 81L61 82L60 81z"/>
<path style="fill:#c6b892; stroke:none;" d="M98 81L102 85L98 81z"/>
<path style="fill:#736b55; stroke:none;" d="M61 82L62 83L61 82z"/>
<path style="fill:#9f9376; stroke:none;" d="M100 82L101 83L100 82M62 83L63 84L62 83M99 83L100 84L99 83M101 83L102 84L101 83z"/>
<path style="fill:#736b55; stroke:none;" d="M100 84L101 85L100 84M63 85L64 86L63 85M101.667 85.3333L102.333 85.6667L101.667 85.3333z"/>
<path style="fill:#9f9376; stroke:none;" d="M64 86L65 87L64 86M102 86L103 87L102 86z"/>
<path style="fill:#736b55; stroke:none;" d="M102 87L102 118C102 122.118 103.242 128.81 100 128L100 129L102 130C104.885 120.238 105.947 96.4065 102 87M67 88L69 91L67 88z"/>
<path style="fill:#9f9376; stroke:none;" d="M105 89L106 90L105 89z"/>
<path style="fill:#736b55; stroke:none;" d="M106 89L107 90L106 89z"/>
<path style="fill:#9f9376; stroke:none;" d="M67 90L68 91L67 90z"/>
<path style="fill:#736b55; stroke:none;" d="M107 90L108 91L107 90M69 91L70 92L69 91M70.3333 92.6667L70.6667 93.3333L70.3333 92.6667M108 92L109 93L108 92M109 93L110 94L109 93M71 94L72 95L71 94M110 94L111 95L110 94M72 95L73 98L74 98L72 95z"/>
<path style="fill:#9f9376; stroke:none;" d="M111 95L112 96L111 95z"/>
<path style="fill:#ffffff; stroke:none;" d="M72 96L73 97L72 96z"/>
<path style="fill:#9f9376; stroke:none;" d="M112.333 96.6667L112.667 97.3333L112.333 96.6667M74 98L75 99L74 98M113 98L114 99L113 98M75 99L77 101L75 99z"/>
<path style="fill:#736b55; stroke:none;" d="M76 99L77 100L76 99z"/>
<path style="fill:#9f9376; stroke:none;" d="M114 99L115 100L114 99z"/>
<path style="fill:#736b55; stroke:none;" d="M115 99L116 100L115 99M77 100L78 101L77 100M116 100L117 101L116 100M78 101L79 102L78 101M117.333 101.667L117.667 102.333L117.333 101.667M79.3333 102.667L79.6667 103.333L79.3333 102.667M118 103L119 104L118 103M80 104L81 105L80 104M119 104L120 105L119 104M81 105L82 106L81 105M120 105L121 106L120 105z"/>
<path style="fill:#9f9376; stroke:none;" d="M82 106L83 107L82 106M121.333 106.667L121.667 107.333L121.333 106.667z"/>
<path style="fill:#736b55; stroke:none;" d="M82 107L83 108L82 107z"/>
<path style="fill:#9f9376; stroke:none;" d="M83 108L84 109L83 108M122 108L123 109L122 108M84 109L85 112L86 112L84 109z"/>
<path style="fill:#736b55; stroke:none;" d="M85 109L86 110L85 109z"/>
<path style="fill:#9f9376; stroke:none;" d="M123 109L124 112L125 112L123 109z"/>
<path style="fill:#736b55; stroke:none;" d="M124 109L125 110L124 109z"/>
<path style="fill:#ffffff; stroke:none;" d="M84 110L85 111L84 110z"/>
<path style="fill:#736b55; stroke:none;" d="M126 112L127 113L126 112M88 113L89 114L88 113M127 113L128 114L127 113M89 114L90 115L89 114M128 114L129 115L128 114M90 115L91 116L90 115M129.333 115.667L129.667 116.333L129.333 115.667z"/>
<path style="fill:#9f9376; stroke:none;" d="M91 116L92 117L91 116z"/>
<path style="fill:#736b55; stroke:none;" d="M91 117L92 118L91 117z"/>
<path style="fill:#9f9376; stroke:none;" d="M130 117L131 118L130 117M92 118L93 119L92 118M131 118L132 119L131 118M93 119L94 122L95 122L93 119z"/>
<path style="fill:#736b55; stroke:none;" d="M94 119L95 120L94 119z"/>
<path style="fill:#ffffff; stroke:none;" d="M93 120L94 121L93 120z"/>
<path style="fill:#736b55; stroke:none;" d="M132 120L133 121L132 120z"/>
<path style="fill:#9f9376; stroke:none;" d="M133 121L134 122L133 121z"/>
<path style="fill:#736b55; stroke:none;" d="M97 123L98 124L97 123M136 123L137 124L136 123M98 124L99 125L98 124M137 124L138 125L137 124M138.333 125.667L138.667 126.333L138.333 125.667z"/>
<path style="fill:#9f9376; stroke:none;" d="M139 127L140 128L139 127M140 128L141 129L140 128M100 129L101 130L100 129M102 129L103 130L102 129z"/>
<path style="fill:#736b55; stroke:none;" d="M141.667 130.333L142.333 130.667L141.667 130.333z"/>
<path style="fill:#ffffff; stroke:none;" d="M33 157L30 180L34 180L34 177L41 177L41 180L45 180L44 157L33 157M47 157L47 177L55 177L55 173L51 173L51 169L54 169L54 165L51 165L51 161L54 161L54 157L47 157M57 157L57 177L66 177L66 180L70 180L69 157L65 157L65 173L61 173L61 157L57 157M71 157L71 177L79 177L79 173L75 173L75 169L78 169L78 165L75 165L75 161L78 161L78 157L71 157M82 157L80 177C87.9342 175.735 86 167.298 86 161L89 161L89 177L93 177L93 157L82 157M96 157L96 177L104 177L104 173L100 173L100 169L103 169L103 165L100 165L100 161L103 161L103 157L96 157M106 157L106 177L110 177L110 169C114.939 168.623 120.231 163.442 115.397 158.603C113.144 156.349 108.892 157.002 106 157M120 157L118 177L122 177L122 173L125 173L125 177L129 177L127 157L120 157M131 157L131 177L140 177L140 180L144 180L143 157L139 157L139 173L135 173L135 157L131 157M145 157L145 177C149.922 176.148 150.599 172.551 151 168L152 168L152 177L156 177L156 157C151.078 157.852 150.401 161.449 150 166L149 166L149 157L145 157M161 166L161 167L159 177L163 177L163 168L165 168L165 177L169 177L169 157C163.289 157.02 155.872 159.188 161 166z"/>
<path style="fill:#1a1a1a; stroke:none;" d="M110 160L110 166L113 166L113 160L110 160M123 160L122 170L125 170L123 160M163 160L163 164L165 164L165 160L163 160M37 161L35 173L40 173L40 161L37 161z"/>
<path style="fill:#ffffff; stroke:none;" d="M0 187L0 200L13 200L13 199C6.07608 197.603 3.28711 192.69 0 187M199 187C197.736 193.265 193.265 197.736 187 199L187 200L200 200L199 187z"/>
</svg>
