<?xml version="1.0" standalone="yes"?>
<svg xmlns="http://www.w3.org/2000/svg" width="200" height="200">
<path style="fill:#ffffff; stroke:none;" d="M0 0L0 13L1 13C2.26403 6.73515 6.73516 2.26402 13 1L0 0z"/>
<path style="fill:#161515; stroke:none;" d="M13 0.468369C-4.89076 3.9368 0 28.6711 0 42L0 150C0 161.762 -4.01266 182.822 2.72762 192.985C10.6227 204.888 35.6602 200 48 200L142 200C156.407 200 173.98 202.723 188 199.316C204.82 195.227 200 170.895 200 158L200 48C200 36.5879 204.018 15.5034 196.57 6.04398C188.043 -4.78674 163.272 0 151 0L59 0C44.3244 0 27.4142 -2.32607 13 0.468369z"/>
<path style="fill:#ffffff; stroke:none;" d="M187 0L187 1C193.265 2.26404 197.736 6.73515 199 13L200 13L200 0L187 0z"/>
<path style="fill:#ffc66a; stroke:none;" d="M7 10L7 141L27 141L27 99C24.0763 98.9997 19.8785 99.6822 17.3179 97.9722C8.31502 91.96 21.9836 86.0177 27 86L27 85C18.8734 81.0075 22.2467 76.1009 28.0008 71.615C36.9459 64.6413 49.8015 60.9457 57 52C46.1729 54.6673 39.5401 53.3592 38 41C34.661 41.9475 29.6393 44.4406 26.1852 43.3032C21.8995 41.8921 13.4842 26.7186 16.7778 22.588C22.8322 14.9948 39.5824 15.1807 41 26C54.0805 22.8757 71.4191 22.5365 67 42C74.4549 49.1445 64.0262 51.2337 58 52C63.5907 62.0701 70.9273 63.2098 82 66C83.2833 58.047 90.3231 58.0004 97 58C109.213 57.9992 120.989 60 133 60L133 71C140.789 68.6505 153.723 66.0395 151 79C159.873 76.8876 163.574 80.0142 171 84L172 81L147 66L146 62C154.442 62.6075 181.838 76.3736 177 86L177 87C183.557 96.1164 176.542 98.9943 168 99L167 141L192 141L192 10L7 10z"/>
<path style="fill:#7d6034; stroke:none;" d="M30 18L30 19L38 19L30 18z"/>
<path style="fill:#d3a358; stroke:none;" d="M37 17L38 18L37 17M87 17L86 19L87 17z"/>
<path style="fill:#7d6034; stroke:none;" d="M88 17L88 18L93 19L88 17z"/>
<path style="fill:#d3a358; stroke:none;" d="M146 17L144 20L146 17z"/>
<path style="fill:#7d6034; stroke:none;" d="M146 18L146 19L152 19L146 18z"/>
<path style="fill:#d3a358; stroke:none;" d="M151 17L152 18L151 17M25 19L25 20L30 19L25 19z"/>
<path style="fill:#161515; stroke:none;" d="M15 23L24 39L23 41L25 44L39 40C39.3972 53.6818 46.074 53.2993 57 51.4144C60.2149 50.8597 65.9678 50.9891 68.3418 48.4398C70.528 46.0923 67.4813 41.6844 67.0895 39.0108C64.4896 21.2689 54.8951 24.1175 40 26L39 19C31.0679 17.1334 22.3858 19.9837 15 23z"/>
<path style="fill:#d3a358; stroke:none;" d="M38 18L39 19L38 18z"/>
<path style="fill:#161515; stroke:none;" d="M114 23C106.248 22.0931 97.0048 16.8396 89.0934 18.4074C84.6087 19.2962 75.6212 38.4879 78.0856 42.2724C79.7655 44.8521 85.2883 45.3234 88 46.1551C91.5839 47.2543 96.1024 50.2209 99.9599 49.2261C106.141 47.6318 113.193 28.9173 114 23z"/>
<path style="fill:#d3a358; stroke:none;" d="M93 18L93 19L98 19L93 18z"/>
<path style="fill:#161515; stroke:none;" d="M119 35C121.716 40.8096 127.356 55.0001 133.21 57.9174C137.484 60.0475 142.61 54.7587 147 54.5131C152.045 54.2309 156.868 57.5476 161.981 56.6821C168.565 55.5679 174.023 39.8564 174 34C176.989 32.2815 181.089 26.9435 176.782 24.2176C171.251 20.7168 155.551 17.875 149.005 18.2917C143.724 18.6278 142.002 24.6716 137.981 27.25C132.297 30.8957 124.945 31.8701 119 35z"/>
<path style="fill:#d3a358; stroke:none;" d="M152 18L152 19L156 19L152 18z"/>
<path style="fill:#7d6034; stroke:none;" d="M26 19L27 20L26 19M85 19L86 20L85 19M98 19L99 20L98 19z"/>
<path style="fill:#d3a358; stroke:none;" d="M156 19L157 20L156 19z"/>
<path style="fill:#7d6034; stroke:none;" d="M21 20L22 21L21 20M38 20L39 21L38 20z"/>
<path style="fill:#d3a358; stroke:none;" d="M85 20L86 21L85 20z"/>
<path style="fill:#7d6034; stroke:none;" d="M104 20L105 21L104 20M143.333 20.6667L143.667 21.3333L143.333 20.6667z"/>
<path style="fill:#d3a358; stroke:none;" d="M162 20L163 21L162 20M16 21L15 23L16 21z"/>
<path style="fill:#7d6034; stroke:none;" d="M17 21L18 22L17 21M19.6667 21.3333L20.3333 21.6667L19.6667 21.3333z"/>
<path style="fill:#d3a358; stroke:none;" d="M40 21L41 22L40 21z"/>
<path style="fill:#7d6034; stroke:none;" d="M84 21L85 22L84 21M105.667 21.3333L106.333 21.6667L105.667 21.3333M108 21L108 22L114 23L114 22L108 21z"/>
<path style="fill:#d3a358; stroke:none;" d="M109 21L110 22L109 21z"/>
<path style="fill:#7d6034; stroke:none;" d="M163 21L163 22L167 22L163 21z"/>
<path style="fill:#d3a358; stroke:none;" d="M168 21L169 22L168 21z"/>
<path style="fill:#7d6034; stroke:none;" d="M16 22L17 23L16 22M27 23L27 24L35 26C35.1054 21.5515 30.1978 22.0918 27 23M40 22L40 26L41 26L40 22M142 22L143 23L142 22M145 28L146 28C148.183 24.4965 149.867 23.3142 154 23C149.313 21.1097 146.724 23.7493 145 28M169 22L169 23L174 23L169 22z"/>
<path style="fill:#d3a358; stroke:none;" d="M174 22L175 23L174 22z"/>
<path style="fill:#ffc66a; stroke:none;" d="M22 25C26.6537 32.9654 26.2567 39.011 37 36L33 28C37.7539 21.0294 25.1118 24.1255 22 25z"/>
<path style="fill:#d3a358; stroke:none;" d="M50 24L50 25L62 24L50 24M82.6667 23.3333L83.3333 23.6667L82.6667 23.3333M141.333 23.6667L141.667 24.3333L141.333 23.6667M148 23L149 24L148 23z"/>
<path style="fill:#ffc66a; stroke:none;" d="M154 51L161 53L172 28C168.995 26.9431 166.115 26.0557 163 25.3889C160.655 24.887 158.363 24.1935 156 23.7693C136.462 20.2614 154.761 43.3291 154 51z"/>
<path style="fill:#d3a358; stroke:none;" d="M154 23L155 24L154 23z"/>
<path style="fill:#7d6034; stroke:none;" d="M175 23L176 24L175 23z"/>
<path style="fill:#d3a358; stroke:none;" d="M176.667 23.3333L177.333 23.6667L176.667 23.3333z"/>
<path style="fill:#7d6034; stroke:none;" d="M15 24L16 25L15 24z"/>
<path style="fill:#d3a358; stroke:none;" d="M23 24L24 25L23 24z"/>
<path style="fill:#7d6034; stroke:none;" d="M51 24L52 25L51 24M62 24L63 25L62 24M82 24L82 29L83 29L82 24z"/>
<path style="fill:#d3a358; stroke:none;" d="M160 24L161 25L160 24M178 24L179 25L178 24M16 25L16 29L17 29L16 25z"/>
<path style="fill:#7d6034; stroke:none;" d="M21 25L22 26L21 25z"/>
<path style="fill:#d3a358; stroke:none;" d="M42 25L43 26L42 25z"/>
<path style="fill:#7d6034; stroke:none;" d="M43 25L44 26L43 25M63 25L64 26L63 25M140 25L141 26L140 25z"/>
<path style="fill:#d3a358; stroke:none;" d="M161 25L161 26L165 26L161 25M166 25L167 26L166 25z"/>
<path style="fill:#7d6034; stroke:none;" d="M179 25L179 29L180 29L179 25M22 26L23 27L22 26z"/>
<path style="fill:#d3a358; stroke:none;" d="M23 26L23 30L24 30L23 26M35 26L36 27L35 26M138 26L139 27L138 26z"/>
<path style="fill:#7d6034; stroke:none;" d="M139 26L140 27L139 26z"/>
<path style="fill:#d3a358; stroke:none;" d="M167.667 26.3333L168.333 26.6667L167.667 26.3333z"/>
<path style="fill:#7d6034; stroke:none;" d="M169 26L170 27L169 26M34.3333 27.6667L34.6667 28.3333L34.3333 27.6667M63 27L64 28L63 27M112.667 27.3333L113.333 27.6667L112.667 27.3333z"/>
<path style="fill:#d3a358; stroke:none;" d="M135 27L132 28L132 29L136 28L135 27z"/>
<path style="fill:#7d6034; stroke:none;" d="M136 27L136 28L139 28L136 27z"/>
<path style="fill:#d3a358; stroke:none;" d="M146 27L147 28L146 27z"/>
<path style="fill:#7d6034; stroke:none;" d="M170 27L170 28L173 28L170 27M17 28L18 29L17 28z"/>
<path style="fill:#d3a358; stroke:none;" d="M33 28L34 29L33 28M64 28L65 29L64 28M81 28L82 29L81 28M112.333 28.6667L112.667 29.3333L112.333 28.6667z"/>
<path style="fill:#7d6034; stroke:none;" d="M135 28L136 29L135 28z"/>
<path style="fill:#d3a358; stroke:none;" d="M145 28L146 33L147 33L145 28M172 28L173 29L172 28z"/>
<path style="fill:#7d6034; stroke:none;" d="M18 29L19 33L20 33L18 29M35 29L35 33L36 33L35 29M65 29L65 34L66 34L65 29z"/>
<path style="fill:#d3a358; stroke:none;" d="M80 29L79 34L80 34L80 29z"/>
<path style="fill:#7d6034; stroke:none;" d="M132 29L133 30L132 29M171.333 29.6667L171.667 30.3333L171.333 29.6667z"/>
<path style="fill:#d3a358; stroke:none;" d="M178.333 29.6667L178.667 30.3333L178.333 29.6667z"/>
<path style="fill:#7d6034; stroke:none;" d="M24 30L25 31L24 30M110 30L109 33L110 30z"/>
<path style="fill:#d3a358; stroke:none;" d="M111 30L112 31L111 30z"/>
<path style="fill:#7d6034; stroke:none;" d="M129 30L130 31L129 30M126 31L126 32L129 32L126 31z"/>
<path style="fill:#d3a358; stroke:none;" d="M171 31L170 33L171 31z"/>
<path style="fill:#7d6034; stroke:none;" d="M176.333 31.6667L176.667 32.3333L176.333 31.6667z"/>
<path style="fill:#d3a358; stroke:none;" d="M177 31L178 32L177 31M18 32L19 33L18 32z"/>
<path style="fill:#7d6034; stroke:none;" d="M24 32L25 33L24 32z"/>
<path style="fill:#d3a358; stroke:none;" d="M110 32L111 33L110 32M121 32L120 34L121 32z"/>
<path style="fill:#7d6034; stroke:none;" d="M122 32L122 33L126 33L122 32M145 32L146 33L145 32M171 32L172 33L171 32z"/>
<path style="fill:#d3a358; stroke:none;" d="M19 33L19 36L20 36L19 33M25 33L26 34L25 33M35 33L36 34L35 33M66 33L67 34L66 33z"/>
<path style="fill:#7d6034; stroke:none;" d="M80 33L81 34L80 33z"/>
<path style="fill:#d3a358; stroke:none;" d="M109 33L109 36L110 36L109 33z"/>
<path style="fill:#7d6034; stroke:none;" d="M121 33L122 34L121 33M146.333 33.6667L146.667 34.3333L146.333 33.6667z"/>
<path style="fill:#d3a358; stroke:none;" d="M176 33L177 34L176 33z"/>
<path style="fill:#7d6034; stroke:none;" d="M26.3333 34.6667L26.6667 35.3333L26.3333 34.6667M37.3333 34.6667L37.6667 35.3333L37.3333 34.6667z"/>
<path style="fill:#d3a358; stroke:none;" d="M67 34L67 41L68 41L67 34z"/>
<path style="fill:#7d6034; stroke:none;" d="M79 34L79 37L80 37L79 34z"/>
<path style="fill:#d3a358; stroke:none;" d="M119 34L120 35L119 34M147 34L148 35L147 34M169 34L170 35L169 34z"/>
<path style="fill:#7d6034; stroke:none;" d="M174.333 34.6667L174.667 35.3333L174.333 34.6667M118 35L120 37L118 35z"/>
<path style="fill:#d3a358; stroke:none;" d="M148 35L150 38L148 35z"/>
<path style="fill:#7d6034; stroke:none;" d="M168 35L168 39L169 39L168 35z"/>
<path style="fill:#d3a358; stroke:none;" d="M175.333 35.6667L175.667 36.3333L175.333 35.6667M20 36L21 37L20 36z"/>
<path style="fill:#7d6034; stroke:none;" d="M21.3333 36.6667L21.6667 37.3333L21.3333 36.6667z"/>
<path style="fill:#d3a358; stroke:none;" d="M26 36L28 38L26 36M35 36L36 37L35 36z"/>
<path style="fill:#7d6034; stroke:none;" d="M36 36L37 37L36 36z"/>
<path style="fill:#d3a358; stroke:none;" d="M108 36L109 37L108 36M118 36L119 37L118 36z"/>
<path style="fill:#7d6034; stroke:none;" d="M26 37L27 38L26 37M31 37L31 38L35 38L31 37M78 37L79 38L78 37M107 37L106 42L107 42L107 37M148 37L149 38L148 37M174 37L175 38L174 37z"/>
<path style="fill:#d3a358; stroke:none;" d="M21 38L22 39L21 38M28.6667 38.3333L29.3333 38.6667L28.6667 38.3333z"/>
<path style="fill:#7d6034; stroke:none;" d="M30 38L31 39L30 38z"/>
<path style="fill:#d3a358; stroke:none;" d="M76 38L77 39L76 38z"/>
<path style="fill:#7d6034; stroke:none;" d="M77 38L78 39L77 38z"/>
<path style="fill:#d3a358; stroke:none;" d="M119 38L120 39L119 38z"/>
<path style="fill:#7d6034; stroke:none;" d="M120 38L121 39L120 38z"/>
<path style="fill:#d3a358; stroke:none;" d="M150 38L151 43L152 43L150 38M167 38L168 39L167 38M173.333 38.6667L173.667 39.3333L173.333 38.6667M22.3333 39.6667L22.6667 40.3333L22.3333 39.6667z"/>
<path style="fill:#7d6034; stroke:none;" d="M23 39L24 40L23 39M76 39L76 42L77 42L76 39M121.333 39.6667L121.667 40.3333L121.333 39.6667M149 39L149 42L150 42L149 39z"/>
<path style="fill:#d3a358; stroke:none;" d="M166 39L165 44L166 44L166 39M37 40L38 46L39 46L37 40z"/>
<path style="fill:#7d6034; stroke:none;" d="M171 40L171 45L172 45L171 40z"/>
<path style="fill:#d3a358; stroke:none;" d="M172 40L173 41L172 40M23 41L24 44L25 44L23 41z"/>
<path style="fill:#7d6034; stroke:none;" d="M24 41L25 42L24 41z"/>
<path style="fill:#d3a358; stroke:none;" d="M33 41L33 42L37 42L33 41M107 41L108 42L107 41z"/>
<path style="fill:#7d6034; stroke:none;" d="M122 41L123 42L122 41M30.6667 42.3333L31.3333 42.6667L30.6667 42.3333z"/>
<path style="fill:#d3a358; stroke:none;" d="M32 42L33 43L32 42z"/>
<path style="fill:#7d6034; stroke:none;" d="M67 42L68 45L69 45L67 42z"/>
<path style="fill:#d3a358; stroke:none;" d="M68 42L69 43L68 42M76 42L77 43L76 42M106 42L106 45L107 45L106 42z"/>
<path style="fill:#7d6034; stroke:none;" d="M150 42L151 43L150 42z"/>
<path style="fill:#d3a358; stroke:none;" d="M29 43L30 44L29 43M77 43L78 44L77 43z"/>
<path style="fill:#7d6034; stroke:none;" d="M78 43L79 44L78 43M123 43L124 44L123 43M151.333 43.6667L151.667 44.3333L151.333 43.6667M166 43L167 44L166 43M82 44L83 45L82 44z"/>
<path style="fill:#d3a358; stroke:none;" d="M124 44L125 45L124 44z"/>
<path style="fill:#7d6034; stroke:none;" d="M165 44L165 47L166 47L165 44z"/>
<path style="fill:#d3a358; stroke:none;" d="M70 45L70 49L71 49L70 45M83 45L83 46L90 47L90 46L83 45z"/>
<path style="fill:#7d6034; stroke:none;" d="M85 45L86 46L85 45M104 45L103 48L104 45M124 45L125 46L124 45M152 45L153 46L152 45M170 45L171 46L170 45z"/>
<path style="fill:#d3a358; stroke:none;" d="M39 46L40 47L39 46M125 46L126 47L125 46z"/>
<path style="fill:#7d6034; stroke:none;" d="M153 46L154 50L155 50L153 46z"/>
<path style="fill:#d3a358; stroke:none;" d="M154 46L155 47L154 46M170 46L170 49L171 49L170 46z"/>
<path style="fill:#7d6034; stroke:none;" d="M40 47L40 50L41 50L40 47z"/>
<path style="fill:#d3a358; stroke:none;" d="M90 47L91 48L90 47z"/>
<path style="fill:#7d6034; stroke:none;" d="M91.6667 47.3333L92.3333 47.6667L91.6667 47.3333z"/>
<path style="fill:#d3a358; stroke:none;" d="M104 47L105 48L104 47z"/>
<path style="fill:#7d6034; stroke:none;" d="M126 47L126 50L127 50L126 47z"/>
<path style="fill:#d3a358; stroke:none;" d="M163 47L163 50L164 50L163 47z"/>
<path style="fill:#7d6034; stroke:none;" d="M164 47L165 48L164 47M69 48L70 49L69 48z"/>
<path style="fill:#d3a358; stroke:none;" d="M93 48L94 49L93 48z"/>
<path style="fill:#7d6034; stroke:none;" d="M102 48L103 49L102 48M169 48L170 49L169 48M68 49L69 50L68 49M97 49L98 50L97 49M101 49L102 50L101 49M168 49L167 53L168 53L168 49z"/>
<path style="fill:#d3a358; stroke:none;" d="M41 50L41 53L42 53L41 50z"/>
<path style="fill:#7d6034; stroke:none;" d="M62 50L63 51L62 50z"/>
<path style="fill:#d3a358; stroke:none;" d="M63 50L63 51L68 51L63 50M98 50L98 51L101 51L98 50z"/>
<path style="fill:#7d6034; stroke:none;" d="M127 50L128 51L127 50z"/>
<path style="fill:#d3a358; stroke:none;" d="M153 50L155 52L153 50z"/>
<path style="fill:#7d6034; stroke:none;" d="M162.333 50.6667L162.667 51.3333L162.333 50.6667M56 51L57 52L56 51z"/>
<path style="fill:#d3a358; stroke:none;" d="M57 51L58 52L57 51z"/>
<path style="fill:#7d6034; stroke:none;" d="M58 51L58 52L61 52L58 51z"/>
<path style="fill:#d3a358; stroke:none;" d="M61 51L62 52L61 51M127.333 51.6667L127.667 52.3333L127.333 51.6667z"/>
<path style="fill:#7d6034; stroke:none;" d="M153 51L154 52L153 51z"/>
<path style="fill:#d3a358; stroke:none;" d="M20 52L21 53L20 52z"/>
<path style="fill:#7d6034; stroke:none;" d="M21 52L21 53L27 53L21 52z"/>
<path style="fill:#d3a358; stroke:none;" d="M27 52L29 54L27 52z"/>
<path style="fill:#7d6034; stroke:none;" d="M42 52L43 53L42 52M50 52L50 53L56 53L50 52z"/>
<path style="fill:#ffffff; stroke:none;" d="M57 52L58 53L57 52z"/>
<path style="fill:#7d6034; stroke:none;" d="M128 52L129 53L128 52M155 52L155 53L159 53L155 52M161 52L162 53L161 52z"/>
<path style="fill:#d3a358; stroke:none;" d="M168 52L169 53L168 52z"/>
<path style="fill:#7d6034; stroke:none;" d="M19 53L18 55L19 53z"/>
<path style="fill:#161515; stroke:none;" d="M19 54L19 55L32 59C29.4777 53.1552 24.8038 52.289 19 54z"/>
<path style="fill:#7d6034; stroke:none;" d="M43 53L44 54L43 53M49 53L50 54L49 53z"/>
<path style="fill:#d3a358; stroke:none;" d="M56 53L56 54L59 54L56 53z"/>
<path style="fill:#7d6034; stroke:none;" d="M129.333 53.6667L129.667 54.3333L129.333 53.6667M159.667 53.3333L160.333 53.6667L159.667 53.3333M29 54L30 55L29 54z"/>
<path style="fill:#d3a358; stroke:none;" d="M55 54L56 55L55 54M59 54L60 55L59 54M145 54L146 55L145 54M149 54L150 55L149 54M167 54L168 55L167 54M19 55L20 56L19 55M31 55L32 56L31 55z"/>
<path style="fill:#7d6034; stroke:none;" d="M54 55L55 56L54 55M60 55L60 60L61 60L60 55z"/>
<path style="fill:#d3a358; stroke:none;" d="M130.333 55.6667L130.667 56.3333L130.333 55.6667M142 55L142 56L145 56L142 55M150 55L151 56L150 55z"/>
<path style="fill:#7d6034; stroke:none;" d="M152 55L153 56L152 55M165 55L164 57L165 55z"/>
<path style="fill:#d3a358; stroke:none;" d="M20 56L21 57L20 56z"/>
<path style="fill:#7d6034; stroke:none;" d="M21 56L22 57L21 56z"/>
<path style="fill:#d3a358; stroke:none;" d="M22 56L22 57L25 58L22 56z"/>
<path style="fill:#7d6034; stroke:none;" d="M24 56L25 57L24 56M51 56L51 57L54 57L51 56M140 56L138 57L138 58L140 56z"/>
<path style="fill:#d3a358; stroke:none;" d="M141 56L142 57L141 56M153 56L154 57L153 56z"/>
<path style="fill:#7d6034; stroke:none;" d="M154 56L155 57L154 56z"/>
<path style="fill:#d3a358; stroke:none;" d="M155 56L155 57L158 58L155 56z"/>
<path style="fill:#7d6034; stroke:none;" d="M157 56L158 57L157 56z"/>
<path style="fill:#d3a358; stroke:none;" d="M165 56L166 57L165 56z"/>
<path style="fill:#7d6034; stroke:none;" d="M25 57L26 58L25 57M31 57L33 59L31 57z"/>
<path style="fill:#d3a358; stroke:none;" d="M32 57L33 58L32 57z"/>
<path style="fill:#7d6034; stroke:none;" d="M50 57L51 58L50 57M131 57L132 58L131 57z"/>
<path style="fill:#d3a358; stroke:none;" d="M140 57L141 58L140 57z"/>
<path style="fill:#7d6034; stroke:none;" d="M158 57L158 58L164 58L158 57z"/>
<path style="fill:#d3a358; stroke:none;" d="M16 63L17 63L17 59L24 60C20.1622 57.1085 16.7967 58.2258 16 63z"/>
<path style="fill:#7d6034; stroke:none;" d="M26 58L27 59L26 58z"/>
<path style="fill:#d3a358; stroke:none;" d="M48 58L49 59L48 58z"/>
<path style="fill:#7d6034; stroke:none;" d="M49 58L50 59L49 58z"/>
<path style="fill:#d3a358; stroke:none;" d="M86 58L86 59L122 59C112.44 54.9886 96.387 58 86 58M132 58L133 59L132 58M137 58L138 59L137 58M166 59L166 60L176 60L166 59z"/>
<path style="fill:#161515; stroke:none;" d="M17 59C18.3754 62.8358 21.1545 63.6568 25 63C23.0718 59.5017 20.8776 59.1254 17 59z"/>
<path style="fill:#d3a358; stroke:none;" d="M27 59L28 60L27 59M31 59L32 60L31 59M47 59L48 60L47 59z"/>
<path style="fill:#7d6034; stroke:none;" d="M85 59L86 60L85 59M121 59L122 60L121 59z"/>
<path style="fill:#161515; stroke:none;" d="M163 65L176 61C170.689 57.3724 165.838 59.7063 163 65z"/>
<path style="fill:#7d6034; stroke:none;" d="M174 59L175 60L174 59M24 60L25 61L24 60z"/>
<path style="fill:#d3a358; stroke:none;" d="M28 60L28 61L31 61L28 60M46 60L47 61L46 60M62 60L63 61L62 60z"/>
<path style="fill:#7d6034; stroke:none;" d="M84 60L85 61L84 60M132 60L132 64L133 64L132 60M165 60L166 61L165 60M176 60L175 62L176 60z"/>
<path style="fill:#d3a358; stroke:none;" d="M43 61L44 62L43 61z"/>
<path style="fill:#7d6034; stroke:none;" d="M44.6667 61.3333L45.3333 61.6667L44.6667 61.3333M63 61L64 62L63 61z"/>
<path style="fill:#d3a358; stroke:none;" d="M82 61L83 62L82 61z"/>
<path style="fill:#7d6034; stroke:none;" d="M83 61L84 62L83 61z"/>
<path style="fill:#d3a358; stroke:none;" d="M163 61L162 64L163 61z"/>
<path style="fill:#7d6034; stroke:none;" d="M164 61L165 62L164 61z"/>
<path style="fill:#d3a358; stroke:none;" d="M176 61L177 62L176 61z"/>
<path style="fill:#7d6034; stroke:none;" d="M17 62L17 63L20 63L17 62z"/>
<path style="fill:#d3a358; stroke:none;" d="M42 62L43 63L42 62z"/>
<path style="fill:#7d6034; stroke:none;" d="M64 62L64 63L74 64L64 62z"/>
<path style="fill:#d3a358; stroke:none;" d="M73 62L74 63L73 62z"/>
<path style="fill:#7d6034; stroke:none;" d="M82 62L82 66L83 66L82 62z"/>
<path style="fill:#d3a358; stroke:none;" d="M146 62L147 63L146 62z"/>
<path style="fill:#7d6034; stroke:none;" d="M147 62L147 63L152 64L147 62z"/>
<path style="fill:#d3a358; stroke:none;" d="M151 62L152 63L151 62z"/>
<path style="fill:#7d6034; stroke:none;" d="M171 62L171 63L174 63L171 62z"/>
<path style="fill:#d3a358; stroke:none;" d="M174 62L175 63L174 62z"/>
<path style="fill:#7d6034; stroke:none;" d="M20 63L21 64L20 63M24 63L25 64L24 63M41 63L42 64L41 63z"/>
<path style="fill:#d3a358; stroke:none;" d="M74.6667 63.3333L75.3333 63.6667L74.6667 63.3333z"/>
<path style="fill:#7d6034; stroke:none;" d="M146.333 63.6667L146.667 64.3333L146.333 63.6667z"/>
<path style="fill:#d3a358; stroke:none;" d="M152 63L153 64L152 63z"/>
<path style="fill:#7d6034; stroke:none;" d="M163 63L164 64L163 63z"/>
<path style="fill:#d3a358; stroke:none;" d="M170 63L171 64L170 63M175.667 63.3333L176.333 63.6667L175.667 63.3333z"/>
<path style="fill:#7d6034; stroke:none;" d="M40 64L41 65L40 64M76 64L77 65L76 64z"/>
<path style="fill:#d3a358; stroke:none;" d="M131 64L131 71L132 71L131 64M153 64L154 65L153 64z"/>
<path style="fill:#7d6034; stroke:none;" d="M162 64L163 65L162 64M168 64L169 65L168 64M174 64L175 65L174 64z"/>
<path style="fill:#161515; stroke:none;" d="M170 70L178 67C174.343 63.7327 171.309 65.6514 170 70z"/>
<path style="fill:#7d6034; stroke:none;" d="M176 64L177 65L176 64M37 65L38 66L37 65M79 65L80 66L79 65z"/>
<path style="fill:#d3a358; stroke:none;" d="M147 65L148 66L147 65z"/>
<path style="fill:#7d6034; stroke:none;" d="M149 65L150 66L149 65M155 65L156 66L155 65z"/>
<path style="fill:#d3a358; stroke:none;" d="M156 65L157 66L156 65z"/>
<path style="fill:#7d6034; stroke:none;" d="M163 65L164 66L163 65z"/>
<path style="fill:#d3a358; stroke:none;" d="M167 65L168 66L167 65M171 65L172 66L171 65z"/>
<path style="fill:#7d6034; stroke:none;" d="M177 65L178 66L177 65z"/>
<path style="fill:#d3a358; stroke:none;" d="M178.333 65.6667L178.667 66.3333L178.333 65.6667M35 66L34 68L35 66z"/>
<path style="fill:#7d6034; stroke:none;" d="M36 66L37 67L36 66M65 68L68 67L65 68z"/>
<path style="fill:#d3a358; stroke:none;" d="M68 66L69 67L68 66z"/>
<path style="fill:#7d6034; stroke:none;" d="M69 66L69 67L74 68L74 67L69 66M80.6667 66.3333L81.3333 66.6667L80.6667 66.3333z"/>
<path style="fill:#d3a358; stroke:none;" d="M150 66L151 67L150 66M157 66L158 67L157 66M164 66L165 67L164 66z"/>
<path style="fill:#7d6034; stroke:none;" d="M165 66L166 67L165 66z"/>
<path style="fill:#d3a358; stroke:none;" d="M166 66L167 67L166 66z"/>
<path style="fill:#7d6034; stroke:none;" d="M170 66L171 67L170 66M35 67L36 68L35 67z"/>
<path style="fill:#ffc66a; stroke:none;" d="M64 71L99 83L101 77C92.7969 76.1145 68.9771 61.5152 64 71z"/>
<path style="fill:#d3a358; stroke:none;" d="M151 67L152 68L151 67M158 67L159 68L158 67M169 67L169 70L170 70L169 67z"/>
<path style="fill:#7d6034; stroke:none;" d="M177 67L178 68L177 67z"/>
<path style="fill:#d3a358; stroke:none;" d="M31 68L31 69L34 69L31 68M65 68L66 69L65 68M74 68L75 69L74 68M139 68L139 69L148 69L139 68M152 68L153 69L152 68z"/>
<path style="fill:#7d6034; stroke:none;" d="M153 68L154 69L153 68M159 68L160 69L159 68z"/>
<path style="fill:#d3a358; stroke:none;" d="M160.667 68.3333L161.333 68.6667L160.667 68.3333M176 68L177 69L176 68M30 69L31 70L30 69M77 69L78 70L77 69M138 69L139 70L138 69M148 69L149 70L148 69z"/>
<path style="fill:#7d6034; stroke:none;" d="M154 69L155 70L154 69M162 69L163 70L162 69M174 69L175 70L174 69z"/>
<path style="fill:#d3a358; stroke:none;" d="M175 69L176 70L175 69z"/>
<path style="fill:#7d6034; stroke:none;" d="M29 70L30 71L29 70M63 70L64 71L63 70z"/>
<path style="fill:#d3a358; stroke:none;" d="M78 70L78 71L83 72L78 70z"/>
<path style="fill:#7d6034; stroke:none;" d="M82 70L83 71L82 70z"/>
<path style="fill:#ffffff; stroke:none;" d="M132 70L133 71L132 70z"/>
<path style="fill:#7d6034; stroke:none;" d="M134 70L135 71L134 70M149.333 70.6667L149.667 71.3333L149.333 70.6667z"/>
<path style="fill:#d3a358; stroke:none;" d="M155 70L156 71L155 70z"/>
<path style="fill:#7d6034; stroke:none;" d="M163 70L164 71L163 70z"/>
<path style="fill:#d3a358; stroke:none;" d="M170 70L170 71L175 71L170 70z"/>
<path style="fill:#7d6034; stroke:none;" d="M28 71L29 72L28 71M58 71L60 73L58 71M64 71L64 72L69 74L69 73L64 71z"/>
<path style="fill:#d3a358; stroke:none;" d="M65 71L66 72L65 71z"/>
<path style="fill:#7d6034; stroke:none;" d="M83 71L83 72L90 73L90 72L83 71M131 71L131 72L134 72L131 71z"/>
<path style="fill:#d3a358; stroke:none;" d="M156 71L158 73L156 71z"/>
<path style="fill:#7d6034; stroke:none;" d="M157 71L158 72L157 71M164 71L165 72L164 71z"/>
<path style="fill:#d3a358; stroke:none;" d="M165 71L166 72L165 71M26 72L27 73L26 72z"/>
<path style="fill:#7d6034; stroke:none;" d="M27 72L28 73L27 72M56 72L55 74L56 72z"/>
<path style="fill:#d3a358; stroke:none;" d="M57 72L58 73L57 72z"/>
<path style="fill:#ffc66a; stroke:none;" d="M52 75L52 76L61 81C55.4107 81 47.1701 78.9889 46 86L90 86L90 85C80.0307 81.8122 65.857 80.3957 59 72L52 75z"/>
<path style="fill:#d3a358; stroke:none;" d="M68 72L69 73L68 72M85 72L86 73L85 72z"/>
<path style="fill:#7d6034; stroke:none;" d="M141 72L141 73L146 74L146 75L141 77L141 78L147 75L141 72M150 72L150 78L151 78L150 72z"/>
<path style="fill:#d3a358; stroke:none;" d="M151 72L152 73L151 72z"/>
<path style="fill:#7d6034; stroke:none;" d="M158 72L159 73L158 72M166 72L166 73L169 74L166 72z"/>
<path style="fill:#d3a358; stroke:none;" d="M168 72L169 73L168 72M25 73L26 74L25 73M60 73L61 74L60 73M69 73L69 74L72 74L69 73z"/>
<path style="fill:#7d6034; stroke:none;" d="M90 73L91 74L90 73z"/>
<path style="fill:#d3a358; stroke:none;" d="M140 73L141 74L140 73z"/>
<path style="fill:#ffc66a; stroke:none;" d="M119 82L146 75C140.578 71.0512 123.29 77.4897 119 82z"/>
<path style="fill:#7d6034; stroke:none;" d="M159 73L160 74L159 73z"/>
<path style="fill:#d3a358; stroke:none;" d="M169 73L170 74L169 73z"/>
<path style="fill:#7d6034; stroke:none;" d="M24 74L25 75L24 74z"/>
<path style="fill:#d3a358; stroke:none;" d="M53 74L54 75L53 74z"/>
<path style="fill:#7d6034; stroke:none;" d="M60 74L61 75L60 74M71 74L72 75L71 74M93 74L94 75L93 74z"/>
<path style="fill:#d3a358; stroke:none;" d="M106 74L106 78L107 78L106 74z"/>
<path style="fill:#ffc66a; stroke:none;" d="M107 74L105 86L115 85L115 84L110 77L121 75L107 74z"/>
<path style="fill:#d3a358; stroke:none;" d="M121 74L122 75L121 74z"/>
<path style="fill:#7d6034; stroke:none;" d="M122 74L123 75L122 74M135 74L136 75L135 74M162 74L163 75L162 74z"/>
<path style="fill:#d3a358; stroke:none;" d="M170 74L171 75L170 74z"/>
<path style="fill:#7d6034; stroke:none;" d="M23 75L24 76L23 75M51 75L52 76L51 75z"/>
<path style="fill:#d3a358; stroke:none;" d="M61 75L62 76L61 75z"/>
<path style="fill:#7d6034; stroke:none;" d="M74 75L75 76L74 75z"/>
<path style="fill:#d3a358; stroke:none;" d="M94 75L94 76L97 77L94 75z"/>
<path style="fill:#7d6034; stroke:none;" d="M96 75L97 76L96 75M118 75L119 76L118 75z"/>
<path style="fill:#d3a358; stroke:none;" d="M133 75L133 76L136 76L133 75z"/>
<path style="fill:#7d6034; stroke:none;" d="M163 75L164 76L163 75M171 75L172 76L171 75z"/>
<path style="fill:#d3a358; stroke:none;" d="M21 76L22 77L21 76z"/>
<path style="fill:#7d6034; stroke:none;" d="M22 76L23 77L22 76M52 76L52 77L56 77L52 76z"/>
<path style="fill:#d3a358; stroke:none;" d="M62 76L63 77L62 76z"/>
<path style="fill:#7d6034; stroke:none;" d="M63.6667 76.3333L64.3333 76.6667L63.6667 76.3333M75 76L75 77L79 77L75 76z"/>
<path style="fill:#d3a358; stroke:none;" d="M79 76L80 77L79 76z"/>
<path style="fill:#7d6034; stroke:none;" d="M97 76L97 77L101 77L97 76z"/>
<path style="fill:#d3a358; stroke:none;" d="M113 76L114 77L113 76z"/>
<path style="fill:#7d6034; stroke:none;" d="M114 76L114 77L118 77L114 76M128 76L129 77L128 76z"/>
<path style="fill:#d3a358; stroke:none;" d="M129 76L130 77L129 76z"/>
<path style="fill:#7d6034; stroke:none;" d="M130.667 76.3333L131.333 76.6667L130.667 76.3333z"/>
<path style="fill:#d3a358; stroke:none;" d="M132 76L133 77L132 76M164 76L165 77L164 76z"/>
<path style="fill:#7d6034; stroke:none;" d="M172 76L172 77L175 77L172 76M21 77L22 82L23 82L21 77M56 77L58 79L56 77z"/>
<path style="fill:#d3a358; stroke:none;" d="M57 77L58 78L57 77M65 77L66 78L65 77z"/>
<path style="fill:#7d6034; stroke:none;" d="M66 77L66 78L70 78L66 77z"/>
<path style="fill:#d3a358; stroke:none;" d="M80 77L81 78L80 77z"/>
<path style="fill:#7d6034; stroke:none;" d="M81 77L83 79L81 77z"/>
<path style="fill:#d3a358; stroke:none;" d="M82 77L83 78L82 77z"/>
<path style="fill:#7d6034; stroke:none;" d="M101 77L101 80L102 80L101 77M105 77L106 78L105 77z"/>
<path style="fill:#d3a358; stroke:none;" d="M110 77L111 78L110 77z"/>
<path style="fill:#7d6034; stroke:none;" d="M111 77L111 78L114 78L111 77M125 77L125 78L128 78L125 77z"/>
<path style="fill:#d3a358; stroke:none;" d="M137 77L138 78L137 77z"/>
<path style="fill:#7d6034; stroke:none;" d="M138.667 77.3333L139.333 77.6667L138.667 77.3333z"/>
<path style="fill:#d3a358; stroke:none;" d="M140 77L141 78L140 77M151 77L152 78L151 77M165 77L166 78L165 77z"/>
<path style="fill:#7d6034; stroke:none;" d="M166 77L167 78L166 77M175 77L176 78L175 77z"/>
<path style="fill:#d3a358; stroke:none;" d="M58 78L58 79L61 79L58 78z"/>
<path style="fill:#7d6034; stroke:none;" d="M70 78L71 79L70 78z"/>
<path style="fill:#d3a358; stroke:none;" d="M83 78L83 79L87 79L83 78z"/>
<path style="fill:#7d6034; stroke:none;" d="M104 78L104 86L105 86L104 78M110 78L111 82L112 82L110 78M124 78L125 79L124 78z"/>
<path style="fill:#d3a358; stroke:none;" d="M134 78L134 79L137 79L134 78M150 78L151 79L150 78M152 78L152 79L164 79L152 78z"/>
<path style="fill:#7d6034; stroke:none;" d="M167 78L168 79L167 78M176 78L177 79L176 78z"/>
<path style="fill:#d3a358; stroke:none;" d="M177 78L178 79L177 78z"/>
<path style="fill:#7d6034; stroke:none;" d="M60 79L61 80L60 79z"/>
<path style="fill:#d3a358; stroke:none;" d="M72 79L73 80L72 79M87 79L88 80L87 79M120 79L121 80L120 79M133 79L134 80L133 79M169 79L170 80L169 79M178 79L178 85L179 85L178 79M47 80L47 81L61 81L47 80M73 80L73 81L77 81L73 80z"/>
<path style="fill:#7d6034; stroke:none;" d="M77 80L78 81L77 80z"/>
<path style="fill:#d3a358; stroke:none;" d="M90 80L91 81L90 80M99 80L100 81L99 80z"/>
<path style="fill:#7d6034; stroke:none;" d="M118.333 80.6667L118.667 81.3333L118.333 80.6667z"/>
<path style="fill:#d3a358; stroke:none;" d="M119 80L120 81L119 80z"/>
<path style="fill:#7d6034; stroke:none;" d="M129 80L130 81L129 80z"/>
<path style="fill:#d3a358; stroke:none;" d="M165 80L166 81L165 80z"/>
<path style="fill:#7d6034; stroke:none;" d="M171 80L172 81L171 80z"/>
<path style="fill:#d3a358; stroke:none;" d="M21 81L22 82L21 81z"/>
<path style="fill:#7d6034; stroke:none;" d="M45 81L46 82L45 81z"/>
<path style="fill:#d3a358; stroke:none;" d="M46 81L47 82L46 81M78 81L79 82L78 81z"/>
<path style="fill:#7d6034; stroke:none;" d="M79.6667 81.3333L80.3333 81.6667L79.6667 81.3333M91 81L91 82L95 82L91 81M99 81L100 82L99 81z"/>
<path style="fill:#d3a358; stroke:none;" d="M110 81L111 82L110 81M124 81L120 83L120 84L125 82L124 81z"/>
<path style="fill:#7d6034; stroke:none;" d="M125 81L125 82L129 82L125 81M166 81L167 82L166 81z"/>
<path style="fill:#d3a358; stroke:none;" d="M167 81L170 84L170 83L167 81M172.333 81.6667L172.667 82.3333L172.333 81.6667z"/>
<path style="fill:#7d6034; stroke:none;" d="M23 82L24 83L23 82M38 83L38 84L40 86L35 85L35 86C38.7896 86.8638 40.6224 86.0644 40 82L38 83z"/>
<path style="fill:#d3a358; stroke:none;" d="M45 82L45 86L46 86L45 82z"/>
<path style="fill:#7d6034; stroke:none;" d="M81 82L81 83L85 83L81 82M95.6667 82.3333L96.3333 82.6667L95.6667 82.3333z"/>
<path style="fill:#d3a358; stroke:none;" d="M97 82L98 83L97 82M99.3333 82.6667L99.6667 83.3333L99.3333 82.6667z"/>
<path style="fill:#7d6034; stroke:none;" d="M112 82L113 83L112 82z"/>
<path style="fill:#d3a358; stroke:none;" d="M119 82L120 83L119 82z"/>
<path style="fill:#7d6034; stroke:none;" d="M124 82L125 83L124 82M135 83L135 84L160 83C153.715 80.3627 141.48 81.0846 135 83z"/>
<path style="fill:#d3a358; stroke:none;" d="M24 83L25 84L24 83z"/>
<path style="fill:#ffc66a; stroke:none;" d="M39 83L37 86C39.2508 85.5268 40.1178 85.1397 39 83z"/>
<path style="fill:#d3a358; stroke:none;" d="M85 83L86 84L85 83z"/>
<path style="fill:#7d6034; stroke:none;" d="M98 83L99 84L98 83z"/>
<path style="fill:#d3a358; stroke:none;" d="M113 83L114 84L113 83z"/>
<path style="fill:#7d6034; stroke:none;" d="M121 83L122 84L121 83z"/>
<path style="fill:#ffc66a; stroke:none;" d="M133 86L162 86C158.296 80.7577 136.884 80.8978 133 86z"/>
<path style="fill:#d3a358; stroke:none;" d="M160 83L161 84L160 83z"/>
<path style="fill:#7d6034; stroke:none;" d="M171 83L172 84L171 83M24 84L25 85L24 84z"/>
<path style="fill:#d3a358; stroke:none;" d="M37 84L38 85L37 84M88 84L89 85L88 84z"/>
<path style="fill:#7d6034; stroke:none;" d="M115 84L116 85L115 84M132.333 84.6667L132.667 85.3333L132.333 84.6667M162.333 84.6667L162.667 85.3333L162.333 84.6667z"/>
<path style="fill:#d3a358; stroke:none;" d="M27 85L28 86L27 85M36 85L37 86L36 85M90 85L91 86L90 85z"/>
<path style="fill:#ffc66a; stroke:none;" d="M91.6667 85.3333L92.3333 85.6667L91.6667 85.3333z"/>
<path style="fill:#7d6034; stroke:none;" d="M93 85L94 86L93 85z"/>
<path style="fill:#d3a358; stroke:none;" d="M113 85L114 86L113 85z"/>
<path style="fill:#7d6034; stroke:none;" d="M126 85L126 87L128 87L126 85z"/>
<path style="fill:#d3a358; stroke:none;" d="M127 85L128 86L127 85z"/>
<path style="fill:#7d6034; stroke:none;" d="M176 85L177 86L176 85z"/>
<path style="fill:#d3a358; stroke:none;" d="M177 85L178 86L177 85M18 86L19 87L18 86z"/>
<path style="fill:#7d6034; stroke:none;" d="M19 86L19 87L28 87L19 86M45 86L45 87L93 87C80.5857 81.7907 58.5264 86 45 86M105 86L105 87L113 87L105 86M133 86L133 87L162 87L133 86z"/>
<path style="fill:#d3a358; stroke:none;" d="M176 86L178 88L176 86M17 87L18 88L17 87z"/>
<path style="fill:#7d6034; stroke:none;" d="M176 87L177 88L176 87M16 88L17 89L16 88z"/>
<path style="fill:#d3a358; stroke:none;" d="M178 88L179 89L178 88z"/>
<path style="fill:#7d6034; stroke:none;" d="M15 89L15 98L16 98L15 89M179 89L179 97L180 97L179 89z"/>
<path style="fill:#d3a358; stroke:none;" d="M179 97L180 98L179 97M16 98L17 99L16 98z"/>
<path style="fill:#7d6034; stroke:none;" d="M17 98L18 99L17 98M177 98L178 99L177 98z"/>
<path style="fill:#d3a358; stroke:none;" d="M27 99L27 141L28 141C28 129.043 31.6107 109.988 27 99z"/>
<path style="fill:#7d6034; stroke:none;" d="M32 99L32 108L33 108L32 99z"/>
<path style="fill:#ffc66a; stroke:none;" d="M33 99L33 107L162 107L162 99L33 99z"/>
<path style="fill:#7d6034; stroke:none;" d="M162 99L162 107L163 107L162 99z"/>
<path style="fill:#d3a358; stroke:none;" d="M167 99L167 140L168 140C168 128.304 171.511 109.75 167 99M33 107L33 108L37 108L33 107z"/>
<path style="fill:#7d6034; stroke:none;" d="M37.6667 107.333L38.3333 107.667L37.6667 107.333z"/>
<path style="fill:#d3a358; stroke:none;" d="M39 107L39 108L43 108L39 107z"/>
<path style="fill:#7d6034; stroke:none;" d="M43.6667 107.333L44.3333 107.667L43.6667 107.333z"/>
<path style="fill:#d3a358; stroke:none;" d="M45 107L45 108L50 108L45 107z"/>
<path style="fill:#7d6034; stroke:none;" d="M50 107L51 108L50 107z"/>
<path style="fill:#d3a358; stroke:none;" d="M51 107L51 108L56 108L51 107z"/>
<path style="fill:#7d6034; stroke:none;" d="M56.6667 107.333L57.3333 107.667L56.6667 107.333z"/>
<path style="fill:#d3a358; stroke:none;" d="M58 107L58 108L62 108L58 107z"/>
<path style="fill:#7d6034; stroke:none;" d="M62.6667 107.333L63.3333 107.667L62.6667 107.333z"/>
<path style="fill:#d3a358; stroke:none;" d="M64 107L64 108L69 108L64 107z"/>
<path style="fill:#7d6034; stroke:none;" d="M69 107L70 108L69 107z"/>
<path style="fill:#d3a358; stroke:none;" d="M70 107L70 108L75 108L70 107z"/>
<path style="fill:#7d6034; stroke:none;" d="M75 107L76 108L75 107z"/>
<path style="fill:#d3a358; stroke:none;" d="M76 107L76 108L81 108L76 107z"/>
<path style="fill:#7d6034; stroke:none;" d="M81.6667 107.333L82.3333 107.667L81.6667 107.333z"/>
<path style="fill:#d3a358; stroke:none;" d="M83 107L83 108L87 108L83 107z"/>
<path style="fill:#7d6034; stroke:none;" d="M87.6667 107.333L88.3333 107.667L87.6667 107.333z"/>
<path style="fill:#d3a358; stroke:none;" d="M89 107L89 108L94 108L89 107z"/>
<path style="fill:#7d6034; stroke:none;" d="M94.6667 107.333L95.3333 107.667L94.6667 107.333z"/>
<path style="fill:#d3a358; stroke:none;" d="M96 107L96 108L101 108L96 107z"/>
<path style="fill:#7d6034; stroke:none;" d="M101.667 107.333L102.333 107.667L101.667 107.333z"/>
<path style="fill:#d3a358; stroke:none;" d="M103 107L103 108L108 108L103 107z"/>
<path style="fill:#7d6034; stroke:none;" d="M108 107L109 108L108 107z"/>
<path style="fill:#d3a358; stroke:none;" d="M109 107L109 108L114 108L109 107z"/>
<path style="fill:#7d6034; stroke:none;" d="M114 107L115 108L114 107z"/>
<path style="fill:#d3a358; stroke:none;" d="M115 107L115 108L120 108L115 107z"/>
<path style="fill:#7d6034; stroke:none;" d="M120.667 107.333L121.333 107.667L120.667 107.333z"/>
<path style="fill:#d3a358; stroke:none;" d="M122 107L122 108L126 108L122 107z"/>
<path style="fill:#7d6034; stroke:none;" d="M126.667 107.333L127.333 107.667L126.667 107.333z"/>
<path style="fill:#d3a358; stroke:none;" d="M128 107L128 108L133 108L128 107z"/>
<path style="fill:#7d6034; stroke:none;" d="M133 107L134 108L133 107z"/>
<path style="fill:#d3a358; stroke:none;" d="M134 107L134 108L139 108L134 107z"/>
<path style="fill:#7d6034; stroke:none;" d="M139 107L140 108L139 107z"/>
<path style="fill:#d3a358; stroke:none;" d="M140 107L140 108L145 108L140 107z"/>
<path style="fill:#7d6034; stroke:none;" d="M145.667 107.333L146.333 107.667L145.667 107.333z"/>
<path style="fill:#d3a358; stroke:none;" d="M147 107L147 108L151 108L147 107z"/>
<path style="fill:#7d6034; stroke:none;" d="M151.667 107.333L152.333 107.667L151.667 107.333z"/>
<path style="fill:#d3a358; stroke:none;" d="M153 107L153 108L158 108L153 107z"/>
<path style="fill:#7d6034; stroke:none;" d="M158 107L159 108L158 107z"/>
<path style="fill:#d3a358; stroke:none;" d="M159.667 107.333L160.333 107.667L159.667 107.333z"/>
<path style="fill:#7d6034; stroke:none;" d="M161 107L162 108L161 107M42 142L42 141L33 141L33 112L104 112L104 134C105.631 130.113 107.079 114.945 103.397 112.028C100.615 109.825 94.3281 111 91 111L59 111C53.1544 111 38.2905 108.316 33.6034 112.028C30.7837 114.261 32 120.849 32 124C32 134.24 29.6536 141.99 42 142z"/>
<path style="fill:#ffc66a; stroke:none;" d="M33 112L33 141L46.0193 134.09L60 134L60 133C55.0678 132.271 47.9385 130.493 44.6073 126.446C40.7497 121.76 46.3018 116.123 51.0008 115.384C60.3104 113.921 68.8592 122.655 78 123L85 126L80 134C87.0837 132.69 90.6971 133.344 89 141L162 141L162 136L121 136L105.603 133.682L104 112L33 112z"/>
<path style="fill:#d3a358; stroke:none;" d="M49 115L50 116L49 115z"/>
<path style="fill:#7d6034; stroke:none;" d="M50 115L51 116L50 115M55 115L56 116L55 115z"/>
<path style="fill:#d3a358; stroke:none;" d="M46 116L45 118L46 116z"/>
<path style="fill:#7d6034; stroke:none;" d="M47.6667 116.333L48.3333 116.667L47.6667 116.333M56 116L56 117L59 117L56 116M46 117L47 118L46 117M59 117L60 118L59 117z"/>
<path style="fill:#d3a358; stroke:none;" d="M60.6667 117.333L61.3333 117.667L60.6667 117.333M44.3333 118.667L44.6667 119.333L44.3333 118.667z"/>
<path style="fill:#7d6034; stroke:none;" d="M62 118L63 119L62 118z"/>
<path style="fill:#d3a358; stroke:none;" d="M63.6667 118.333L64.3333 118.667L63.6667 118.333z"/>
<path style="fill:#7d6034; stroke:none;" d="M65 119L66 120L65 119z"/>
<path style="fill:#d3a358; stroke:none;" d="M131 119L132 123L133 123L131 119z"/>
<path style="fill:#ffc66a; stroke:none;" d="M132 119L133 124C136.861 123.475 138.816 122.852 140 119L132 119z"/>
<path style="fill:#7d6034; stroke:none;" d="M140 119L140 123L141 123L140 119M43 120L44 127L45 127L43 120z"/>
<path style="fill:#d3a358; stroke:none;" d="M68 120L69 121L68 120z"/>
<path style="fill:#7d6034; stroke:none;" d="M69.6667 121.333L70.3333 121.667L69.6667 121.333z"/>
<path style="fill:#d3a358; stroke:none;" d="M71 121L72 122L71 121z"/>
<path style="fill:#7d6034; stroke:none;" d="M72 122L73 123L72 122z"/>
<path style="fill:#d3a358; stroke:none;" d="M73.6667 122.333L74.3333 122.667L73.6667 122.333z"/>
<path style="fill:#7d6034; stroke:none;" d="M131 122L132 123L131 122z"/>
<path style="fill:#d3a358; stroke:none;" d="M139 122L140 123L139 122M75 123L76 124L75 123M77 123L78 124L77 123z"/>
<path style="fill:#7d6034; stroke:none;" d="M132 123L133 124L132 123z"/>
<path style="fill:#d3a358; stroke:none;" d="M135.667 123.333L136.333 123.667L135.667 123.333z"/>
<path style="fill:#7d6034; stroke:none;" d="M138 123L139 124L138 123M80 125L81 126L80 125z"/>
<path style="fill:#d3a358; stroke:none;" d="M43 126L44 127L43 126z"/>
<path style="fill:#7d6034; stroke:none;" d="M81 126L81 127L84 127L81 126z"/>
<path style="fill:#d3a358; stroke:none;" d="M84 126L84 130L85 130L84 126z"/>
<path style="fill:#7d6034; stroke:none;" d="M45 127L46 128L45 127z"/>
<path style="fill:#d3a358; stroke:none;" d="M46 128L47 129L46 128z"/>
<path style="fill:#7d6034; stroke:none;" d="M49 129L50 130L49 129z"/>
<path style="fill:#d3a358; stroke:none;" d="M50.6667 130.333L51.3333 130.667L50.6667 130.333z"/>
<path style="fill:#7d6034; stroke:none;" d="M52 130L53 131L52 130M81 130L82 131L81 130z"/>
<path style="fill:#d3a358; stroke:none;" d="M82.6667 130.333L83.3333 130.667L82.6667 130.333z"/>
<path style="fill:#7d6034; stroke:none;" d="M53 131L53 132L56 132L53 131M80 131L79 134L80 134L80 131M56 132L56 133L60 133L56 132z"/>
<path style="fill:#ffffff; stroke:none;" d="M80 132L81 133L80 132z"/>
<path style="fill:#d3a358; stroke:none;" d="M46 133L46 134L56 134L46 133z"/>
<path style="fill:#7d6034; stroke:none;" d="M60 133L61 134L60 133z"/>
<path style="fill:#d3a358; stroke:none;" d="M82 133L82 134L90 134L82 133M44 134L45 135L44 134z"/>
<path style="fill:#7d6034; stroke:none;" d="M90 134L90 137L91 137L90 134z"/>
<path style="fill:#d3a358; stroke:none;" d="M105 134L106 135L105 134M43 135L44 136L43 135M106 135L106 136L162 136L144 135L106 135M41 136L41 141L42 141L41 136z"/>
<path style="fill:#7d6034; stroke:none;" d="M42 136L43 137L42 136M162 136L162 141L163 141L162 136M49.6667 137.333L50.3333 137.667L49.6667 137.333M71 137L72 138L71 137M79 138L79 139L84 138L79 138z"/>
<path style="fill:#d3a358; stroke:none;" d="M90 137L91 138L90 137M48 138L48 141L49 141L48 138z"/>
<path style="fill:#ffc66a; stroke:none;" d="M49 138C52.5687 143.505 79.1881 143.286 83 138L49 138z"/>
<path style="fill:#7d6034; stroke:none;" d="M73 138L74 139L73 138z"/>
<path style="fill:#d3a358; stroke:none;" d="M83 138L84 139L83 138z"/>
<path style="fill:#7d6034; stroke:none;" d="M88 138L89 139L88 138z"/>
<path style="fill:#d3a358; stroke:none;" d="M74 139L74 140L78 140L74 139z"/>
<path style="fill:#7d6034; stroke:none;" d="M82.3333 139.667L82.6667 140.333L82.3333 139.667z"/>
<path style="fill:#ffffff; stroke:none;" d="M40 140L41 141L40 140M49 140L50 141L49 140z"/>
<path style="fill:#7d6034; stroke:none;" d="M88 140L89 141L88 140M7 141L7 142L28 142L7 141M48 141L48 142L82 142L48 141M89 141L89 142L162 142L139 141L89 141M167 141L167 142L192 142L167 141z"/>
<path style="fill:#ffffff; stroke:none;" d="M18 158L18 178L22 178L22 169L25 169L25 178L29 178L29 158L25 158L25 165L22 165L22 158L18 158M32 158L32 178L40 178L40 174L36 174L36 170L39 170L39 166L36 166L36 162L39 162L39 158L32 158M45.2276 158.758C39.0854 161.408 40.3876 181.292 49.7724 177.242C55.9146 174.592 54.6124 154.708 45.2276 158.758M56 158L56 178L60 178L60 170C64.9393 169.623 70.2311 164.442 65.3966 159.603C63.1441 157.349 58.8921 158.002 56 158M69 158L69 178L73 178L73 162L77 162L77 158L69 158M80 158L78 178L82 178L82 174L85 174L85 178L89 178L87 158L80 158M91 158L91 178L95 178L95 169L98 169L98 178L102 178L102 158L98 158L98 165L95 165L95 158L91 158M105 158L105 178C109.922 177.148 110.599 173.551 111 169L112 169L112 178L116 178L116 158C111.078 158.852 110.401 162.449 110 167L109 167L109 158L105 158M119 165L123 165L123 161L125 161L122 166L122 169L125 169L125 175L123 175L123 170L119 170C119.414 182.718 133.467 176.235 127 167C132.615 159.461 119.837 154.033 119 165M132 158L132 178C136.922 177.148 137.599 173.551 138 169L139 169L139 178L143 178L143 158C138.078 158.852 137.401 162.449 137 167L136 167L136 158L132 158M146 158L146 178L150 178L150 170C154.939 169.623 160.231 164.442 155.397 159.603C153.144 157.349 148.892 158.002 146 158M160 158L158 178L162 178L162 174L165 174L165 178L169 178L167 158L160 158M171 158L171 178L175 178L175 169L178 169L178 178L182 178L182 158L178 158L178 165L175 165L175 158L171 158z"/>
<path style="fill:#161515; stroke:none;" d="M46 161L46 175L49 175L49 161L46 161M60 161L60 167L63 167L63 161L60 161M83 161L82 171L85 171L83 161M150 161L150 167L153 167L153 161L150 161M163 161L162 171L165 171L163 161z"/>
<path style="fill:#ffffff; stroke:none;" d="M0 187L0 200L13 200L13 199C6.07608 197.603 3.28711 192.69 0 187M199 187C197.736 193.265 193.265 197.736 187 199L187 200L200 200L199 187z"/>
</svg>
