<?xml version="1.0" standalone="yes"?>
<svg xmlns="http://www.w3.org/2000/svg" width="200" height="200">
<path style="fill:#ffffff; stroke:none;" d="M0 0L0 13L1 13C2.26403 6.73515 6.73516 2.26402 13 1L0 0z"/>
<path style="fill:#191919; stroke:none;" d="M13 0.468369C-4.89076 3.9368 0 28.6711 0 42L0 150C0 161.93 -3.95781 182.677 2.87886 192.985C10.77 204.882 35.6303 200 48 200L143 200C156.956 200 174.477 202.839 188 199.291C204.997 194.831 200 170.215 200 157L200 48C200 36.5879 204.018 15.5034 196.57 6.04398C188.043 -4.78674 163.272 0 151 0L59 0C44.3244 0 27.4142 -2.32607 13 0.468369z"/>
<path style="fill:#ffffff; stroke:none;" d="M187 0L187 1C193.265 2.26404 197.736 6.73515 199 13L200 13L200 0L187 0z"/>
<path style="fill:#73b0ba; stroke:none;" d="M9 10L9 143L191 143L191 10L9 10z"/>
<path style="fill:#62969e; stroke:none;" d="M97 40L98 41L97 40z"/>
<path style="fill:#42656a; stroke:none;" d="M97 41L97 42L106 42L97 41z"/>
<path style="fill:#62969e; stroke:none;" d="M105 40L106 41L105 40M93 41L93 42L96 42L93 41z"/>
<path style="fill:#191919; stroke:none;" d="M29 61L29 62L85 79.8881L102 84.8164L118 80.0039L171 64C171 75.3353 172.156 86.3685 168 97C172.949 102.303 165.533 111.539 170.576 114.971C175.695 118.455 177.257 111.643 176.775 108.039C174.705 92.57 174 77.164 174 61L132 49.2037L101 41.1289L74 48.7006L29 61z"/>
<path style="fill:#62969e; stroke:none;" d="M107 41L107 42L111 42L107 41z"/>
<path style="fill:#42656a; stroke:none;" d="M111 42L112 43L111 42M88 43L89 44L88 43M115 43L116 44L115 43M84 44L84 45L88 45L84 44M116 44L116 45L119 45L116 44z"/>
<path style="fill:#62969e; stroke:none;" d="M79 45L79 46L83 46L79 45z"/>
<path style="fill:#42656a; stroke:none;" d="M83 45L84 46L83 45M119 45L120 46L119 45z"/>
<path style="fill:#62969e; stroke:none;" d="M120 45L120 46L124 46L120 45z"/>
<path style="fill:#42656a; stroke:none;" d="M79 46L80 47L79 46M76 47L77 48L76 47z"/>
<path style="fill:#62969e; stroke:none;" d="M128 47L129 48L128 47M71 48L72 49L71 48z"/>
<path style="fill:#42656a; stroke:none;" d="M72 48L72 49L76 49L72 48M129.667 48.3333L130.333 48.6667L129.667 48.3333z"/>
<path style="fill:#62969e; stroke:none;" d="M131 48L132 49L131 48M67 49L68 50L67 49z"/>
<path style="fill:#42656a; stroke:none;" d="M68 49L68 50L72 50L68 49M132 49L132 50L136 50L132 49z"/>
<path style="fill:#62969e; stroke:none;" d="M63.6667 50.3333L64.3333 50.6667L63.6667 50.3333M66 50L67 51L66 50M136 50L137 51L136 50M138 50L138 51L142 51L138 50z"/>
<path style="fill:#42656a; stroke:none;" d="M62 51L63 52L62 51z"/>
<path style="fill:#62969e; stroke:none;" d="M142 51L143 52L142 51M145 52L146 53L145 52M53 53L54 54L53 53z"/>
<path style="fill:#42656a; stroke:none;" d="M54 53L54 54L58 54L54 53M146 53L146 54L150 54L146 53z"/>
<path style="fill:#62969e; stroke:none;" d="M50 54L50 55L53 55L50 54M150 54L150 55L154 55L150 54z"/>
<path style="fill:#42656a; stroke:none;" d="M154 55L155 56L154 55z"/>
<path style="fill:#62969e; stroke:none;" d="M45 56L46 57L45 56z"/>
<path style="fill:#42656a; stroke:none;" d="M157 56L158 57L157 56M41 57L42 58L41 57M44 57L45 58L44 57M158 57L159 58L158 57M161 57L162 58L161 57z"/>
<path style="fill:#62969e; stroke:none;" d="M36 58L32 59L32 60L37 59L36 58z"/>
<path style="fill:#42656a; stroke:none;" d="M37 58L37 59L41 59L37 58M162 58L162 59L166 59L162 58z"/>
<path style="fill:#62969e; stroke:none;" d="M166 58L167 59L166 58z"/>
<path style="fill:#42656a; stroke:none;" d="M36 59L37 60L36 59z"/>
<path style="fill:#62969e; stroke:none;" d="M167 59L167 60L171 60L167 59M31 60L32 61L31 60M171 60L172 61L171 60M28.3333 61.6667L28.6667 62.3333L28.3333 61.6667M174 61L175 62L174 61z"/>
<path style="fill:#42656a; stroke:none;" d="M29 62L29 63L33 63L29 62M174 62L175 63L174 62M33 63L34 64L33 63z"/>
<path style="fill:#62969e; stroke:none;" d="M174 63L174 91L175 91L174 63z"/>
<path style="fill:#42656a; stroke:none;" d="M36 64L37 65L36 64M166 64L167 65L166 64M39 65L42 67L42 66L39 65M163 65L161 66L161 67L163 65z"/>
<path style="fill:#62969e; stroke:none;" d="M39 66L40 67L39 66M42 66L43 67L42 66z"/>
<path style="fill:#42656a; stroke:none;" d="M43 66L44 67L43 66M159 66L160 67L159 66z"/>
<path style="fill:#62969e; stroke:none;" d="M160 66L161 67L160 66M163 66L164 67L163 66z"/>
<path style="fill:#42656a; stroke:none;" d="M44 67L44 68L47 68L44 67M156 67L156 68L159 68L156 67M47 68L48 69L47 68M155 68L156 69L155 68z"/>
<path style="fill:#62969e; stroke:none;" d="M51 69L52 70L51 69z"/>
<path style="fill:#42656a; stroke:none;" d="M151 69L152 70L151 69z"/>
<path style="fill:#62969e; stroke:none;" d="M52 70L52 71L56 71L52 70M147 70L147 71L151 71L147 70M56 71L57 72L56 71z"/>
<path style="fill:#42656a; stroke:none;" d="M57 71L57 72L61 72L57 71M144.667 71.3333L145.333 71.6667L144.667 71.3333z"/>
<path style="fill:#62969e; stroke:none;" d="M146 71L147 72L146 71z"/>
<path style="fill:#42656a; stroke:none;" d="M61.6667 72.3333L62.3333 72.6667L61.6667 72.3333M140 72L141 73L140 72M143 72L144 73L143 72z"/>
<path style="fill:#62969e; stroke:none;" d="M66 74L67 75L66 74M136 74L137 75L136 74M67 75L67 76L72 77L67 75z"/>
<path style="fill:#42656a; stroke:none;" d="M71 75L72 76L71 75M131 75L129 76L129 77L131 75z"/>
<path style="fill:#62969e; stroke:none;" d="M132 75L132 76L136 76L132 75M51 76L52 77L51 76z"/>
<path style="fill:#42656a; stroke:none;" d="M51 77L51 78L57 78L51 77z"/>
<path style="fill:#62969e; stroke:none;" d="M56 76L57 77L56 76z"/>
<path style="fill:#42656a; stroke:none;" d="M72.6667 76.3333L73.3333 76.6667L72.6667 76.3333z"/>
<path style="fill:#62969e; stroke:none;" d="M131 76L132 77L131 76z"/>
<path style="fill:#42656a; stroke:none;" d="M147 77L147 78L151 77L151 95C152.958 90.3327 154.379 75.8724 147 77z"/>
<path style="fill:#62969e; stroke:none;" d="M151 76L152 77L151 76z"/>
<path style="fill:#191919; stroke:none;" d="M52 77C52 82.592 50.7723 89.8547 53.3032 94.9992C58.2792 105.114 71.7442 109.027 82 110.753C106.462 114.869 129.352 112.062 150 98L151 77L102.004 91.5077L52 77z"/>
<path style="fill:#62969e; stroke:none;" d="M57 77L57 78L61 78L57 77M74 77L75 78L74 77M128 77L129 78L128 77M143 77L143 78L147 78L143 77M51 78L51 93L52 93L51 78M61 78L62 79L61 78z"/>
<path style="fill:#42656a; stroke:none;" d="M79 78L80 79L79 78M123 78L124 79L123 78M143 78L144 79L143 78z"/>
<path style="fill:#62969e; stroke:none;" d="M64 79L65 80L64 79M80.6667 79.3333L81.3333 79.6667L80.6667 79.3333z"/>
<path style="fill:#42656a; stroke:none;" d="M83 79L84 80L83 79M119 79L120 80L119 79z"/>
<path style="fill:#62969e; stroke:none;" d="M121 79L121 80L124 80L121 79z"/>
<path style="fill:#42656a; stroke:none;" d="M65 80L66 81L65 80M68 80L69 81L68 80M84 80L84 81L88 81L84 80M116 80L116 81L119 81L116 80M134 80L135 81L134 80M137 80L138 81L137 80M69.6667 81.3333L70.3333 81.6667L69.6667 81.3333z"/>
<path style="fill:#62969e; stroke:none;" d="M71 81L72 82L71 81M88 81L89 82L88 81z"/>
<path style="fill:#42656a; stroke:none;" d="M89.6667 81.3333L90.3333 81.6667L89.6667 81.3333M112 81L112 82L116 82L112 81z"/>
<path style="fill:#62969e; stroke:none;" d="M131 81L132 82L131 81z"/>
<path style="fill:#42656a; stroke:none;" d="M132.667 81.3333L133.333 81.6667L132.667 81.3333z"/>
<path style="fill:#62969e; stroke:none;" d="M72 82L72 83L76 83L72 82z"/>
<path style="fill:#42656a; stroke:none;" d="M91 82L92 83L91 82M111 82L112 83L111 82z"/>
<path style="fill:#62969e; stroke:none;" d="M128 82L128 83L131 83L128 82z"/>
<path style="fill:#42656a; stroke:none;" d="M76 83L77 84L76 83M94 83L95 84L94 83M108 83L109 84L108 83M128 83L129 84L128 83z"/>
<path style="fill:#62969e; stroke:none;" d="M79 84L80 85L79 84M95 84L95 85L99 85L95 84z"/>
<path style="fill:#42656a; stroke:none;" d="M105 84L99 85L99 86L106 85L105 84z"/>
<path style="fill:#62969e; stroke:none;" d="M106 84L106 85L109 85L106 84M123 84L124 85L123 84z"/>
<path style="fill:#42656a; stroke:none;" d="M80 85L80 86L84 86L80 85z"/>
<path style="fill:#62969e; stroke:none;" d="M105 85L106 86L105 85M120 85L119 87L120 85z"/>
<path style="fill:#42656a; stroke:none;" d="M121.667 85.3333L122.333 85.6667L121.667 85.3333M84 86L85 87L84 86z"/>
<path style="fill:#62969e; stroke:none;" d="M85 86L86 87L85 86z"/>
<path style="fill:#42656a; stroke:none;" d="M86 86L86 87L89 88L86 86z"/>
<path style="fill:#62969e; stroke:none;" d="M88 86L89 87L88 86M116 86L117 87L116 86z"/>
<path style="fill:#42656a; stroke:none;" d="M117.667 86.3333L118.333 86.6667L117.667 86.3333M120 86L121 87L120 86z"/>
<path style="fill:#62969e; stroke:none;" d="M112.667 87.3333L113.333 87.6667L112.667 87.3333M115 87L116 88L115 87z"/>
<path style="fill:#42656a; stroke:none;" d="M91 88L92 89L91 88M111 88L112 89L111 88z"/>
<path style="fill:#62969e; stroke:none;" d="M96 89L97 90L96 89z"/>
<path style="fill:#42656a; stroke:none;" d="M108 89L109 90L108 89M96 90L96 91L100 92L100 91L96 90z"/>
<path style="fill:#62969e; stroke:none;" d="M99 90L100 91L99 90z"/>
<path style="fill:#42656a; stroke:none;" d="M104 90L104 91L108 91L104 90z"/>
<path style="fill:#62969e; stroke:none;" d="M100 91L100 92L103 92L100 91z"/>
<path style="fill:#42656a; stroke:none;" d="M103 91L104 92L103 91M174 91L175 92L174 91z"/>
<path style="fill:#62969e; stroke:none;" d="M170 92L171 93L170 92z"/>
<path style="fill:#42656a; stroke:none;" d="M51 93L53 95L51 93M169 93L170 94L169 93z"/>
<path style="fill:#62969e; stroke:none;" d="M177 93L178 94L177 93M51 94L52 95L51 94z"/>
<path style="fill:#42656a; stroke:none;" d="M168 94L169 95L168 94M177 94L177 98L178 98L177 94M53.3333 95.6667L53.6667 96.3333L53.3333 95.6667z"/>
<path style="fill:#62969e; stroke:none;" d="M151 95L152 96L151 95M167.333 95.6667L167.667 96.3333L167.333 95.6667z"/>
<path style="fill:#42656a; stroke:none;" d="M149 96L150 97L149 96M54 97L55 98L54 97M169 97L171 100L169 97z"/>
<path style="fill:#62969e; stroke:none;" d="M55 98L56 99L55 98z"/>
<path style="fill:#42656a; stroke:none;" d="M148 98L149 99L148 98z"/>
<path style="fill:#62969e; stroke:none;" d="M149 98L150 99L149 98M176 98L177 99L176 98z"/>
<path style="fill:#42656a; stroke:none;" d="M56.3333 99.6667L56.6667 100.333L56.3333 99.6667M147 99L148 100L147 99z"/>
<path style="fill:#62969e; stroke:none;" d="M169 99L170 100L169 99M175 99L176 100L175 99z"/>
<path style="fill:#42656a; stroke:none;" d="M146 100L147 101L146 100z"/>
<path style="fill:#62969e; stroke:none;" d="M174 100L175 101L174 100M57 101L58 102L57 101M145 101L146 102L145 101z"/>
<path style="fill:#42656a; stroke:none;" d="M174 101L175 102L174 101z"/>
<path style="fill:#62969e; stroke:none;" d="M58 102L59 103L58 102z"/>
<path style="fill:#42656a; stroke:none;" d="M60 102L61 103L60 102z"/>
<path style="fill:#62969e; stroke:none;" d="M144 102L145 103L144 102z"/>
<path style="fill:#42656a; stroke:none;" d="M175 102L176 103L175 102z"/>
<path style="fill:#62969e; stroke:none;" d="M61 103L62 104L61 103z"/>
<path style="fill:#42656a; stroke:none;" d="M142 103L143 104L142 103z"/>
<path style="fill:#62969e; stroke:none;" d="M143 103L144 104L143 103M62 104L63 105L62 104z"/>
<path style="fill:#42656a; stroke:none;" d="M140.667 104.333L141.333 104.667L140.667 104.333z"/>
<path style="fill:#62969e; stroke:none;" d="M169 104L170 105L169 104z"/>
<path style="fill:#42656a; stroke:none;" d="M170 104L171 105L170 104M175 104L176 105L175 104M169 105L169 110L170 110L169 105z"/>
<path style="fill:#62969e; stroke:none;" d="M176 105L177 106L176 105M66 106L67 107L66 106M136 106L137 107L136 106z"/>
<path style="fill:#42656a; stroke:none;" d="M177 106L177 114L178 114L177 106z"/>
<path style="fill:#62969e; stroke:none;" d="M67 107L67 108L72 109L67 107z"/>
<path style="fill:#42656a; stroke:none;" d="M71 107L72 108L71 107M131 107L129 108L129 109L131 107z"/>
<path style="fill:#62969e; stroke:none;" d="M132 107L132 108L136 108L132 107z"/>
<path style="fill:#42656a; stroke:none;" d="M72.6667 108.333L73.3333 108.667L72.6667 108.333z"/>
<path style="fill:#62969e; stroke:none;" d="M131 108L132 109L131 108M74 109L75 110L74 109M128 109L129 110L128 109M168 109L169 110L168 109M80 110L81 111L80 110z"/>
<path style="fill:#42656a; stroke:none;" d="M123 110L124 111L123 110z"/>
<path style="fill:#62969e; stroke:none;" d="M167 110L167 113L168 113L167 110M81 111L81 112L85 112L81 111M86 111L87 112L86 111M119 111L119 112L123 112L119 111M87 112L88 113L87 112z"/>
<path style="fill:#42656a; stroke:none;" d="M88 112L88 113L96 113L88 112z"/>
<path style="fill:#62969e; stroke:none;" d="M96 112L98 114L96 112z"/>
<path style="fill:#42656a; stroke:none;" d="M97 112L98 113L97 112z"/>
<path style="fill:#62969e; stroke:none;" d="M106 112L107 113L106 112z"/>
<path style="fill:#42656a; stroke:none;" d="M107 112L107 113L117 113L107 112z"/>
<path style="fill:#62969e; stroke:none;" d="M117 112L118 113L117 112z"/>
<path style="fill:#42656a; stroke:none;" d="M98 113L98 114L105 114L98 113z"/>
<path style="fill:#62969e; stroke:none;" d="M105 113L106 114L105 113z"/>
<path style="fill:#42656a; stroke:none;" d="M168 113L169 114L168 113M169.333 114.667L169.667 115.333L169.333 114.667z"/>
<path style="fill:#62969e; stroke:none;" d="M177 114L178 115L177 114M169 116L169 117L176 117L169 116z"/>
<path style="fill:#ffffff; stroke:none;" d="M37.2276 146.758C31.0854 149.408 32.3876 169.292 41.7724 165.242C47.9146 162.592 46.6124 142.708 37.2276 146.758M48 146L48 166C50.7031 166 55.1287 166.769 57.3966 164.972C63.0055 160.529 57.1266 153.391 52 153L52 149L57 149L57 146L48 146M62 146L62 166L66 166L66 158C70.9393 157.623 76.2311 152.442 71.3966 147.603C69.1441 145.349 64.8921 146.002 62 146M76 146L74 166L78 166L78 162L81 162L81 166L85 166L83 146L76 146M87 153L91 153L91 149L93 149L90 154L90 157L93 157L93 163L91 163L91 158L87 158C87.4142 170.718 101.467 164.236 95 155C100.615 147.461 87.8367 142.033 87 153M103.228 146.758C97.0854 149.408 98.3876 169.292 107.772 165.242C113.915 162.592 112.612 142.708 103.228 146.758M114 146L114 166C120.827 165.995 129.073 163.018 123 155C128.243 147.466 119.91 146.005 114 146M129 146L127 166L131 166L131 162L134 162L134 166L138 166L136 146L129 146M140 146L140 166L144 166L144 157L147 157L147 166L151 166L151 146L147 146L147 153L144 153L144 146L140 146M157.228 146.758C151.085 149.408 152.388 169.292 161.772 165.242C167.915 162.592 166.612 142.708 157.228 146.758z"/>
<path style="fill:#191919; stroke:none;" d="M38 149L38 163L41 163L41 149L38 149M66 149L66 155L69 155L69 149L66 149M79 149L78 159L81 159L79 149M104 149L104 163L107 163L107 149L104 149M118 149L118 153L121 153L121 149L118 149M132 149L131 159L134 159L132 149M158 149L158 163L161 163L161 149L158 149M52 156L52 163L55 163L55 156L52 156M118 157L118 163L121 163L121 157L118 157z"/>
<path style="fill:#ffffff; stroke:none;" d="M34 176L34 196L38 196L38 187L41 187L41 196L45 196L45 176L41 176L41 183L38 183L38 176L34 176M49 176L47 196L51 196L51 192L54 192L54 196L58 196L56 176L49 176M71 187L67 187L67 193L64 193L64 179L67 179L67 184L71 184C70.7421 179.333 65.6351 171.973 61.179 178.434C59.4393 180.956 59.9251 185.1 60.0154 187.999C60.3468 198.636 70.6863 196.659 71 187M74 176L74 196L82 196L82 192L78 192L78 188L81 188L81 184L78 184L78 180L81 180L81 176L74 176M85 176L83 196C90.9342 194.735 89 186.298 89 180L92 180L92 196L96 196L96 176L85 176M99 176L99 196L107 196L107 192L103 192L103 188L106 188L106 184L103 184L103 180L106 180L106 176L99 176M109 176L109 196L113 196L113 187L116 187L116 196L120 196L120 176L116 176L116 183L113 183L113 176L109 176M123 176L123 196C127.922 195.148 128.599 191.551 129 187L130 187L130 196L134 196L134 176C129.078 176.852 128.401 180.449 128 185L127 185L127 176L123 176M137 176L137 196L145 196L145 192L141 192L141 188L144 188L144 184L141 184L141 180L144 180L144 176L137 176z"/>
<path style="fill:#191919; stroke:none;" d="M52 179L51 189L54 189L52 179z"/>
<path style="fill:#ffffff; stroke:none;" d="M0 187L0 200L13 200L13 199C6.07608 197.603 3.28711 192.69 0 187M199 187C197.736 193.265 193.265 197.736 187 199L187 200L200 200L199 187z"/>
<path style="fill:#42656a; stroke:none;" d="M2 192L3 193L2 192M192 197L193 198L192 197z"/>
</svg>
