<?xml version="1.0" standalone="yes"?>
<svg xmlns="http://www.w3.org/2000/svg" width="200" height="200">
<path style="fill:#ffffff; stroke:none;" d="M0 0L0 13L1 13C2.26403 6.73515 6.73516 2.26402 13 1L0 0z"/>
<path style="fill:#171817; stroke:none;" d="M13 0.479172C-4.82877 4.16052 0 28.6517 0 42L0 150C0 161.788 -4.01832 182.842 2.87886 192.957C10.9287 204.762 35.6773 200 48 200L142 200C156.285 200 174.188 202.881 188 199.072C204.784 194.442 200 170.239 200 157L200 47C200 35.3657 203.971 14.5443 195.606 5.18904C186.746 -4.71915 162.078 0 150 0L58 0C43.7269 0 26.9861 -2.40872 13 0.479172z"/>
<path style="fill:#ffffff; stroke:none;" d="M187 0L187 1C193.265 2.26404 197.736 6.73515 199 13L200 13L200 0L187 0z"/>
<path style="fill:#325d2a; stroke:none;" d="M7 2L8 3L7 2M192 2L193 3L192 2M2 7L3 8L2 7M197 7L198 8L197 7M198 9L199 10L198 9M16 10L16 11L184 11C171.117 5.59407 148.038 10 134 10L16 10z"/>
<path style="fill:#8cff72; stroke:none;" d="M10 11L10 143L191 143L191 11L10 11z"/>
<path style="fill:#325d2a; stroke:none;" d="M199 13L200 14L199 13M77 21L75 24L77 21z"/>
<path style="fill:#171817; stroke:none;" d="M57 35C51.2572 35.1699 42.3034 37.263 42 44L42 53C37.4022 53.3498 30.0295 59.3376 35.7423 63.9722C39.6874 67.1728 55.0551 67.4349 58 64C50.6684 59.2603 51.4318 54.1723 58 49C52.878 36.8914 63.4969 36.6116 71.8302 33.412C80.4443 30.1046 82.0097 26.4153 92 29L91 31C94.9644 34.7828 95.0687 38.0814 93 43L97 44C97 38.1228 98.5643 29.9469 93.7716 25.554C85.1538 17.6552 78.0782 22.8037 69.2855 26.3356C63.34 28.7239 58.8193 27.4333 57 35z"/>
<path style="fill:#325d2a; stroke:none;" d="M87 21L88 22L87 21M110 21L109 23L110 21z"/>
<path style="fill:#171817; stroke:none;" d="M101 45L105 44C103.304 35.6056 106.769 24.9965 117.985 27.7631C121.684 28.6755 123.607 32.0816 127.039 33.3981C135.614 36.6872 145.75 36.5741 141 49C148.76 53.7252 148.339 59.1086 141 64L143 68L163 66C167.252 59.8859 165.323 55.0019 158 53C158 41.3997 153.408 35.137 141 35C140.707 26.1937 118.046 18.6272 110.005 22.2639C99.9288 26.8205 101 35.508 101 45z"/>
<path style="fill:#55ab54; stroke:none;" d="M122 21L123 22L122 21M75 22L76 23L75 22z"/>
<path style="fill:#325d2a; stroke:none;" d="M88 22L88 23L91 23L88 22z"/>
<path style="fill:#55ab54; stroke:none;" d="M108 22L109 23L108 22M123 22L124 23L123 22M73.6667 23.3333L74.3333 23.6667L73.6667 23.3333z"/>
<path style="fill:#325d2a; stroke:none;" d="M91 23L93 25L91 23z"/>
<path style="fill:#55ab54; stroke:none;" d="M92 23L93 24L92 23M107 23L108 24L107 23M124 23L124 24L127 24L124 23z"/>
<path style="fill:#325d2a; stroke:none;" d="M72 24L73 25L72 24z"/>
<path style="fill:#55ab54; stroke:none;" d="M106 24L107 25L106 24M127 24L128 25L127 24M70 25L71 26L70 25M94 25L95 26L94 25M103 25L102 28L103 25z"/>
<path style="fill:#325d2a; stroke:none;" d="M128.333 25.6667L128.667 26.3333L128.333 25.6667M63 26L63 27L67 27L63 26z"/>
<path style="fill:#55ab54; stroke:none;" d="M67 26L68 27L67 26M69 26L70 27L69 26z"/>
<path style="fill:#325d2a; stroke:none;" d="M95 26L96 27L95 26z"/>
<path style="fill:#55ab54; stroke:none;" d="M131 26L132 27L131 26z"/>
<path style="fill:#325d2a; stroke:none;" d="M132 26L132 27L140 29L132 26z"/>
<path style="fill:#55ab54; stroke:none;" d="M136 26L137 27L136 26M60 27L61 28L60 27z"/>
<path style="fill:#325d2a; stroke:none;" d="M61.6667 27.3333L62.3333 27.6667L61.6667 27.3333M68 27L69 28L68 27M78 28L78 29L86 28L78 28M103 27L104 28L103 27M109 28L109 29C115.921 28.4729 119.294 28.8734 125 33C121.019 26.6132 115.766 27.1494 109 28M129 27L129 28L132 28L129 27z"/>
<path style="fill:#55ab54; stroke:none;" d="M139 27L140 28L139 27M59 28L60 29L59 28z"/>
<path style="fill:#8cff72; stroke:none;" d="M59 48L59 49C54.2293 51.8501 53.2969 54.8137 52 60L59 64L59 66L56 67L56 68C64.7815 64.4942 70.5555 63.8064 80 65C76.2384 60.0578 63.5224 60.5453 73 52L73 51L66 57L68 62C64.8875 62 60.133 62.8354 57.4336 60.9722C52.3372 57.4546 56.9643 52.1708 61 51C57.9788 36.284 63.5058 40.7018 73.7145 35.8873C81.5612 32.1868 83.0275 28.8138 92 33L91 29C88.0468 28.7669 84.9632 27.9475 82 28.2284C77.6729 28.6385 75.5806 31.9193 71.8302 33.402C65.7351 35.8118 51.1959 37.6983 59 48z"/>
<path style="fill:#55ab54; stroke:none;" d="M86 28L87 29L86 28z"/>
<path style="fill:#325d2a; stroke:none;" d="M87 28L87 29L91 29L87 28z"/>
<path style="fill:#55ab54; stroke:none;" d="M96 28L97 29L96 28z"/>
<path style="fill:#8cff72; stroke:none;" d="M103 44L103 45C108.09 45 115.751 46.5983 119 42C96.6134 50.0948 114.14 16.485 124 37C131.316 36.0763 146.451 38.9804 137 49L137 50C149.068 56.7293 141.378 61.9931 131 62C130.996 56.5321 131.306 52.0056 125 51L125 52L128 52C131.732 62.4994 124.029 58.7846 120 65L140 65L143 69L141 63C150.158 59.9839 144.219 53.7882 142.272 48C141.192 44.7859 142.33 41.404 140.142 38.4792C137.12 34.4395 120.053 28.3081 114.999 28.3441C102.076 28.4362 108.763 40.0833 103 44z"/>
<path style="fill:#55ab54; stroke:none;" d="M117 28L118 29L117 28M140 28L141 29L140 28z"/>
<path style="fill:#325d2a; stroke:none;" d="M58.3333 29.6667L58.6667 30.3333L58.3333 29.6667M91 29L92 30L91 29z"/>
<path style="fill:#55ab54; stroke:none;" d="M97 29L97 44L98 44L97 29M101 29L102 30L101 29M108 29L109 30L108 29M141 29L141 35L142 35L141 29z"/>
<path style="fill:#325d2a; stroke:none;" d="M75 30L76 31L75 30z"/>
<path style="fill:#55ab54; stroke:none;" d="M81 30L82 31L81 30z"/>
<path style="fill:#171817; stroke:none;" d="M62 52C58.2025 52.2959 53.0671 56.1796 57.7423 59.9722C59.9582 61.7698 64.3432 60.9997 67 61C66.4245 52.9877 74.6553 45.4583 81 53C67.374 50.5094 69.1113 60.558 81 63C72.8022 70.4528 57.0616 58.6098 57 76L53 76C51.4485 55.4921 21.3761 77.721 45 78L45 80L41 80L38 85L41 93L53 96L48 100C50.3715 106.73 54.4183 104.853 60 103C53.4516 113.41 58.3546 118.96 70 119L70 118C60.6727 114.226 64.5251 106.347 73 105C66.2434 112.991 68.6625 114.75 78 117L78 118L73 119C73.7117 131.956 87.5211 130.839 96 126L99 120L99 119L99 118L96 113L86 113C87.9866 107.437 87.2542 105.311 85 100L69 103L69 98C74.6938 97.2804 96.6167 100.907 89 90L93 88C94.2843 93.5536 94.4685 95.8957 90 100L91 109L97 111L97 68C97 62.6691 98.6156 54.1498 96.3966 49.2284C93.2288 42.2029 82.7156 49.9711 80 41C87.0263 44.7869 96.6746 38.0938 88.6968 32.1489C82.7171 27.6931 78.6905 33.6897 73.8302 36.2701C63.1488 41.9409 58.8239 36.5292 62 52z"/>
<path style="fill:#55ab54; stroke:none;" d="M86 30L87 31L86 30M100 30L101 31L100 30z"/>
<path style="fill:#325d2a; stroke:none;" d="M106 30L105 33L106 30M113 30L108 35L109 35L114 31L113 30z"/>
<path style="fill:#171817; stroke:none;" d="M119 41L120 44L103.032 47.8935L101 65L101 112L108 110L109 101C104.736 96.9303 103.409 91.4299 109 88C109.002 90.7356 108.282 95.2776 110.603 97.3032C115.883 101.909 127.04 91.9827 130 103C120.368 96.0714 110.134 100.955 113 113C110.735 113.002 108.287 112.785 106.053 113.228C100.429 114.344 100.145 121.338 103.228 125.236C110.082 133.902 125.361 129.531 127 119L122 119L122 116C131.621 115.767 130.667 111.717 127 105L135 107C134.937 112.308 133.996 115.592 129 118L129 119C136.008 118.922 141.533 116.949 144 110L139 103C146.693 106.589 152.854 104.668 147 96C154.986 95.7461 158.645 91.5714 160 84L155 78C176.426 77.3042 146.67 55.4314 146 76L142 76C141.589 63.0732 128.771 64.186 119 66C120.841 62.3493 137.397 55.3344 123.985 52.3441C122.354 51.9807 120.657 52.0355 119 52C126.201 45.6929 131.916 53.9024 132 61C141.267 60.9939 148.709 54.3292 136 51L136 49C149.169 40.4622 127.663 37.5209 123 37L124 34C121.543 32.8029 118.79 30.9276 116.001 30.7377C103.749 29.9035 106.566 49.9353 119 41z"/>
<path style="fill:#325d2a; stroke:none;" d="M117 30L118 31L117 30z"/>
<path style="fill:#55ab54; stroke:none;" d="M56 31L56 35L57 35L56 31z"/>
<path style="fill:#325d2a; stroke:none;" d="M57 31L58 32L57 31z"/>
<path style="fill:#55ab54; stroke:none;" d="M74 31L75 32L74 31M78 31L77 33L78 31z"/>
<path style="fill:#325d2a; stroke:none;" d="M79.6667 31.3333L80.3333 31.6667L79.6667 31.3333M87.6667 31.3333L88.3333 31.6667L87.6667 31.3333z"/>
<path style="fill:#55ab54; stroke:none;" d="M89 31L90 32L89 31M91 31L92 37L93 37L91 31z"/>
<path style="fill:#325d2a; stroke:none;" d="M92 31L93 32L92 31M100 31L100 45L101 45L100 31M118.667 31.3333L119.333 31.6667L118.667 31.3333z"/>
<path style="fill:#55ab54; stroke:none;" d="M120 31L121 32L120 31z"/>
<path style="fill:#325d2a; stroke:none;" d="M78 32L79 33L78 32z"/>
<path style="fill:#55ab54; stroke:none;" d="M90 32L91 33L90 32M106 32L107 33L106 32M108 32L109 33L108 32M121 32L122 33L121 32z"/>
<path style="fill:#325d2a; stroke:none;" d="M73 33L74 34L73 33z"/>
<path style="fill:#55ab54; stroke:none;" d="M76 33L77 34L76 33M105.333 33.6667L105.667 34.3333L105.333 33.6667z"/>
<path style="fill:#325d2a; stroke:none;" d="M122 33L123 34L122 33z"/>
<path style="fill:#55ab54; stroke:none;" d="M125 33L126 34L125 33z"/>
<path style="fill:#325d2a; stroke:none;" d="M64 34L65 35L64 34z"/>
<path style="fill:#55ab54; stroke:none;" d="M75.3333 34.6667L75.6667 35.3333L75.3333 34.6667z"/>
<path style="fill:#8cff72; stroke:none;" d="M92 34L92 41C94.4034 38.9003 94.4034 36.0997 92 34z"/>
<path style="fill:#325d2a; stroke:none;" d="M94 34L94 41L95 41L94 34z"/>
<path style="fill:#55ab54; stroke:none;" d="M134 34L135 35L134 34M50 35L51 36L50 35z"/>
<path style="fill:#325d2a; stroke:none;" d="M61 35L62 36L61 35z"/>
<path style="fill:#55ab54; stroke:none;" d="M63 35L64 36L63 35z"/>
<path style="fill:#325d2a; stroke:none;" d="M103 35L103 40L104 40L103 35z"/>
<path style="fill:#55ab54; stroke:none;" d="M106 35L106 40L107 40L106 35M137 35L138 36L137 35z"/>
<path style="fill:#325d2a; stroke:none;" d="M148 35L149 36L148 35z"/>
<path style="fill:#55ab54; stroke:none;" d="M47 36L44 37L44 38L48 37L47 36z"/>
<path style="fill:#325d2a; stroke:none;" d="M48.6667 36.3333L49.3333 36.6667L48.6667 36.3333z"/>
<path style="fill:#55ab54; stroke:none;" d="M60 36L61 37L60 36z"/>
<path style="fill:#325d2a; stroke:none;" d="M65 36L65 37L70 37L65 36z"/>
<path style="fill:#55ab54; stroke:none;" d="M70 36L71 37L70 36z"/>
<path style="fill:#325d2a; stroke:none;" d="M74 36L75 37L74 36M91 36L92 37L91 36M123 36L124 37L123 36z"/>
<path style="fill:#55ab54; stroke:none;" d="M127 36L128 37L127 36z"/>
<path style="fill:#325d2a; stroke:none;" d="M128 36L128 37L134 37L128 36z"/>
<path style="fill:#55ab54; stroke:none;" d="M134 36L135 37L134 36M138 36L140 38L138 36z"/>
<path style="fill:#325d2a; stroke:none;" d="M139 36L140 37L139 36M149 36L149 37L152 37L149 36M47 37L48 38L47 37z"/>
<path style="fill:#55ab54; stroke:none;" d="M59 37L60 38L59 37M62.6667 37.3333L63.3333 37.6667L62.6667 37.3333z"/>
<path style="fill:#325d2a; stroke:none;" d="M64 37L65 38L64 37z"/>
<path style="fill:#55ab54; stroke:none;" d="M71.6667 37.3333L72.3333 37.6667L71.6667 37.3333z"/>
<path style="fill:#325d2a; stroke:none;" d="M73 37L74 38L73 37M92 37L93 38L92 37z"/>
<path style="fill:#55ab54; stroke:none;" d="M124 37L124 38L127 38L124 37M135 37L135 38L138 38L135 37z"/>
<path style="fill:#325d2a; stroke:none;" d="M140 37L141 38L140 37z"/>
<path style="fill:#55ab54; stroke:none;" d="M152 37L153 38L152 37z"/>
<path style="fill:#325d2a; stroke:none;" d="M44 38L45 39L44 38z"/>
<path style="fill:#55ab54; stroke:none;" d="M58 38L59 39L58 38z"/>
<path style="fill:#325d2a; stroke:none;" d="M61 38L62 39L61 38z"/>
<path style="fill:#55ab54; stroke:none;" d="M92 38L93 39L92 38z"/>
<path style="fill:#325d2a; stroke:none;" d="M153 38L154 39L153 38z"/>
<path style="fill:#55ab54; stroke:none;" d="M42 39L43 40L42 39z"/>
<path style="fill:#325d2a; stroke:none;" d="M56 39L56 47L57 47L56 39z"/>
<path style="fill:#55ab54; stroke:none;" d="M59 39L59 47L60 47L59 39M91.3333 39.6667L91.6667 40.3333L91.3333 39.6667M155 39L156 40L155 39z"/>
<path style="fill:#325d2a; stroke:none;" d="M41 40L42 41L41 40M104 40L105 41L104 40z"/>
<path style="fill:#55ab54; stroke:none;" d="M105 40L105 44L106 44L105 40M107 40L108 41L107 40z"/>
<path style="fill:#325d2a; stroke:none;" d="M108.333 40.6667L108.667 41.3333L108.333 40.6667z"/>
<path style="fill:#55ab54; stroke:none;" d="M139 40L140 41L139 40M141 40L141 47L142 47L141 40z"/>
<path style="fill:#325d2a; stroke:none;" d="M142 40L143 41L142 40z"/>
<path style="fill:#55ab54; stroke:none;" d="M156 40L157 41L156 40z"/>
<path style="fill:#325d2a; stroke:none;" d="M80.6667 41.3333L81.3333 41.6667L80.6667 41.3333z"/>
<path style="fill:#55ab54; stroke:none;" d="M90 41L91 42L90 41M92.3333 41.6667L92.6667 42.3333L92.3333 41.6667z"/>
<path style="fill:#325d2a; stroke:none;" d="M93 41L94 42L93 41z"/>
<path style="fill:#55ab54; stroke:none;" d="M118 41L119 42L118 41z"/>
<path style="fill:#325d2a; stroke:none;" d="M139 41L139 47L140 47L139 41M157 41L158 42L157 41M41.3333 42.6667L41.6667 43.3333L41.3333 42.6667M82 42L83 43L82 42M88 42L89 43L88 42z"/>
<path style="fill:#55ab54; stroke:none;" d="M89 42L90 43L89 42M108 42L109 43L108 42M117 42L118 43L117 42z"/>
<path style="fill:#325d2a; stroke:none;" d="M119.333 42.6667L119.667 43.3333L119.333 42.6667z"/>
<path style="fill:#55ab54; stroke:none;" d="M158 42L158 53L159 53L158 42M80.3333 43.6667L80.6667 44.3333L80.3333 43.6667z"/>
<path style="fill:#325d2a; stroke:none;" d="M83 43L84 44L83 43M87 43L88 44L87 43M94 43L95 44L94 43z"/>
<path style="fill:#55ab54; stroke:none;" d="M39 44L39 49L40 49L39 44M102 44L103 45L102 44M117 44L118 45L117 44z"/>
<path style="fill:#325d2a; stroke:none;" d="M81 45L81 46L84 46L81 45z"/>
<path style="fill:#55ab54; stroke:none;" d="M84 45L85 46L84 45z"/>
<path style="fill:#325d2a; stroke:none;" d="M88 45L88 46L94 46L88 45z"/>
<path style="fill:#55ab54; stroke:none;" d="M100.667 45.3333L101.333 45.6667L100.667 45.3333M103 45L102 48L103 45z"/>
<path style="fill:#325d2a; stroke:none;" d="M104 45L104 46L117 46L104 45M85 46L86 47L85 46z"/>
<path style="fill:#55ab54; stroke:none;" d="M86 46L87 47L86 46z"/>
<path style="fill:#325d2a; stroke:none;" d="M87 46L88 47L87 46M94 46L95 47L94 46z"/>
<path style="fill:#55ab54; stroke:none;" d="M95 46L96 47L95 46z"/>
<path style="fill:#325d2a; stroke:none;" d="M142 46L143 47L142 46z"/>
<path style="fill:#55ab54; stroke:none;" d="M57 47L58 48L57 47z"/>
<path style="fill:#325d2a; stroke:none;" d="M60 47L61 48L60 47z"/>
<path style="fill:#55ab54; stroke:none;" d="M96 47L97 48L96 47z"/>
<path style="fill:#325d2a; stroke:none;" d="M103 47L104 48L103 47z"/>
<path style="fill:#55ab54; stroke:none;" d="M139 47L140 48L139 47M58 48L59 49L58 48z"/>
<path style="fill:#325d2a; stroke:none;" d="M61.3333 48.6667L61.6667 49.3333L61.3333 48.6667z"/>
<path style="fill:#55ab54; stroke:none;" d="M97 48L97 110L98 110L98 68L97 48M40 49L41 50L40 49z"/>
<path style="fill:#325d2a; stroke:none;" d="M41 49L41 53L42 53L41 49z"/>
<path style="fill:#55ab54; stroke:none;" d="M57 49L58 50L57 49M74 49L71 50L71 51L78 52L78 51L74 49z"/>
<path style="fill:#8cff72; stroke:none;" d="M74 50L74 51L80 52L74 50z"/>
<path style="fill:#325d2a; stroke:none;" d="M78 49L79 50L78 49z"/>
<path style="fill:#55ab54; stroke:none;" d="M100 49L101 50L100 49M121 49L122 50L121 49z"/>
<path style="fill:#8cff72; stroke:none;" d="M120 50L120 51L124 51L120 50z"/>
<path style="fill:#55ab54; stroke:none;" d="M123 49L124 50L123 49M136 49L138 51L136 49z"/>
<path style="fill:#325d2a; stroke:none;" d="M142 49L143 50L142 49M55 50L56 51L55 50z"/>
<path style="fill:#55ab54; stroke:none;" d="M56 50L57 51L56 50M61 50L57 51L57 52L62 51L61 50M79 50L80 51L79 50z"/>
<path style="fill:#325d2a; stroke:none;" d="M100 50C100 69.1419 95.5841 94.6773 101 113L102 113L101 68L100 50z"/>
<path style="fill:#55ab54; stroke:none;" d="M119 50L119 51L128 51L128 50L119 50z"/>
<path style="fill:#325d2a; stroke:none;" d="M128 50L129 51L128 50M136 50L137 51L136 50z"/>
<path style="fill:#55ab54; stroke:none;" d="M143 50L144 51L143 50z"/>
<path style="fill:#325d2a; stroke:none;" d="M54 51L55 52L54 51M61 51L62 52L61 51z"/>
<path style="fill:#55ab54; stroke:none;" d="M70 51L71 52L70 51z"/>
<path style="fill:#325d2a; stroke:none;" d="M80.3333 51.6667L80.6667 52.3333L80.3333 51.6667M119 51L120 52L119 51M129 51L130 52L129 51z"/>
<path style="fill:#55ab54; stroke:none;" d="M138 51L138 52L141 52L138 51M144 51L145 54L146 54L144 51z"/>
<path style="fill:#325d2a; stroke:none;" d="M145 51L146 52L145 51z"/>
<path style="fill:#55ab54; stroke:none;" d="M37.6667 52.3333L38.3333 52.6667L37.6667 52.3333M40 52L41 53L40 52z"/>
<path style="fill:#325d2a; stroke:none;" d="M53 52L54 53L53 52z"/>
<path style="fill:#55ab54; stroke:none;" d="M56 52L57 53L56 52M69 52L70 53L69 52z"/>
<path style="fill:#325d2a; stroke:none;" d="M72 52L73 53L72 52M78 52L79 53L78 52z"/>
<path style="fill:#55ab54; stroke:none;" d="M79 52L80 53L79 52z"/>
<path style="fill:#325d2a; stroke:none;" d="M125 52L126 53L125 52z"/>
<path style="fill:#55ab54; stroke:none;" d="M127 52L128 53L127 52z"/>
<path style="fill:#325d2a; stroke:none;" d="M130 52L131 53L130 52z"/>
<path style="fill:#55ab54; stroke:none;" d="M141 52L142 53L141 52M160 52L161 53L160 52M36 53L37 54L36 53M52 53L52 59L53 59L52 53z"/>
<path style="fill:#325d2a; stroke:none;" d="M55 53L55 59L56 59L55 53M67 53L66 56L67 53z"/>
<path style="fill:#55ab54; stroke:none;" d="M70 53L71 54L70 53z"/>
<path style="fill:#325d2a; stroke:none;" d="M128.333 53.6667L128.667 54.3333L128.333 53.6667z"/>
<path style="fill:#55ab54; stroke:none;" d="M131 53L131 62L132 62L131 53z"/>
<path style="fill:#325d2a; stroke:none;" d="M142 53L143 54L142 53z"/>
<path style="fill:#55ab54; stroke:none;" d="M161 53L162 54L161 53z"/>
<path style="fill:#325d2a; stroke:none;" d="M35 54L36 55L35 54z"/>
<path style="fill:#55ab54; stroke:none;" d="M69 54L70 55L69 54z"/>
<path style="fill:#325d2a; stroke:none;" d="M143 54L144 55L143 54z"/>
<path style="fill:#55ab54; stroke:none;" d="M144 54L144 59L145 59L144 54M146 54L147 55L146 54z"/>
<path style="fill:#325d2a; stroke:none;" d="M147 54L147 59L148 59L147 54M162 54L163 55L162 54z"/>
<path style="fill:#55ab54; stroke:none;" d="M67 55L68 56L67 55z"/>
<path style="fill:#325d2a; stroke:none;" d="M69 55L70 61L71 61L69 55M129 55L130 56L129 55M163 55L165 57L163 55z"/>
<path style="fill:#55ab54; stroke:none;" d="M164 55L165 56L164 55M33.6667 56.3333L34.3333 56.6667L33.6667 56.3333M165 56L166 57L165 56z"/>
<path style="fill:#325d2a; stroke:none;" d="M33 57L33 63L34 63L33 57z"/>
<path style="fill:#55ab54; stroke:none;" d="M66 57L67 58L66 57M166 57L166 62L167 62L166 57z"/>
<path style="fill:#325d2a; stroke:none;" d="M67 58C64.6677 61.5976 60.9871 60.9969 57 61L57 62L68 62L67 58z"/>
<path style="fill:#55ab54; stroke:none;" d="M55 59L56 62L57 62L57 59L55 59M82 59L82 60L88 60L88 61L82 61L82 62L90 62L82 59z"/>
<path style="fill:#325d2a; stroke:none;" d="M111 59L109 62L111 59z"/>
<path style="fill:#55ab54; stroke:none;" d="M112 59L112 60L116 60L116 61L112 61L112 62L117 59L112 59z"/>
<path style="fill:#325d2a; stroke:none;" d="M117.333 59.6667L117.667 60.3333L117.333 59.6667M128 59L121 61L121 62C123.655 61.9892 128.59 62.5802 128 59z"/>
<path style="fill:#55ab54; stroke:none;" d="M129 59L130 60L129 59M143 59L144 60L143 59M145 59L144 62L145 59z"/>
<path style="fill:#325d2a; stroke:none;" d="M146 59L147 60L146 59M52 60L53 61L52 60z"/>
<path style="fill:#55ab54; stroke:none;" d="M53 60L54 61L53 60M69 60L70 61L69 60z"/>
<path style="fill:#325d2a; stroke:none;" d="M81 60L82 61L81 60z"/>
<path style="fill:#8cff72; stroke:none;" d="M82 60L82 61L88 61L82 60z"/>
<path style="fill:#325d2a; stroke:none;" d="M89 60L90 61L89 60z"/>
<path style="fill:#8cff72; stroke:none;" d="M107 63C108.335 69.1537 105.806 75.2236 107.319 80.9066C109.329 88.4606 120.075 88.41 126 87C129.758 94.7965 145.653 96.2286 147 86C139.582 93.908 123.068 91.8786 130 79C126.199 80.1724 124.916 82.1892 124 86C113.759 85.9141 102.936 79.5195 114 71C109.373 66.5596 108.955 62.6955 116 61L107 63z"/>
<path style="fill:#325d2a; stroke:none;" d="M141 60L142 61L141 60z"/>
<path style="fill:#55ab54; stroke:none;" d="M142 60L143 61L142 60M54 61L55 62L54 61z"/>
<path style="fill:#325d2a; stroke:none;" d="M71 61L71 62L77 62L71 61z"/>
<path style="fill:#8cff72; stroke:none;" d="M88 61L89 62L88 61z"/>
<path style="fill:#325d2a; stroke:none;" d="M90 61L89 71C92.1278 67.9366 92.7006 64.5699 90 61z"/>
<path style="fill:#55ab54; stroke:none;" d="M128 61L129 62L128 61z"/>
<path style="fill:#325d2a; stroke:none;" d="M132 61L132 62L141 62L132 61M145 61L146 62L145 61z"/>
<path style="fill:#55ab54; stroke:none;" d="M55 62L56 63L55 62z"/>
<path style="fill:#325d2a; stroke:none;" d="M77 62L78 63L77 62z"/>
<path style="fill:#8cff72; stroke:none;" d="M89 62L85 71C99.7633 80.9273 76.1729 91.6138 74 81L69 79C74.5383 94.2265 59.4575 91.7065 51 86C56.1669 98.9407 66.8503 90.2266 75.1289 88.1512C79.8453 86.9689 84.8535 88.2991 89.0571 84.9498C93.012 81.7988 93.1254 74.6745 89 72L91 62L89 62z"/>
<path style="fill:#55ab54; stroke:none;" d="M108 62L109 63L108 62z"/>
<path style="fill:#325d2a; stroke:none;" d="M111 62L112 63L111 62M120 62L121 63L120 62z"/>
<path style="fill:#55ab54; stroke:none;" d="M34 63L35 64L34 63z"/>
<path style="fill:#325d2a; stroke:none;" d="M56 63L57 64L56 63M80.3333 63.6667L80.6667 64.3333L80.3333 63.6667M106 63L106 67L107 67L106 63z"/>
<path style="fill:#55ab54; stroke:none;" d="M109 63L109 67L110 67L109 63M119 63L122 66L122 65L119 63z"/>
<path style="fill:#325d2a; stroke:none;" d="M141 63L142 64L141 63M164 63L163 66L164 63z"/>
<path style="fill:#55ab54; stroke:none;" d="M58.3333 64.6667L58.6667 65.3333L58.3333 64.6667z"/>
<path style="fill:#325d2a; stroke:none;" d="M63 64L63 65L77 65L63 64z"/>
<path style="fill:#55ab54; stroke:none;" d="M122 64L123 65L122 64z"/>
<path style="fill:#325d2a; stroke:none;" d="M123 64L123 65L134 65L123 64z"/>
<path style="fill:#55ab54; stroke:none;" d="M134 64L135 65L134 64z"/>
<path style="fill:#325d2a; stroke:none;" d="M35 65L35 66L50 66L35 65M57 65L58 66L57 65z"/>
<path style="fill:#55ab54; stroke:none;" d="M60.6667 65.3333L61.3333 65.6667L60.6667 65.3333z"/>
<path style="fill:#325d2a; stroke:none;" d="M62 65L63 66L62 65M77 65L78 66L77 65z"/>
<path style="fill:#55ab54; stroke:none;" d="M78.6667 65.3333L79.3333 65.6667L78.6667 65.3333z"/>
<path style="fill:#325d2a; stroke:none;" d="M119 65L120 66L119 65z"/>
<path style="fill:#55ab54; stroke:none;" d="M135 65L135 66L140 66L135 65M141 65L142 68L143 68L141 65z"/>
<path style="fill:#325d2a; stroke:none;" d="M142 65L143 66L142 65M147 65L147 66L161 66L147 65z"/>
<path style="fill:#55ab54; stroke:none;" d="M164 65L165 66L164 65M50 66L51 67L50 66z"/>
<path style="fill:#325d2a; stroke:none;" d="M56 66L57 67L56 66z"/>
<path style="fill:#55ab54; stroke:none;" d="M59 66L60 67L59 66M107 66L108 67L107 66z"/>
<path style="fill:#325d2a; stroke:none;" d="M110 66L111 67L110 66M139.333 66.6667L139.667 67.3333L139.333 66.6667z"/>
<path style="fill:#55ab54; stroke:none;" d="M147 66L148 67L147 66z"/>
<path style="fill:#325d2a; stroke:none;" d="M161.667 66.3333L162.333 66.6667L161.667 66.3333M41 67L42 68L41 67M52 67L53 68L52 67z"/>
<path style="fill:#55ab54; stroke:none;" d="M55 67L56 68L55 67z"/>
<path style="fill:#325d2a; stroke:none;" d="M58 67L59 68L58 67z"/>
<path style="fill:#55ab54; stroke:none;" d="M108.333 67.6667L108.667 68.3333L108.333 67.6667z"/>
<path style="fill:#325d2a; stroke:none;" d="M111.333 67.6667L111.667 68.3333L111.333 67.6667M145 67L146 68L145 67z"/>
<path style="fill:#55ab54; stroke:none;" d="M153 67L154 68L153 67M158 67L159 68L158 67M36 68L37 69L36 68M50 68L51 69L50 68M53 68L54 69L53 68M56 68L54 75L54 76C57.0762 74.0058 57.3829 71.3318 56 68z"/>
<path style="fill:#325d2a; stroke:none;" d="M86 68L87 69L86 68M140 68L141 69L140 68z"/>
<path style="fill:#55ab54; stroke:none;" d="M143.667 68.3333L144.333 68.6667L143.667 68.3333z"/>
<path style="fill:#325d2a; stroke:none;" d="M147 68L148 69L147 68z"/>
<path style="fill:#55ab54; stroke:none;" d="M161 68L162 69L161 68z"/>
<path style="fill:#325d2a; stroke:none;" d="M35 69L36 70L35 69M51 69L52 70L51 69z"/>
<path style="fill:#55ab54; stroke:none;" d="M85 69L86 70L85 69M89 69L90 70L89 69z"/>
<path style="fill:#325d2a; stroke:none;" d="M109.333 69.6667L109.667 70.3333L109.333 69.6667z"/>
<path style="fill:#55ab54; stroke:none;" d="M111 69L111 70L115 71L115 70L111 69z"/>
<path style="fill:#325d2a; stroke:none;" d="M114 69L115 70L114 69M141 69L142 76L143 76L141 69z"/>
<path style="fill:#55ab54; stroke:none;" d="M142 69L143 70L142 69z"/>
<path style="fill:#325d2a; stroke:none;" d="M146 69L147 70L146 69M162 69L162 70L165 71L162 69z"/>
<path style="fill:#55ab54; stroke:none;" d="M164 69L165 70L164 69M33 70L34 71L33 70z"/>
<path style="fill:#325d2a; stroke:none;" d="M34 70L35 71L34 70M52 70L53 76L54 76L52 70z"/>
<path style="fill:#55ab54; stroke:none;" d="M53 70L54 71L53 70z"/>
<path style="fill:#325d2a; stroke:none;" d="M84 70L85 71L84 70z"/>
<path style="fill:#55ab54; stroke:none;" d="M145 70L143 75L143 76C145.555 74.3502 146.098 72.8804 145 70z"/>
<path style="fill:#325d2a; stroke:none;" d="M33.3333 71.6667L33.6667 72.3333L33.3333 71.6667z"/>
<path style="fill:#55ab54; stroke:none;" d="M85 71L86 72L85 71M89 71L90 72L89 71M108.333 71.6667L108.667 72.3333L108.333 71.6667z"/>
<path style="fill:#325d2a; stroke:none;" d="M114 71L115 72L114 71z"/>
<path style="fill:#55ab54; stroke:none;" d="M164 71L164 74L165 74L164 71z"/>
<path style="fill:#325d2a; stroke:none;" d="M111 72L112 73L111 72z"/>
<path style="fill:#55ab54; stroke:none;" d="M34 73L35 74L34 73M89 73L90 74L89 73z"/>
<path style="fill:#325d2a; stroke:none;" d="M92 73L93 74L92 73M106 73L106 83L107 83L106 73z"/>
<path style="fill:#55ab54; stroke:none;" d="M107 73L108 74L107 73z"/>
<path style="fill:#325d2a; stroke:none;" d="M110 73L111 74L110 73M89.3333 74.6667L89.6667 75.3333L89.3333 74.6667z"/>
<path style="fill:#55ab54; stroke:none;" d="M92 74L92 82L93 82L92 74M108 74L109 75L108 74z"/>
<path style="fill:#325d2a; stroke:none;" d="M109 74L110 75L109 74M164 74L163 76L164 74M35 75L36 76L35 75M56 75L57 76L56 75z"/>
<path style="fill:#55ab54; stroke:none;" d="M90 75L91 76L90 75z"/>
<path style="fill:#325d2a; stroke:none;" d="M108 75L108 80L109 80L108 75M145 75L146 76L145 75z"/>
<path style="fill:#55ab54; stroke:none;" d="M164 75L165 76L164 75M36 76L37 77L36 76z"/>
<path style="fill:#325d2a; stroke:none;" d="M162 76L163 77L162 76z"/>
<path style="fill:#55ab54; stroke:none;" d="M37 77L38 78L37 77z"/>
<path style="fill:#325d2a; stroke:none;" d="M64 77L65 78L64 77z"/>
<path style="fill:#8cff72; stroke:none;" d="M64 79L67 79L66 77L64 79z"/>
<path style="fill:#325d2a; stroke:none;" d="M66 77L67 78L66 77M131 77L132 78L131 77z"/>
<path style="fill:#8cff72; stroke:none;" d="M131 79L134 79L133 77L131 79z"/>
<path style="fill:#325d2a; stroke:none;" d="M133 77L134 78L133 77z"/>
<path style="fill:#55ab54; stroke:none;" d="M161 77L162 78L161 77M38 78L38 79L44 80L38 78z"/>
<path style="fill:#325d2a; stroke:none;" d="M44.3333 78.6667L44.6667 79.3333L44.3333 78.6667M61 78L62 79L61 78z"/>
<path style="fill:#55ab54; stroke:none;" d="M61 80L70 79L61 80z"/>
<path style="fill:#325d2a; stroke:none;" d="M70 78L71 79L70 78z"/>
<path style="fill:#55ab54; stroke:none;" d="M127 78L127 79L138 81L138 80L135 80L135 79L138 79L127 78M155 78L155 79L161 79L155 78z"/>
<path style="fill:#8cff72; stroke:none;" d="M62 79L63 80L62 79z"/>
<path style="fill:#55ab54; stroke:none;" d="M71 79L72 80L71 79M90 79L91 80L90 79z"/>
<path style="fill:#325d2a; stroke:none;" d="M125 79L126 80L125 79z"/>
<path style="fill:#55ab54; stroke:none;" d="M126 79L127 80L126 79z"/>
<path style="fill:#8cff72; stroke:none;" d="M135 79L135 80L138 80L135 79z"/>
<path style="fill:#325d2a; stroke:none;" d="M155 79L156 80L155 79M61 80L62 81L61 80z"/>
<path style="fill:#55ab54; stroke:none;" d="M69.3333 80.6667L69.6667 81.3333L69.3333 80.6667M72 80L73 81L72 80z"/>
<path style="fill:#325d2a; stroke:none;" d="M89.3333 80.6667L89.6667 81.3333L89.3333 80.6667z"/>
<path style="fill:#55ab54; stroke:none;" d="M108 80L109 81L108 80M125.333 80.6667L125.667 81.3333L125.333 80.6667M129 80L130 81L129 80M157 80L158 81L157 80z"/>
<path style="fill:#325d2a; stroke:none;" d="M41 81L42 82L41 81z"/>
<path style="fill:#55ab54; stroke:none;" d="M109 81L110 82L109 81M128 81L129 82L128 81M158 81L160 84L158 81M39 82L38 85L39 82z"/>
<path style="fill:#325d2a; stroke:none;" d="M70 82L71 83L70 82z"/>
<path style="fill:#55ab54; stroke:none;" d="M73 82L74 83L73 82M88 82L89 83L88 82z"/>
<path style="fill:#325d2a; stroke:none;" d="M91 82L92 83L91 82M111 82L112 83L111 82z"/>
<path style="fill:#55ab54; stroke:none;" d="M124 82L125 83L124 82z"/>
<path style="fill:#325d2a; stroke:none;" d="M127 82L128 83L127 82z"/>
<path style="fill:#55ab54; stroke:none;" d="M74 83L75 86L76 86L74 83z"/>
<path style="fill:#325d2a; stroke:none;" d="M75 83L76 84L75 83z"/>
<path style="fill:#55ab54; stroke:none;" d="M85 83L85 84L88 84L85 83z"/>
<path style="fill:#325d2a; stroke:none;" d="M107 83L108 84L107 83z"/>
<path style="fill:#55ab54; stroke:none;" d="M112 83L113 84L112 83z"/>
<path style="fill:#325d2a; stroke:none;" d="M123 83L124 84L123 83M158 83L159 84L158 83M39 84L40 85L39 84M70 84L70 87L71 87L70 84z"/>
<path style="fill:#55ab54; stroke:none;" d="M84 84L85 85L84 84M90 84L91 85L90 84z"/>
<path style="fill:#325d2a; stroke:none;" d="M108 84L109 85L108 84z"/>
<path style="fill:#55ab54; stroke:none;" d="M109 84L110 85L109 84z"/>
<path style="fill:#325d2a; stroke:none;" d="M113 84L113 85L116 85L113 84z"/>
<path style="fill:#55ab54; stroke:none;" d="M83 85L84 86L83 85M87 85L88 86L87 85z"/>
<path style="fill:#325d2a; stroke:none;" d="M89 85L90 86L89 85z"/>
<path style="fill:#55ab54; stroke:none;" d="M110 85L111 86L110 85z"/>
<path style="fill:#325d2a; stroke:none;" d="M116 85L117 86L116 85M123 85L124 86L123 85M159 85L159 88L160 88L159 85z"/>
<path style="fill:#55ab54; stroke:none;" d="M50.3333 86.6667L50.6667 87.3333L50.3333 86.6667z"/>
<path style="fill:#325d2a; stroke:none;" d="M52 86L53 87L52 86M86 86L87 87L86 86M145 86L144 89L145 86M147 86L148 87L147 86M53 87L54 88L53 87M74 87L75 88L74 87z"/>
<path style="fill:#55ab54; stroke:none;" d="M75 87L76 88L75 87M83 87L84 88L83 87z"/>
<path style="fill:#325d2a; stroke:none;" d="M115 87L116 88L115 87z"/>
<path style="fill:#55ab54; stroke:none;" d="M125 87L126 88L125 87z"/>
<path style="fill:#325d2a; stroke:none;" d="M128 87L129 88L128 87z"/>
<path style="fill:#55ab54; stroke:none;" d="M148 87L147 89L148 87M38 88L39 91L40 91L38 88z"/>
<path style="fill:#325d2a; stroke:none;" d="M39 88L40 89L39 88M51 88L52 89L51 88z"/>
<path style="fill:#55ab54; stroke:none;" d="M54 88L55 89L54 88z"/>
<path style="fill:#325d2a; stroke:none;" d="M69 88L70 89L69 88z"/>
<path style="fill:#55ab54; stroke:none;" d="M70 88L71 89L70 88M72 88L73 89L72 88z"/>
<path style="fill:#325d2a; stroke:none;" d="M73 88L74 89L73 88M76 88L76 89L83 89L76 88M89 91L93 89L89 91z"/>
<path style="fill:#55ab54; stroke:none;" d="M107 88L108 89L107 88z"/>
<path style="fill:#325d2a; stroke:none;" d="M108 88L109 98L110 98L108 88M116 88L116 89L124 89L116 88M125.333 88.6667L125.667 89.3333L125.333 88.6667z"/>
<path style="fill:#55ab54; stroke:none;" d="M129 88L130 89L129 88M145 88L146 89L145 88z"/>
<path style="fill:#325d2a; stroke:none;" d="M148 88L149 89L148 88z"/>
<path style="fill:#55ab54; stroke:none;" d="M52.3333 89.6667L52.6667 90.3333L52.3333 89.6667M55 89L56 90L55 89z"/>
<path style="fill:#325d2a; stroke:none;" d="M68 89L69 90L68 89M72.3333 89.6667L72.6667 90.3333L72.3333 89.6667z"/>
<path style="fill:#8cff72; stroke:none;" d="M91 89L90 90C97.2121 103.751 72.8442 93.9113 70 102C79.1512 96.9658 90.2189 100.077 87 112L96 112L96 111L91 110C90.9312 103.759 95.2995 93.0907 91 89z"/>
<path style="fill:#55ab54; stroke:none;" d="M92.3333 89.6667L92.6667 90.3333L92.3333 89.6667z"/>
<path style="fill:#325d2a; stroke:none;" d="M105 89L106 90L105 89z"/>
<path style="fill:#55ab54; stroke:none;" d="M106 89L107 90L106 89M126 89L127 90L126 89M130 89L131 90L130 89z"/>
<path style="fill:#325d2a; stroke:none;" d="M143 89L144 90L143 89z"/>
<path style="fill:#55ab54; stroke:none;" d="M146 89L147 90L146 89M159 89L160 90L159 89M56 90L57 91L56 90z"/>
<path style="fill:#325d2a; stroke:none;" d="M67 90L68 91L67 90z"/>
<path style="fill:#55ab54; stroke:none;" d="M105 90L106 98L107 98L105 90M127 90L128 91L127 90M131 90L132 91L131 90z"/>
<path style="fill:#325d2a; stroke:none;" d="M142 90L143 91L142 90z"/>
<path style="fill:#55ab54; stroke:none;" d="M145.333 90.6667L145.667 91.3333L145.333 90.6667M158.333 90.6667L158.667 91.3333L158.333 90.6667z"/>
<path style="fill:#325d2a; stroke:none;" d="M41 91L42 92L41 91M53 91L54 92L53 91z"/>
<path style="fill:#55ab54; stroke:none;" d="M59 91L60 92L59 91z"/>
<path style="fill:#325d2a; stroke:none;" d="M64 91L65 92L64 91z"/>
<path style="fill:#55ab54; stroke:none;" d="M70 91L71 92L70 91M91 91L91 96L92 96L91 91z"/>
<path style="fill:#325d2a; stroke:none;" d="M94 91L94 96L95 96L94 91M128 91L129 92L128 91M133 91L134 92L133 91M139 91L140 92L139 91M54.6667 92.3333L55.3333 92.6667L54.6667 92.3333z"/>
<path style="fill:#55ab54; stroke:none;" d="M56 92L57 93L56 92z"/>
<path style="fill:#325d2a; stroke:none;" d="M68.6667 92.3333L69.3333 92.6667L68.6667 92.3333M129 92L130 93L129 92z"/>
<path style="fill:#55ab54; stroke:none;" d="M142 92L143 93L142 92z"/>
<path style="fill:#325d2a; stroke:none;" d="M143.667 92.3333L144.333 92.6667L143.667 92.3333z"/>
<path style="fill:#55ab54; stroke:none;" d="M157 92L158 93L157 92M41 93L42 94L41 93z"/>
<path style="fill:#325d2a; stroke:none;" d="M42.6667 93.3333L43.3333 93.6667L42.6667 93.3333M57.6667 93.3333L58.3333 93.6667L57.6667 93.3333z"/>
<path style="fill:#55ab54; stroke:none;" d="M59 93L59 94L65 94L59 93z"/>
<path style="fill:#325d2a; stroke:none;" d="M65 93L65 94L68 94L65 93M130 93L130 94L133 94L130 93z"/>
<path style="fill:#55ab54; stroke:none;" d="M133 93L133 94L140 94L133 93z"/>
<path style="fill:#325d2a; stroke:none;" d="M140 93L140 94L143 94L140 93M155 93L156 94L155 93z"/>
<path style="fill:#55ab54; stroke:none;" d="M156 93L157 94L156 93M44 94L45 95L44 94z"/>
<path style="fill:#325d2a; stroke:none;" d="M154 94L155 95L154 94z"/>
<path style="fill:#55ab54; stroke:none;" d="M45 95L46 96L45 95M153 95L154 96L153 95z"/>
<path style="fill:#325d2a; stroke:none;" d="M52 96L53 97L52 96z"/>
<path style="fill:#55ab54; stroke:none;" d="M92 96L91 99L92 96M147 96L149 98L147 96M50 97L49 99L50 97z"/>
<path style="fill:#325d2a; stroke:none;" d="M51 97L52 98L51 97M72 97L73 98L72 97z"/>
<path style="fill:#55ab54; stroke:none;" d="M73 97L73 98L83 98L73 97z"/>
<path style="fill:#325d2a; stroke:none;" d="M89 97L88 99L89 97z"/>
<path style="fill:#55ab54; stroke:none;" d="M90 97L91 98L90 97z"/>
<path style="fill:#325d2a; stroke:none;" d="M105 97L106 98L105 97z"/>
<path style="fill:#55ab54; stroke:none;" d="M108 97L109 98L108 97z"/>
<path style="fill:#325d2a; stroke:none;" d="M116 97L117 98L116 97z"/>
<path style="fill:#55ab54; stroke:none;" d="M117 97L117 98L125 98L117 97z"/>
<path style="fill:#325d2a; stroke:none;" d="M125 97L128 99L128 98L125 97M147 97L148 98L147 97M50 98L51 99L50 98M69 98L69 99L72 99L69 98z"/>
<path style="fill:#55ab54; stroke:none;" d="M83 98L84 99L83 98z"/>
<path style="fill:#325d2a; stroke:none;" d="M84.6667 98.3333L85.3333 98.6667L84.6667 98.3333z"/>
<path style="fill:#55ab54; stroke:none;" d="M89 98L90 99L89 98z"/>
<path style="fill:#325d2a; stroke:none;" d="M92 98L93 99L92 98M106.333 98.6667L106.667 99.3333L106.333 98.6667M110 98L111 99L110 98M113.667 98.3333L114.333 98.6667L113.667 98.3333z"/>
<path style="fill:#55ab54; stroke:none;" d="M115 98L115 99L125 100L125 99L115 98z"/>
<path style="fill:#8cff72; stroke:none;" d="M116 98L116 99L130 102C126.852 97.2542 121.144 98.0006 116 98z"/>
<path style="fill:#55ab54; stroke:none;" d="M149.667 98.3333L150.333 98.6667L149.667 98.3333M48 99L49 100L48 99M69 99L69 102L70 102L69 99M73 99L73 100L83 100L73 99M86 99L87 100L86 99z"/>
<path style="fill:#325d2a; stroke:none;" d="M87 99L88 100L87 99z"/>
<path style="fill:#55ab54; stroke:none;" d="M90 99L91 100L90 99M107 99L108 100L107 99z"/>
<path style="fill:#325d2a; stroke:none;" d="M111.667 99.3333L112.333 99.6667L111.667 99.3333z"/>
<path style="fill:#55ab54; stroke:none;" d="M128 99L129 100L128 99z"/>
<path style="fill:#325d2a; stroke:none;" d="M150 99L151 100L150 99M47 100L49 103L47 100M72 100L73 101L72 100z"/>
<path style="fill:#55ab54; stroke:none;" d="M89 100L90 101L89 100M108 100L109 101L108 100M114 100L115 101L114 100M127 100L128 101L127 100z"/>
<path style="fill:#325d2a; stroke:none;" d="M130.333 100.667L130.667 101.333L130.333 100.667z"/>
<path style="fill:#55ab54; stroke:none;" d="M150 100L150 105L151 105L150 100z"/>
<path style="fill:#325d2a; stroke:none;" d="M71 101L72 102L71 101M89 101L90 102L89 101M109 101L108 103L109 101M113 101L114 102L113 101z"/>
<path style="fill:#55ab54; stroke:none;" d="M128 101L129 102L128 101M47 102L48 103L47 102z"/>
<path style="fill:#325d2a; stroke:none;" d="M69.6667 102.333L70.3333 102.667L69.6667 102.333M85 102L87 104L85 102z"/>
<path style="fill:#55ab54; stroke:none;" d="M86 102L87 103L86 102M89.6667 102.333L90.3333 102.667L89.6667 102.333M109 102L110 103L109 102M111 102L112 103L111 102z"/>
<path style="fill:#325d2a; stroke:none;" d="M112 102L113 103L112 102M129 102L130 103L129 102M57 103L57 104L60 104L57 103z"/>
<path style="fill:#55ab54; stroke:none;" d="M87 103L88 104L87 103z"/>
<path style="fill:#325d2a; stroke:none;" d="M91 103L91 108L92 108L91 103z"/>
<path style="fill:#55ab54; stroke:none;" d="M108 103L108 110L109 110L108 103z"/>
<path style="fill:#325d2a; stroke:none;" d="M111 103L111 111L112 111L111 103M139 103L139 104L142 105L139 103M49 104L50 105L49 104M56 104L57 105L56 104z"/>
<path style="fill:#55ab54; stroke:none;" d="M59 104L60 105L59 104M88 104L89 105L88 104M139 104L140 105L139 104z"/>
<path style="fill:#8cff72; stroke:none;" d="M140 104L141 105L140 104z"/>
<path style="fill:#55ab54; stroke:none;" d="M50 105L51 106L50 105z"/>
<path style="fill:#325d2a; stroke:none;" d="M53 105L54 106L53 105M58 105L59 106L58 105z"/>
<path style="fill:#55ab54; stroke:none;" d="M69 105L65 107L65 108L69 107L67 115L68 115L69 105z"/>
<path style="fill:#8cff72; stroke:none;" d="M69 107L72 105L69 107z"/>
<path style="fill:#325d2a; stroke:none;" d="M72.3333 105.667L72.6667 106.333L72.3333 105.667z"/>
<path style="fill:#55ab54; stroke:none;" d="M127 105L128 106L127 105M141 105L142 106L141 105z"/>
<path style="fill:#325d2a; stroke:none;" d="M144 105L145 106L144 105z"/>
<path style="fill:#55ab54; stroke:none;" d="M51.6667 106.333L52.3333 106.667L51.6667 106.333z"/>
<path style="fill:#325d2a; stroke:none;" d="M57 106L58 107L57 106M131 106L132 107L131 106z"/>
<path style="fill:#55ab54; stroke:none;" d="M142 106L143 107L142 106M145 106L145 107L148 107L145 106M55 107L56 108L55 107z"/>
<path style="fill:#325d2a; stroke:none;" d="M56 107L57 108L56 107z"/>
<path style="fill:#8cff72; stroke:none;" d="M65 116L70 117L70 116C67.0661 112.845 67.3969 110.878 69 107C64.4484 108.479 64.6555 111.692 65 116z"/>
<path style="fill:#325d2a; stroke:none;" d="M70.6667 107.333L71.3333 107.667L70.6667 107.333M127.667 107.333L128.333 107.667L127.667 107.333z"/>
<path style="fill:#55ab54; stroke:none;" d="M129 107L130 108L129 107M132 107L132 108L134 115L135 115L132 107z"/>
<path style="fill:#325d2a; stroke:none;" d="M134 107L135 108L134 107M142 107L142 110L143 110L142 107M55 108L55 114L56 114L55 108M64 108L64 111L65 111L64 108z"/>
<path style="fill:#55ab54; stroke:none;" d="M88 108L89 109L88 108z"/>
<path style="fill:#325d2a; stroke:none;" d="M130 108L131 109L130 108M91 109L92 110L91 109M131 109L131 114L132 114L131 109M86 110L87 111L86 110z"/>
<path style="fill:#55ab54; stroke:none;" d="M95 110L96 111L95 110z"/>
<path style="fill:#325d2a; stroke:none;" d="M97 110L98 111L97 110M103 110L104 111L103 110z"/>
<path style="fill:#55ab54; stroke:none;" d="M144.333 110.667L144.667 111.333L144.333 110.667M63 111L65 113L63 111M86 111L86 112L96 113L96 112L86 111M96 111L97 112L96 111M102 111L103 112L102 111M112 111L104 112L104 113L112 111z"/>
<path style="fill:#325d2a; stroke:none;" d="M63 112L64 113L63 112M86 112L87 113L86 112z"/>
<path style="fill:#55ab54; stroke:none;" d="M100 112L101 113L100 112z"/>
<path style="fill:#325d2a; stroke:none;" d="M143 112L144 113L143 112M64 113L64 116L65 116L64 113M103 113L104 114L103 113M142 113L142 116L143 116L142 113z"/>
<path style="fill:#55ab54; stroke:none;" d="M56.3333 114.667L56.6667 115.333L56.3333 114.667z"/>
<path style="fill:#325d2a; stroke:none;" d="M95 114L96 115L95 114z"/>
<path style="fill:#55ab54; stroke:none;" d="M130 114L131 115L130 114z"/>
<path style="fill:#325d2a; stroke:none;" d="M69 115L70 116L69 115z"/>
<path style="fill:#55ab54; stroke:none;" d="M97 115L99 118L97 115z"/>
<path style="fill:#325d2a; stroke:none;" d="M128 115L129 116L128 115M133 115L134 116L133 115z"/>
<path style="fill:#55ab54; stroke:none;" d="M57 116L58 117L57 116z"/>
<path style="fill:#325d2a; stroke:none;" d="M65.6667 116.333L66.3333 116.667L65.6667 116.333z"/>
<path style="fill:#55ab54; stroke:none;" d="M67 116L68 117L67 116M68 117L68 118L77 117L68 117M100 116L101 117L100 116z"/>
<path style="fill:#325d2a; stroke:none;" d="M101 116L102 117L101 116M122 116L123 117L122 116z"/>
<path style="fill:#55ab54; stroke:none;" d="M123 116L123 117L128 117L123 116z"/>
<path style="fill:#325d2a; stroke:none;" d="M132 116L133 117L132 116M139 116L137 117L137 118L139 116z"/>
<path style="fill:#55ab54; stroke:none;" d="M140 116L140 117L143 117L140 116M58 117L59 118L58 117z"/>
<path style="fill:#325d2a; stroke:none;" d="M59.6667 117.333L60.3333 117.667L59.6667 117.333M77 117L78 118L77 117M97 117L98 118L97 117M100 117L101 118L100 117z"/>
<path style="fill:#55ab54; stroke:none;" d="M122 117L123 118L122 117M129.667 117.333L130.333 117.667L129.667 117.333z"/>
<path style="fill:#325d2a; stroke:none;" d="M131 117L132 118L131 117z"/>
<path style="fill:#55ab54; stroke:none;" d="M139 117L140 118L139 117M61 118L62 119L61 118z"/>
<path style="fill:#325d2a; stroke:none;" d="M70 118L71 119L70 118z"/>
<path style="fill:#55ab54; stroke:none;" d="M73.6667 118.333L74.3333 118.667L73.6667 118.333M76 118L77 119L76 118M100 118L100 121L101 121L100 118z"/>
<path style="fill:#325d2a; stroke:none;" d="M122 118L123 119L122 118z"/>
<path style="fill:#55ab54; stroke:none;" d="M124.667 118.333L125.333 118.667L124.667 118.333M128 118L129 119L128 118M136 118L137 119L136 118z"/>
<path style="fill:#325d2a; stroke:none;" d="M72 119L72 124L73 124L72 119M97 120L98 121L97 120z"/>
<path style="fill:#55ab54; stroke:none;" d="M127 120L127 123L128 123L127 120M97 121L97 124L98 124L97 121z"/>
<path style="fill:#325d2a; stroke:none;" d="M100 121L102 123L100 121z"/>
<path style="fill:#55ab54; stroke:none;" d="M100 122L101 123L100 122z"/>
<path style="fill:#325d2a; stroke:none;" d="M126 123L127 124L126 123z"/>
<path style="fill:#55ab54; stroke:none;" d="M73 124L74 125L73 124z"/>
<path style="fill:#325d2a; stroke:none;" d="M95 124L96 125L95 124M125 124L126 125L125 124z"/>
<path style="fill:#55ab54; stroke:none;" d="M102 125L103 128L104 128L102 125z"/>
<path style="fill:#325d2a; stroke:none;" d="M103 125L104 126L103 125z"/>
<path style="fill:#55ab54; stroke:none;" d="M124 125L125 126L124 125M74 126L75 127L74 126z"/>
<path style="fill:#325d2a; stroke:none;" d="M94 126L95 127L94 126z"/>
<path style="fill:#55ab54; stroke:none;" d="M95 126L96 127L95 126z"/>
<path style="fill:#325d2a; stroke:none;" d="M122 126L121 128L122 126z"/>
<path style="fill:#55ab54; stroke:none;" d="M123 126L124 127L123 126M75 127L76 128L75 127z"/>
<path style="fill:#325d2a; stroke:none;" d="M76.6667 127.333L77.3333 127.667L76.6667 127.333M93 127L94 128L93 127M104.667 127.333L105.333 127.667L104.667 127.333z"/>
<path style="fill:#55ab54; stroke:none;" d="M122 127L123 128L122 127M78 128L79 129L78 128z"/>
<path style="fill:#325d2a; stroke:none;" d="M92 128L93 129L92 128z"/>
<path style="fill:#55ab54; stroke:none;" d="M106 128L107 129L106 128z"/>
<path style="fill:#325d2a; stroke:none;" d="M120 128L121 129L120 128z"/>
<path style="fill:#55ab54; stroke:none;" d="M81 129L82 130L81 129z"/>
<path style="fill:#325d2a; stroke:none;" d="M89 129L90 130L89 129z"/>
<path style="fill:#55ab54; stroke:none;" d="M109 129L110 130L109 129z"/>
<path style="fill:#325d2a; stroke:none;" d="M117 129L118 130L117 129z"/>
<path style="fill:#55ab54; stroke:none;" d="M82 130L82 131L89 131L82 130M110 130L110 131L118 131L110 130z"/>
<path style="fill:#ffffff; stroke:none;" d="M68 152L68 156C57.4987 157.174 57.271 171.188 68 172L68 176L73 176L73 172C83.6391 171.195 83.6391 156.805 73 156L73 152L68 152M86 152L83 176L88 176L88 172L93 172L93 176L98 176L95 152L86 152M100 152L100 176L105 176L105 166C109.137 170.051 107.049 175.458 114 176C112.951 171.594 113.886 166.622 109 165L109 164C113.823 162.304 112.997 157.424 113 153L114 153L114 157L119 157L119 176L124 176L124 157L128 157L128 152L109.028 153.603L105 163L105 152L100 152M130 152L130 176C134.922 175.148 135.599 171.551 136 167L137 167L137 176L142 176L142 152C137.695 153.394 136.963 156.853 136 161L135 161L135 152L130 152z"/>
<path style="fill:#171817; stroke:none;" d="M90 156L89 168L92 168L90 156M66 160C64.9949 163.527 64.7707 165.906 68 168L68 160L66 160M73 160L73 168C76.2293 165.906 76.0051 163.527 75 160L73 160z"/>
<path style="fill:#325d2a; stroke:none;" d="M199 186L200 187L199 186z"/>
<path style="fill:#ffffff; stroke:none;" d="M0 187L0 200L13 200L13 199C6.07608 197.603 3.28711 192.69 0 187M199 187C197.736 193.265 193.265 197.736 187 199L187 200L200 200L199 187z"/>
<path style="fill:#325d2a; stroke:none;" d="M198 190L199 191L198 190M2 192L3 193L2 192M197 192L198 193L197 192M7 197L8 198L7 197M192 197L193 198L192 197M9 198L10 199L9 198M190 198L191 199L190 198M13 199L14 200L13 199M186 199L187 200L186 199z"/>
</svg>
