<?xml version="1.0" standalone="yes"?>
<svg xmlns="http://www.w3.org/2000/svg" width="200" height="200">
<path style="fill:#ffffff; stroke:none;" d="M0 0L0 13L1 13C2.26403 6.73515 6.73516 2.26402 13 1L0 0z"/>
<path style="fill:#56283d; stroke:none;" d="M13 0L14 1L13 0z"/>
<path style="fill:#1e1e1e; stroke:none;" d="M14 0.46759C-4.68246 3.99939 0 27.9168 0 42L0 151C0 162.884 -4.00477 183.924 3.65201 193.895C11.9763 204.735 36.9648 200 49 200L141 200C155.503 200 172.85 202.59 187 199.319C204.646 195.24 200 171.602 200 158L200 49C200 37.1161 204.005 16.0756 196.348 6.10493C188.024 -4.73503 163.035 0 151 0L60 0C45.289 0 28.4616 -2.26628 14 0.46759z"/>
<path style="fill:#56283d; stroke:none;" d="M186 0L187 1L186 0z"/>
<path style="fill:#ffffff; stroke:none;" d="M187 0L187 1C193.265 2.26404 197.736 6.73515 199 13L200 13L200 0L187 0z"/>
<path style="fill:#56283d; stroke:none;" d="M9 1L10 2L9 1M190 1L191 2L190 1M7 2L8 3L7 2M192 2L193 3L192 2M2 7L3 8L2 7M197 7L198 8L197 7M1 9L2 10L1 9M198 9L199 10L198 9z"/>
<path style="fill:#b0517c; stroke:none;" d="M9 10L9 141L74 141L74 125L47 125L47 98L28 94C32.1311 85.5906 40.1048 79.2245 43.811 70.6998C46.2259 65.1452 44.1928 58.7828 45.456 53C48.3947 39.5472 62.8116 21.2424 77 19C83.8215 13.4099 97.4097 12 106 12C140.245 12 170.025 38.7001 165.871 73.9606C164.663 84.2172 157.948 96.3842 150.699 103.561C147.007 107.216 140.75 109.955 138.028 114.375C134.355 120.339 137 134.095 137 141L191 141L191 10L9 10z"/>
<path style="fill:#56283d; stroke:none;" d="M97 12L97 13L115 14L97 12z"/>
<path style="fill:#8d4163; stroke:none;" d="M114 12L115 13L114 12z"/>
<path style="fill:#56283d; stroke:none;" d="M0 13L1 14L0 13z"/>
<path style="fill:#8d4163; stroke:none;" d="M90 13L90 14L96 14L90 13z"/>
<path style="fill:#56283d; stroke:none;" d="M96 13L97 14L96 13z"/>
<path style="fill:#8d4163; stroke:none;" d="M115 13L115 14L121 14L115 13z"/>
<path style="fill:#56283d; stroke:none;" d="M199 13L200 14L199 13M90 14L91 15L90 14z"/>
<path style="fill:#8d4163; stroke:none;" d="M85 15L86 16L85 15z"/>
<path style="fill:#56283d; stroke:none;" d="M125 15L126 16L125 15M81 16L81 17L85 17L81 16M97 16L91 17L91 18L98 17L97 16z"/>
<path style="fill:#8d4163; stroke:none;" d="M98 16L99 17L98 16z"/>
<path style="fill:#56283d; stroke:none;" d="M99 16L99 17L111 17L99 16z"/>
<path style="fill:#8d4163; stroke:none;" d="M111 16L113 18L111 16z"/>
<path style="fill:#56283d; stroke:none;" d="M112 16L113 17L112 16M126 16L126 17L130 17L126 16z"/>
<path style="fill:#8d4163; stroke:none;" d="M130 16L131 17L130 16M77 17L78 18L77 17z"/>
<path style="fill:#56283d; stroke:none;" d="M78 17L79 18L78 17z"/>
<path style="fill:#8d4163; stroke:none;" d="M79 17L80 18L79 17z"/>
<path style="fill:#56283d; stroke:none;" d="M80 17L81 18L80 17z"/>
<path style="fill:#b0517c; stroke:none;" d="M42 85L37 91L43 94L53 95L53 120L80 120L80 141L131 141L131.603 114.039L149.626 97.6752L159 82C158.512 67.1095 162.464 53.6426 153.562 40.0394C133.014 8.64255 79.2283 9.92171 57.5586 39.1705C50.0972 49.2416 53.6847 58.2384 50.4869 68.9961C48.7649 74.7891 42.3578 78.829 42 85z"/>
<path style="fill:#56283d; stroke:none;" d="M113 17L113 18L120 18L113 17z"/>
<path style="fill:#8d4163; stroke:none;" d="M131 17L132 18L131 17z"/>
<path style="fill:#56283d; stroke:none;" d="M132 17L134 19L132 17z"/>
<path style="fill:#8d4163; stroke:none;" d="M133 17L134 18L133 17M75 18L76 19L75 18z"/>
<path style="fill:#56283d; stroke:none;" d="M77 18L78 19L77 18z"/>
<path style="fill:#8d4163; stroke:none;" d="M90 18L91 19L90 18M120 18L121 19L120 18z"/>
<path style="fill:#56283d; stroke:none;" d="M74 19L75 20L74 19M85 19L86 20L85 19M125 19L126 20L125 19z"/>
<path style="fill:#8d4163; stroke:none;" d="M135 19L136 20L135 19M72 20L73 21L72 20z"/>
<path style="fill:#56283d; stroke:none;" d="M82 20L80 21L80 22L82 20z"/>
<path style="fill:#8d4163; stroke:none;" d="M83 20L83 21L86 21L83 20M126.667 20.3333L127.333 20.6667L126.667 20.3333z"/>
<path style="fill:#56283d; stroke:none;" d="M128 20L129 21L128 20z"/>
<path style="fill:#8d4163; stroke:none;" d="M138 20L139 21L138 20M69 21L68 23L69 21z"/>
<path style="fill:#56283d; stroke:none;" d="M70.6667 21.3333L71.3333 21.6667L70.6667 21.3333z"/>
<path style="fill:#8d4163; stroke:none;" d="M82 21L83 22L82 21z"/>
<path style="fill:#56283d; stroke:none;" d="M129 21L129 22L132 22L129 21z"/>
<path style="fill:#8d4163; stroke:none;" d="M139 21L140 22L139 21z"/>
<path style="fill:#56283d; stroke:none;" d="M69 22L70 23L69 22M77 22L78 23L77 22z"/>
<path style="fill:#8d4163; stroke:none;" d="M79 22L80 23L79 22M91 23L91 24L98 24L91 23M113 22L113 23L118 23L113 22z"/>
<path style="fill:#56283d; stroke:none;" d="M132 22L133 23L132 22M140 22L141 23L140 22z"/>
<path style="fill:#8d4163; stroke:none;" d="M141.667 22.3333L142.333 22.6667L141.667 22.3333M67 23L68 24L67 23M76 23L77 24L76 23z"/>
<path style="fill:#1e1e1e; stroke:none;" d="M103 62C99.0254 60.5558 95.1838 57.9908 91 57.2647C81.8047 55.6688 74.5373 66.4267 86.0008 69.4676C91.153 70.8343 97.9203 66.7801 102 64L103 74L79 74L79 86C86.6432 88.7771 84.9988 98.1482 91.2639 101.972C95.6341 104.64 116.492 104.902 120.312 101.397C123.868 98.1329 125.906 90.5925 127 86L132 86L132 74L108 74L108 65C117.846 68.5775 123.501 72.5084 132 64L132 63C124.391 53.9591 117.214 57.4337 108 62C108.955 49.3371 128.988 49.3446 128.891 34.9606C128.785 19.2004 113.332 26.2338 105.514 26.5887C98.0494 26.9276 88.5186 18.1945 83.6034 30.1705C76.1703 48.2813 101.978 48.4911 103 62z"/>
<path style="fill:#56283d; stroke:none;" d="M112 23L113 24L112 23M117 23L118 24L117 23z"/>
<path style="fill:#8d4163; stroke:none;" d="M143 23L144 24L143 23z"/>
<path style="fill:#56283d; stroke:none;" d="M66 24L67 25L66 24z"/>
<path style="fill:#8d4163; stroke:none;" d="M73 24L74 25L73 24M88 24L89 25L88 24M100 24L101 25L100 24z"/>
<path style="fill:#56283d; stroke:none;" d="M109 24L110 25L109 24z"/>
<path style="fill:#8d4163; stroke:none;" d="M122 24L123 25L122 24z"/>
<path style="fill:#56283d; stroke:none;" d="M136 24L137 25L136 24M144 24L145 25L144 24M65 25L66 26L65 25M71 25L72 26L71 25z"/>
<path style="fill:#8d4163; stroke:none;" d="M72 25L73 26L72 25z"/>
<path style="fill:#56283d; stroke:none;" d="M87 25L88 26L87 25z"/>
<path style="fill:#8d4163; stroke:none;" d="M103 25L105 27L103 25z"/>
<path style="fill:#56283d; stroke:none;" d="M108 25L109 26L108 25M123 25L124 26L123 25z"/>
<path style="fill:#8d4163; stroke:none;" d="M137.667 25.3333L138.333 25.6667L137.667 25.3333z"/>
<path style="fill:#56283d; stroke:none;" d="M139 25L140 26L139 25z"/>
<path style="fill:#8d4163; stroke:none;" d="M146 25L147 26L146 25M63 26L64 27L63 26z"/>
<path style="fill:#56283d; stroke:none;" d="M64 26L65 27L64 26M70 26L71 27L70 26M86 26L87 27L86 26M103 26L104 27L103 26z"/>
<path style="fill:#8d4163; stroke:none;" d="M106 26L107 27L106 26z"/>
<path style="fill:#56283d; stroke:none;" d="M107 26L108 27L107 26M124 26L125 27L124 26z"/>
<path style="fill:#8d4163; stroke:none;" d="M125 26L126 27L125 26z"/>
<path style="fill:#56283d; stroke:none;" d="M140 26L141 27L140 26z"/>
<path style="fill:#8d4163; stroke:none;" d="M147 26L148 27L147 26M62 27L63 28L62 27z"/>
<path style="fill:#56283d; stroke:none;" d="M69 27L70 28L69 27M85 27L86 28L85 27z"/>
<path style="fill:#8d4163; stroke:none;" d="M105 27L106 28L105 27M126 27L127 28L126 27M141 27L142 28L141 27M148 27L149 28L148 27z"/>
<path style="fill:#56283d; stroke:none;" d="M61 28L62 29L61 28z"/>
<path style="fill:#8d4163; stroke:none;" d="M68 28L69 29L68 28M83 28L84 29L83 28z"/>
<path style="fill:#b0517c; stroke:none;" d="M89 28C86.4835 41.5553 93.5218 47.7442 106 52C111.647 47.017 128.643 42.7842 121.82 31.1481C118.932 26.2215 109.695 27.2496 109 33L89 28z"/>
<path style="fill:#8d4163; stroke:none;" d="M99 28L100 29L99 28M111 28L112 29L111 28M120 28L121 29L120 28M127.333 28.6667L127.667 29.3333L127.333 28.6667z"/>
<path style="fill:#56283d; stroke:none;" d="M149 28L150 29L149 28M60 29L61 30L60 29M66 29L67 30L66 29M82 29L82 42L83 42L82 29M101 29L103 32L101 29z"/>
<path style="fill:#8d4163; stroke:none;" d="M121 29L122 30L121 29z"/>
<path style="fill:#56283d; stroke:none;" d="M144 29L145 30L144 29z"/>
<path style="fill:#8d4163; stroke:none;" d="M151 29L152 30L151 29M58 30L59 31L58 30z"/>
<path style="fill:#56283d; stroke:none;" d="M65 30L66 31L65 30M87 30L88 31L87 30z"/>
<path style="fill:#8d4163; stroke:none;" d="M88 30L89 31L88 30z"/>
<path style="fill:#56283d; stroke:none;" d="M108 30L109 31L108 30z"/>
<path style="fill:#8d4163; stroke:none;" d="M109 30L110 31L109 30z"/>
<path style="fill:#56283d; stroke:none;" d="M122 30L123 31L122 30M128 30L129 31L128 30M145 30L146 31L145 30z"/>
<path style="fill:#8d4163; stroke:none;" d="M152 30L153 31L152 30M57 31L58 32L57 31z"/>
<path style="fill:#56283d; stroke:none;" d="M64 31L65 32L64 31z"/>
<path style="fill:#8d4163; stroke:none;" d="M87 31L88 41L89 41L87 31M101 31L102 32L101 31M122 31L123 32L122 31M146 31L147 32L146 31M56.3333 32.6667L56.6667 33.3333L56.3333 32.6667M63 32L64 33L63 32z"/>
<path style="fill:#56283d; stroke:none;" d="M103 32L104 33L103 32z"/>
<path style="fill:#8d4163; stroke:none;" d="M108 32L109 33L108 32M123 32L123 38L124 38L123 32M147 32L148 33L147 32M153 32L154 33L153 32z"/>
<path style="fill:#56283d; stroke:none;" d="M61 33L62 34L61 33M149 33L151 36L149 33z"/>
<path style="fill:#8d4163; stroke:none;" d="M154 33L155 34L154 33z"/>
<path style="fill:#56283d; stroke:none;" d="M55 34L56 35L55 34M60 34L61 35L60 34M155 34L156 35L155 34z"/>
<path style="fill:#8d4163; stroke:none;" d="M53 35L54 36L53 35z"/>
<path style="fill:#56283d; stroke:none;" d="M54 35L55 36L54 35z"/>
<path style="fill:#8d4163; stroke:none;" d="M60.3333 35.6667L60.6667 36.3333L60.3333 35.6667M149 35L150 36L149 35z"/>
<path style="fill:#56283d; stroke:none;" d="M53.3333 36.6667L53.6667 37.3333L53.3333 36.6667M59 36L60 37L59 36M151 36L152 37L151 36M156 36L157 37L156 36M58 37L59 38L58 37z"/>
<path style="fill:#8d4163; stroke:none;" d="M152 37L153 38L152 37z"/>
<path style="fill:#56283d; stroke:none;" d="M157.333 37.6667L157.667 38.3333L157.333 37.6667z"/>
<path style="fill:#8d4163; stroke:none;" d="M57 38L58 39L57 38z"/>
<path style="fill:#56283d; stroke:none;" d="M122 38L122 41L123 41L122 38M152 38L153 39L152 38M127 39L128 40L127 39z"/>
<path style="fill:#8d4163; stroke:none;" d="M128 39L129 40L128 39M153 39L154 40L153 39z"/>
<path style="fill:#56283d; stroke:none;" d="M158 39L159 40L158 39z"/>
<path style="fill:#8d4163; stroke:none;" d="M50 40L51 41L50 40z"/>
<path style="fill:#56283d; stroke:none;" d="M51 40L52 41L51 40z"/>
<path style="fill:#8d4163; stroke:none;" d="M56 40L57 41L56 40z"/>
<path style="fill:#56283d; stroke:none;" d="M87 40L88 41L87 40z"/>
<path style="fill:#8d4163; stroke:none;" d="M127 40L127 43L128 43L127 40z"/>
<path style="fill:#56283d; stroke:none;" d="M159 40L160 41L159 40z"/>
<path style="fill:#8d4163; stroke:none;" d="M160 40L161 41L160 40z"/>
<path style="fill:#56283d; stroke:none;" d="M50.3333 41.6667L50.6667 42.3333L50.3333 41.6667z"/>
<path style="fill:#8d4163; stroke:none;" d="M55.3333 41.6667L55.6667 42.3333L55.3333 41.6667M121 41L122 42L121 41z"/>
<path style="fill:#56283d; stroke:none;" d="M154 41L155 42L154 41z"/>
<path style="fill:#8d4163; stroke:none;" d="M83.3333 42.6667L83.6667 43.3333L83.3333 42.6667M89 42L90 43L89 42M120.333 42.6667L120.667 43.3333L120.333 42.6667M155.333 42.6667L155.667 43.3333L155.333 42.6667z"/>
<path style="fill:#56283d; stroke:none;" d="M160.333 42.6667L160.667 43.3333L160.333 42.6667z"/>
<path style="fill:#8d4163; stroke:none;" d="M48 43L47 46L48 43M54 43L55 44L54 43M90 43L91 44L90 43z"/>
<path style="fill:#56283d; stroke:none;" d="M53 44L54 45L53 44z"/>
<path style="fill:#8d4163; stroke:none;" d="M84 44L85 45L84 44z"/>
<path style="fill:#56283d; stroke:none;" d="M91 44L92 45L91 44M119 44L120 45L119 44M124 44L125 45L124 44z"/>
<path style="fill:#8d4163; stroke:none;" d="M125 44L126 45L125 44M156 44L157 45L156 44z"/>
<path style="fill:#56283d; stroke:none;" d="M161 44L163 46L161 44z"/>
<path style="fill:#8d4163; stroke:none;" d="M162 44L163 45L162 44z"/>
<path style="fill:#56283d; stroke:none;" d="M48 45L49 46L48 45z"/>
<path style="fill:#8d4163; stroke:none;" d="M85 45L86 46L85 45z"/>
<path style="fill:#56283d; stroke:none;" d="M86 45L87 46L86 45M92 45L93 46L92 45z"/>
<path style="fill:#8d4163; stroke:none;" d="M93 45L94 46L93 45z"/>
<path style="fill:#56283d; stroke:none;" d="M118 45L119 46L118 45M157 45L157 48L158 48L157 45M53 46L54 47L53 46M87 46L88 47L87 46z"/>
<path style="fill:#8d4163; stroke:none;" d="M94 46L95 47L94 46M115 46L116 47L115 46z"/>
<path style="fill:#56283d; stroke:none;" d="M117 46L118 47L117 46M123 46L124 47L123 46z"/>
<path style="fill:#8d4163; stroke:none;" d="M124 46L125 47L124 46M162.333 46.6667L162.667 47.3333L162.333 46.6667z"/>
<path style="fill:#56283d; stroke:none;" d="M47 47L47 50L48 50L47 47z"/>
<path style="fill:#8d4163; stroke:none;" d="M52 47L52 51L53 51L52 47M88 47L88 50L89 50L88 47M95 47L96 48L95 47z"/>
<path style="fill:#56283d; stroke:none;" d="M114 47L115 48L114 47M122 47L123 48L122 47z"/>
<path style="fill:#8d4163; stroke:none;" d="M98 48L99 49L98 48M112 48L113 49L112 48M121 48L122 49L121 48M158 48L159 49L158 48z"/>
<path style="fill:#56283d; stroke:none;" d="M163 48L164 49L163 48M89 49L89 50L92 50L89 49M99 49L100 50L99 49z"/>
<path style="fill:#8d4163; stroke:none;" d="M109 49L110 50L109 49z"/>
<path style="fill:#56283d; stroke:none;" d="M110.667 49.3333L111.333 49.6667L110.667 49.3333M119 49L120 50L119 49z"/>
<path style="fill:#8d4163; stroke:none;" d="M120 49L121 50L120 49M46 50L47 51L46 50z"/>
<path style="fill:#56283d; stroke:none;" d="M51 50L52 51L51 50M92 50L93 51L92 50M100 50L101 51L100 50z"/>
<path style="fill:#8d4163; stroke:none;" d="M101.667 50.3333L102.333 50.6667L101.667 50.3333M106 50L106 51L109 51L106 50z"/>
<path style="fill:#56283d; stroke:none;" d="M117.667 50.3333L118.333 50.6667L117.667 50.3333z"/>
<path style="fill:#8d4163; stroke:none;" d="M158 50L158 54L159 54L158 50z"/>
<path style="fill:#56283d; stroke:none;" d="M45 51L46 52L45 51M50 51L50 71L51 71L50 51z"/>
<path style="fill:#8d4163; stroke:none;" d="M93 51L94 52L93 51z"/>
<path style="fill:#56283d; stroke:none;" d="M103 51L104 52L103 51z"/>
<path style="fill:#8d4163; stroke:none;" d="M45 52L44 70L45 70L45 52M96 52L97 53L96 52z"/>
<path style="fill:#56283d; stroke:none;" d="M114 52L115 53L114 52z"/>
<path style="fill:#8d4163; stroke:none;" d="M97 53L98 54L97 53z"/>
<path style="fill:#56283d; stroke:none;" d="M111 53L112 54L111 53z"/>
<path style="fill:#8d4163; stroke:none;" d="M112.667 53.3333L113.333 53.6667L112.667 53.3333M165 53L166 54L165 53M98 54L99 55L98 54z"/>
<path style="fill:#56283d; stroke:none;" d="M99.6667 54.3333L100.333 54.6667L99.6667 54.3333M110 54L111 55L110 54z"/>
<path style="fill:#8d4163; stroke:none;" d="M159 54L160 55L159 54z"/>
<path style="fill:#56283d; stroke:none;" d="M165 54L164 78L165 78C166.86 71.7064 167.563 60.1075 165 54z"/>
<path style="fill:#8d4163; stroke:none;" d="M101 55L102 56L101 55M109 55L110 56L109 55M160 55L161 56L160 55M108 56L109 62L110 62L108 56z"/>
<path style="fill:#56283d; stroke:none;" d="M160 56L160 76L161 76L160 56M93 57L94 58L93 57z"/>
<path style="fill:#8d4163; stroke:none;" d="M127 57L128 58L127 57M82 58L83 59L82 58z"/>
<path style="fill:#56283d; stroke:none;" d="M94 58L94 59L97 59L94 58z"/>
<path style="fill:#8d4163; stroke:none;" d="M114 58L115 59L114 58M128 58L129 59L128 58M81 59L82 60L81 59z"/>
<path style="fill:#56283d; stroke:none;" d="M97 59L98 60L97 59z"/>
<path style="fill:#8d4163; stroke:none;" d="M111 59L112 60L111 59z"/>
<path style="fill:#56283d; stroke:none;" d="M112.667 59.3333L113.333 59.6667L112.667 59.3333M129 59L130 62L131 62L129 59z"/>
<path style="fill:#8d4163; stroke:none;" d="M130 59L131 60L130 59z"/>
<path style="fill:#56283d; stroke:none;" d="M80 60L81 61L80 60M98 60L99 61L98 60z"/>
<path style="fill:#8d4163; stroke:none;" d="M100 60L101 61L100 60M110 60L111 61L110 60M84 61L85 65L86 65L84 61z"/>
<path style="fill:#b0517c; stroke:none;" d="M85 61C86.2249 66.6271 90.8598 66.208 94 62L85 61z"/>
<path style="fill:#8d4163; stroke:none;" d="M91 61L92 62L91 61z"/>
<path style="fill:#56283d; stroke:none;" d="M101 61L102 62L101 61z"/>
<path style="fill:#b0517c; stroke:none;" d="M108 61L109 62L108 61z"/>
<path style="fill:#56283d; stroke:none;" d="M117 61L118 62L117 61z"/>
<path style="fill:#b0517c; stroke:none;" d="M116 64L127 64C123.479 60.4046 119.521 60.4046 116 64z"/>
<path style="fill:#56283d; stroke:none;" d="M125 61L126 62L125 61z"/>
<path style="fill:#8d4163; stroke:none;" d="M92 62L93 63L92 62M94 62L95 63L94 62M116 62L117 63L116 62M126 62L127 63L126 62z"/>
<path style="fill:#56283d; stroke:none;" d="M131 62L132 63L131 62M94 63L95 64L94 63z"/>
<path style="fill:#8d4163; stroke:none;" d="M132 63L133 64L132 63z"/>
<path style="fill:#56283d; stroke:none;" d="M84 64L85 65L84 64z"/>
<path style="fill:#8d4163; stroke:none;" d="M90 64L90 65L93 65L90 64z"/>
<path style="fill:#56283d; stroke:none;" d="M101 64L102 65L101 64M116 64L117 65L116 64z"/>
<path style="fill:#8d4163; stroke:none;" d="M117.667 64.3333L118.333 64.6667L117.667 64.3333M124.667 64.3333L125.333 64.6667L124.667 64.3333z"/>
<path style="fill:#56283d; stroke:none;" d="M126 64L127 65L126 64M131 64L132 65L131 64M79 65L80 66L79 65M90 65L91 66L90 65z"/>
<path style="fill:#b0517c; stroke:none;" d="M108 65L109 66L108 65z"/>
<path style="fill:#8d4163; stroke:none;" d="M109 65L110 66L109 65z"/>
<path style="fill:#56283d; stroke:none;" d="M119 65L120 66L119 65z"/>
<path style="fill:#8d4163; stroke:none;" d="M121 65L122 66L121 65M123 65L124 66L123 65M130 65L131 66L130 65M80 66L81 67L80 66z"/>
<path style="fill:#56283d; stroke:none;" d="M98 66L99 67L98 66z"/>
<path style="fill:#8d4163; stroke:none;" d="M108 66L108 72L109 72L108 66z"/>
<path style="fill:#56283d; stroke:none;" d="M112 66L113 67L112 66z"/>
<path style="fill:#8d4163; stroke:none;" d="M81 67L82 68L81 67z"/>
<path style="fill:#56283d; stroke:none;" d="M95 67L96 68L95 67z"/>
<path style="fill:#8d4163; stroke:none;" d="M96.6667 67.3333L97.3333 67.6667L96.6667 67.3333M113 67L114 68L113 67M82 68L83 69L82 68z"/>
<path style="fill:#56283d; stroke:none;" d="M83 68L84 69L83 68M92 68L92 69L95 69L92 68z"/>
<path style="fill:#8d4163; stroke:none;" d="M114 68L115 69L114 68z"/>
<path style="fill:#56283d; stroke:none;" d="M115.667 68.3333L116.333 68.6667L115.667 68.3333M126.667 68.3333L127.333 68.6667L126.667 68.3333z"/>
<path style="fill:#8d4163; stroke:none;" d="M128 68L129 69L128 68z"/>
<path style="fill:#56283d; stroke:none;" d="M45 69L46 70L45 69M84 69L85 70L84 69M91 69L92 70L91 69z"/>
<path style="fill:#8d4163; stroke:none;" d="M117 69L118 70L117 69M125 69L126 70L125 69M49 71L50 72L49 71M42 72L43 73L42 72z"/>
<path style="fill:#56283d; stroke:none;" d="M42.3333 73.6667L42.6667 74.3333L42.3333 73.6667M48 73L49 74L48 73z"/>
<path style="fill:#8d4163; stroke:none;" d="M79 73L80 74L79 73z"/>
<path style="fill:#56283d; stroke:none;" d="M80 73L80 74L103 74L80 73M108 73L108 74L131 74L108 73z"/>
<path style="fill:#8d4163; stroke:none;" d="M131 73L132 74L131 73M47 74L48 75L47 74M132 74L132 86L133 86L132 74M40 75L41 76L40 75z"/>
<path style="fill:#56283d; stroke:none;" d="M39.3333 76.6667L39.6667 77.3333L39.3333 76.6667z"/>
<path style="fill:#8d4163; stroke:none;" d="M160 76L161 77L160 76z"/>
<path style="fill:#56283d; stroke:none;" d="M44 77L45 78L44 77z"/>
<path style="fill:#8d4163; stroke:none;" d="M45 77L46 78L45 77z"/>
<path style="fill:#56283d; stroke:none;" d="M84 77L84 78L127 78C115.774 73.2895 96.2189 77 84 77M159 77L160 78L159 77z"/>
<path style="fill:#8d4163; stroke:none;" d="M165 77L166 78L165 77M38 78L39 79L38 78M44.3333 78.6667L44.6667 79.3333L44.3333 78.6667z"/>
<path style="fill:#b0517c; stroke:none;" d="M84 78L85 82L127 82L127 78L84 78z"/>
<path style="fill:#8d4163; stroke:none;" d="M158 78L158 81L159 81L158 78z"/>
<path style="fill:#56283d; stroke:none;" d="M37 79L38 80L37 79z"/>
<path style="fill:#8d4163; stroke:none;" d="M84 79L84 82L85 82L84 79M37 80L38 81L37 80z"/>
<path style="fill:#56283d; stroke:none;" d="M42 80L41 83L42 80M36 81L37 82L36 81z"/>
<path style="fill:#8d4163; stroke:none;" d="M42 82L43 83L42 82z"/>
<path style="fill:#56283d; stroke:none;" d="M84 82L84 83L127 83C115.774 78.2895 96.2188 82 84 82z"/>
<path style="fill:#8d4163; stroke:none;" d="M157 82L158 83L157 82z"/>
<path style="fill:#56283d; stroke:none;" d="M158 82L159 83L158 82z"/>
<path style="fill:#8d4163; stroke:none;" d="M163 82L164 83L163 82M35 83L36 84L35 83z"/>
<path style="fill:#56283d; stroke:none;" d="M157 83L157 86L158 86L157 83z"/>
<path style="fill:#8d4163; stroke:none;" d="M162.333 83.6667L162.667 84.3333L162.333 83.6667z"/>
<path style="fill:#56283d; stroke:none;" d="M34 84L35 85L34 84z"/>
<path style="fill:#8d4163; stroke:none;" d="M41 84L42 85L41 84M32 85L31 88L32 85z"/>
<path style="fill:#56283d; stroke:none;" d="M39 85L40 86L39 85M162 85L163 86L162 85z"/>
<path style="fill:#8d4163; stroke:none;" d="M38 86L39 87L38 86M79 86L79 87L82 87L79 86z"/>
<path style="fill:#56283d; stroke:none;" d="M89 86L90 87L89 86z"/>
<path style="fill:#8d4163; stroke:none;" d="M90 86L90 87L122 87L90 86z"/>
<path style="fill:#56283d; stroke:none;" d="M127 86L128 87L127 86z"/>
<path style="fill:#8d4163; stroke:none;" d="M128 86L128 87L132 87L128 86M155 86L155 90L156 90L155 86z"/>
<path style="fill:#56283d; stroke:none;" d="M156 86L157 87L156 86z"/>
<path style="fill:#8d4163; stroke:none;" d="M161 86L162 87L161 86z"/>
<path style="fill:#56283d; stroke:none;" d="M32 87L33 88L32 87z"/>
<path style="fill:#8d4163; stroke:none;" d="M82 87L83 88L82 87z"/>
<path style="fill:#56283d; stroke:none;" d="M83 87L84 88L83 87z"/>
<path style="fill:#b0517c; stroke:none;" d="M89 87L93 94C93.3774 102.19 110.918 99 117 99L122 87L89 87z"/>
<path style="fill:#56283d; stroke:none;" d="M122 87L123 88L122 87z"/>
<path style="fill:#8d4163; stroke:none;" d="M127.333 87.6667L127.667 88.3333L127.333 87.6667z"/>
<path style="fill:#56283d; stroke:none;" d="M160 87L160 90L161 90L160 87M37 88L38 89L37 88z"/>
<path style="fill:#8d4163; stroke:none;" d="M121 88L122 89L121 88z"/>
<path style="fill:#56283d; stroke:none;" d="M31 89L32 90L31 89z"/>
<path style="fill:#8d4163; stroke:none;" d="M36.3333 89.6667L36.6667 90.3333L36.3333 89.6667M83.3333 89.6667L83.6667 90.3333L83.3333 89.6667M120 89L119 93L120 93L120 89z"/>
<path style="fill:#56283d; stroke:none;" d="M125 89L125 92L126 92L125 89z"/>
<path style="fill:#8d4163; stroke:none;" d="M29 90L28 93L29 90M90 90L91 91L90 90z"/>
<path style="fill:#56283d; stroke:none;" d="M154 90L155 91L154 90z"/>
<path style="fill:#8d4163; stroke:none;" d="M159 90L159 93L160 93L159 90M37 91L38 92L37 91M84 91L85 92L84 91z"/>
<path style="fill:#56283d; stroke:none;" d="M85.3333 91.6667L85.6667 92.3333L85.3333 91.6667M90 91L90 94L91 94L90 91M29 92L30 93L29 92M38 92L39 93L38 92z"/>
<path style="fill:#8d4163; stroke:none;" d="M39 92L39 93L43 93L39 92z"/>
<path style="fill:#56283d; stroke:none;" d="M120 92L121 93L120 92z"/>
<path style="fill:#8d4163; stroke:none;" d="M125 92L126 93L125 92z"/>
<path style="fill:#56283d; stroke:none;" d="M153 92L154 93L153 92M158 92L159 93L158 92M42 93L43 94L42 93z"/>
<path style="fill:#8d4163; stroke:none;" d="M45 93L45 94L49 94L45 93M85 93L86 94L85 93z"/>
<path style="fill:#56283d; stroke:none;" d="M152 93L153 94L152 93M157.333 93.6667L157.667 94.3333L157.333 93.6667M31 94L32 95L31 94z"/>
<path style="fill:#8d4163; stroke:none;" d="M92.3333 94.6667L92.6667 95.3333L92.3333 94.6667M124.333 94.6667L124.667 95.3333L124.333 94.6667M152 94L153 95L152 94M31 95L31 96L36 96L31 95M52 95L53 121L54 121L52 95M117 95L118 96L117 95z"/>
<path style="fill:#56283d; stroke:none;" d="M151 95L152 96L151 95z"/>
<path style="fill:#8d4163; stroke:none;" d="M156 95L157 96L156 95M36 96L37 97L36 96z"/>
<path style="fill:#56283d; stroke:none;" d="M37 96L37 97L41 97L37 96M117 96L117 99L118 99L117 96z"/>
<path style="fill:#8d4163; stroke:none;" d="M123 96L124 97L123 96z"/>
<path style="fill:#56283d; stroke:none;" d="M41 97L42 98L41 97M87 97L88 98L87 97M92 97L93 98L92 97z"/>
<path style="fill:#8d4163; stroke:none;" d="M122 97L123 98L122 97z"/>
<path style="fill:#56283d; stroke:none;" d="M150 97L151 98L150 97M155 97L156 98L155 97M47 98L47 123L48 123L47 98z"/>
<path style="fill:#8d4163; stroke:none;" d="M88 98L88 102L89 102L88 98z"/>
<path style="fill:#56283d; stroke:none;" d="M93 98L94 99L93 98M122.333 98.6667L122.667 99.3333L122.333 98.6667M149 98L150 99L149 98z"/>
<path style="fill:#8d4163; stroke:none;" d="M154 98L155 99L154 98M147 99L148 100L147 99z"/>
<path style="fill:#56283d; stroke:none;" d="M154 99L155 100L154 99z"/>
<path style="fill:#8d4163; stroke:none;" d="M121 100L122 101L121 100M146 100L147 101L146 100M153 100L154 101L153 100z"/>
<path style="fill:#56283d; stroke:none;" d="M89 101L90 102L89 101z"/>
<path style="fill:#8d4163; stroke:none;" d="M144 101L145 102L144 101z"/>
<path style="fill:#56283d; stroke:none;" d="M145 101L146 102L145 101M151 101L152 102L151 101z"/>
<path style="fill:#8d4163; stroke:none;" d="M152 101L153 102L152 101z"/>
<path style="fill:#56283d; stroke:none;" d="M90 102L91 103L90 102M120 102L121 103L120 102M144.333 102.667L144.667 103.333L144.333 102.667z"/>
<path style="fill:#8d4163; stroke:none;" d="M151.333 102.667L151.667 103.333L151.333 102.667z"/>
<path style="fill:#56283d; stroke:none;" d="M143 104L144 105L143 104M149 104L150 105L149 104z"/>
<path style="fill:#8d4163; stroke:none;" d="M141 105L142 106L141 105z"/>
<path style="fill:#56283d; stroke:none;" d="M142 105L143 106L142 105M148 105L149 106L148 105z"/>
<path style="fill:#8d4163; stroke:none;" d="M140 106L141 107L140 106z"/>
<path style="fill:#56283d; stroke:none;" d="M147 106L148 107L147 106z"/>
<path style="fill:#8d4163; stroke:none;" d="M137 107L138 108L137 107M139 107L140 108L139 107M146 107L147 108L146 107M136 108L137 109L136 108z"/>
<path style="fill:#56283d; stroke:none;" d="M135 109L136 110L135 109M143 109L144 110L143 109z"/>
<path style="fill:#8d4163; stroke:none;" d="M133 110L134 111L133 110z"/>
<path style="fill:#56283d; stroke:none;" d="M134 110L135 111L134 110M142 110L143 111L142 110z"/>
<path style="fill:#8d4163; stroke:none;" d="M132 111L133 112L132 111M141 111L142 112L141 111M131 112L131 141L132 141L131 112M137 113L138 114L137 113z"/>
<path style="fill:#56283d; stroke:none;" d="M136 114L137 115L136 114M52 120L53 121L52 120M54 120L54 121L79 121L54 120z"/>
<path style="fill:#8d4163; stroke:none;" d="M79 120L79 141L80 141L79 120M47 124L48 125L47 124z"/>
<path style="fill:#56283d; stroke:none;" d="M48 124L48 125L74 125L48 124M74 125L74 141L75 141L74 125z"/>
<path style="fill:#ffffff; stroke:none;" d="M45 152C45 158.975 42.7951 170.106 53 168L53 176L58 176L58 152L53 152C53 157.122 53.8776 162.203 50 166L50 152L45 152M59 152L64 173L60 173L60 176C74.0941 175.95 71.0102 162.718 73 152L67 152L67 168L66 168L65 152L59 152M75 152L75 176C81.6314 176 96.1557 170.232 85 163C93.1862 154.321 81.9527 152.001 75 152M105 166L100 166L100 172L97 172L97 156L100 156L100 162L105 162C104.857 149.861 92.1739 149.762 92.0039 162C91.9543 165.564 91.2447 170.637 93.7423 173.566C99.7572 180.621 104.867 171.511 105 166M107 152L107 157L112 157L112 176L117 176L117 157L121 157L121 152L107 152M123 152L123 176C129.631 176 144.156 170.232 133 163C141.186 154.321 129.953 152.001 123 152M141 152L138 176L143 176L143 172L148 172L148 176L153 176L150 152L141 152z"/>
<path style="fill:#1e1e1e; stroke:none;" d="M80 156L80 161L83 161L83 156L80 156M128 156L128 161L131 161L131 156L128 156M145 156L144 168L147 168L145 156M80 165L80 172L83 172L83 165L80 165M128 165L128 172L131 172L131 165L128 165z"/>
<path style="fill:#56283d; stroke:none;" d="M0 186L1 187L0 186M199 186L200 187L199 186z"/>
<path style="fill:#ffffff; stroke:none;" d="M0 187L0 200L13 200L13 199C6.07608 197.603 3.28711 192.69 0 187M199 187C197.736 193.265 193.265 197.736 187 199L187 200L200 200L199 187z"/>
<path style="fill:#56283d; stroke:none;" d="M1 190L2 191L1 190M198 190L199 191L198 190M2 192L3 193L2 192M197 192L198 193L197 192M7 197L8 198L7 197M192 197L193 198L192 197M9 198L10 199L9 198M190 198L191 199L190 198M13 199L14 200L13 199M186 199L187 200L186 199z"/>
</svg>
