<?xml version="1.0" standalone="yes"?>
<svg xmlns="http://www.w3.org/2000/svg" width="200" height="200">
<path style="fill:#ffffff; stroke:none;" d="M0 0L0 13L1 13C2.26403 6.73515 6.73516 2.26402 13 1L0 0z"/>
<path style="fill:#46321d; stroke:none;" d="M13 0L14 1L13 0z"/>
<path style="fill:#151515; stroke:none;" d="M14 0.46759C-4.68246 3.99939 0 27.9168 0 42L0 151C0 162.884 -4.00477 183.924 3.65201 193.895C11.9763 204.735 36.9648 200 49 200L141 200C155.503 200 172.85 202.59 187 199.319C204.544 195.264 200 171.549 200 158L200 49C200 37.1621 203.964 16.0696 196.347 6.10493C188.058 -4.74042 163.01 0 151 0L60 0C45.289 0 28.4616 -2.26628 14 0.46759z"/>
<path style="fill:#46321d; stroke:none;" d="M186 0L187 1L186 0z"/>
<path style="fill:#ffffff; stroke:none;" d="M187 0L187 1C193.265 2.26404 197.736 6.73515 199 13L200 13L200 0L187 0z"/>
<path style="fill:#46321d; stroke:none;" d="M9 1L10 2L9 1M190 1L191 2L190 1M7 2L8 3L7 2M192 2L193 3L192 2M2 7L3 8L2 7M197 7L198 8L197 7M1 9L2 10L1 9M198 9L199 10L198 9z"/>
<path style="fill:#946637; stroke:none;" d="M8 10L8 11L190 11L172 10L136 10L8 10z"/>
<path style="fill:#f0a659; stroke:none;" d="M8 11L8 142L190 142L190 11L8 11z"/>
<path style="fill:#46321d; stroke:none;" d="M0 13L1 14L0 13M199.333 13.6667L199.667 14.3333L199.333 13.6667M27 31L27 32L57 31L112 31C105.322 28.1979 95.2156 30 88 30C69.4466 30 44.7635 25.7494 27 31z"/>
<path style="fill:#946637; stroke:none;" d="M24 33L27 32L24 33z"/>
<path style="fill:#151515; stroke:none;" d="M23 118L25 114C27.8285 95.2167 63.1866 98.7533 63 118L97 118C100.934 118 107.355 119.188 110.566 116.397C115.336 112.252 113 99.7053 113 94C113 72.9632 112 51.9781 112 31L47 31C37.9688 31 26.7552 29.0544 19.7724 36.044C13.6851 42.1371 15 49.0657 15 57L15 100C15 108.18 12.3477 117.416 23 118z"/>
<path style="fill:#946637; stroke:none;" d="M22 32L23 33L22 32M21 33L22 34L21 33z"/>
<path style="fill:#46321d; stroke:none;" d="M20.3333 34.6667L20.6667 35.3333L20.3333 34.6667z"/>
<path style="fill:#946637; stroke:none;" d="M19 36L20 37L19 36M18 37L19 38L18 37z"/>
<path style="fill:#46321d; stroke:none;" d="M17 38L18 39L17 38z"/>
<path style="fill:#946637; stroke:none;" d="M15 39L15 43L16 43L15 39z"/>
<path style="fill:#46321d; stroke:none;" d="M14 43L15 44L14 43M14 45L14 114L15 114L15 67L14 45z"/>
<path style="fill:#946637; stroke:none;" d="M127 45L124 46L124 47L128 46L127 45z"/>
<path style="fill:#46321d; stroke:none;" d="M128 45L128 46L134 46L128 45z"/>
<path style="fill:#946637; stroke:none;" d="M134 45L134 46L145 48L145 47L134 45z"/>
<path style="fill:#151515; stroke:none;" d="M133 118C134.58 94.4564 168.127 99.879 174 118C188.209 117.529 181.425 90.1232 179.157 81.0895C173.503 58.571 153.843 45.6863 131.004 46.0833C121.608 46.2466 123 55.1192 123 62L123 97C123 101.786 121.875 108.275 123.564 112.815C125.096 116.932 129.12 117.788 133 118z"/>
<path style="fill:#946637; stroke:none;" d="M112 47L113 48L112 47z"/>
<path style="fill:#46321d; stroke:none;" d="M124.333 47.6667L124.667 48.3333L124.333 47.6667M64 48L59 52L59 53C61.858 52.0758 64.7601 51.3937 64 48z"/>
<path style="fill:#f0a659; stroke:none;" d="M65 48L65 52C48.5817 52.752 48.457 68.6458 65 69L65 78L50 73C52.9338 82.1931 61.5509 84.337 70 87C73.1903 82.0216 81.7241 83.5276 83.5625 76.946C87.116 64.2239 67.8544 69.4097 71 56C75.1318 59.9997 78.4525 59.9994 84 60L84 59L83 57L70 52L70 48L65 48z"/>
<path style="fill:#946637; stroke:none;" d="M70 48L70 52L71 52L70 48M113 48L113 113L114 113L114 69L113 48z"/>
<path style="fill:#46321d; stroke:none;" d="M148 48L149 49L148 48z"/>
<path style="fill:#946637; stroke:none;" d="M122 49L122 114L123 114L123 70L122 49z"/>
<path style="fill:#46321d; stroke:none;" d="M150 49L151 50L150 49z"/>
<path style="fill:#946637; stroke:none;" d="M151 49L152 50L151 49z"/>
<path style="fill:#46321d; stroke:none;" d="M152 50L152 51L156 51L152 50z"/>
<path style="fill:#946637; stroke:none;" d="M64 51L65 52L64 51z"/>
<path style="fill:#46321d; stroke:none;" d="M71 51L71 52L75 52L71 51M156 51L157 52L156 51z"/>
<path style="fill:#946637; stroke:none;" d="M157 51L158 52L157 51M75 52L76 53L75 52M158 52L159 53L158 52z"/>
<path style="fill:#46321d; stroke:none;" d="M78 53L79 54L78 53M160 53L161 54L160 53z"/>
<path style="fill:#946637; stroke:none;" d="M54 54L55 55L54 54z"/>
<path style="fill:#46321d; stroke:none;" d="M81 54L83 57L81 54z"/>
<path style="fill:#946637; stroke:none;" d="M162 54L163 55L162 54z"/>
<path style="fill:#46321d; stroke:none;" d="M52 55L53 56L52 55z"/>
<path style="fill:#946637; stroke:none;" d="M53 55L54 56L53 55M163 55L164 56L163 55M52.3333 56.6667L52.6667 57.3333L52.3333 56.6667M61 63L62 63L65 57C61.5235 56.9164 61.2267 59.9987 61 63M71 56L72 57L71 56M81 56L82 57L81 56z"/>
<path style="fill:#46321d; stroke:none;" d="M137 57L137 58L145 57L137 57z"/>
<path style="fill:#946637; stroke:none;" d="M164 56L165 57L164 56z"/>
<path style="fill:#151515; stroke:none;" d="M63 57L63 64L64 64L63 57z"/>
<path style="fill:#46321d; stroke:none;" d="M64 57L64 64L65 64L64 57z"/>
<path style="fill:#946637; stroke:none;" d="M70 57L70 65L71 65L70 57M72 57L73 58L72 57z"/>
<path style="fill:#f0a659; stroke:none;" d="M134 58C134 63.6288 131.102 81.4037 135.603 85.2269C137.781 87.0766 142.368 86.0123 145 86.0008C152.888 85.9663 161.291 85.1646 169 87C174.083 66.031 150.492 55.9157 134 58z"/>
<path style="fill:#946637; stroke:none;" d="M145 57L146 58L145 57z"/>
<path style="fill:#46321d; stroke:none;" d="M165 57L166 58L165 57M50 58L50 63L51 63L50 58M73.3333 58.6667L73.6667 59.3333L73.3333 58.6667z"/>
<path style="fill:#946637; stroke:none;" d="M82 58L83 59L82 58M133 58L134 86L135 86L133 58M151 58L152 59L151 58z"/>
<path style="fill:#46321d; stroke:none;" d="M84.3333 59.6667L84.6667 60.3333L84.3333 59.6667z"/>
<path style="fill:#946637; stroke:none;" d="M152 59L153 60L152 59M154 59L155 60L154 59M168 59L169 60L168 59z"/>
<path style="fill:#46321d; stroke:none;" d="M74 60L75 61L74 60z"/>
<path style="fill:#946637; stroke:none;" d="M75 60L76 61L75 60z"/>
<path style="fill:#46321d; stroke:none;" d="M76 60L76 61L82 61L76 60z"/>
<path style="fill:#946637; stroke:none;" d="M82.6667 60.3333L83.3333 60.6667L82.6667 60.3333M155.667 60.3333L156.333 60.6667L155.667 60.3333z"/>
<path style="fill:#46321d; stroke:none;" d="M157 60L158 61L157 60z"/>
<path style="fill:#946637; stroke:none;" d="M169 60L170 61L169 60z"/>
<path style="fill:#46321d; stroke:none;" d="M158 61L159 62L158 61z"/>
<path style="fill:#946637; stroke:none;" d="M170.333 61.6667L170.667 62.3333L170.333 61.6667M159 62L160 63L159 62M52 63L54 66L52 63M160 63L161 64L160 63z"/>
<path style="fill:#46321d; stroke:none;" d="M171.333 63.6667L171.667 64.3333L171.333 63.6667z"/>
<path style="fill:#946637; stroke:none;" d="M63 64L64 65L63 64z"/>
<path style="fill:#46321d; stroke:none;" d="M162 64L163 65L162 64M52 65L53 66L52 65z"/>
<path style="fill:#946637; stroke:none;" d="M71 65L71 66L76 66L71 65z"/>
<path style="fill:#46321d; stroke:none;" d="M76 65L77 66L76 65z"/>
<path style="fill:#946637; stroke:none;" d="M162.333 65.6667L162.667 66.3333L162.333 65.6667M172 65L173 66L172 65M54 66L55 67L54 66z"/>
<path style="fill:#46321d; stroke:none;" d="M77 66L77 67L80 67L77 66M163 66L164 67L163 66z"/>
<path style="fill:#946637; stroke:none;" d="M173 66L174 67L173 66M55 67L56 68L55 67z"/>
<path style="fill:#46321d; stroke:none;" d="M174 67L174 70L175 70L174 67z"/>
<path style="fill:#946637; stroke:none;" d="M58 68L59 69L58 68M82 68L83 69L82 68z"/>
<path style="fill:#46321d; stroke:none;" d="M59 69L59 70L64 70L64 77C65.9964 72.1901 63.9952 69.3892 59 69z"/>
<path style="fill:#946637; stroke:none;" d="M64 69L65 70L64 69z"/>
<path style="fill:#46321d; stroke:none;" d="M165 69L166 70L165 69z"/>
<path style="fill:#946637; stroke:none;" d="M70 70C70 73.4655 68.9115 78.4862 73 79L73 78C69.269 78 71.2554 72.5722 72 70L70 70M83 70L84 77L85 77L83 70z"/>
<path style="fill:#46321d; stroke:none;" d="M84 70L85 71L84 70z"/>
<path style="fill:#946637; stroke:none;" d="M165.333 70.6667L165.667 71.3333L165.333 70.6667M175 70L176 71L175 70z"/>
<path style="fill:#151515; stroke:none;" d="M71 71L71 79L75 72L71 71z"/>
<path style="fill:#46321d; stroke:none;" d="M72 71L73 72L72 71z"/>
<path style="fill:#946637; stroke:none;" d="M73.6667 71.3333L74.3333 71.6667L73.6667 71.3333z"/>
<path style="fill:#46321d; stroke:none;" d="M166 71L167 72L166 71z"/>
<path style="fill:#946637; stroke:none;" d="M176 71L176 74L177 74L176 71M75 72L75 77L76 77L75 72M49 73L51 75L49 73M59 73L60 74L59 73z"/>
<path style="fill:#46321d; stroke:none;" d="M49 74L50 75L49 74z"/>
<path style="fill:#946637; stroke:none;" d="M177 74L178 75L177 74z"/>
<path style="fill:#46321d; stroke:none;" d="M177 75L177 78L178 78L177 75M50.3333 76.6667L50.6667 77.3333L50.3333 76.6667M60 76L61 77L60 76M74 76L75 77L74 76M167 76L168 77L167 76z"/>
<path style="fill:#946637; stroke:none;" d="M61 77L62 78L61 77M64 77L65 78L64 77z"/>
<path style="fill:#46321d; stroke:none;" d="M73 77L74 78L73 77M84 77L85 78L84 77z"/>
<path style="fill:#946637; stroke:none;" d="M168 77L168 82L169 82L168 77M52 78L54 81L52 78M179 78L179 83L180 83L179 78z"/>
<path style="fill:#46321d; stroke:none;" d="M52 80L53 81L52 80M82 80L83 81L82 80z"/>
<path style="fill:#946637; stroke:none;" d="M54 81L54 82L57 82L54 81M79.6667 81.3333L80.3333 81.6667L79.6667 81.3333z"/>
<path style="fill:#46321d; stroke:none;" d="M81 81L82 82L81 81M169 81L170 82L169 81M78 82L79 83L78 82M170 82L170 86L171 86L170 82M59 83L60 84L59 83M75 83L76 84L75 83M180 83L180 90L181 90L180 83M60 84L60 85L64 87L60 84z"/>
<path style="fill:#946637; stroke:none;" d="M64 84L65 85L64 84M70 84L70 87L71 87L70 84z"/>
<path style="fill:#46321d; stroke:none;" d="M71 84L71 85L75 85L71 84M133 85L134 86L133 85z"/>
<path style="fill:#946637; stroke:none;" d="M65 86L65 87L69 87L65 86M135 86L136 87L135 86M137 86L137 87L168 87L137 86M169 86L170 87L169 86M181 90L182 91L181 90M182 91L182 116L183 116L182 91z"/>
<path style="fill:#46321d; stroke:none;" d="M38 101L39 102L38 101M47 101L48 102L47 101M150 101L151 102L150 101M49 102L50 103L49 102M148 102L149 103L148 102M156 102L157 103L156 102z"/>
<path style="fill:#946637; stroke:none;" d="M34 103L35 104L34 103M53 103L54 104L53 103M144 103L145 104L144 103z"/>
<path style="fill:#46321d; stroke:none;" d="M162 103L163 104L162 103z"/>
<path style="fill:#946637; stroke:none;" d="M31 104L31 105L34 105L31 104M54 104L54 105L57 105L54 104M141 104L141 105L144 105L141 104M163 104L164 105L163 104M30 105L31 106L30 105M57 105L58 106L57 105M140 105L141 106L140 105M164 105L165 106L164 105z"/>
<path style="fill:#46321d; stroke:none;" d="M165.667 105.333L166.333 105.667L165.667 105.333z"/>
<path style="fill:#946637; stroke:none;" d="M29 106L30 107L29 106M58 106L59 107L58 106M139 106L140 107L139 106z"/>
<path style="fill:#46321d; stroke:none;" d="M167 106L168 107L167 106M27 107L28 108L27 107z"/>
<path style="fill:#946637; stroke:none;" d="M168 107L169 108L168 107M26 108L26 111L27 111L26 108z"/>
<path style="fill:#46321d; stroke:none;" d="M61 108L62 109L61 108M136 108L137 109L136 108z"/>
<path style="fill:#946637; stroke:none;" d="M169 108L170 109L169 108M61.3333 109.667L61.6667 110.333L61.3333 109.667M135 109L136 110L135 109z"/>
<path style="fill:#46321d; stroke:none;" d="M25 110L26 111L25 110z"/>
<path style="fill:#946637; stroke:none;" d="M39 111L39 112L48 111L39 111z"/>
<path style="fill:#46321d; stroke:none;" d="M62 110L63 111L62 110z"/>
<path style="fill:#946637; stroke:none;" d="M148 111L148 112L157 112L148 111M170 110L171 114L172 114L170 110z"/>
<path style="fill:#46321d; stroke:none;" d="M171 110L172 111L171 110M24.3333 111.667L24.6667 112.333L24.3333 111.667z"/>
<path style="fill:#151515; stroke:none;" d="M54 116C48.7481 111.41 29.5678 108.202 34.8627 120.946C39.6285 132.417 52.3381 124.859 54 116z"/>
<path style="fill:#46321d; stroke:none;" d="M63 111L64 112L63 111M134 111L135 112L134 111z"/>
<path style="fill:#151515; stroke:none;" d="M144 123C150.599 127.151 169.319 125.495 160.397 114.279C153.15 105.169 143.211 114.47 144 123z"/>
<path style="fill:#46321d; stroke:none;" d="M50 112L51 113L50 112z"/>
<path style="fill:#946637; stroke:none;" d="M133 112L133 118L134 118L133 112z"/>
<path style="fill:#46321d; stroke:none;" d="M147 112L148 113L147 112z"/>
<path style="fill:#946637; stroke:none;" d="M159 112L160 113L159 112M35 113L36 114L35 113M52 113L54 116L52 113z"/>
<path style="fill:#46321d; stroke:none;" d="M113 113L114 114L113 113z"/>
<path style="fill:#946637; stroke:none;" d="M145 113L144 115L145 113z"/>
<path style="fill:#46321d; stroke:none;" d="M160 113L161 114L160 113M23 114L24 115L23 114z"/>
<path style="fill:#946637; stroke:none;" d="M24 114L25 115L24 114M34 114L35 115L34 114M112 114L113 115L112 114M123 114L124 115L123 114z"/>
<path style="fill:#46321d; stroke:none;" d="M145 114L146 115L145 114M161 114L162 115L161 114z"/>
<path style="fill:#946637; stroke:none;" d="M162 114L162 123L163 123L162 114M172 114L173 115L172 114M14 115L15 116L14 115M23 115L23 118L24 118L23 115z"/>
<path style="fill:#46321d; stroke:none;" d="M52 115L53 116L52 115z"/>
<path style="fill:#946637; stroke:none;" d="M124 115L126 117L124 115z"/>
<path style="fill:#46321d; stroke:none;" d="M125 115L126 116L125 115z"/>
<path style="fill:#946637; stroke:none;" d="M143 115L144 116L143 115z"/>
<path style="fill:#46321d; stroke:none;" d="M173 115L173 118L174 118L173 115M181 115L182 116L181 115z"/>
<path style="fill:#946637; stroke:none;" d="M15 116L16 117L15 116z"/>
<path style="fill:#46321d; stroke:none;" d="M111 116L112 117L111 116z"/>
<path style="fill:#946637; stroke:none;" d="M142 116L142 121L143 121L142 116z"/>
<path style="fill:#46321d; stroke:none;" d="M180.333 116.667L180.667 117.333L180.333 116.667M17 117L18 118L17 117M53 117L53 120L54 120L53 117z"/>
<path style="fill:#946637; stroke:none;" d="M110 117L111 118L110 117z"/>
<path style="fill:#46321d; stroke:none;" d="M127 117L128 118L127 117z"/>
<path style="fill:#946637; stroke:none;" d="M18 118L18 119L23 119L18 118M64 118L64 119L110 119C98.0611 113.99 77.0034 118 64 118M128 118L128 119L133 119L128 118M174 118L174 119L180 119L174 118z"/>
<path style="fill:#46321d; stroke:none;" d="M143 120L144 121L143 120M34 121L35 122L34 121M53 121L54 122L53 121M144 121L145 122L144 121z"/>
<path style="fill:#946637; stroke:none;" d="M35.3333 122.667L35.6667 123.333L35.3333 122.667M52 122L53 123L52 122M51 123L52 124L51 123z"/>
<path style="fill:#46321d; stroke:none;" d="M145 123L146 124L145 123z"/>
<path style="fill:#946637; stroke:none;" d="M161 123L162 124L161 123M36 124L37 125L36 124z"/>
<path style="fill:#46321d; stroke:none;" d="M49 124L50 125L49 124z"/>
<path style="fill:#946637; stroke:none;" d="M50 124L51 125L50 124M146 124L147 125L146 124z"/>
<path style="fill:#46321d; stroke:none;" d="M159 124L157 125L157 126L159 124z"/>
<path style="fill:#946637; stroke:none;" d="M160 124L161 125L160 124M37 125L38 126L37 125z"/>
<path style="fill:#46321d; stroke:none;" d="M38.6667 125.333L39.3333 125.667L38.6667 125.333M48 125L49 126L48 125z"/>
<path style="fill:#946637; stroke:none;" d="M147 125L148 126L147 125M159 125L160 126L159 125z"/>
<path style="fill:#46321d; stroke:none;" d="M40 126L41 127L40 126M47 126L48 127L47 126z"/>
<path style="fill:#946637; stroke:none;" d="M148 126L149 127L148 126M156 126L157 127L156 126z"/>
<path style="fill:#ffffff; stroke:none;" d="M67 159L63 159L63 164L61 164L61 152L63 152L63 156L67 156C66.1072 144.297 56.6184 150.702 57.0193 159.999C57.4282 169.483 66.5368 167.384 67 159M70 149L70 167C75.9653 166.995 83.4906 165.257 78 158C82.8254 151.066 75.9145 149.021 70 149M85.3179 150.043C80.1947 153.256 82.528 171.071 90.6821 165.957C95.8053 162.744 93.472 144.929 85.3179 150.043M96 149L96 167C98.703 167 103.129 167.769 105.397 165.972C110.91 161.604 104.746 155.362 100 155L100 152L105 152L105 149L96 149M111.318 150.043C106.195 153.256 108.528 171.071 116.682 165.957C121.805 162.744 119.472 144.929 111.318 150.043M124 149L121 170L125 170L125 167L131 167L131 170L135 170L134 149L124 149M137 149L137 167L141 167L141 159L143 159L143 167L147 167L147 149L143 149L143 155L141 155L141 149L137 149M151 149L149 167L153 164L156 164L156 167L160 167L158 149L151 149z"/>
<path style="fill:#151515; stroke:none;" d="M74 152L74 156L76 156L76 152L74 152M87 152L87 164L89 164L89 152L87 152M113 152L113 164L115 164L115 152L113 152M154 152L153 161L156 161L154 152M128 153L126 163L130 163L130 153L128 153M100 158L100 164L103 164L103 158L100 158M74 159L74 164L76 164L76 159L74 159z"/>
<path style="fill:#ffffff; stroke:none;" d="M56 177L56 181L59 181L59 195L63 195L63 181L66 181L66 177L56 177M67 177L69 195C71.703 195 76.1289 195.769 78.3966 193.972C83.9103 189.604 77.7458 183.362 73 183L73 177L67 177M82 177L82 195L86 195L86 188C97.0177 186.732 90.5029 177.03 82 177M94 177L94 195L98 195L98 181L101 181L101 177L94 177M105.318 178.043C100.195 181.256 102.528 199.071 110.682 193.957C115.805 190.744 113.472 172.929 105.318 178.043M116 177L116 195C121.965 194.995 129.491 193.257 124 186C128.825 179.066 121.915 177.021 116 177M129 177L129 195C132.822 193.67 133.426 190.8 134 187L135 187L135 195L138 195L138 177C134.178 178.33 133.574 181.2 133 185L132 185L132 177L129 177M143 186L141 195L145 195L145 187L146 187L146 195L150 195L150 177C144.114 177.07 138.616 179.7 143 186z"/>
<path style="fill:#151515; stroke:none;" d="M86 180L86 185L88 185L88 180L86 180M107 180L107 192L109 192L109 180L107 180M120 180L120 184L122 184L122 180L120 180M145 180L145 184L146 184L145 180z"/>
<path style="fill:#46321d; stroke:none;" d="M199.333 185.667L199.667 186.333L199.333 185.667M0 186L1 187L0 186z"/>
<path style="fill:#151515; stroke:none;" d="M73 186L73 192L76 192L76 186L73 186z"/>
<path style="fill:#ffffff; stroke:none;" d="M0 187L0 200L13 200L13 199C6.07608 197.603 3.28711 192.69 0 187z"/>
<path style="fill:#151515; stroke:none;" d="M120 187L120 192L122 192L122 187L120 187z"/>
<path style="fill:#ffffff; stroke:none;" d="M199 187C197.736 193.265 193.265 197.736 187 199L187 200L200 200L199 187z"/>
<path style="fill:#46321d; stroke:none;" d="M1 190L2 191L1 190M198 190L199 191L198 190M2 192L3 193L2 192M197 192L198 193L197 192M7 197L8 198L7 197M192 197L193 198L192 197M9 198L10 199L9 198M190 198L191 199L190 198M13 199L14 200L13 199M186 199L187 200L186 199z"/>
</svg>
