<?xml version="1.0" standalone="yes"?>
<svg xmlns="http://www.w3.org/2000/svg" width="200" height="200">
<path style="fill:#ffffff; stroke:none;" d="M0 0L0 13L1 13C2.26403 6.73515 6.73516 2.26402 13 1L0 0z"/>
<path style="fill:#1a1a1a; stroke:none;" d="M13 0.468369C-4.89076 3.9368 0 28.6711 0 42L0 150C0 161.762 -4.01266 182.822 2.72762 192.985C10.6227 204.888 35.6602 200 48 200L142 200C156.407 200 173.98 202.723 188 199.316C204.82 195.227 200 170.895 200 158L200 48C200 36.5879 204.018 15.5034 196.57 6.04398C188.043 -4.78674 163.272 0 151 0L59 0C44.3244 0 27.4142 -2.32607 13 0.468369z"/>
<path style="fill:#ffffff; stroke:none;" d="M187 0L187 1C193.265 2.26404 197.736 6.73515 199 13L200 13L200 0L187 0z"/>
<path style="fill:#125e56; stroke:none;" d="M16 10L16 11L19 11L16 10z"/>
<path style="fill:#12988a; stroke:none;" d="M19 10L19 11L181 11C168.593 5.79366 146.515 10 133 10L19 10z"/>
<path style="fill:#125e56; stroke:none;" d="M181 10L181 11L184 11L181 10z"/>
<path style="fill:#27cebc; stroke:none;" d="M10 11L10 142L189 142L189 11L10 11z"/>
<path style="fill:#125e56; stroke:none;" d="M189 16L189 19L190 19L189 16z"/>
<path style="fill:#12988a; stroke:none;" d="M189 19L189 140L190 140L190 56C190 45.366 193.108 28.7892 189 19M126 24L126 25L133 25L126 24z"/>
<path style="fill:#125e56; stroke:none;" d="M125 25L126 26L125 25z"/>
<path style="fill:#1a1a1a; stroke:none;" d="M119 34L119 47L125 66C132.757 72.4278 145.244 101.886 159.852 90.9676C163.255 88.4236 162.62 84.1366 165 81L165 73L161.812 62L151 39C143.801 35.2219 133.538 18.6427 123.572 26.858C121.395 28.6526 120.734 31.8336 119 34z"/>
<path style="fill:#125e56; stroke:none;" d="M122.333 26.6667L122.667 27.3333L122.333 26.6667M135 26L136 27L135 26M136 27L137 28L136 27z"/>
<path style="fill:#12988a; stroke:none;" d="M137 27L138 28L137 27M121 28L122 29L121 28M138 28L138 29L141 29L138 28M120 29L119 34L120 34L120 29z"/>
<path style="fill:#125e56; stroke:none;" d="M140 29L141 30L140 29z"/>
<path style="fill:#12988a; stroke:none;" d="M143 31L144 32L143 31z"/>
<path style="fill:#125e56; stroke:none;" d="M143.333 32.6667L143.667 33.3333L143.333 32.6667M120 33L121 34L120 33z"/>
<path style="fill:#12988a; stroke:none;" d="M144 33L145 34L144 33M145 34L146 35L145 34z"/>
<path style="fill:#125e56; stroke:none;" d="M119 35L119 46L120 46L119 35M146 35L147 36L146 35M147 36L148 37L147 36M148 38L149 39L148 38z"/>
<path style="fill:#12988a; stroke:none;" d="M149.667 38.3333L150.333 38.6667L149.667 38.3333M151.333 39.6667L151.667 40.3333L151.333 39.6667M110 42L111 43L110 42z"/>
<path style="fill:#125e56; stroke:none;" d="M111.667 42.3333L112.333 42.6667L111.667 42.3333M151 42L152 43L151 42z"/>
<path style="fill:#12988a; stroke:none;" d="M152 42L153 43L152 42z"/>
<path style="fill:#1a1a1a; stroke:none;" d="M110 43C106.262 58.6985 113.707 85.9318 133 86L120 70L121 67C118.083 64.214 117.294 61.9795 118 58C113.76 53.9548 113.117 48.6553 113 43L110 43z"/>
<path style="fill:#12988a; stroke:none;" d="M113 43L113 50L114 50L113 43M153 43L154 44L153 43M109 44L110 45L109 44M154 44L155 45L154 44M108 45L109 46L108 45z"/>
<path style="fill:#125e56; stroke:none;" d="M155 45L155 50L156 50L155 45M108 46L108 58L109 58L108 46z"/>
<path style="fill:#12988a; stroke:none;" d="M119 47L120 56L121 56L119 47z"/>
<path style="fill:#125e56; stroke:none;" d="M120 47L121 48L120 47z"/>
<path style="fill:#1a1a1a; stroke:none;" d="M104 50C91.5889 62.0936 70.4642 73.1126 53 75C53 84.1315 54.6709 95.0377 65 98L65 99C54.1603 97.4861 51.0062 86.337 51 77C44.6051 77.9451 28.4004 84.6115 38 93L45 104C56.9234 99.7084 57.8199 103.51 67.7045 108.857C71.5689 110.948 75.1582 111.077 78.5409 114.353C85.5692 121.161 91.779 132.241 102 130L107 123L107 122L102 123L87 108L87 107L92 105L92 103L85 96C97.8591 90.9417 105.276 86 120 86L105.754 62.7137L104 50z"/>
<path style="fill:#125e56; stroke:none;" d="M105 50L105 64L106 64L105 50M114 50L114 55L115 55L114 50z"/>
<path style="fill:#12988a; stroke:none;" d="M157 50L158 51L157 50M102 51L103 52L102 51M136 51L136 52L141 52L136 51z"/>
<path style="fill:#125e56; stroke:none;" d="M141 51L143 55L144 55L141 51z"/>
<path style="fill:#12988a; stroke:none;" d="M158 51L159 52L158 51M101 52L102 53L101 52z"/>
<path style="fill:#27cebc; stroke:none;" d="M136 52C136.061 54.0703 136.091 56.0311 136.819 58.0046C143.445 75.97 154.934 52.6195 136 52z"/>
<path style="fill:#125e56; stroke:none;" d="M158 52L158 56L159 56L158 52z"/>
<path style="fill:#12988a; stroke:none;" d="M100 53L101 54L100 53z"/>
<path style="fill:#125e56; stroke:none;" d="M99 54L100 55L99 54z"/>
<path style="fill:#12988a; stroke:none;" d="M116 55L118 58L116 55M144 55L145 56L144 55M96 56L97 57L96 56z"/>
<path style="fill:#125e56; stroke:none;" d="M97 56L98 57L97 56z"/>
<path style="fill:#12988a; stroke:none;" d="M121 56L122 57L121 56M145 56L146 57L145 56z"/>
<path style="fill:#125e56; stroke:none;" d="M146.333 56.6667L146.667 57.3333L146.333 56.6667M159 56L160 57L159 56z"/>
<path style="fill:#12988a; stroke:none;" d="M160 56L160 60L161 60L160 56M95 57L96 58L95 57z"/>
<path style="fill:#125e56; stroke:none;" d="M116 57L117 58L116 57M122.333 57.6667L122.667 58.3333L122.333 57.6667z"/>
<path style="fill:#12988a; stroke:none;" d="M92 58L93 59L92 58M94 58L95 59L94 58M108 58L109 59L108 58M136 58L137 59L136 58M146 58L147 59L146 58M91 59L92 60L91 59z"/>
<path style="fill:#125e56; stroke:none;" d="M117 59L117 64L118 64L117 59z"/>
<path style="fill:#12988a; stroke:none;" d="M123.333 59.6667L123.667 60.3333L123.333 59.6667z"/>
<path style="fill:#125e56; stroke:none;" d="M137.333 59.6667L137.667 60.3333L137.333 59.6667M90 60L91 61L90 60M161.333 60.6667L161.667 61.3333L161.333 60.6667z"/>
<path style="fill:#12988a; stroke:none;" d="M87 61L88 62L87 61z"/>
<path style="fill:#125e56; stroke:none;" d="M88.6667 61.3333L89.3333 61.6667L88.6667 61.3333z"/>
<path style="fill:#12988a; stroke:none;" d="M124 61L125 62L124 61z"/>
<path style="fill:#125e56; stroke:none;" d="M138 61L139 62L138 61M87.3333 62.6667L87.6667 63.3333L87.3333 62.6667M125 62L125 65L126 65L125 62z"/>
<path style="fill:#12988a; stroke:none;" d="M162 62L163 63L162 62M83.6667 63.3333L84.3333 63.6667L83.6667 63.3333M118 63L119 64L118 63M139 63L140 64L139 63M163 63L163 72L164 72L163 63M82 64L83 65L82 64M107 64L108 65L107 64M119 64L121 67L119 64z"/>
<path style="fill:#125e56; stroke:none;" d="M140 64L141 65L140 64z"/>
<path style="fill:#12988a; stroke:none;" d="M79 65L80 66L79 65z"/>
<path style="fill:#125e56; stroke:none;" d="M111 65L112 66L111 65M141 65L142 66L141 65z"/>
<path style="fill:#12988a; stroke:none;" d="M146 65L147 66L146 65M78 66L79 67L78 66z"/>
<path style="fill:#125e56; stroke:none;" d="M107 66L108 69L109 69L107 66z"/>
<path style="fill:#12988a; stroke:none;" d="M108 66L109 67L108 66M111.333 66.6667L111.667 67.3333L111.333 66.6667z"/>
<path style="fill:#125e56; stroke:none;" d="M119 66L120 67L119 66z"/>
<path style="fill:#12988a; stroke:none;" d="M125 66L126 67L125 66z"/>
<path style="fill:#125e56; stroke:none;" d="M126 66L127 67L126 66M142 66L142 67L146 67L142 66z"/>
<path style="fill:#12988a; stroke:none;" d="M72 67L72 68L78 68L72 67z"/>
<path style="fill:#125e56; stroke:none;" d="M112 67L113 68L112 67M127 67L128 68L127 67z"/>
<path style="fill:#12988a; stroke:none;" d="M71 68L72 69L71 68z"/>
<path style="fill:#125e56; stroke:none;" d="M120.333 68.6667L120.667 69.3333L120.333 68.6667M128 68L128 72L129 72L128 68z"/>
<path style="fill:#12988a; stroke:none;" d="M70 69L71 70L70 69M110 69L110 74L111 74L110 69M64 70L65 71L64 70M122.333 70.6667L122.667 71.3333L122.333 70.6667M63 71L64 72L63 71M60 72L60 73L63 73L60 72z"/>
<path style="fill:#125e56; stroke:none;" d="M113 72L114 73L113 72M122 72L123 73L122 72z"/>
<path style="fill:#12988a; stroke:none;" d="M128 72L129 73L128 72z"/>
<path style="fill:#125e56; stroke:none;" d="M163 72L164 73L163 72z"/>
<path style="fill:#12988a; stroke:none;" d="M59 73L60 74L59 73M114 73L115 74L114 73M129 73L130 74L129 73z"/>
<path style="fill:#125e56; stroke:none;" d="M55 74L56 75L55 74M111 74L112 75L111 74z"/>
<path style="fill:#12988a; stroke:none;" d="M125 74L127 77L125 74z"/>
<path style="fill:#125e56; stroke:none;" d="M131 74L132 75L131 74M164 74L164 80L165 80L164 74z"/>
<path style="fill:#12988a; stroke:none;" d="M52 75L53 76L52 75z"/>
<path style="fill:#125e56; stroke:none;" d="M54 75L55 76L54 75M112 75L113 76L112 75z"/>
<path style="fill:#12988a; stroke:none;" d="M113.333 75.6667L113.667 76.3333L113.333 75.6667z"/>
<path style="fill:#125e56; stroke:none;" d="M132 75L133 76L132 75M48.6667 76.3333L49.3333 76.6667L48.6667 76.3333z"/>
<path style="fill:#12988a; stroke:none;" d="M50 76L51 77L50 76z"/>
<path style="fill:#125e56; stroke:none;" d="M52 76L51 87L54 87L54 86L52 76z"/>
<path style="fill:#12988a; stroke:none;" d="M116 76L117 79L118 79L116 76z"/>
<path style="fill:#125e56; stroke:none;" d="M117 76L118 77L117 76M125 76L126 77L125 76z"/>
<path style="fill:#12988a; stroke:none;" d="M132 76L132 79L133 79L132 76M45.6667 77.3333L46.3333 77.6667L45.6667 77.3333z"/>
<path style="fill:#125e56; stroke:none;" d="M47 77L48 78L47 77M113 77L114 78L113 77z"/>
<path style="fill:#12988a; stroke:none;" d="M44 78L45 79L44 78z"/>
<path style="fill:#125e56; stroke:none;" d="M114.333 78.6667L114.667 79.3333L114.333 78.6667z"/>
<path style="fill:#12988a; stroke:none;" d="M41 79L42 80L41 79M128 79L130 82L128 79z"/>
<path style="fill:#125e56; stroke:none;" d="M134 79L135 80L134 79z"/>
<path style="fill:#12988a; stroke:none;" d="M37 80L38 81L37 80z"/>
<path style="fill:#125e56; stroke:none;" d="M38 80L38 81L41 81L38 80M115 80L116 81L115 80M120 80L121 81L120 80M135 80L136 81L135 80M36 81L37 82L36 81M116 81L117 82L116 81z"/>
<path style="fill:#12988a; stroke:none;" d="M117 81L118 82L117 81M120.333 81.6667L120.667 82.3333L120.333 81.6667z"/>
<path style="fill:#125e56; stroke:none;" d="M128 81L129 82L128 81z"/>
<path style="fill:#12988a; stroke:none;" d="M135.333 81.6667L135.667 82.3333L135.333 81.6667z"/>
<path style="fill:#125e56; stroke:none;" d="M163 81L164 82L163 81z"/>
<path style="fill:#12988a; stroke:none;" d="M164 81L165 82L164 81M35 82C35 86.1182 36.2416 92.8104 33 92L34 97L35 97L35 82M118 82L119 83L118 82M130 82L131 83L130 82z"/>
<path style="fill:#125e56; stroke:none;" d="M136 82L137 83L136 82z"/>
<path style="fill:#12988a; stroke:none;" d="M163 82L163 89L164 89L163 82M119.333 83.6667L119.667 84.3333L119.333 83.6667M123.333 83.6667L123.667 84.3333L123.333 83.6667z"/>
<path style="fill:#125e56; stroke:none;" d="M131 83L132 84L131 83z"/>
<path style="fill:#12988a; stroke:none;" d="M138 83L139 84L138 83z"/>
<path style="fill:#125e56; stroke:none;" d="M132 84L133 85L132 84M140 84L142 87L140 84M120 85L104 86L104 87L120 85z"/>
<path style="fill:#12988a; stroke:none;" d="M124 85L125 86L124 85M29 90L30 90L33 87L29 90M125 86L126 87L125 86z"/>
<path style="fill:#125e56; stroke:none;" d="M126 86L126 87L133 87L126 86z"/>
<path style="fill:#12988a; stroke:none;" d="M140 86L141 87L140 86z"/>
<path style="fill:#1a1a1a; stroke:none;" d="M31 87C27.109 93.4222 28.901 100.087 37 101L33 87L31 87z"/>
<path style="fill:#12988a; stroke:none;" d="M52.3333 87.6667L52.6667 88.3333L52.3333 87.6667z"/>
<path style="fill:#27cebc; stroke:none;" d="M53 87L58 95L53 87z"/>
<path style="fill:#125e56; stroke:none;" d="M103 87L104 88L103 87M142 87L143 88L142 87M32 88L32 92L33 92L32 88z"/>
<path style="fill:#12988a; stroke:none;" d="M101 88L102 89L101 88z"/>
<path style="fill:#125e56; stroke:none;" d="M143 88L144 89L143 88M52 89L53 90L52 89M55 89L56 90L55 89M93 89L92 92L93 89z"/>
<path style="fill:#12988a; stroke:none;" d="M95 89L95 90L101 90L95 89M144 89L145 90L144 89z"/>
<path style="fill:#125e56; stroke:none;" d="M146 89L147 90L146 89z"/>
<path style="fill:#12988a; stroke:none;" d="M162 89L163 90L162 89z"/>
<path style="fill:#125e56; stroke:none;" d="M28 90L29 91L28 90M53 90L54 91L53 90M56 90L57 91L56 90M147 90L148 91L147 90M160 90L161 91L160 90z"/>
<path style="fill:#12988a; stroke:none;" d="M161 90L162 91L161 90M93 91L94 92L93 91z"/>
<path style="fill:#125e56; stroke:none;" d="M148 91L149 92L148 91M159 91L160 92L159 91z"/>
<path style="fill:#12988a; stroke:none;" d="M54 92L55 93L54 92z"/>
<path style="fill:#125e56; stroke:none;" d="M57 92L58 93L57 92M91 92L92 93L91 92z"/>
<path style="fill:#12988a; stroke:none;" d="M149 92L150 93L149 92z"/>
<path style="fill:#125e56; stroke:none;" d="M158 92L159 93L158 92z"/>
<path style="fill:#27cebc; stroke:none;" d="M35 93L38 99L37 93L35 93z"/>
<path style="fill:#125e56; stroke:none;" d="M37.3333 93.6667L37.6667 94.3333L37.3333 93.6667M55 93L56 94L55 93M58 93L59 94L58 93M90 93L91 94L90 93M56 94L57 95L56 94z"/>
<path style="fill:#12988a; stroke:none;" d="M58 94L60 97L58 94M89 94L90 95L89 94M28 95L29 99L30 99L28 95z"/>
<path style="fill:#125e56; stroke:none;" d="M29 95L30 96L29 95M57 95L58 96L57 95M86 95L87 96L86 95z"/>
<path style="fill:#12988a; stroke:none;" d="M87.6667 95.3333L88.3333 95.6667L87.6667 95.3333M37 96L38 97L37 96z"/>
<path style="fill:#125e56; stroke:none;" d="M58 96L59 97L58 96M60 96L61 97L60 96M85 96L86 97L85 96M34 97L35 98L34 97z"/>
<path style="fill:#12988a; stroke:none;" d="M38.3333 97.6667L38.6667 98.3333L38.3333 97.6667z"/>
<path style="fill:#27cebc; stroke:none;" d="M60 97L60 98L64 99L64 98L60 97z"/>
<path style="fill:#12988a; stroke:none;" d="M61 97L62 98L61 97M86 97L87 98L86 97z"/>
<path style="fill:#125e56; stroke:none;" d="M35 98L36 99L35 98z"/>
<path style="fill:#12988a; stroke:none;" d="M60 98L61 99L60 98z"/>
<path style="fill:#125e56; stroke:none;" d="M64 98L65 99L64 98z"/>
<path style="fill:#12988a; stroke:none;" d="M87.3333 98.6667L87.6667 99.3333L87.3333 98.6667M30 99L31 100L30 99M37 99L38 100L37 99M39 99L39 100L41 102L42 102L39 99z"/>
<path style="fill:#125e56; stroke:none;" d="M41 99L42 100L41 99z"/>
<path style="fill:#12988a; stroke:none;" d="M31 100L33 102L31 100z"/>
<path style="fill:#125e56; stroke:none;" d="M32 100L33 101L32 100M37 100L33 101L33 102L38 101L37 100z"/>
<path style="fill:#12988a; stroke:none;" d="M56.6667 100.333L57.3333 100.667L56.6667 100.333M88 100L89 101L88 100M37 101L38 102L37 101z"/>
<path style="fill:#125e56; stroke:none;" d="M42.6667 101.333L43.3333 101.667L42.6667 101.333M50 101L50 102L55 102L50 101z"/>
<path style="fill:#12988a; stroke:none;" d="M55 101L56 102L55 101M58 101L59 102L58 101M89 101L90 102L89 101M44.3333 102.667L44.6667 103.333L44.3333 102.667M49 102L50 103L49 102z"/>
<path style="fill:#125e56; stroke:none;" d="M60 102L61 103L60 102M90 102L91 103L90 102M46 103L47 104L46 103M61 103L65 106L65 105L61 103z"/>
<path style="fill:#12988a; stroke:none;" d="M45 104L46 105L45 104M61 105L62 106L61 105M91 105L92 106L91 105M64.3333 106.667L64.6667 107.333L64.3333 106.667z"/>
<path style="fill:#125e56; stroke:none;" d="M88.6667 106.333L89.3333 106.667L88.6667 106.333z"/>
<path style="fill:#12988a; stroke:none;" d="M90 106L91 107L90 106z"/>
<path style="fill:#125e56; stroke:none;" d="M87 107L88 108L87 107M67 108L75 111L75 110L67 108M88 108L89 109L88 108z"/>
<path style="fill:#12988a; stroke:none;" d="M90 109L91 110L90 109M67 110L68 111L67 110z"/>
<path style="fill:#125e56; stroke:none;" d="M90.3333 110.667L90.6667 111.333L90.3333 110.667M75 111L76 112L75 111z"/>
<path style="fill:#12988a; stroke:none;" d="M91.6667 111.333L92.3333 111.667L91.6667 111.333M76 112L77 113L76 112z"/>
<path style="fill:#125e56; stroke:none;" d="M93.3333 112.667L93.6667 113.333L93.3333 112.667M79 114L80 115L79 114M94 114L95 115L94 114z"/>
<path style="fill:#12988a; stroke:none;" d="M79.3333 115.667L79.6667 116.333L79.3333 115.667z"/>
<path style="fill:#125e56; stroke:none;" d="M95 115L96 116L95 115M96 116L97 117L96 116M81 117L82 118L81 117z"/>
<path style="fill:#12988a; stroke:none;" d="M98 117L99 118L98 117M82 118L82 121L83 121L82 118z"/>
<path style="fill:#125e56; stroke:none;" d="M99.3333 118.667L99.6667 119.333L99.3333 118.667M83 120L83 121L86 121L83 120z"/>
<path style="fill:#12988a; stroke:none;" d="M100 120L101 121L100 120z"/>
<path style="fill:#125e56; stroke:none;" d="M101 120L102 123L103 123L101 120z"/>
<path style="fill:#12988a; stroke:none;" d="M102 120L103 121L102 120M104 121L104 122L107 122L104 121z"/>
<path style="fill:#125e56; stroke:none;" d="M87 122L89 125L87 122z"/>
<path style="fill:#12988a; stroke:none;" d="M107 122L108 123L107 122z"/>
<path style="fill:#125e56; stroke:none;" d="M105 123L104 126L105 123z"/>
<path style="fill:#12988a; stroke:none;" d="M87 124L88 125L87 124z"/>
<path style="fill:#125e56; stroke:none;" d="M89 125L90 126L89 125z"/>
<path style="fill:#12988a; stroke:none;" d="M105 125L106 126L105 125z"/>
<path style="fill:#125e56; stroke:none;" d="M90 126L91 127L90 126M103 126L104 127L103 126z"/>
<path style="fill:#12988a; stroke:none;" d="M91 127L92 128L91 127z"/>
<path style="fill:#125e56; stroke:none;" d="M102 127L98 130L98 131C100.758 130.549 102.688 130.046 102 127M93.3333 128.667L93.6667 129.333L93.3333 128.667z"/>
<path style="fill:#12988a; stroke:none;" d="M93 130L94 131L93 130M102 130L103 131L102 130z"/>
<path style="fill:#ffffff; stroke:none;" d="M49 158L45 158L45 164L42 164L42 150L45 150L45 155L49 155C48.7421 150.333 43.6351 142.973 39.179 149.434C37.4393 151.956 37.9251 156.1 38.0154 158.999C38.3468 169.636 48.6863 167.659 49 158M52 147L52 167C58.8269 166.995 67.073 164.018 61 156C66.2428 148.466 57.91 147.005 52 147M69.2276 147.758C63.0854 150.408 64.3876 170.292 73.7724 166.242C79.9146 163.592 78.6124 143.708 69.2276 147.758M80 147L80 167C82.7031 167 87.1287 167.769 89.3966 165.972C95.0055 161.529 89.1266 154.391 84 154L84 150L89 150L89 147L80 147M97.2276 147.758C91.0854 150.408 92.3876 170.292 101.772 166.242C107.915 163.592 106.612 143.708 97.2276 147.758M110 147L107 170L111 170L111 167L118 167L118 170L122 170L121 147L110 147M125 147L123 167L127 167L127 163L130 163L130 167L134 167L132 147L125 147M140 147L140 167L144 167L144 158L147 158L147 167L151 167L151 147L147 147L147 154L144 154L144 147L140 147M155 147L153 167L157 167L157 163L160 163L160 167L164 167L162 147L155 147z"/>
<path style="fill:#1a1a1a; stroke:none;" d="M56 150L56 154L59 154L59 150L56 150M70 150L70 164L73 164L73 150L70 150M98 150L98 164L101 164L101 150L98 150M128 150L127 160L130 160L128 150M158 150L157 160L160 160L158 150M114 151L112 163L117 163L117 151L114 151M84 157L84 164L87 164L87 157L84 157M56 158L56 164L59 164L59 158L56 158z"/>
<path style="fill:#ffffff; stroke:none;" d="M38 177L38 197C42.9222 196.148 43.5994 192.551 44 188L45 188L45 197L49 197L49 177C44.0778 177.852 43.4006 181.449 43 186L42 186L42 177L38 177M52 184L56 184L56 180L58 180L55 185L55 188L58 188L58 194L56 194L56 189L52 189C52.4142 201.718 66.4674 195.235 60 186C65.6154 178.461 52.8367 173.033 52 184M65 177L65 197L69 197L69 189C73.9393 188.623 79.2311 183.442 74.3966 178.603C72.1441 176.349 67.8921 177.002 65 177M79 177L77 197L81 197L81 193L84 193L84 197L88 197L86 177L79 177M90 184L94 184L94 180L96 180L93 185L93 188L96 188L96 194L94 194L94 189L90 189C90.4142 201.718 104.467 195.236 98 186C103.615 178.461 90.8367 173.033 90 184M105 186L105 187L103 197L107 197L107 188L109 188L109 197L113 197L113 177C107.289 177.02 99.8723 179.188 105 186M116 177L116 197C122.827 196.995 131.073 194.018 125 186C130.243 178.466 121.91 177.005 116 177M131 177L129 197L133 197L133 193L136 193L136 197L140 197L138 177L131 177M142 177L142 197L146 197L146 188L149 188L149 197L153 197L153 177L149 177L149 184L146 184L146 177L142 177M156 177L156 197L164 197L164 193L160 193L160 189L163 189L163 185L160 185L160 181L163 181L163 177L156 177z"/>
<path style="fill:#1a1a1a; stroke:none;" d="M69 180L69 186L72 186L72 180L69 180M82 180L81 190L84 190L82 180M107 180L107 184L109 184L109 180L107 180M120 180L120 184L123 184L123 180L120 180M134 180L133 190L136 190L134 180z"/>
<path style="fill:#ffffff; stroke:none;" d="M0 187L0 200L13 200L13 199C6.07608 197.603 3.28711 192.69 0 187M199 187C197.736 193.265 193.265 197.736 187 199L187 200L200 200L199 187z"/>
<path style="fill:#1a1a1a; stroke:none;" d="M120 188L120 194L123 194L123 188L120 188z"/>
</svg>
